<svg xmlns="http://www.w3.org/2000/svg" viewBox="0 0 247.61 235.14"><defs><style>.cls-1{fill:#ffde55;}.cls-2{fill:#448aff;}</style></defs><title>a_pic</title><g id="Layer_2" data-name="Layer 2"><g id="图层_5" data-name="图层 5"><rect class="cls-1" width="247.61" height="235.14" rx="38" ry="38"/></g><g id="图层_24" data-name="图层 24"><path class="cls-2" d="M111,59.05s57.14-12.18,103,58.07c0,0,31.85,37.47-24.35,54.33S52.83,163.87,42.6,152.72-24.84,107.76,111,59.05Z"/><path class="cls-1" d="M158,61.1s-15,19-46,22c0,0,37,4,57-14Z"/><path class="cls-1" d="M187,77.1s-12,38-70,31c0,0-24-1-44-10,0,0,29,25,64,22s68-27,70-34Z"/><path class="cls-1" d="M218,116.1s-10,25-93,27c0,0-46,0-75-20,0,0,29,31,74,28,0,0,68,3,98-30Z"/></g></g></svg>