<svg xmlns="http://www.w3.org/2000/svg" viewBox="0 0 1996.08 1067.42"><defs><style>.cls-1{fill:#9dd2b7;}.cls-2{fill:#91c9aa;}.cls-3{fill:#84bf9e;}.cls-4{fill:#77b692;}.cls-5{fill:#d6992e;}.cls-6{fill:#6e4c43;}.cls-7{fill:#d7d738;}.cls-8{fill:#e57373;}.cls-9{fill:#448aff;}.cls-10{fill:#44bcc6;}</style></defs><title>A_step3</title><g id="Layer_2" data-name="Layer 2"><g id="图层_4" data-name="图层 4"><rect class="cls-1" x="65.61" y="305.57" width="113.48" height="272.77" rx="56.74" ry="56.74" transform="translate(-311.26 292.69) rotate(-55.53)"/><rect class="cls-2" x="89" y="343.55" width="93.91" height="214.53" rx="46.95" ry="46.95" transform="translate(-312.66 307.75) rotate(-55.53)"/><rect class="cls-3" x="112.38" y="381.54" width="74.34" height="156.28" rx="37.17" ry="37.17" transform="translate(-314.06 322.81) rotate(-55.53)"/><rect class="cls-4" x="135.77" y="419.52" width="54.76" height="98.04" rx="27.38" ry="27.38" transform="translate(-315.46 337.87) rotate(-55.53)"/><rect class="cls-1" x="109.1" y="339.16" width="1472.88" height="612.74" rx="306.37" ry="306.37"/><rect class="cls-2" x="178.73" y="394.12" width="1158.38" height="507.07" rx="253.53" ry="253.53"/><rect class="cls-3" x="248.35" y="449.08" width="843.88" height="401.39" rx="200.69" ry="200.69"/><rect class="cls-4" x="317.97" y="504.04" width="529.37" height="295.71" rx="147.86" ry="147.86"/><path class="cls-5" d="M488.71,488.68l31.22-14.6c4.79-2.24,9.87-5.34,15.11-6.27,7-1.23,12.57,3.12,17.63,7.29,8.07,6.65,16.39,13.71,21.11,23.24,4.43,9,5.34,19.19,4.23,29-4.35,38.4-39.35,67.3-38.25,106.84.45,16.36,7.14,33.07,22.15,41.08,1.71.91,3.22-1.68,1.52-2.59-16.26-8.68-21.84-28-20.5-45.33,1.6-20.93,13.66-39.44,23.21-57.53,9-17,16.88-35.8,15.06-55.41s-14.92-32.88-29.9-44.23c-3.8-2.89-8.16-5.48-13.07-5.62-5.22-.16-10,2.35-14.61,4.5q-18.22,8.51-36.42,17c-1.75.81-.23,3.4,1.51,2.59Z"/><path class="cls-5" d="M566.87,663.85c-3.93,3.52-1.49,9.7,3,11.57,7.31,3.08,15.41-5.35,20.5-9.25,16.76-12.84,33.15-27.32,51.46-37.91,17.38-10,37.19-13,55.65-3.94a52.41,52.41,0,0,1,29.5,44.41c1.08,20.9-9.45,37.9-25.82,50.06-7.83,5.82-16.23,10.93-24.53,16-9,5.53-18.28,10.81-28.17,14.64-9.28,3.59-18.63,5.23-28.5,6.17-6.88.65-14.27,1.33-20.39,4.83-14.55,8.31-9.63,26.93-1.13,37.88,10.21,13.15,26.79,19.74,42.76,22.48,10.37,1.78,36.22,5.89,37.77-10.16.19-1.92-2.81-1.9-3,0-1.44,14.9-33.59,7.75-42.13,5.52-14.44-3.76-28.88-11.32-36.42-24.76-4.54-8.1-7.06-19.71,1-26.55,6.12-5.18,15.29-5.66,22.89-6.37,17.32-1.6,32.69-7.2,47.8-15.75,14.86-8.4,30.85-17.48,43.18-29.43A57.45,57.45,0,0,0,730,672.52c.4-30.6-24.28-55.76-54.76-56.84-19.36-.69-36.29,9.82-51.23,21-9,6.72-17.87,13.63-26.78,20.47-4.6,3.51-9.18,7-13.78,10.55-2.3,1.75-4.73,3.78-7.5,4.73-1.73.59-3.92.91-5.59-.06-2-1.18-3.6-4.39-1.38-6.37,1.44-1.3-.69-3.41-2.12-2.13Z"/><path class="cls-5" d="M623.49,513.59c23,16.26,19.12,51.89,2.72,71.44-20.77,24.76-54.87,31.81-84.76,38.89-29.47,7-60.86,15.8-80.42,40.69-17.17,21.86-23.45,52.13-14.9,78.76A87.62,87.62,0,0,0,501,798.91c7.93,2.63,16.5,4.23,24.85,3.08,7.42-1,14-4.55,20-8.93,14.3-10.48,27.43-22.86,41-34.31l22.72-19.24c6.83-5.78,13.56-12.08,21.58-16.2,14.51-7.44,33.15-4.68,44.52,7.2s13.36,31.29,4.79,45.43c-7.79,12.85-22,20.17-35.56,25.55-17,6.74-34.51,12.19-51.76,18.15l-27.23,9.41c-7.2,2.49-23,11.25-26.7.25-2.62-7.89-3.12-17-3.74-25.27a195.29,195.29,0,0,1,20-102.09c.85-1.72-1.73-3.25-2.59-1.51a200.27,200.27,0,0,0-20.45,102.74,158,158,0,0,0,3.39,25c1.38,5.92,4.89,10.09,11.36,9.73,3.51-.19,6.89-1.55,10.16-2.68l15-5.19,29.1-10.06c16.93-5.85,34.36-11,50.74-18.29,12.82-5.71,25.61-13.81,32.24-26.65a41.42,41.42,0,0,0-1.15-39.3c-7-12-20.26-19.25-34.06-19.59-16.72-.41-29,10.46-41,20.64l-47.71,40.4c-7.1,6-14.06,12.66-22.18,17.3-9.55,5.45-20,5.85-30.54,3.28a82.55,82.55,0,0,1-54.46-114.81c15.35-33.08,48.47-46.16,81.77-54.37,30.6-7.55,64.46-13.26,88.13-35.95,17.71-17,26.28-46.78,13.39-69.12A39.37,39.37,0,0,0,625,511c-1.58-1.12-3.08,1.48-1.51,2.59Z"/><path class="cls-5" d="M424.23,566.24c12.28,48.9,25.68,102.1,63.43,138.17,16.85,16.11,38.05,28.61,61.19,32.71a89.69,89.69,0,0,0,60.63-10.72c37.16-21.47,58.08-64,71.33-103.19,8-23.76,14.77-49.4,12.05-74.69A84.23,84.23,0,0,0,682,515c-3.49-6-7.63-12.14-8-19.34-.32-6.78,2.72-13.25,7.28-18.15,20.18-21.69,50.4-4.07,62.13,17.14,6.55,11.83,9.62,25.2,12,38.4,2.64,14.61,4.65,29.33,6.14,44.1a607.45,607.45,0,0,1-7.9,176.28c-2.75,14.2-5.95,28.34-9.77,42.3-1.66,6.06-3.6,12.83-9.24,16.4-5.95,3.77-13.29,2.2-19.2-.76-11.59-5.81-19.36-17-25.26-28.21a106.47,106.47,0,0,1-11.66-38.11c-1.43-13.19.25-26.06,2.53-39,2.1-12,4.53-24.27,3.14-36.45-2.4-21-18-35.31-38.64-37.83-50.5-6.18-76.46,50.5-93.05,88.3-20,45.5-43.29,99.86-97.25,112a66.11,66.11,0,0,1-35.34-1.56l1.1,1.45a154.37,154.37,0,0,1,5.28-61.39c.55-1.86-2.34-2.65-2.89-.8A156.54,156.54,0,0,0,418,831.91a1.58,1.58,0,0,0,1.1,1.45c22.09,7.23,45.43,1.81,64.88-10,21-12.79,36.4-31.77,48.22-53.06,13.23-23.84,22.4-49.64,34.54-74,11.21-22.49,25.79-46.11,49.47-57.06,19.92-9.21,48.49-5.9,60,14.7,13.29,23.67-.92,53-1.35,78.1-.42,24.8,7.95,50.08,23.64,69.38C704.81,809,714,816,724.05,817.2c9.83,1.16,17-4.68,20.51-13.54,5-12.67,7.36-26.89,10.15-40.17q4.5-21.45,7.43-43.18a612,612,0,0,0,5.49-88.5,607.71,607.71,0,0,0-7.18-86.88c-3.83-24.57-8.42-52.56-28.76-69.34-16.23-13.39-40.61-15.81-54.56,2.24a27,27,0,0,0-3.55,28c2.53,5.79,6.29,10.93,9,16.61a77.82,77.82,0,0,1,6.38,20c4.84,26.83-2.52,54.69-11.08,80-7.32,21.66-16.71,42.87-29.56,61.86C636,702.52,620,719,599.61,728.09c-22.92,10.28-48.67,9.34-71.62-.32-51.24-21.58-76.06-73.66-90.73-124-3.69-12.68-6.92-25.48-10.14-38.29-.47-1.87-3.37-1.08-2.89.8Z"/><path class="cls-6" d="M1275.23,755.44H966.83c-7,0-12.78,3.59-12.78,8v87c0,4.39,5.75,8,12.78,8h308.4c7,0,12.78-3.59,12.78-8v-87C1288,759,1282.26,755.44,1275.23,755.44Zm6.13,89.78c0,4.38-5.75,8-12.78,8H973c-7,0-12.78-3.59-12.78-8V767.05c0-4.39,5.75-8,12.78-8h295.62c7,0,12.78,3.59,12.78,8Z"/><rect class="cls-7" x="992.72" y="745.21" width="38.26" height="20.45"/><rect class="cls-8" x="1038.48" y="745.21" width="59.14" height="20.45"/><rect class="cls-8" x="1190.19" y="745.21" width="59.14" height="20.45"/><rect class="cls-9" x="1105.12" y="745.21" width="76.95" height="20.45"/><circle class="cls-10" cx="1274.15" cy="733.78" r="22.04"/><rect class="cls-9" x="1057.98" y="434.56" width="80.4" height="24"/><rect class="cls-9" x="960.78" y="487.66" width="80.4" height="24"/><rect class="cls-9" x="1098.18" y="527.26" width="80.4" height="24"/><rect class="cls-9" x="1017.78" y="572.86" width="80.4" height="24"/><rect class="cls-9" x="1208.58" y="487.66" width="80.4" height="24"/><rect class="cls-9" x="1214.58" y="596.86" width="80.4" height="24"/><rect class="cls-1" x="1481.15" y="745.82" width="546.09" height="227.18" rx="113.59" ry="113.59" transform="translate(-167.95 1207.44) rotate(-36.36)"/><rect class="cls-2" x="1513.76" y="785.3" width="429.49" height="188" rx="94" ry="94" transform="translate(-184.75 1196.08) rotate(-36.36)"/><rect class="cls-3" x="1546.37" y="824.79" width="312.88" height="148.82" rx="74.41" ry="74.41" transform="translate(-201.56 1184.72) rotate(-36.36)"/><rect class="cls-4" x="1578.98" y="864.28" width="196.27" height="109.64" rx="54.82" ry="54.82" transform="translate(-218.36 1173.36) rotate(-36.36)"/><rect class="cls-1" x="1042.6" y="-30.87" width="113.48" height="272.77" rx="56.74" ry="56.74" transform="translate(341.86 909.2) rotate(-52.18)"/><rect class="cls-2" x="1065.44" y="7.89" width="93.91" height="214.53" rx="46.95" ry="46.95" transform="translate(339.3 923.25) rotate(-52.18)"/><rect class="cls-3" x="1088.29" y="46.66" width="74.34" height="156.28" rx="37.17" ry="37.17" transform="matrix(0.61, -0.79, 0.79, 0.61, 336.73, 937.29)"/><rect class="cls-4" x="1111.13" y="85.42" width="54.76" height="98.04" rx="27.38" ry="27.38" transform="translate(334.17 951.34) rotate(-52.18)"/></g></g></svg>