<svg xmlns="http://www.w3.org/2000/svg" viewBox="0 0 1012.31 991.77"><defs><style>.cls-1{fill:#c09535;}.cls-2{fill:none;stroke:#fff;stroke-miterlimit:10;stroke-width:10px;stroke-dasharray:11.67 11.67;}.cls-3{fill:#538686;}.cls-4{fill:#49879e;}.cls-5{fill:#3e88b5;}.cls-6{fill:#3087c9;}</style></defs><title>A_step1</title><g id="Layer_2" data-name="Layer 2"><g id="图层_4" data-name="图层 4"><path class="cls-1" d="M196.36,534.88c-28.65,33.14-40.76,78.63-33.13,121.7,4.07,23,15,43.08,25.83,63.44s20.4,41.47,18.88,65a87.48,87.48,0,0,1-33.22,62.63c-4.56,3.57,1.85,9.9,6.36,6.37a95.32,95.32,0,0,0,33.35-52.4c5.28-21.81,1.94-43.42-6.75-63.87-9.3-21.88-23.25-41.66-30.86-64.28a135.62,135.62,0,0,1-5.1-64.91c4.08-24.76,14.56-48.29,31-67.31,3.77-4.36-2.57-10.75-6.36-6.36Z"/><path class="cls-1" d="M235.42,567.07a189.68,189.68,0,0,0,50.86,119.75c15.27,16.25,36.57,27.64,49,46.44,13,19.71,12.75,45.13,6.24,67.07-8.13,27.36-24.75,51.63-39.31,75.87-3,5,4.79,9.51,7.77,4.55,23.83-39.69,56.65-86.32,41.06-135.07-7.5-23.44-26.64-36.69-44.47-52a179.4,179.4,0,0,1-62.12-126.64c-.28-5.76-9.28-5.8-9,0Z"/><path class="cls-1" d="M330.29,549.37c11.94,31,25.25,61.63,51,83.66,23,19.62,50.85,31.77,77.52,45.36,27.92,14.24,54.37,30.83,72.71,56.9,18.64,26.51,28.47,58.8,26.77,91.23a145.86,145.86,0,0,1-13.25,53.33,150.66,150.66,0,0,1-13.8,23.86,134.6,134.6,0,0,1-8.85,11.19,33.3,33.3,0,0,1-4.41,4.77c-.41.31-1.23.61-1.6,1l-1,.28q-2.42-.17.39,2.67c1.19-5.65-7.48-8.06-8.68-2.39-1.38,6.56,4.33,9.66,10.17,8.49,7.42-1.48,12.33-9.08,16.72-14.65a157.15,157.15,0,0,0,25.09-46,152.46,152.46,0,0,0-.95-102.27C546.24,734.66,524.48,708,496,689.21c-27.64-18.31-59-29.87-87.17-47.31-16.13-10-30.92-22.18-41.95-37.77C354.59,586.71,346.6,566.76,339,547c-2.06-5.35-10.77-3-8.68,2.39Z"/><circle class="cls-1" cx="174.52" cy="857.7" r="29.31"/><circle class="cls-1" cx="29.31" cy="753.31" r="29.31"/><circle class="cls-1" cx="306.42" cy="887.01" r="29.31"/><circle class="cls-1" cx="508.38" cy="923.57" r="29.31"/><path class="cls-1" d="M143.33,540.77a723.34,723.34,0,0,0-65.78,71.36c-19,23.65-39.41,48.71-50.63,77.19-6.48,16.42-8.4,33.9-4.55,51.19,1.25,5.66,9.93,3.26,8.67-2.39-6.73-30.33,8.13-58,24.89-82.26A686.84,686.84,0,0,1,113.45,584q17.44-19.1,36.24-36.9c4.21-4-2.16-10.36-6.36-6.37Z"/><circle class="cls-2" cx="504.18" cy="923.61" r="63.15"/><path class="cls-3" d="M212.51,590.07S-54.15,592,144.4,393.45,531.85-7.5,761.24.21,1079.3,279.72,957.86,455.14,212.51,590.07,212.51,590.07Z"/><path class="cls-4" d="M205.88,586S-13,587.58,150,425.74,468.06,98.92,656.38,105.2,917.5,333,817.8,476,205.88,586,205.88,586Z"/><path class="cls-5" d="M199.26,582S28.08,583.16,155.54,458s248.72-252.7,396-247.84S755.7,386.35,677.74,496.91,199.26,582,199.26,582Z"/><path class="cls-6" d="M192.64,577.88s-123.45.86-31.53-87.56S340.47,311.75,446.66,315.18s147.24,124.49,91,202.61S192.64,577.88,192.64,577.88Z"/></g></g></svg>