<svg xmlns="http://www.w3.org/2000/svg" viewBox="0 0 764.29 764.29"><defs><style>.cls-1{fill:#aed1ca;}.cls-2,.cls-3{fill:#dabf9c;}.cls-3,.cls-7{opacity:0.36;}.cls-4{fill:#e1cb86;}.cls-5{fill:#e8d76b;}.cls-6{fill:#efe347;}.cls-8{fill:#448aff;}.cls-9{fill:none;stroke:#fff;stroke-miterlimit:10;stroke-width:10px;stroke-dasharray:11.97 11.97;}</style></defs><title>A_step2</title><g id="Layer_2" data-name="Layer 2"><g id="图层_4" data-name="图层 4"><path class="cls-1" d="M15.7,471.6H748.59S686.17,753.75,396.92,759.28,15.7,471.6,15.7,471.6"/><path class="cls-2" d="M253.51,291.63s47.32-41.11,63.61-85.33-32.58-97.74-32.58-97.74S233.34,69,198.44,50.38h0l40.3-19.94s83,33.9,134.23,92.08,135,142,153.6,186.18L382.28,252.84,253.51,291.63"/><path class="cls-3" d="M253.51,576s47.32,23.85,63.61,49.51-32.58,56.72-32.58,56.72-51.2,23-86.1,33.76h0l40.3,11.57s83-19.68,134.23-53.44,135-82.37,153.6-108L382.28,598.53,253.51,576"/><path class="cls-2" d="M117,471.6l523.62-2.33S416.32-51.43,117,471.6Z"/><path class="cls-4" d="M172.06,469.27l417.34-1.55S409.63,56.2,172.06,469.27Z"/><path class="cls-5" d="M227.14,466.94l311.06-.77S402.94,163.83,227.14,466.94Z"/><path class="cls-6" d="M282.21,464.62H487S396.25,271.46,282.21,464.62Z"/><g class="cls-7"><path class="cls-2" d="M117,471.6,640.6,473S416.32,775.09,117,471.6Z"/><path class="cls-4" d="M172.06,473l417.34.9S409.63,712.64,172.06,473Z"/><path class="cls-5" d="M227.14,474.3l311.06.45S402.94,650.19,227.14,474.3Z"/><path class="cls-6" d="M282.21,475.65H487S396.25,587.73,282.21,475.65Z"/></g><rect class="cls-8" x="200.76" y="435.79" width="56.4" height="27.62"/><rect class="cls-8" x="269.24" y="435.79" width="56.4" height="27.62"/><rect class="cls-8" x="340.53" y="435.79" width="56.4" height="27.62"/><rect class="cls-8" x="413.61" y="435.79" width="56.4" height="27.62"/><rect class="cls-8" x="486.43" y="435.79" width="56.4" height="27.62"/><circle class="cls-9" cx="382.14" cy="382.14" r="377.14"/></g></g></svg>