<svg xmlns="http://www.w3.org/2000/svg" xmlns:xlink="http://www.w3.org/1999/xlink" viewBox="0 0 1901.48 2021.27"><defs><style>.cls-1{opacity:0.3;}.cls-2{fill:url(#未命名的渐变_36);}.cls-3{fill:url(#未命名的渐变_36-2);}.cls-4{fill:url(#未命名的渐变_36-3);}.cls-5{fill:url(#未命名的渐变_36-4);}.cls-6{fill:url(#未命名的渐变_36-5);}.cls-7{fill:url(#未命名的渐变_36-6);}.cls-8{fill:none;stroke:#f8f8f8;stroke-miterlimit:10;stroke-width:10px;}.cls-9{fill:url(#未命名的渐变_36-7);}.cls-10{fill:url(#未命名的渐变_36-8);}.cls-11{fill:url(#未命名的渐变_36-9);}.cls-12{fill:url(#未命名的渐变_36-10);}.cls-13{fill:url(#未命名的渐变_36-11);}.cls-14{fill:url(#未命名的渐变_36-12);}.cls-15{fill:url(#未命名的渐变_36-13);}.cls-16{fill:url(#未命名的渐变_36-14);}.cls-17{fill:url(#未命名的渐变_36-15);}.cls-18{fill:url(#未命名的渐变_36-16);}.cls-19{fill:url(#未命名的渐变_593);}.cls-20{fill:url(#未命名的渐变_593-2);}.cls-21{fill:url(#未命名的渐变_593-3);}.cls-22{fill:url(#未命名的渐变_593-4);}.cls-23{fill:url(#未命名的渐变_593-5);}.cls-24{fill:url(#未命名的渐变_593-6);}.cls-25{fill:url(#未命名的渐变_593-7);}.cls-26{fill:url(#未命名的渐变_593-8);}.cls-27{fill:url(#未命名的渐变_593-9);}.cls-28{fill:url(#未命名的渐变_593-10);}.cls-29{fill:url(#未命名的渐变_593-11);}.cls-30{fill:url(#未命名的渐变_593-12);}.cls-31{fill:url(#未命名的渐变_593-13);}.cls-32{fill:url(#未命名的渐变_593-14);}.cls-33{fill:url(#未命名的渐变_593-15);}.cls-34{fill:url(#未命名的渐变_593-16);}.cls-35{fill:url(#未命名的渐变_593-17);}.cls-36{fill:url(#未命名的渐变_593-18);}.cls-37{fill:url(#未命名的渐变_593-19);}.cls-38{fill:url(#未命名的渐变_593-20);}.cls-39{fill:#f7f4e2;}.cls-40{fill:#828282;}.cls-41{fill:#9e6765;}.cls-42{fill:#5a5858;}.cls-43{fill:#eeecbc;}.cls-44{fill:#6b6b57;}.cls-45,.cls-46{font-size:310.25px;font-family:ArialMT, Arial;}.cls-45{fill:#00a39b;}.cls-46{fill:#f8f8f8;}.cls-47{fill:url(#未命名的渐变_593-21);}.cls-48{fill:url(#未命名的渐变_593-22);}.cls-49{fill:url(#未命名的渐变_593-23);}.cls-50{fill:url(#未命名的渐变_593-24);}.cls-51{fill:url(#未命名的渐变_593-25);}</style><linearGradient id="未命名的渐变_36" x1="856.04" y1="-2167.99" x2="487.97" y2="-3104.02" gradientTransform="matrix(1, 0, 0, -1, 0, -1074.5)" gradientUnits="userSpaceOnUse"><stop offset="0" stop-color="#a18220"/><stop offset="0.17" stop-color="#9e8324"/><stop offset="0.35" stop-color="#948632"/><stop offset="0.54" stop-color="#838b48"/><stop offset="0.74" stop-color="#6c9266"/><stop offset="0.94" stop-color="#4e9b8e"/><stop offset="1" stop-color="#449e9b"/></linearGradient><linearGradient id="未命名的渐变_36-2" x1="826.21" y1="-2296.14" x2="481.44" y2="-3172.89" gradientTransform="matrix(0.99, 0.02, 0.02, -0.92, 70.87, -1041.56)" xlink:href="#未命名的渐变_36"/><linearGradient id="未命名的渐变_36-3" x1="816.71" y1="-2151.33" x2="521.76" y2="-2901.4" xlink:href="#未命名的渐变_36"/><linearGradient id="未命名的渐变_36-4" x1="789.11" y1="-2154.23" x2="535.83" y2="-2798.34" xlink:href="#未命名的渐变_36"/><linearGradient id="未命名的渐变_36-5" x1="604.61" y1="-2221" x2="455.88" y2="-2599.22" xlink:href="#未命名的渐变_36"/><linearGradient id="未命名的渐变_36-6" x1="550.89" y1="-2215.82" x2="452.22" y2="-2466.75" xlink:href="#未命名的渐变_36"/><linearGradient id="未命名的渐变_36-7" x1="850.69" y1="1205.16" x2="392.44" y2="39.8" gradientTransform="matrix(1, 0, 0, 1, 0, 0)" xlink:href="#未命名的渐变_36"/><linearGradient id="未命名的渐变_36-8" x1="757.93" y1="1364.53" x2="331.57" y2="280.29" gradientTransform="matrix(0.99, -0.02, 0.02, 0.92, 70.87, -32.95)" xlink:href="#未命名的渐变_36"/><linearGradient id="未命名的渐变_36-9" x1="812.43" y1="1244.9" x2="454.86" y2="335.61" gradientTransform="matrix(1, 0, 0, 1, 0, 0)" xlink:href="#未命名的渐变_36"/><linearGradient id="未命名的渐变_36-10" x1="789.59" y1="1251.36" x2="480.92" y2="466.4" gradientTransform="matrix(1, 0, 0, 1, 0, 0)" xlink:href="#未命名的渐变_36"/><linearGradient id="未命名的渐变_36-11" x1="605.91" y1="1183.93" x2="419.97" y2="711.08" gradientTransform="matrix(1, 0, 0, 1, 0, 0)" xlink:href="#未命名的渐变_36"/><linearGradient id="未命名的渐变_36-12" x1="552.17" y1="1194.4" x2="429.27" y2="881.87" gradientTransform="matrix(1, 0, 0, 1, 0, 0)" xlink:href="#未命名的渐变_36"/><linearGradient id="未命名的渐变_36-13" x1="1978.68" y1="1614.48" x2="1828.66" y2="1232.98" gradientTransform="translate(-332.98 -1003.91) rotate(19.39)" xlink:href="#未命名的渐变_36"/><linearGradient id="未命名的渐变_36-14" x1="1971.56" y1="1601.3" x2="1848.94" y2="1289.46" gradientTransform="translate(-332.98 -1003.91) rotate(19.39)" xlink:href="#未命名的渐变_36"/><linearGradient id="未命名的渐变_36-15" x1="1936.3" y1="1582.5" x2="1847.62" y2="1357.01" gradientTransform="translate(-332.98 -1003.91) rotate(19.39)" xlink:href="#未命名的渐变_36"/><linearGradient id="未命名的渐变_36-16" x1="1914.33" y1="1566.83" x2="1852.52" y2="1409.66" gradientTransform="translate(-332.98 -1003.91) rotate(19.39)" xlink:href="#未命名的渐变_36"/><linearGradient id="未命名的渐变_593" x1="-1597.38" y1="-2769.38" x2="-1162.68" y2="-2812.82" gradientTransform="matrix(1, -0.75, 0.83, 1.1, 4470.91, 2655.45)" gradientUnits="userSpaceOnUse"><stop offset="0" stop-color="#d49600"/><stop offset="0.1" stop-color="#ce9607"/><stop offset="0.24" stop-color="#bf971c"/><stop offset="0.42" stop-color="#a6993e"/><stop offset="0.62" stop-color="#839b6d"/><stop offset="0.84" stop-color="#569ea9"/><stop offset="1" stop-color="#31a0db"/></linearGradient><linearGradient id="未命名的渐变_593-2" x1="-1568.62" y1="-2728.57" x2="-1206.36" y2="-2764.77" gradientTransform="matrix(1.01, -0.74, 0.81, 1.11, 4390.16, 2676.93)" xlink:href="#未命名的渐变_593"/><linearGradient id="未命名的渐变_593-3" x1="-1604.05" y1="-2783.37" x2="-1292.58" y2="-2814.49" gradientTransform="matrix(0.99, -0.76, 0.83, 1.1, 4503.44, 2650.39)" xlink:href="#未命名的渐变_593"/><linearGradient id="未命名的渐变_593-4" x1="-1649.83" y1="-2875.55" x2="-1398.33" y2="-2900.68" gradientTransform="matrix(0.97, -0.78, 0.86, 1.07, 4675.61, 2602.66)" xlink:href="#未命名的渐变_593"/><linearGradient id="未命名的渐变_593-5" x1="-2635.24" y1="-2591.26" x2="-2391.62" y2="-2615.6" gradientTransform="translate(4284.5 991.85) rotate(-41.83)" xlink:href="#未命名的渐变_593"/><linearGradient id="未命名的渐变_593-6" x1="-2144.05" y1="-3999.9" x2="-1741.88" y2="-4040.09" gradientTransform="matrix(0.56, -1.12, 1.23, 0.61, 6680.83, 867.17)" xlink:href="#未命名的渐变_593"/><linearGradient id="未命名的渐变_593-7" x1="-2133.68" y1="-3953.86" x2="-1798.31" y2="-3987.37" gradientTransform="matrix(0.57, -1.11, 1.22, 0.63, 6618.15, 922.42)" xlink:href="#未命名的渐变_593"/><linearGradient id="未命名的渐变_593-8" x1="-2144.44" y1="-4018.62" x2="-1856.37" y2="-4047.4" gradientTransform="matrix(0.55, -1.12, 1.23, 0.61, 6707.68, 848.12)" xlink:href="#未命名的渐变_593"/><linearGradient id="未命名的渐变_593-9" x1="-2151.22" y1="-4124.23" x2="-1919.09" y2="-4147.43" gradientTransform="matrix(0.52, -1.13, 1.25, 0.57, 6840.46, 728.59)" xlink:href="#未命名的渐变_593"/><linearGradient id="未命名的渐变_593-10" x1="-3171.18" y1="-4341.74" x2="-2947.07" y2="-4364.14" gradientTransform="translate(5771.69 -538.46) rotate(-68.34)" xlink:href="#未命名的渐变_593"/><linearGradient id="未命名的渐变_593-11" x1="-2005.39" y1="-2787.39" x2="-1681.71" y2="-2819.73" gradientTransform="matrix(0.95, -0.81, 0.89, 1.05, 4924.09, 2205.69)" xlink:href="#未命名的渐变_593"/><linearGradient id="未命名的渐变_593-12" x1="-1978.48" y1="-2741.6" x2="-1708.73" y2="-2768.55" gradientTransform="matrix(0.96, -0.79, 0.88, 1.06, 4844.72, 2231.81)" xlink:href="#未命名的渐变_593"/><linearGradient id="未命名的渐变_593-13" x1="-2012.44" y1="-2804.25" x2="-1780.52" y2="-2827.43" gradientTransform="matrix(0.95, -0.81, 0.9, 1.05, 4956.28, 2198.75)" xlink:href="#未命名的渐变_593"/><linearGradient id="未命名的渐变_593-14" x1="-2056.91" y1="-2906.68" x2="-1869.65" y2="-2925.39" gradientTransform="matrix(0.93, -0.84, 0.92, 1.02, 5125.39, 2141.15)" xlink:href="#未命名的渐变_593"/><linearGradient id="未命名的渐变_593-15" x1="-3140.63" y1="-2662.23" x2="-2959.28" y2="-2680.36" gradientTransform="translate(4641.73 555.66) rotate(-45.15)" xlink:href="#未命名的渐变_593"/><linearGradient id="未命名的渐变_593-16" x1="-1639.82" y1="-3878.5" x2="-1363.56" y2="-3906.11" gradientTransform="matrix(0.86, -0.9, 0.99, 0.95, 5761.03, 3427.56)" xlink:href="#未命名的渐变_593"/><linearGradient id="未命名的渐变_593-17" x1="-1629.43" y1="-3837.01" x2="-1399.19" y2="-3860.02" gradientTransform="matrix(0.88, -0.89, 0.98, 0.96, 5684.8, 3461.79)" xlink:href="#未命名的渐变_593"/><linearGradient id="未命名的渐变_593-18" x1="-1641.32" y1="-3894.37" x2="-1443.39" y2="-3914.15" gradientTransform="matrix(0.86, -0.91, 1, 0.95, 5792.31, 3417.31)" xlink:href="#未命名的渐变_593"/><linearGradient id="未命名的渐变_593-19" x1="-1651.7" y1="-3986.73" x2="-1491.94" y2="-4002.69" gradientTransform="matrix(0.83, -0.93, 1.03, 0.92, 5954.52, 3342.43)" xlink:href="#未命名的渐变_593"/><linearGradient id="未命名的渐变_593-20" x1="-2558.4" y1="-4121.66" x2="-2403.76" y2="-4137.11" gradientTransform="matrix(0.63, -0.78, 0.78, 0.63, 5308.61, 1815.84)" xlink:href="#未命名的渐变_593"/><linearGradient id="未命名的渐变_593-21" x1="-1397.91" y1="-5253.09" x2="-998.75" y2="-5292.97" gradientTransform="matrix(-0.34, -1.2, 1.32, -0.37, 7917.05, -2464.46)" xlink:href="#未命名的渐变_593"/><linearGradient id="未命名的渐变_593-22" x1="-1406.09" y1="-5218.98" x2="-1072.54" y2="-5252.31" gradientTransform="matrix(-0.32, -1.21, 1.33, -0.36, 7907.88, -2381.41)" xlink:href="#未命名的渐变_593"/><linearGradient id="未命名的渐变_593-23" x1="-1391.89" y1="-5274.22" x2="-1106.21" y2="-5302.77" gradientTransform="matrix(-0.35, -1.2, 1.32, -0.38, 7924.09, -2496.63)" xlink:href="#未命名的渐变_593"/><linearGradient id="未命名的渐变_593-24" x1="-1359.77" y1="-5362.58" x2="-1130.89" y2="-5385.45" gradientTransform="matrix(-0.38, -1.19, 1.31, -0.42, 7941.85, -2674.4)" xlink:href="#未命名的渐变_593"/><linearGradient id="未命名的渐变_593-25" x1="-2095.45" y1="-5996.43" x2="-1876.25" y2="-6018.34" gradientTransform="translate(6298.61 -2892.26) rotate(-110.64)" xlink:href="#未命名的渐变_593"/></defs><title>Adhsion</title><g id="Layer_2" data-name="Layer 2"><g id="图层_4" data-name="图层 4"><g class="cls-1"><path class="cls-2" d="M0,1349.2c5.62,3.11,82.42,65.19,88,69.85s9.37,197.12,9.37,197.12l-18.73,93.09,74.93,32.63,20.6-110.71-39.34,257.29,131.13,80,116.14,52.77,103-38.8,45-173.94,64.4-221.85,63.88-63,47.74-1.59,97.79-25.48,187.33-119.51L1368,1313.82l143.75-50,103-59s-13.11-45-20.61-46.56-350.29-57.43-355.91-59-567.6-10.87-567.6-10.87S311,1045,305.34,1045s-230.41,90-230.41,90L0,1229.69Z"/><polygon class="cls-3" points="337.51 1044.98 129.91 1133.57 54.76 1208.89 52.62 1304.45 149.93 1346.09 126.49 1619.12 153.28 1639.57 212.23 1551.61 181.27 1792.03 380.71 1883.03 463.11 1854.02 592.78 1483.58 679.28 1447.89 741.18 1485.85 805.17 1430.7 1015.38 1290.54 1310.41 1296.98 1550.46 1197.42 1519.16 1156.79 1277.28 1116.76 697.83 1105.96 406.55 1059.43 337.51 1044.98"/><path class="cls-4" d="M325.53,1058.21,125.74,1186.5l50,93.11L163.2,1525.85l79.92-40.64s-17.25,258-9.88,254.87S410.44,1770,410.44,1770l42.45-34.24,119.87-292.46,110.94-56.11s86.35,31,78.86,26.9,152.33-163.47,152.33-163.47L1302,1227.88l137.35-86.9-274.7-16.56L821,1149.25l-328.16-29Z"/><path class="cls-5" d="M354.9,1085.11l-142.34,95.18,35.08,155.19-35.08,120L310,1435l-12.48,218,122.36,21.41,49.95-30.69,79.91-188.29,126.36-75.71,68.55-9.13,24.86-8.28,234.23-188.3,290.2-12.41v-38.6s-367.1,13.77-374.59,13.77-352.12-6.21-374.6-12.42S354.9,1085.11,354.9,1085.11Z"/><path class="cls-6" d="M372.37,1101.66l-109.88,74.49,42.45,126.22-42.45,91.05H382.36V1509.3l69.92,14.48,82.41-146.91,141.34-89,245.74-107.6s-85.56-35.18-100.22-35.18S609.61,1141,592.13,1141,372.37,1101.66,372.37,1101.66Z"/><path class="cls-7" d="M419.78,1127.35l-87.41,35.17,43.71,109.67-43.71,68.29h59.94s30,51.73,37.46,51.73,57.44-10.35,57.44-10.35,27.47-128.29,35-122.08,212.29-64.15,212.29-64.15,20-33.11,18.71-35.17-161.08-20.7-161.08-20.7Z"/></g><line class="cls-8" x1="81.8" y1="191.06" x2="569.54" y2="191.06"/><path class="cls-9" d="M5.83,927.71c5.62-4.29,82.42-90,88-96.42s9.37-272.1,9.37-272.1L84.51,430.69l74.93-45L180,538.48,140.7,183.32,271.83,72.85,388,0,491,53.56l45,240.11,64.4,306.23,63.89,86.91L712,689l97.79,35.16,187.33,165,376.69,87.4,143.75,69,103,81.42s-13.11,62.13-20.61,64.27-350.29,79.28-355.91,81.42-567.6,15-567.6,15-359.66,60-365.28,60S80.76,1223.37,80.76,1223.37L5.83,1092.68Z"/><polygon class="cls-10" points="343.34 1347.64 135.74 1225.36 60.59 1121.39 58.45 989.49 155.76 932 132.32 555.12 159.12 526.89 218.06 648.31 187.1 316.45 386.54 190.83 468.94 230.87 598.61 742.22 685.11 791.48 747.02 739.08 811 815.21 1021.21 1008.68 1316.24 999.79 1556.29 1137.22 1524.99 1193.3 1283.11 1248.57 703.66 1263.47 412.38 1327.7 343.34 1347.64"/><path class="cls-11" d="M331.36,1329.39,131.57,1152.3l50-128.54L169,683.87,249,740s-17.25-356.19-9.88-351.81,177.2-41.32,177.2-41.32l42.45,47.25L578.59,797.8l110.94,77.44s86.35-42.85,78.86-37.13,152.33,225.64,152.33,225.64l387.08,31.42,137.36,120L1170.45,1238l-343.61-34.27-328.16,40Z"/><path class="cls-12" d="M360.74,1292.25,218.39,1160.87l35.08-214.22L218.39,781l97.39,28.24-12.48-301,122.37-29.55,49.94,42.35L555.53,781l126.35,104.5,68.55,12.61,24.86,11.42,234.23,259.92,290.2,17.14v53.28s-367.1-19-374.59-19S573,1229.42,550.53,1238,360.74,1292.25,360.74,1292.25Z"/><path class="cls-13" d="M378.2,1269.4,268.32,1166.58l42.45-174.23L268.32,866.67H388.19V706.72l69.92-20,82.41,202.79,141.34,122.82,245.75,148.53s-85.57,48.55-100.22,48.55-211.95,5.71-229.43,5.71S378.2,1269.4,378.2,1269.4Z"/><path class="cls-14" d="M425.61,1234l-87.41-48.56L381.91,1034,338.2,939.75h59.94s30-71.41,37.46-71.41S493,882.63,493,882.63s27.47,177.08,35,168.52,212.29,88.54,212.29,88.54,20,45.7,18.71,48.56-161.08,28.56-161.08,28.56Z"/><polygon class="cls-15" points="595.11 934.32 746.18 1098.37 1209.36 1253.71 1318.45 1233.95 1386.99 978.27 1159.5 833.49 920.81 755.73 672.8 783.97 588.3 824.12 595.11 934.32"/><path class="cls-16" d="M767.46,1088.76l-138.91-161-3.93-62.89,66.81-38.5S916.2,844.51,924,841.9s153.17,67.39,162,65.2,265.81,166.43,265.81,166.43,7.88,151.79-2.57,144.29-122.93.79-141.15.44S767.46,1088.76,767.46,1088.76Z"/><polygon class="cls-17" points="793.77 1056.18 666.99 892.58 767.17 891.2 928.29 910.08 1162.84 1027.76 1260.43 1120.79 1236.4 1172.43 965.86 1125.44 793.77 1056.18"/><path class="cls-18" d="M861.16,1046.05,759.59,942.31,887.94,959l151.5,72.81,100.35,77.44-8.92,29s-113.25-22.3-125.4-22.53S861.16,1046.05,861.16,1046.05Z"/><line class="cls-8" x1="403.98" y1="394.8" x2="986.3" y2="394.8"/><polygon class="cls-19" points="635.45 666.92 697.97 518.85 769.59 444.37 861.68 390.17 951.99 399.02 994.62 467.05 994.21 569.39 945.28 661.11 832.61 741.18 714.95 799.97 621.72 844.79 601.91 836.27 602.2 791.97 635.45 666.92"/><polygon class="cls-20" points="634.58 685.62 699.93 545 830.82 445.12 905.86 471.47 941.62 586.23 887.62 690.95 797.12 752.27 694.2 807.49 610.18 832.91 634.58 685.62"/><polygon class="cls-21" points="629.64 708.04 683.06 587.95 792.46 501.19 856.29 522.18 888.06 618.64 843.76 708.16 768.83 768.92 680.22 814.71 607.07 836.8 629.64 708.04"/><polygon class="cls-22" points="627.01 721.51 665.58 628.38 747.57 559.34 796.76 573.8 822.88 646.76 790.71 716.3 734.57 764.6 667.69 801.81 604.97 835.68 627.01 721.51"/><polygon class="cls-23" points="624.51 746.74 652.83 675.67 713.34 618.51 749.77 624.91 769.27 675.86 745.63 729.21 704.2 769.1 616.68 832.18 608.48 831.75 624.51 746.74"/><polygon class="cls-24" points="543.58 666.91 541.98 522.58 572.75 431.99 626.52 348.16 700.5 314.66 757.28 349.01 792.01 429.58 784.98 523.55 723.89 636.92 651.59 735.82 593.71 812.79 575.23 814.97 560.28 780.04 543.58 666.91"/><polygon class="cls-25" points="549.3 682 552.49 542.25 621.1 405.16 689.07 392.23 756.47 466.37 749.9 572.82 699.81 661.54 637.87 751.01 580.57 808.63 549.3 682"/><polygon class="cls-26" points="553.1 701.81 553.94 583.55 610.16 466.38 667.5 454.27 725.49 515.82 721.35 605.99 683.29 687.28 629.36 762.96 579.46 813.07 553.1 701.81"/><polygon class="cls-27" points="555.64 713.57 554.05 623.14 594.81 532.18 638.41 521.5 683.91 567.12 682.45 636.15 654.9 699.25 615.1 758.43 577.43 813.13 555.64 713.57"/><polygon class="cls-28" points="562.33 734.51 560.23 666 588.19 593.99 619 582.7 651.76 613.99 651.46 666.48 632.58 716.38 585.43 805.14 578.84 808.48 562.33 734.51"/><polygon class="cls-29" points="565.16 790.64 605.74 678.36 655.79 619.92 721.69 575.44 788.64 577.55 822.62 625.65 826.15 701.16 793.48 771.21 713.37 835.78 628.77 884.89 561.68 922.52 546.75 917.2 545.31 884.51 565.16 790.64"/><polygon class="cls-30" points="565.22 804.48 608.17 697.56 700.98 617.48 757.32 633.25 787.99 716.15 752.07 796.04 687.6 845.7 613.75 891.45 552.73 914.32 565.22 804.48"/><polygon class="cls-31" points="562.42 821.25 597.33 730.06 674.78 660.72 722.65 673.07 749.69 742.67 720.36 810.87 667.36 859.36 603.71 897.47 550.58 917.33 562.42 821.25"/><polygon class="cls-32" points="560.98 831.32 585.94 760.74 643.84 705.8 680.67 714.07 702.66 766.61 681.53 819.47 641.93 857.85 593.99 888.56 548.99 916.61 560.98 831.32"/><polygon class="cls-33" points="560.08 850.05 578.31 796.25 620.8 751.12 647.92 754.06 664.2 790.69 648.76 831.2 619.7 862.65 557.49 913.46 551.43 913.54 560.08 850.05"/><polygon class="cls-34" points="506.68 1122.1 532.06 1024 569.5 970.05 621.29 926.2 677.52 921.26 709.66 958.14 718.39 1021.02 696.4 1082.95 634.25 1145.05 567.17 1194.66 513.86 1232.89 500.95 1229.93 497.24 1202.7 506.68 1122.1"/><polygon class="cls-35" points="507.78 1133.68 535.57 1039.84 607.16 963.48 655.55 971.04 687.58 1037.4 663.62 1107.9 613.43 1155.94 555.09 1201.66 505.73 1226.92 507.78 1133.68"/><polygon class="cls-36" points="506.72 1148.01 528.98 1068.14 588.53 1002.31 629.57 1007.87 657.54 1063.45 638.2 1123.5 597.52 1169.41 547.14 1207.7 504.16 1229.66 506.72 1148.01"/><polygon class="cls-37" points="506.29 1156.58 521.79 1094.97 566.07 1043.17 597.55 1046.4 619.99 1088.2 606.34 1134.59 576.11 1170.69 538.31 1201.21 502.77 1229.21 506.29 1156.58"/><polygon class="cls-38" points="506.97 1172.36 518.12 1125.48 550.25 1083.43 573.18 1083.18 589.63 1112.22 579.79 1147.69 557.86 1176.94 509.66 1225.72 504.58 1226.4 506.97 1172.36"/><line class="cls-8" x1="646.29" y1="258.85" x2="83.2" y2="258.85"/><path class="cls-8" d="M645.47,326.81c16.33,0,29.68-15.27,29.68-33.94a36.4,36.4,0,0,0-8.72-24c-5.8-6.64-12.37-10-21-10"/><line class="cls-8" x1="405.14" y1="326.93" x2="645.9" y2="326.93"/><path class="cls-8" d="M631.61,327.22c16.32,0,29.68-15.27,29.68-33.94a36.42,36.42,0,0,0-8.72-24c-5.8-6.64-12.38-10-21-10"/><path class="cls-8" d="M405.14,326.91c-16.32,0-29.67,15.28-29.67,33.94a36.4,36.4,0,0,0,8.72,24c5.79,6.64,12.37,10,20.95,10"/><g class="cls-1"><polygon class="cls-39" points="1612.59 1607.06 1551.72 1523.81 1582.16 1377.62 1612.59 1329.9 1633.71 1625.34 1612.59 1607.06"/><path class="cls-40" d="M1280.82,1361.67l155.7-24.71h278.76l136.57,12.35s-97.29-48.8-102.9-51.86-182.62-12.23-182.62-12.23H1419.68l-72.77,22.93Z"/></g><polygon class="cls-41" points="1661.37 1120.3 1647.56 1129.31 1638.67 1156.59 1656.38 1181.16 1667.44 1171.98 1663.86 1148.49 1667.44 1131.2 1667.44 1120.3 1661.37 1120.3"/><polygon class="cls-41" points="1695.23 1123.37 1707.35 1138.59 1709.65 1160.34 1708.8 1184.43 1699.32 1194 1692.05 1194 1693.75 1209.75 1693.75 1233.97 1697.99 1250.62 1680.31 1260.31 1660.74 1255.77 1650.95 1251.23 1650.95 1217.62 1649.56 1189.16 1649.56 1172.2 1651.23 1148.88 1659.62 1130.41 1668.01 1119.82 1675.56 1115.88 1695.23 1123.37"/><path class="cls-42" d="M1716.41,1108.26c-.55.08-47.31-12.26-47.31-12.26l-1.66,4.69,1.61,3.62,42,7.77Z"/><path class="cls-42" d="M1678.28,1097.49l8.08-6.9,16.44,7.39s-2.21,13.34-3,13.22-7.38,6.49-7.38,6.49Z"/><polygon class="cls-43" points="1694.67 1108.47 1691 1122.55 1680.71 1126.99 1675.33 1115.64 1678.81 1097.41 1689.26 1099.68 1694.67 1108.47"/><polygon class="cls-42" points="1701.74 1101.39 1702.85 1086.83 1693.82 1082.11 1688.52 1093.63 1701.74 1101.39"/><polygon class="cls-44" points="1683.03 1124.54 1681.91 1135.13 1679.12 1142.1 1675.33 1133.32 1675.33 1124.54 1678 1120.3 1683.03 1124.54"/><polygon class="cls-43" points="1659.62 1130.41 1670.42 1126.83 1674.66 1125.33 1677.91 1130.33 1677.91 1133.31 1670.17 1133.31 1666.77 1134.66 1664.94 1136.01 1658.41 1137.34 1659.62 1130.41"/><polygon class="cls-39" points="1612.59 858.72 1551.72 975.23 1582.16 1179.82 1612.59 1246.6 1633.71 833.14 1612.59 858.72"/><path class="cls-40" d="M1280.82,1202.15l155.7,34.57h278.76l136.57-17.29s-97.29,68.31-102.9,72.59-182.62,17.11-182.62,17.11H1419.68L1346.91,1277Z"/><text class="cls-45" transform="translate(327.13 772.52)">Adhesion</text><text class="cls-46" transform="translate(306.14 758.28)">Adhesion</text><polygon class="cls-47" points="1316.61 1103 1230.5 997.49 1199.95 906.8 1190.4 803.4 1225.4 721.68 1287.61 703.38 1360.7 736.24 1410.8 811.16 1432.33 942.03 1437.05 1070.83 1439.53 1172.32 1427.14 1188.15 1395.54 1173.82 1316.61 1103"/><polygon class="cls-48" points="1329.72 1109.76 1249.85 1003.95 1219.92 849.73 1262.6 787.85 1356.07 790.81 1413.85 874.6 1429 978.78 1435.84 1092.63 1427.36 1179.35 1329.72 1109.76"/><polygon class="cls-49" points="1344.19 1121.49 1275.22 1033.37 1247.87 903.44 1283.14 850.35 1362.25 851.23 1412.24 921.11 1431.93 1010.53 1436.57 1108.02 1429.16 1183.49 1344.19 1121.49"/><polygon class="cls-50" points="1352.99 1128.23 1298.6 1062.57 1275.22 963.91 1301.19 922.46 1361.68 921.17 1401.23 973.36 1417.97 1041.23 1423.36 1115.64 1427.69 1185.1 1352.99 1128.23"/><polygon class="cls-51" points="1370.26 1138.58 1328.39 1089.51 1306.69 1014.73 1322.84 982.66 1365.49 980.59 1396.15 1019.65 1411.55 1071.09 1428.9 1173.03 1425.99 1180.58 1370.26 1138.58"/></g></g></svg>