<svg xmlns="http://www.w3.org/2000/svg" viewBox="0 0 179.52 292.05"><defs><style>.cls-1{fill:#828282;}.cls-2{fill:#b9baba;}.cls-3{opacity:0.5;}</style></defs><title>Boat1</title><g id="图层_2" data-name="图层 2"><g id="图层_9" data-name="图层 9"><polygon class="cls-1" points="14.52 116.39 31.61 122.58 94.6 126.21 176.82 116.17 164.65 134.54 118.52 146.71 41.64 147.35 12.6 133.9 0 109.98 14.52 116.39"/><path class="cls-2" d="M60.22,126.63,35,82.86,57.66,0l9.82,30.32,6.41,53.39s-7.9,44.42-8.54,44.42A52.66,52.66,0,0,1,60.22,126.63Z"/><g class="cls-3"><polygon class="cls-1" points="17.23 175.67 34.31 169.48 97.31 165.85 179.52 175.88 167.35 157.52 121.22 145.34 44.35 144.7 15.3 158.16 2.7 182.08 17.23 175.67"/><path class="cls-2" d="M62.93,165.42,37.73,209.2l22.63,82.85,9.83-30.32,6.4-53.39s-7.9-44.42-8.54-44.42A52.37,52.37,0,0,0,62.93,165.42Z"/></g></g></g></svg>