<svg xmlns="http://www.w3.org/2000/svg" viewBox="0 0 173.81 256.71"><defs><style>.cls-1{fill:#828282;}.cls-2{fill:#b9baba;}.cls-3{opacity:0.5;}</style></defs><title>Boat2</title><g id="图层_2" data-name="图层 2"><g id="图层_9" data-name="图层 9"><polygon class="cls-1" points="160.44 108.45 144.5 117.18 82.79 130.36 0 132.97 14.83 149.26 62.27 154.27 138.35 143.19 165 125.47 173.81 99.91 160.44 108.45"/><path class="cls-2" d="M116.83,125.55l18.24-47.11L100.07,0,95,31.47l1.8,53.74s14.58,42.69,15.21,42.6A52.42,52.42,0,0,0,116.83,125.55Z"/><g class="cls-3"><path class="cls-2" d="M114.67,153.68l21.61,37.09-25.75,65.94-7.73-25.23-3.3-43.75s9.79-35.61,10.39-35.57S114.67,153.68,114.67,153.68Z"/><polygon class="cls-1" points="154.55 157.91 137.75 155.41 78.19 161.63 2.31 181.64 11.44 165.1 53.2 148.61 125.25 136.94 154.18 143.54 168.97 160.96 154.55 157.91"/></g></g></g></svg>