<svg xmlns="http://www.w3.org/2000/svg" viewBox="0 0 1311.11 1587.67"><defs><style>.cls-1{opacity:0.3;}.cls-2{fill:#f7f4e2;}.cls-3{fill:#828282;}</style></defs><title>Boat3</title><g id="图层_2" data-name="图层 2"><g id="图层_10" data-name="图层 10"><g class="cls-1"><polygon class="cls-2" points="761.77 1550.98 622.01 1383.86 691.89 1090.38 761.77 994.59 810.26 1587.66 761.77 1550.98"/><path class="cls-3" d="M0,1058.35l357.5-49.59h640l313.57,24.8s-223.36-98-236.25-104.12-419.3-24.55-419.3-24.55H318.84l-167.08,46Z"/></g><polygon class="cls-2" points="761.77 51.34 622.01 285.23 691.89 695.95 761.77 830.01 810.26 0 761.77 51.34"/><path class="cls-3" d="M0,740.77l357.5,69.41h640l313.57-34.7s-223.36,137.11-236.25,145.7-419.3,34.37-419.3,34.37H318.84L151.76,891.11Z"/></g></g></svg>