<svg xmlns="http://www.w3.org/2000/svg" viewBox="0 0 1311.11 1590.32"><defs><style>.cls-1{opacity:0.3;}.cls-2{fill:#f7f4e2;}.cls-3{fill:#828282;}.cls-4{fill:#9e6764;}.cls-5{fill:#5a5858;}.cls-6{fill:#eeecbc;}.cls-7{fill:#6a6b56;}</style></defs><title>Boat5</title><g id="图层_2" data-name="图层 2"><g id="图层_4" data-name="图层 4"><g class="cls-1"><polygon class="cls-2" points="761.77 1553.63 622.01 1386.51 691.89 1093.03 761.77 997.24 810.26 1590.32 761.77 1553.63"/><path class="cls-3" d="M0,1061l357.5-49.6h640l313.57,24.8s-223.36-98-236.25-104.12-419.3-24.55-419.3-24.55H318.84l-167.08,46Z"/></g><polygon class="cls-4" points="488.48 586.43 456.78 604.52 436.38 659.28 477.03 708.62 502.43 690.18 494.2 643.01 502.43 608.31 502.43 586.43 488.48 586.43"/><polygon class="cls-4" points="566.24 592.59 594.05 623.14 599.35 666.82 597.38 715.17 575.63 734.38 558.94 734.38 562.82 765.99 562.82 814.62 572.56 848.05 531.98 867.5 487.04 858.38 464.57 849.27 464.57 781.79 461.36 724.66 461.36 690.62 465.21 643.81 484.47 606.73 503.73 585.46 521.06 577.56 566.24 592.59"/><path class="cls-5" d="M614.87,562.26c-1.27.17-108.64-24.62-108.64-24.62l-3.8,9.43,3.68,7.26,96.52,15.6Z"/><path class="cls-5" d="M527.31,540.63l18.54-13.84,37.76,14.83s-5.07,26.78-6.8,26.54-16.95,13-16.95,13Z"/><polygon class="cls-6" points="564.95 562.68 556.52 590.95 532.9 599.86 520.53 577.08 528.52 540.48 552.53 545.02 564.95 562.68"/><polygon class="cls-5" points="581.17 548.46 583.73 519.23 562.98 509.76 550.82 532.9 581.17 548.46"/><polygon class="cls-7" points="538.22 594.93 535.65 616.21 529.25 630.19 520.53 612.56 520.53 594.93 526.66 586.43 538.22 594.93"/><polygon class="cls-6" points="484.47 606.73 509.27 599.53 519 596.52 526.46 606.57 526.46 612.54 508.7 612.54 500.89 615.25 496.67 617.96 481.68 620.63 484.47 606.73"/><polygon class="cls-2" points="761.77 51.34 622.01 285.23 691.89 695.95 761.77 830.01 810.26 0 761.77 51.34"/><path class="cls-3" d="M0,740.77l357.5,69.41h640l313.57-34.7s-223.36,137.11-236.25,145.7-419.3,34.37-419.3,34.37H318.84L151.76,891.11Z"/></g></g></svg>