<svg xmlns="http://www.w3.org/2000/svg" viewBox="0 0 1792.28 1800.14"><defs><style>.cls-1{fill:none;}.cls-2{fill:#117265;}.cls-3{fill:#f5b232;}.cls-4{fill:#24a791;}.cls-5{font-size:142.25px;}.cls-5,.cls-6{fill:#4f4f57;font-family:MicrosoftYaHei, Microsoft YaHei;}.cls-6{font-size:144.07px;}</style></defs><title>Clock_Under</title><g id="Layer_2" data-name="Layer 2"><g id="图层_12" data-name="图层 12"><path class="cls-1" d="M374,554.23A622.28,622.28,0,0,0,268,861.68l648.86,16.78Z"/><path class="cls-1" d="M892.31,1530.8c226.24,0,424.42-120.06,534.35-299.94L907,900.07l519.62,330.79A622.88,622.88,0,0,0,1518.12,905c0-345.62-280.19-625.81-625.81-625.81-215.64,0-405.8,109.08-518.34,275.06l542.9,324.23L268,861.68c-1,14.31-1.51,28.74-1.51,43.3C266.5,1250.61,546.68,1530.8,892.31,1530.8Z"/><path class="cls-2" d="M892.31,279.17c345.62,0,625.81,280.19,625.81,625.81a622.88,622.88,0,0,1-91.46,325.88l90.39,57.54A727.45,727.45,0,0,0,1626.19,904c0-403.68-327.25-730.93-730.93-730.93-254.85,0-479.22,130.42-610,328.16l88.75,53C486.51,388.25,676.67,279.17,892.31,279.17Z"/><path class="cls-3" d="M1426.66,1230.86c-109.93,179.88-308.11,299.94-534.35,299.94C546.68,1530.8,266.5,1250.61,266.5,905c0-14.56.54-29,1.51-43.3L165.69,859q-1.35,22.32-1.37,45c0,403.68,327.25,730.93,730.94,730.93,262.65,0,492.94-138.54,621.79-346.53Z"/><polygon class="cls-3" points="213.44 770.39 111.27 911.86 323.48 911.86 213.44 770.39"/><polygon class="cls-2" points="1408.72 1356.76 1570.95 1292.46 1392.06 1178.31 1408.72 1356.76"/><circle class="cls-4" cx="907.04" cy="900.07" r="55.02"/><rect class="cls-4" x="863.82" y="326.33" width="66.81" height="123.79"/><rect class="cls-4" x="600.52" y="389.2" width="66.81" height="123.79" transform="translate(-140.62 377.4) rotate(-30)"/><rect class="cls-4" x="1115.32" y="387.24" width="66.81" height="123.79" transform="translate(378.47 -514.19) rotate(30)"/><rect class="cls-4" x="1294.12" y="568.01" width="66.81" height="123.79" transform="translate(1209.27 -834.72) rotate(60)"/><rect class="cls-4" x="1301.18" y="1085.14" width="66.81" height="123.79" transform="translate(2987.79 543.92) rotate(119.28)"/><rect class="cls-4" x="1131.82" y="1270.43" width="66.81" height="123.79" transform="translate(2847.56 1882.4) rotate(149.28)"/><rect class="cls-4" x="885.57" y="1347.26" width="66.81" height="123.79" transform="translate(1855.6 2806.63) rotate(179.28)"/><rect class="cls-4" x="1363.88" y="820.49" width="66.81" height="123.79" transform="translate(2279.67 -514.89) rotate(90)"/><text class="cls-5" transform="matrix(0.53, -0.85, 0.85, 0.53, 220.32, 509.88)"> </text><text class="cls-5" transform="translate(241.76 475.17) rotate(-55.24)"> </text><text class="cls-5" transform="translate(265.02 441.6) rotate(-52.24)"> </text><text class="cls-5" transform="translate(289.99 409.3) rotate(-49.24)"> </text><text class="cls-5" transform="matrix(0.69, -0.72, 0.72, 0.69, 316.62, 378.35)"> </text><text class="cls-5" transform="translate(344.83 348.84) rotate(-43.26)"> </text><text class="cls-5" transform="matrix(0.76, -0.65, 0.65, 0.76, 374.53, 320.84)"> </text><text class="cls-5" transform="matrix(0.8, -0.61, 0.61, 0.8, 405.68, 294.42)"> </text><text class="cls-6" transform="translate(437.47 269.48) rotate(-33.19)">c</text><text class="cls-6" transform="translate(507.67 223.7) rotate(-26.29)">o</text><text class="cls-6" transform="matrix(0.95, -0.32, 0.32, 0.95, 600.29, 178.87)">n</text><text class="cls-6" transform="translate(695.59 147.66) rotate(-11.8)">v</text><text class="cls-6" transform="translate(780.23 130.44) rotate(-5.2)">e</text><text class="cls-6" transform="translate(873.13 122.5) rotate(1.83)">n</text><text class="cls-6" transform="translate(973.63 127.26) rotate(7.92)">t</text><text class="cls-6" transform="translate(1039.11 137.14) rotate(12.26)">i</text><text class="cls-6" transform="translate(1088.53 147.14) rotate(17.98)">o</text><text class="cls-6" transform="matrix(0.9, 0.43, -0.43, 0.9, 1186.13, 179.69)">n</text><text class="cls-6" transform="matrix(0.84, 0.54, -0.54, 0.84, 1276.17, 223.75)">a</text><text class="cls-6" transform="translate(1352.71 274.43) rotate(37.81)">l</text><text class="cls-6" transform="matrix(0.75, 0.67, -0.67, 0.75, 1392.85, 306.04)"> </text><text class="cls-6" transform="translate(1433.85 343.04) rotate(46.03)">f</text><text class="cls-6" transform="translate(1476.84 388.19) rotate(50.79)">r</text><text class="cls-6" transform="matrix(0.55, 0.84, -0.84, 0.55, 1519.2, 440.09)">a</text><text class="cls-6" transform="translate(1568.74 516.84) rotate(63.09)">c</text><text class="cls-6" transform="translate(1605.97 592.47) rotate(68.65)">t</text><text class="cls-6" transform="translate(1630.12 653.41) rotate(74.82)">u</text><text class="cls-6" transform="translate(1654.94 750.84) rotate(81.03)">r</text><text class="cls-6" transform="matrix(0.06, 1, -1, 0.06, 1665.24, 815.02)">e</text><text class="cls-6" transform="matrix(-0.05, 1, -1, -0.05, 1669.43, 908.44)">s</text><text class="cls-6" transform="translate(1664.22 987.3) rotate(97.95)"> </text><text class="cls-6" transform="translate(1656.13 1042) rotate(102.04)"> </text><text class="cls-6" transform="matrix(-0.28, 0.96, -0.96, -0.28, 1644.15, 1095.98)"> </text><text class="cls-6" transform="translate(1628.34 1148.96) rotate(110.26)"> </text><text class="cls-6" transform="matrix(-0.41, 0.91, -0.91, -0.41, 1608.77, 1200.67)"> </text><text class="cls-6" transform="translate(1585.53 1250.88) rotate(118.46)"> </text><text class="cls-6" transform="translate(1558.78 1299.28) rotate(122.54)"> </text><text class="cls-6" transform="matrix(-0.6, 0.8, -0.8, -0.6, 1528.65, 1345.66)"> </text><text class="cls-6" transform="translate(1495.29 1389.79) rotate(130.68)"> </text><text class="cls-6" transform="translate(1458.89 1431.46) rotate(134.73)"> </text><text class="cls-6" transform="matrix(-0.75, 0.66, -0.66, -0.75, 1419.66, 1470.42)"> </text><text class="cls-6" transform="matrix(-0.8, 0.6, -0.6, -0.8, 1377.73, 1506.55)"> </text><text class="cls-6" transform="translate(1334.04 1539.79) rotate(147.98)">c</text><text class="cls-6" transform="translate(1270.27 1580.1) rotate(154.26)">o</text><text class="cls-6" transform="translate(1186.2 1622.24) rotate(162.83)">m</text><text class="cls-6" transform="translate(1055.46 1662.44) rotate(172.95)">m</text><text class="cls-6" transform="translate(918.4 1676.29) rotate(179.07)">i</text><text class="cls-6" transform="translate(876.14 1677.72) rotate(-175.61)">n</text><text class="cls-6" transform="translate(784.67 1670.53) rotate(-168.84)">u</text><text class="cls-6" transform="translate(694.43 1651.7) rotate(-163.3)">t</text><text class="cls-6" transform="translate(640.54 1636.08) rotate(-158.09)">e</text><text class="cls-6" transform="translate(561.85 1604.57) rotate(-151.43)">d</text><text class="cls-6" transform="translate(478.44 1557.68) rotate(-146.2)"> </text><text class="cls-6" transform="matrix(-0.79, -0.61, 0.61, -0.79, 439.54, 1531.62)">f</text><text class="cls-6" transform="matrix(-0.75, -0.66, 0.66, -0.75, 396.76, 1498.7)">r</text><text class="cls-6" transform="translate(352.71 1460.04) rotate(-133.14)">a</text><text class="cls-6" transform="matrix(-0.61, -0.8, 0.8, -0.61, 296.22, 1399.24)">c</text><text class="cls-6" transform="translate(250.62 1338.53) rotate(-122.42)">t</text><text class="cls-6" transform="translate(219.39 1290.63) rotate(-116.91)">u</text><text class="cls-6" transform="translate(178.56 1207.99) rotate(-111.33)">r</text><text class="cls-6" transform="translate(157.47 1155.45) rotate(-106.13)">e</text><text class="cls-6" transform="translate(134.36 1073.56) rotate(-100.37)">s</text></g></g></svg>