<svg xmlns="http://www.w3.org/2000/svg" viewBox="0 0 1365.73 282.99"><defs><style>.cls-1{fill:none;stroke:#f8f8f8;stroke-miterlimit:10;stroke-width:10px;}</style></defs><title>Cloud10_Above</title><g id="图层_2" data-name="图层 2"><g id="图层_4" data-name="图层 4"><line class="cls-1" x1="69.64" y1="141.78" x2="1189.52" y2="141.78"/><line class="cls-1" x1="1365.73" y1="277.87" x2="72.85" y2="277.87"/><path class="cls-1" d="M73.14,141.72A68,68,0,0,0,25,258c13.32,13.33,28.42,20,48.12,20"/><path class="cls-1" d="M103.15,277.59A68.05,68.05,0,0,1,55,161.33c13.32-13.32,28.42-20,48.12-20"/><path class="cls-1" d="M136.1,278A68.05,68.05,0,0,1,88,161.71c13.32-13.32,28.42-20,48.12-20"/><path class="cls-1" d="M1190.49,141.28A68.05,68.05,0,0,0,1238.61,25c-13.32-13.32-28.42-20-48.12-20"/></g></g></svg>