<svg xmlns="http://www.w3.org/2000/svg" viewBox="0 0 2146.41 419.47"><defs><style>.cls-1{fill:none;stroke:#f8f8f8;stroke-miterlimit:10;stroke-width:10px;}</style></defs><title>Cloud8_Above</title><g id="图层_2" data-name="图层 2"><g id="图层_4" data-name="图层 4"><line class="cls-1" x1="809.37" y1="414.47" x2="2146.41" y2="414.47"/><line class="cls-1" x1="1365.73" y1="141.56" x2="72.85" y2="141.56"/><path class="cls-1" d="M73.14,5.4A68.05,68.05,0,0,0,25,121.66c13.32,13.32,28.42,20,48.12,20"/><path class="cls-1" d="M103.15,141.28A68.05,68.05,0,0,1,55,25C68.35,11.7,83.45,5,103.15,5"/><path class="cls-1" d="M136.1,141.66A68.05,68.05,0,0,1,88,25.4c13.32-13.32,28.42-20,48.12-20"/><path class="cls-1" d="M1363.86,278A68.05,68.05,0,0,0,1412,161.72c-13.31-13.32-28.42-20-48.12-20"/><line class="cls-1" x1="812.05" y1="278.23" x2="1364.85" y2="278.23"/><path class="cls-1" d="M1332,278.81a68.05,68.05,0,0,0,48.12-116.26c-13.31-13.32-28.42-20-48.12-20"/><path class="cls-1" d="M812.05,278.19a68,68,0,0,0-48.12,116.25c13.32,13.33,28.42,20,48.12,20"/></g></g></svg>