<svg xmlns="http://www.w3.org/2000/svg" viewBox="0 0 2146.41 419.47"><defs><style>.cls-1{fill:none;stroke:#f8f8f8;stroke-miterlimit:10;stroke-width:10px;}</style></defs><title>Cloud9_Above</title><g id="图层_2" data-name="图层 2"><g id="图层_4" data-name="图层 4"><line class="cls-1" x1="780.67" y1="141.56" x2="2073.56" y2="141.56"/><path class="cls-1" d="M2073.27,5.4a68.05,68.05,0,0,1,48.12,116.26c-13.32,13.32-28.42,20-48.12,20"/><path class="cls-1" d="M2043.25,141.28A68.05,68.05,0,0,0,2091.38,25C2078.06,11.7,2063,5,2043.25,5"/><path class="cls-1" d="M2010.31,141.66A68.05,68.05,0,0,0,2058.43,25.4c-13.32-13.32-28.42-20-48.12-20"/><path class="cls-1" d="M782.55,278a68.05,68.05,0,0,1-48.13-116.26c13.32-13.32,28.42-20,48.13-20"/><line class="cls-1" x1="1334.36" y1="278.23" x2="781.56" y2="278.23"/><path class="cls-1" d="M1334.2,414.38a68.05,68.05,0,0,0,48.12-116.26c-13.31-13.32-28.42-20-48.12-20"/><line class="cls-1" x1="1337.04" y1="414.47" y2="414.47"/><path class="cls-1" d="M814.38,278.81a68.05,68.05,0,0,1-48.13-116.26c13.32-13.32,28.42-20,48.13-20"/></g></g></svg>