<svg xmlns="http://www.w3.org/2000/svg" viewBox="0 0 2408.82 607.12"><defs><style>.cls-1{fill:#e8f5fa;}.cls-2{fill:none;stroke:#92aab7;stroke-miterlimit:10;stroke-width:10px;}</style></defs><title>Cloud9</title><g id="图层_2" data-name="图层 2"><g id="图层_4" data-name="图层 4"><path class="cls-1" d="M962.86,112.71c160.54-12.22,312.36-9,359.29,23.72,74.07,51.62,57.14,123.81-181.93,148.81-202.21,21.15-143,63.73-79.9,84.2,57.2,18.55,225.56,10.37,254.8,10,297.45-3.84,487.17-50.43,493.23-45.81,12.08,9.2-666.52,140.27-1097.29,133-136.47-2.32-391.68-5.21-435.45-126.13-2.88-7.95-19.21-41.91-90.16-56.92-20.06-4.24-33.25-4.55-47.63-6.38-88.42-11.24-182.17-74.6-114.92-129C87.36,96,278.21,69.46,428.68,101.23l-.09-.68C446.51,45.11,568.16,2.74,696.78.13c150.63-3.06,287.47,48.88,268,115"/><path class="cls-2" d="M795.77,286.2c20.69-6.33,131.37-41.06,115.71-73.15-21.52-44.12-275.61-70.44-396.55-31.8C409.8,214.84,448.32,283.79,480.6,315.08,565.07,397,817.09,425.22,896.05,425.37c301.74.57,505.37-20.22,578.85-34.05,51.69-9.73,302.18-48.31,330.79-55.67"/><path class="cls-1" d="M1449.71,330.77c-159.83-5-309.19,2.05-351.51,29.41-66.78,43.19-41.32,100,197.52,112.86,202,10.85,148.75,46.42,89,64.53C1330.6,554,1163.54,552.45,1134.65,553c-293.86,5.7-486.65-25.73-492.07-21.88-10.79,7.66,674.47,91.82,1098.47,73.34,134.33-5.85,385.7-15.66,414.19-113,1.88-6.4,13.86-33.86,82-47.87,19.28-4,32.25-4.59,46.21-6.47,85.85-11.53,170.63-64.62,97.68-105.86-69.9-39.53-261.38-55-405.93-25.34v-.53c-24.41-43.52-149.54-73.6-276.73-71.89-148.94,2-277.6,47.29-250.33,99.2"/><path class="cls-2" d="M1635.59,463.67c-21.18-4.42-134.56-28.76-123-54.71,15.87-35.67,263.3-64.06,387.28-36.92,107.77,23.59,78.16,79.49,50.12,105.3-73.37,67.54-318.53,97.39-396.39,99.83-297.55,9.33-500.93-1.19-575.09-10-52.17-6.2-303.92-29.49-333-34.49"/></g></g></svg>