<svg xmlns="http://www.w3.org/2000/svg" viewBox="0 0 1610.09 419.77"><defs><style>.cls-1{fill:none;stroke:#f8f8f8;stroke-miterlimit:10;stroke-width:10px;}</style></defs><title>Clound4_Above</title><g id="图层_2" data-name="图层 2"><g id="图层_8" data-name="图层 8"><line class="cls-1" x1="1540.25" y1="141.37" x2="791.32" y2="141.37"/><path class="cls-1" d="M796.93,141.48a68.05,68.05,0,0,0-48.12,116.26c13.31,13.32,28.42,20,48.12,20"/><path class="cls-1" d="M833.57,141.93a68.05,68.05,0,0,0-48.12,116.26c13.31,13.32,28.42,20,48.12,20"/><path class="cls-1" d="M1372.5,414.56a68,68,0,0,0,48.12-116.25c-13.31-13.33-28.42-20-48.12-20"/><line class="cls-1" x1="1375.26" y1="414.77" y2="414.77"/><path class="cls-1" d="M1536.94,141.28A68,68,0,0,0,1585.06,25c-13.31-13.32-28.41-20-48.12-20"/><line class="cls-1" x1="1375.74" y1="277.92" x2="795.74" y2="277.92"/></g></g></svg>