<svg xmlns="http://www.w3.org/2000/svg" viewBox="0 0 1438.88 1172"><defs><style>.cls-1{fill:none;stroke:#537686;stroke-miterlimit:10;stroke-width:10px;}</style></defs><title>Cloud1_Under</title><g id="图层_2" data-name="图层 2"><g id="图层_3" data-name="图层 3"><line class="cls-1" x1="282.03" y1="5.03" x2="603.66" y2="5.03"/><line class="cls-1" x1="656.54" y1="277.72" x2="1223.5" y2="277.72"/><line class="cls-1" x1="69.64" y1="393.5" x2="968.13" y2="393.5"/><line class="cls-1" x1="1365.73" y1="529.59" x2="72.85" y2="529.59"/><line class="cls-1" x1="389.4" y1="622.08" x2="744.88" y2="622.08"/><path class="cls-1" d="M865.51,894.52h72a68.14,68.14,0,0,0,0-136.28h-72a68.14,68.14,0,0,1,0,136.28Z"/><path class="cls-1" d="M879.41,894.49H658.12a68.14,68.14,0,0,0,0,136.28H879.41"/><line class="cls-1" x1="871.31" y1="758.25" x2="389.61" y2="758.25"/><path class="cls-1" d="M873.33,1167a68,68,0,0,0,48.12-116.25c-13.32-13.33-28.42-20-48.12-20"/><path class="cls-1" d="M391.13,622.08A68.05,68.05,0,0,0,343,738.34c13.32,13.32,28.42,20,48.12,20"/><line class="cls-1" x1="736.42" y1="1166.91" x2="877.17" y2="1166.91"/><path class="cls-1" d="M901.65,894.49a68.05,68.05,0,0,0,48.12-116.26c-13.32-13.32-28.42-20-48.12-20"/><path class="cls-1" d="M691.52,894.22a68.05,68.05,0,0,0-48.13,116.26c13.32,13.32,28.42,20,48.13,20"/><path class="cls-1" d="M428.47,621.89a68.05,68.05,0,0,0-48.12,116.26c13.32,13.32,28.42,20,48.12,20"/><path class="cls-1" d="M1365.73,665.86a68,68,0,0,0,48.13-116.25c-13.32-13.33-28.42-20-48.13-20"/><path class="cls-1" d="M73.14,393.43A68.05,68.05,0,0,0,25,509.69c13.32,13.32,28.42,20,48.12,20"/><path class="cls-1" d="M103.15,529.31A68.05,68.05,0,0,1,55,413.05c13.32-13.32,28.42-20,48.12-20"/><path class="cls-1" d="M136.1,529.69A68.05,68.05,0,0,1,88,413.43c13.32-13.32,28.42-20,48.12-20"/><path class="cls-1" d="M1223.12,277.7a68,68,0,0,0,48.13-116.25c-13.32-13.33-28.42-20-48.13-20"/><path class="cls-1" d="M284.13,141.28A68.05,68.05,0,0,1,236,25C249.32,11.7,264.43,5,284.13,5"/><path class="cls-1" d="M1192,277.88a68.05,68.05,0,0,0,48.12-116.26c-13.31-13.32-28.42-20-48.12-20"/></g></g></svg>