<svg xmlns="http://www.w3.org/2000/svg" viewBox="0 0 247.61 235.14"><defs><style>.cls-1{fill:#ffde55;}.cls-2{fill:#448aff;}.cls-3{fill:none;stroke:#448aff;stroke-miterlimit:10;stroke-width:5px;}</style></defs><title>d_pic</title><g id="Layer_2" data-name="Layer 2"><g id="图层_5" data-name="图层 5"><rect class="cls-1" width="247.61" height="235.14" rx="38" ry="38"/></g><g id="图层_24" data-name="图层 24"><path class="cls-2" d="M143.82,103,115.94,49.73A24.87,24.87,0,0,0,82.48,39.27h0A24.88,24.88,0,0,0,72,72.73L99.9,126a25.61,25.61,0,0,0,1.56,2.58L145,105.71A25.63,25.63,0,0,0,143.82,103Z"/><path class="cls-3" d="M148.69,115.5,175.14,166a23.47,23.47,0,0,1-9.72,31.64h0a23.47,23.47,0,0,1-31.54-10l-26.45-50.5a25,25,0,0,1-1.16-2.61l40.94-21.44A26,26,0,0,1,148.69,115.5Z"/></g></g></svg>