<svg xmlns="http://www.w3.org/2000/svg" xmlns:xlink="http://www.w3.org/1999/xlink" viewBox="0 0 1535.74 770.47"><defs><style>.cls-1{fill:none;stroke:#7899ad;stroke-miterlimit:10;stroke-width:50px;stroke-dasharray:102.86 102.86;}.cls-2{fill:#c9bc9c;}.cls-3{fill:url(#未命名的渐变_65);}.cls-4,.cls-5{opacity:0.64;}.cls-4{fill:url(#未命名的渐变_7);}.cls-5{fill:url(#未命名的渐变_7-2);}.cls-11,.cls-12,.cls-13,.cls-14,.cls-16,.cls-17,.cls-18,.cls-6,.cls-7,.cls-8,.cls-9{opacity:0.5;}.cls-6{fill:url(#未命名的渐变_22);}.cls-7{fill:url(#未命名的渐变_22-2);}.cls-8{fill:url(#未命名的渐变_22-3);}.cls-9{fill:url(#未命名的渐变_22-4);}.cls-10{fill:url(#未命名的渐变_65-2);}.cls-11{fill:url(#未命名的渐变_22-5);}.cls-12{fill:url(#未命名的渐变_22-6);}.cls-13{fill:url(#未命名的渐变_22-7);}.cls-14{fill:url(#未命名的渐变_47);}.cls-15{fill:url(#未命名的渐变_65-3);}.cls-16{fill:#2ea7e0;}.cls-17{fill:url(#未命名的渐变_22-8);}.cls-18{fill:url(#未命名的渐变_22-9);}</style><linearGradient id="未命名的渐变_65" x1="-959.23" y1="471.57" x2="-966.13" y2="513.83" gradientTransform="matrix(0.15, 0.99, -0.99, 0.15, 1554.69, 1268.29)" gradientUnits="userSpaceOnUse"><stop offset="0" stop-color="#786050"/><stop offset="0.14" stop-color="#7e6656"/><stop offset="1" stop-color="#a48b78"/></linearGradient><linearGradient id="未命名的渐变_7" x1="-844.98" y1="84.7" x2="-982.65" y2="30.63" gradientTransform="matrix(0.15, 0.99, -0.99, 0.15, 1554.69, 1268.29)" gradientUnits="userSpaceOnUse"><stop offset="0" stop-color="#604d3f"/><stop offset="0.05" stop-color="#786654"/><stop offset="0.12" stop-color="#91816a"/><stop offset="0.2" stop-color="#a6977d"/><stop offset="0.29" stop-color="#b6a88b"/><stop offset="0.4" stop-color="#c1b395"/><stop offset="0.56" stop-color="#c7ba9a"/><stop offset="1" stop-color="#c9bc9c"/></linearGradient><linearGradient id="未命名的渐变_7-2" x1="-982.95" y1="-12.26" x2="-935.97" y2="47.72" xlink:href="#未命名的渐变_7"/><radialGradient id="未命名的渐变_22" cx="-2106.77" cy="-1257.01" r="60.88" gradientTransform="matrix(0, 1, -0.73, 0, 541.37, 2368.37)" gradientUnits="userSpaceOnUse"><stop offset="0" stop-color="#fff"/><stop offset="0" stop-color="#fff"/><stop offset="0.31" stop-color="#e8e2d4"/><stop offset="0.59" stop-color="#d7cdb5"/><stop offset="0.83" stop-color="#cdc1a3"/><stop offset="1" stop-color="#c9bc9c"/></radialGradient><radialGradient id="未命名的渐变_22-2" cx="-577.34" cy="926.04" r="173.04" gradientTransform="matrix(0.01, -0.9, 0.16, 0, 963.52, -99.68)" xlink:href="#未命名的渐变_22"/><radialGradient id="未命名的渐变_22-3" cx="-2415.94" cy="-2126.05" r="60.88" gradientTransform="matrix(0, 1, -0.73, 0, -202.2, 2862.88)" xlink:href="#未命名的渐变_22"/><radialGradient id="未命名的渐变_22-4" cx="-2597.78" cy="126.37" r="60.88" gradientTransform="matrix(0, 0.87, -0.42, 0, 1278.37, 2632.96)" xlink:href="#未命名的渐变_22"/><linearGradient id="未命名的渐变_65-2" x1="-999.15" y1="726.06" x2="-980.71" y2="618.01" xlink:href="#未命名的渐变_65"/><radialGradient id="未命名的渐变_22-5" cx="-1018.05" cy="114.52" r="247.24" gradientTransform="matrix(0.01, -1.45, 0.07, 0, 369.23, -1071.89)" xlink:href="#未命名的渐变_22"/><radialGradient id="未命名的渐变_22-6" cx="-2033.74" cy="-5405.13" r="60.88" gradientTransform="translate(2103.86 4202.54) scale(1 0.73)" xlink:href="#未命名的渐变_22"/><radialGradient id="未命名的渐变_22-7" cx="-3933.72" cy="-3472.48" r="60.88" gradientTransform="matrix(0, 0.91, -0.43, 0, -1401.4, 4007.47)" xlink:href="#未命名的渐变_22"/><radialGradient id="未命名的渐变_47" cx="-2425.21" cy="-3529.98" r="60.88" gradientTransform="matrix(1.4, -0.02, 0.01, 0.44, 3591.01, 1875.64)" gradientUnits="userSpaceOnUse"><stop offset="0" stop-color="#a48b78"/><stop offset="0.3" stop-color="#b39e86"/><stop offset="0.72" stop-color="#c3b496"/><stop offset="1" stop-color="#c9bc9c"/></radialGradient><linearGradient id="未命名的渐变_65-3" x1="-992.58" y1="546.29" x2="-926.42" y2="546.29" xlink:href="#未命名的渐变_65"/><radialGradient id="未命名的渐变_22-8" cx="-3159.17" cy="-6105.97" r="60.88" gradientTransform="matrix(0, 0.89, -0.31, 0, -1061.65, 3249.22)" xlink:href="#未命名的渐变_22"/><radialGradient id="未命名的渐变_22-9" cx="-4227.16" cy="-6426.52" r="60.88" gradientTransform="translate(3621.03 2038.24) scale(0.69 0.26)" xlink:href="#未命名的渐变_22"/></defs><title>D_step3</title><g id="Layer_2" data-name="Layer 2"><g id="图层_4" data-name="图层 4"><circle class="cls-1" cx="769.42" cy="385.23" r="360.14"/><path class="cls-2" d="M1375.07,516.59c-42.5,4.4-60.66-26.1-148.41-46.23a409.3,409.3,0,0,0-64.87-9.33c-44.72-2.82-49.33-2.07-92.21-2.46-59.49-.57-58.62-2.53-134-6.1-22.44-1-28-5-44.06-8.94a6.28,6.28,0,0,1-4.17-2.69,65.93,65.93,0,0,0,24.89-8.25c17.92-10.36,25.5-26.51,32.14-40.66A140.45,140.45,0,0,0,957,345a6.84,6.84,0,0,1,1.43,0c23.48,2.4,52.28.1,145.17-7.22,12.73-1,32.82-1.25,46.61-4.49,31.64-7.46,21.06-23.65,63.37-30.44,27.09-4.38,33.17,15.75,61.08,9.89,11.11-2.33,8-5.08,45.28-25.18,24.78-13.35,29.9-14.14,36.63-22.52,11.6-14.45,7.09-22.46,17.52-37.57,20-29,48.81-37.33,57.32-38.81,8.23-1.43,44.08-7.67,73.84,17,26.82,22.19,29.69,53.71,30.27,61.32,2.25,30-10,69.05-35.55,79.33-15.24,6.13-25.8-1.77-38.79,8.62-9.83,7.84-15.1,21.39-14.24,33.28.65,8.87,2.47,8.71,8.47,22.44,5.51,12.62,12.2,35.49,6.87,51.16-2.86,8.4-5.36,12.26-24.79,23.68C1404.69,504.7,1389.82,515.07,1375.07,516.59Z"/><path class="cls-3" d="M887.31,440.84c-2-3.34-.85-10.61,10.84-27.19,12.81-18.21,30.05-30.89,43.57-54.3C947,350.3,952,345.32,957,345a140.45,140.45,0,0,1-12.61,47c-6.64,14.15-14.22,30.3-32.14,40.66A65.93,65.93,0,0,1,887.31,440.84Z"/><path class="cls-4" d="M1454.81,450.74c-.25.12-10-23.81-31.49-43.31-7.4-6.74-12.56-.74-28.6-4.43-18.25-4.19-24.06-10.65-36.73-15.85-32.24-13.25-46,7.39-72.31-4s-42.94-44.89-35-58c4-6.66,12.73-5.22,27.92-8.15,43.62-8.42,46.85-34.79,75.33-37.74,43.87-4.54,94.48,54.29,96,76,.54,7.71-3.92,18.44-3.92,18.44-3.15,10.67.53,21,2.23,23.41C1473.34,433.1,1455.07,450.62,1454.81,450.74Z"/><path class="cls-5" d="M1355.88,266.59c3.68-4.46,13.22,17.41,20.7,26.77,9.34,11.69,18.35,20.3,40.09,36.7,27.54,20.78,38.87,27.49,45.94,22.33,5.18-3.77-24.49,28.25-27,11.93-1.33-8.54-70.57-30.07-92.79-40.61-11.24-5.33-34.71-29.18-21.08-35.58C1335.79,281.53,1349.08,274.82,1355.88,266.59Z"/><ellipse class="cls-6" cx="1461.89" cy="261.6" rx="50.7" ry="69.59" transform="translate(159.29 974.9) rotate(-38.85)"/><rect class="cls-7" x="1071.73" y="260.03" width="77.76" height="319.9" rx="12" ry="12" transform="translate(1595.38 -663.91) rotate(93.38)"/><ellipse class="cls-8" cx="1354.73" cy="446.94" rx="50.7" ry="69.59" transform="translate(291.15 1397.65) rotate(-60.05)"/><ellipse class="cls-9" cx="1225.1" cy="371.83" rx="29.19" ry="60.57" transform="translate(37.76 850.75) rotate(-38.85)"/><path class="cls-10" d="M696.27,446.26a34.2,34.2,0,0,1,2.05-11.17c2.63-7.21,9.21-11.52,5.38-12.49-7.93-2-27.48-6.13-45.77-23.8-8-7.7-11.15-16.34-14.59-25.69a96.41,96.41,0,0,1-5.79-34.35l.47.16c12.78,4.69,12.69,9.32,26.31,12.38,12.19,2.77,12,3,22,6.95,14.54,5.77,20.74,9.29,30.72,15.93,5.61,3.71,11.48,3.06,21.08-5,19.94-16.66,23.28-14,33.76-20.35,5.59-3.43,12.25,5.34,24.34,18.17,34.52,36.61,38.21,44.9,41.31,49.21s-5.71,1.7-17.89,1.51c0,0-23.82-.41-43.57,2.9-21.83,3.66-29.32,16.69-46.09,20C718,443,707,444.9,696.27,446.26Z"/><path class="cls-2" d="M696.27,446.26c-26.45,3.42-51.32,4-85.79,2.51-13.47-.59-63.12,2.14-152.88,1.93s-119.06,5.39-209,11.89c-33.09,2.39-88.53,6.9-124.88,16.91-3.8,1.07-4.92,9.95-12.16,13.55-21.75,10.87-55.31-18.74-57.61-20.81-10-9-22.33-20.12-25.26-37.47-2.29-13.7,3.34-18.91,12.43-61.5,3-13.73,5.59-21,4-23.94-12.35-23.58-28.25-30.08-40-57.2C-3.94,271,1.27,250.05,3.63,240.58c2.31-9.3,10.07-45.69,51.43-59.43,31.71-10.54,67.72.83,83.73,14.92,5.08,4.47,5.6,13.31,13.84,17.82,6.92,3.8,16.5,4.86,18.51,6.35,25.7,19,65.46,45.4,96.61,63.92,18.67,11.09,48.3,17.95,107.16,29.36C455,329.06,573.32,331.89,609.85,336c5.33.61,16.69-1.14,27.7,2.73a96.41,96.41,0,0,0,5.79,34.35c3.44,9.35,6.61,18,14.59,25.69,18.29,17.67,37.84,21.77,45.77,23.8,3.83,1-2.75,5.28-5.38,12.49A34.2,34.2,0,0,0,696.27,446.26Z"/><rect class="cls-11" x="333.25" y="148.5" width="77.76" height="517.62" rx="12" ry="12" transform="translate(762.53 17.48) rotate(87.46)"/><ellipse class="cls-12" cx="70.12" cy="244.3" rx="69.59" ry="50.7" transform="translate(-127.68 84.69) rotate(-35.08)"/><ellipse class="cls-13" cx="104.66" cy="436.01" rx="30.03" ry="63.18" transform="translate(-338.5 504.32) rotate(-85.26)"/><ellipse class="cls-14" cx="146.77" cy="346.48" rx="97.39" ry="43.5"/><path class="cls-15" d="M881.4,419.72c-10.81-2.59-14.67,4.61-25,4.29-15.62-.49-19.44-23.81-38.19-30.88a82.19,82.19,0,0,0-8.74-2.7,148.14,148.14,0,0,1,26.1-11.89c13.45-4.57,26.26-8.91,42.65-6.64a66.7,66.7,0,0,1,14.59,3.78c-.25,5.93,9.14,19.7,18.15,29.48,9.51,10.33,15.4,12.81,14.59,17.29-1.06,5.93-14.67,11.51-23.55,6.35S891.5,422.17,881.4,419.72Z"/><path class="cls-16" d="M704.57,423.77q-9.24,8.87-9.2,21c24.61.46-25.28-1.54,43.78.35,77.14,2.11,129.15,1.78,169.76,2.25-.69-2.47-2.25-4.41-3.86-6.41-.41.28-.8.57-1.22.84-2.64,1.26-.31-2.26-1.09-3.91l-.23-.33.23.33c.72,1.08,1.52,2.08,2.31,3.07,33.27-23.12,50.43-57.37,51.33-96.06-19.55.36-47.14,1-88.12-1C792.94,340.3,717.37,342,642,338.44a15.69,15.69,0,0,0-4.72.28C631.27,380.51,662.71,418.73,704.57,423.77Z"/><path class="cls-16" d="M903.83,441.82c.42-.27.81-.56,1.22-.84-.79-1-1.59-2-2.31-3.07C903.52,439.56,901.19,443.08,903.83,441.82Z"/><path class="cls-16" d="M902.74,437.91a1.23,1.23,0,0,0-.23-.33Z"/><path class="cls-2" d="M910.14,375.38c-10.18.12-14.78-4-16.74-1.62a3,3,0,0,0-.61,1.92,66.7,66.7,0,0,0-14.59-3.78c-16.39-2.27-29.2,2.07-42.65,6.64a148.14,148.14,0,0,0-26.1,11.89c-18.32-4.63-36.52-4.25-40.66-19.12-3.48-12.5-5-27.2-1.33-28.17,15.26-4,30.61-3.2,59.83-2.4,73.56,1.95,134.71-1.06,125,7-7.49,6.15-8.9,12.55-14.26,16.8C935,366.86,924.48,375.2,910.14,375.38Z"/><path class="cls-2" d="M907.16,448.27c-39.15,2.48-188.65-1.56-211.1-2.43-2.62-.1,7.46-2.27,15.46-7.27,20.26-12.66,9-24.47,28.39-35.66,13.74-7.93,34.65-15.6,54.85-12.21,6.38,1.07,13.18,4.34,24.85,4.75,10.65.38,13-2.78,21-2.8,14.39,0,25.35,10.05,41.31,25.13C900.12,434.93,914.2,447.82,907.16,448.27Z"/><ellipse class="cls-17" cx="802.53" cy="426.56" rx="21.13" ry="62.21" transform="translate(359.52 1220.13) rotate(-88.82)"/><path class="cls-2" d="M766.75,339c-15.79-3.77-119.27-.59-119.31-.59h0s-1.94,9.44-2.08,10.14c-2.14,11,12.57,53.46,46.3,61.72,4.63,1.13,12.93,3.05,21.61-.47,7.34-3,11.24-8.33,18.64-18.78,10.42-14.72,8-17.27,17.33-28.46.94-1.13,5.76-6.86,11.78-14.9C764.94,342.4,767.53,339.17,766.75,339Z"/><ellipse class="cls-18" cx="700.25" cy="357.95" rx="48.09" ry="18.1" transform="translate(-26.74 58.02) rotate(-4.66)"/></g></g></svg>