<svg xmlns="http://www.w3.org/2000/svg" viewBox="0 0 835.48 948.69"><defs><style>.cls-1{fill:#448aff;}.cls-2{fill:#efe347;}</style></defs><title>D_step2</title><g id="Layer_2" data-name="Layer 2"><g id="图层_4" data-name="图层 4"><path class="cls-1" d="M364.29,201.54c-13.2-45.53-73.4-70.27-110.65-36.61-16.21,14.65-24.92,37.63-21.85,59.29,1.81,12.71,8.13,23.15,16.27,32.87,9.28,11.08,19.56,21.52,24.23,35.57,3.84,11.53,3.19,23.23-3.9,33.31a41.94,41.94,0,0,1-25,16.43c-11.69,2.6-22.07-2-31.54-8.6-11-7.63-20.8-16.89-33.38-22-24.48-10-55.66-2.44-68.26,22.07-5.62,10.92-7.57,24.3-3.28,36,4.61,12.6,14.32,21.6,24.38,30,17.56,14.67,39.3,37.29,32.65,62.59-3,11.53-12.45,20.14-23.93,23-11.27,2.78-22.67-1.58-30.39-10a32,32,0,0,1-7.44-14.35c-2.27-9.38-16.74-5.4-14.46,4,6,24.82,32.07,41.25,57,34.64,26.64-7.07,40.13-34.23,33.38-60.17-3.36-12.92-10.67-24.6-19.38-34.58-8.44-9.67-19.2-16.73-28.15-25.86-8.37-8.55-13.06-19.05-9.9-31a34,34,0,0,1,23.27-24c12.68-3.78,25.91-1.15,37,5.67S201.22,346,212.76,352c21.76,11.31,48.16,5.66,64.23-12.83,7.79-9,12.68-20.13,12.76-32.11.09-14.29-5.78-28.11-13.86-39.66s-20.08-21.18-26.12-34.24c-4.08-8.81-4.59-19.11-2.45-28.5,4.5-19.78,19.84-37.22,40.51-40.2,21.32-3.08,43.84,8.76,55.35,26.56a54.45,54.45,0,0,1,6.64,14.53c2.68,9.26,17.16,5.32,14.47-4Z"/><path class="cls-1" d="M343.75,516.71c-23.7-1.24-46.44,13.8-56.87,34.76s-7.42,44.94,8.05,62.59c14.47,16.51,38.1,25.23,59.69,20.33,12.91-2.92,23.56-11.19,34.91-17.5,10-5.6,21-8.47,32.49-6.16,22.08,4.46,37.7,24.17,32.74,47A39.36,39.36,0,0,1,449.35,671c-3.36,5.21-8.38,8.61-13.14,12.42-10.81,8.65-14.86,20.46-11.63,34,3,12.41,10.61,24.69,18.79,34.37,8.78,10.41,21.32,15.41,34.8,12.82,26.19-5,37.87-29.66,53.39-48.14,7.78-9.27,17.32-17,29.91-17.3a38.64,38.64,0,0,1,29.26,12.28c15.93,17.39,6.33,46.22-13.84,55.29-3.73,1.68-4.54,7-2.69,10.26,2.17,3.83,6.58,4.34,10.26,2.69,20.17-9.07,31.63-32.41,28.65-54-3.16-22.88-23-38.67-45.23-41.24-25.49-2.95-42.68,14.7-56.35,33.72-7,9.76-13.75,19.89-24.09,26.46-9.6,6.1-21.29,8.57-30.27,0-4.12-3.94-7.21-8.82-10.17-13.65-3.6-5.87-7.11-12.22-8.3-19.09-2.37-13.69,10.47-17.93,18.28-26.41,15.57-16.93,18-44.18,6.12-63.82-12.34-20.37-37.64-29.7-60.59-25.6-23.6,4.22-40.5,27.77-65.76,24.51-22.16-2.87-42.42-22.2-41.25-45.37,1.22-24.15,24.33-44.68,48.25-43.43,9.64.51,9.62-14.49,0-15Z"/><path class="cls-1" d="M632,186.14c-24.28-7.69-52.23-7.58-74.86,5.1-20.62,11.56-33.8,34.15-33,57.92a52.41,52.41,0,0,0,11.32,31.53c7.87,9.69,19.31,15.58,31.08,19.11,22.65,6.8,47.92,5.1,68.09,19,8.27,5.71,14.5,14.8,13.2,25.23-1.63,13-12.34,22.5-23.56,27.76-22,10.31-54.26,5.09-66,31C550,421,554.93,446,573.44,456c23.54,12.71,48.37-2.18,72.86.7,22.41,2.63,31.49,28.53,23.07,47.68-10.43,23.71-41.82,28.35-64,21.43-9.23-2.88-13.19,11.59-4,14.46,22.8,7.12,49.31,3.88,67.92-11.72,16.71-14,22.46-38,14.66-58.34-3.72-9.68-10.26-18.4-19.54-23.37-11-5.87-23.6-6.06-35.66-4.5-17.82,2.3-48.55,12.15-57.51-10.48-3.06-7.72-2.76-17.16,1.38-24.43,6-10.63,19.1-11.81,30-13.84,26.21-4.87,56.32-18,59.93-48,3.06-25.37-19-42.05-40.46-49.35-22.33-7.59-50.13-4.34-69.52-19.5s-16.38-45.41-1-62.3c19-20.87,51.18-21.79,76.38-13.81,9.22,2.92,13.17-11.55,4-14.46Z"/><circle class="cls-2" cx="107.55" cy="723.41" r="48.68"/><circle class="cls-2" cx="316.99" cy="450.57" r="29.43"/><circle class="cls-2" cx="29.43" cy="185.66" r="29.43"/><circle class="cls-2" cx="332.83" cy="45.28" r="45.28"/><circle class="cls-2" cx="712.09" cy="123.4" r="32.83"/><circle class="cls-2" cx="776.61" cy="656.61" r="31.7"/><circle class="cls-2" cx="489.06" cy="905.67" r="43.02"/><circle class="cls-2" cx="478.87" cy="302.27" r="32.83"/><circle class="cls-2" cx="798.12" cy="383.78" r="37.36"/></g></g></svg>