<svg xmlns="http://www.w3.org/2000/svg" viewBox="0 0 815.65 645.29"><defs><style>.cls-1{fill:#ddeffb;}.cls-2{fill:#bfdff1;}.cls-3{opacity:0.35;}.cls-4{fill:#9fc8db;}.cls-5{fill:#87b4d3;}.cls-6{fill:#6ea1ca;}.cls-7{fill:#5490c2;}.cls-8{fill:#337fb9;}.cls-9{fill:#448aff;}.cls-10{fill:#efe347;}</style></defs><title>D_step1</title><g id="Layer_2" data-name="Layer 2"><g id="图层_4" data-name="图层 4"><polygon class="cls-1" points="254.35 465.46 0 645.29 0 179.84 254.35 0 254.35 465.46"/><rect class="cls-2" x="253.66" width="561.99" height="463.69"/><g class="cls-3"><rect class="cls-4" x="150.37" y="74.05" width="563.51" height="460.17"/><rect class="cls-5" x="203.49" y="118.05" width="456.5" height="372.79"/><rect class="cls-6" x="256.61" y="162.06" width="349.5" height="285.4"/><rect class="cls-7" x="309.72" y="206.07" width="242.49" height="198.02"/><rect class="cls-8" x="362.84" y="250.07" width="135.49" height="110.64"/></g><path class="cls-9" d="M255,147.18c-17.85-12.13-41.27-12.4-60.12-2.37-19.5,10.39-30.91,30.68-32.29,52.38-1.28,20.27,5.83,42.82,20.93,56.85,8.86,8.23,19.43,11.89,31.26,13.43,12.45,1.62,24.81,2.43,35.76,9.24,17.75,11,21.2,34.85,12.55,52.89a31.14,31.14,0,0,1-21.84,17.71c-13,3.17-26.55,2.4-39,8.14-22.12,10.24-34.14,35.57-30,59.2,1.92,11,7.46,21.93,16.35,28.91,11.24,8.84,25.21,8.82,38.8,7.84,21.38-1.55,48.95,2.61,56.76,26.28C288,489.35,286,504,277.57,513.25c-8.88,9.75-22.5,10.33-32.83,2.62-3.27-2.45-8.35-.51-10.26,2.69-2.28,3.8-.54,7.85,2.69,10.26a38.23,38.23,0,0,0,35.37,5.33c11.68-4.21,20.07-13.53,24.64-24.9a51.52,51.52,0,0,0-18.08-61.46c-8.46-6-18.78-9.51-29-11-12.32-1.76-24.27.59-36.58.08-11.85-.49-20.55-6.94-24.68-18A39.75,39.75,0,0,1,217,366.21c13.25-3.09,27-2.33,39.51-8.54,18.59-9.26,27.19-32.42,25.92-52.2-1.55-24.36-17.86-42.37-41.11-48.93-12.42-3.51-26.46-1.84-38.32-7.17-8.29-3.72-14.34-10.9-18.53-18.79-10.11-19.06-10.16-45.59,4.67-62.31s39.63-20.81,58.29-8.13c8,5.44,15.51-7.55,7.57-13Z"/><path class="cls-9" d="M439.48,155.16a51.5,51.5,0,0,0-52.55-21.88c-20.28,3.84-35.07,20.64-39.49,40.33-4.31,19.22-.78,41.22,11.19,57.13,7,9.25,16.06,14.73,26.77,18.84,11.1,4.26,22.22,7.33,30,16.91,13.37,16.43,15,42.7.12,58.68-6.46,6.92-15.39,11.57-25,10-6.5-1.05-12.53-3.16-19.19-1.89a25.15,25.15,0,0,0-13.55,8.08c-7.55,8.42-11.08,19.85-13.72,30.63-3,12.46-4.74,25.94,1.92,37.59,5.1,8.91,14.13,14.77,23.8,17.67,11.05,3.33,22.13,2.14,33.38.81,12.79-1.5,27.31-3.12,37.28,6.72,7.56,7.45,11.4,18.44,11.47,28.93.07,10.91-4.41,21.61-13.41,28.1-8,5.79-18.63,7.7-27.6,3-8.54-4.47-16.14,8.47-7.57,12.95C422.68,517.9,445.66,510.23,458,493s11.21-42.2.13-59.81c-5.82-9.26-14.33-16.36-24.93-19.37-13.45-3.82-27.23-.68-40.8.46-8.93.75-18.08.09-25.92-4.66-9.63-5.82-11.39-16.19-9.53-26.63,1.81-10.17,4.46-22.94,11.4-31,3.15-3.65,6.59-4.67,11.38-3.83,5.93,1.05,11.54,2.76,17.64,2.21,23.23-2.11,40.32-23.21,43.17-45.41,2.83-22-6.62-45.87-25.14-58.55-10.65-7.3-23.91-8.93-34.9-15.5-7.44-4.44-12.71-11.79-15.84-19.78-7.16-18.3-5.72-43.71,10.84-56.66,15.83-12.37,39.78-8.13,51,8.27,5.42,7.93,18.42.43,13-7.57Z"/><path class="cls-9" d="M622.69,132.86c-21.47-10.16-47.17-12.67-68.49-.57-19.12,10.85-29.85,32.06-31.13,53.58-1.34,22.51,9.86,42.77,30.18,52.81,18.66,9.22,41.67,9.72,57.77,23.9,7.6,6.7,12.75,15.67,11.86,26.08-1,11.7-9.06,21.51-19.2,26.79-11.74,6.13-24.79,5.58-37.4,8.25-10.41,2.2-19.17,8.1-24.15,17.6-8.35,15.94-7.54,39.15,5.81,52.28,8,7.87,19.19,10.5,30.1,10.4s22.09-3,33-1.46c22,3.06,26.26,29.79,20,47.43-8,22.27-35,28.64-55,19.29-8.69-4.06-16.32,8.87-7.57,12.95,20.21,9.45,44.38,8.54,61.95-6.1,16-13.31,21.16-35.84,16.66-55.62-2.05-9-6.6-18-13.77-24.07-8.65-7.28-19.69-9.48-30.75-9.16-17,.49-43.19,8.08-49.52-14.08a34.41,34.41,0,0,1,1.55-23.3c4.6-9.95,13.76-11.69,23.9-12.86,12.94-1.49,26.1-3.83,37.16-11.18,10.11-6.72,18-17.06,21-28.93,5.83-23.37-8.81-43.89-28.81-54.46-18.36-9.7-42.6-9.51-58.22-24.15-16.79-15.74-14-43.69-1.32-61.13,15.36-21.21,45-21.67,66.85-11.33,8.68,4.1,16.3-8.82,7.57-13Z"/><ellipse class="cls-10" cx="315.99" cy="113.21" rx="33.16" ry="38.49"/><ellipse class="cls-10" cx="344.28" cy="313.59" rx="18.53" ry="21.51"/><ellipse class="cls-10" cx="491.55" cy="400.76" rx="21.46" ry="24.91"/><ellipse class="cls-10" cx="496.42" cy="161.89" rx="34.14" ry="39.62"/><ellipse class="cls-10" cx="741.01" cy="107.4" rx="20.48" ry="23.77"/><ellipse class="cls-10" cx="739.06" cy="397.22" rx="32.18" ry="37.36"/></g></g></svg>