<svg xmlns="http://www.w3.org/2000/svg" xmlns:xlink="http://www.w3.org/1999/xlink" viewBox="0 0 2449.01 2002.53"><defs><style>.cls-1{opacity:0.3;}.cls-2{fill:url(#未命名的渐变_249);}.cls-3{fill:url(#未命名的渐变_249-2);}.cls-4{fill:url(#未命名的渐变_249-3);}.cls-5{fill:url(#未命名的渐变_249-4);}.cls-6{fill:url(#未命名的渐变_249-5);}.cls-7{fill:url(#未命名的渐变_249-6);}.cls-8{fill:url(#未命名的渐变_249-7);}.cls-9{fill:url(#未命名的渐变_249-8);}.cls-10{fill:url(#未命名的渐变_249-9);}.cls-11{fill:url(#未命名的渐变_249-10);}.cls-12{fill:url(#未命名的渐变_249-11);}.cls-13{fill:#d9bd72;}.cls-14{fill:#cbb173;}.cls-15{fill:#bea674;}.cls-16{fill:#b09a75;}.cls-17{fill:#a38f75;}.cls-18{fill:#968474;}.cls-19{fill:#8a7a73;}.cls-20{fill:url(#未命名的渐变_249-12);}.cls-21{fill:#ac6967;opacity:0.5;}.cls-22,.cls-23{font-size:337.88px;font-family:ArialMT, Arial;}.cls-22{fill:#00a39b;}.cls-23{fill:#fff;}</style><linearGradient id="未命名的渐变_249" x1="-3690.35" y1="6750.85" x2="-3654.75" y2="6299.47" gradientTransform="translate(-2116.73 8165.58) rotate(180)" gradientUnits="userSpaceOnUse"><stop offset="0" stop-color="#a18220"/><stop offset="0.28" stop-color="#9f8323"/><stop offset="0.46" stop-color="#99842b"/><stop offset="0.6" stop-color="#8e8839"/><stop offset="0.73" stop-color="#7e8c4e"/><stop offset="0.84" stop-color="#6a9268"/><stop offset="0.95" stop-color="#529a88"/><stop offset="1" stop-color="#449e9b"/></linearGradient><linearGradient id="未命名的渐变_249-2" x1="-3748.71" y1="6744.08" x2="-3719.76" y2="6377" xlink:href="#未命名的渐变_249"/><linearGradient id="未命名的渐变_249-3" x1="-3760.55" y1="6742.04" x2="-3737.86" y2="6454.4" xlink:href="#未命名的渐变_249"/><linearGradient id="未命名的渐变_249-4" x1="-3864.81" y1="6723.47" x2="-3848.14" y2="6512.11" xlink:href="#未命名的渐变_249"/><linearGradient id="未命名的渐变_249-5" x1="-3930.86" y1="6694.01" x2="-3919.7" y2="6552.49" xlink:href="#未命名的渐变_249"/><linearGradient id="未命名的渐变_249-6" x1="-3684.28" y1="1653.69" x2="-3633.82" y2="1014.03" gradientTransform="matrix(-1, 0, 0, 1, -2116.73, 0)" xlink:href="#未命名的渐变_249"/><linearGradient id="未命名的渐变_249-7" x1="-3743.97" y1="1647.71" x2="-3703.12" y2="1129.8" gradientTransform="matrix(-1, 0, 0, 1, -2116.73, 0)" xlink:href="#未命名的渐变_249"/><linearGradient id="未命名的渐变_249-8" x1="-3753.92" y1="1649.03" x2="-3721.64" y2="1239.85" gradientTransform="matrix(-1, 0, 0, 1, -2116.73, 0)" xlink:href="#未命名的渐变_249"/><linearGradient id="未命名的渐变_249-9" x1="-3859.33" y1="1627.46" x2="-3835.25" y2="1322.23" gradientTransform="matrix(-1, 0, 0, 1, -2116.73, 0)" xlink:href="#未命名的渐变_249"/><linearGradient id="未命名的渐变_249-10" x1="-3923.53" y1="1586.6" x2="-3907.68" y2="1385.56" gradientTransform="matrix(-1, 0, 0, 1, -2116.73, 0)" xlink:href="#未命名的渐变_249"/><linearGradient id="未命名的渐变_249-11" x1="-4017.47" y1="1086.12" x2="-3963.89" y2="406.82" gradientTransform="matrix(-1, 0, 0, 1, -2116.73, 0)" xlink:href="#未命名的渐变_249"/><linearGradient id="未命名的渐变_249-12" x1="-3718.97" y1="1055.43" x2="-3699.97" y2="814.57" gradientTransform="matrix(-1, 0, 0, 1, -2116.73, 0)" xlink:href="#未命名的渐变_249"/></defs><title>Drug</title><g id="Layer_2" data-name="Layer 2"><g id="图层_4" data-name="图层 4"><g class="cls-1"><polygon class="cls-2" points="2449.01 1551.47 2372.6 1754.86 2169.62 1917.24 1897.38 2002.53 1598.88 2000.89 1465.16 1902.48 1204.86 1738.45 1020.99 1710.57 796.52 1592.47 679.5 1515.38 899.2 1462.9 1417.4 1430.09 2269.91 1431.73 2437.07 1489.14 2449.01 1551.47"/><path class="cls-3" d="M2215,1436.65l150.44,75.45,4.78,85.3-71.64,139.41-195.82,116.46-210.14,54.13-310.44-14.77-289-185.34-248.35-59L870.54,1540s7.17-49.21,14.33-50.85,150.45-21.32,150.45-21.32l327.15-14.76,699.69-8.2Z"/><path class="cls-4" d="M2195.89,1453.06l119.4,80.37-76.42,141.06L2012,1786l-284.17,16.4-317.61-106.61s-124.17-67.25-136.11-68.89-176.72-31.16-176.72-31.16L958.9,1484.22l186.26-31.16,300.89-26.25,501.48,24.61L2095.59,1435Z"/><polygon class="cls-5" points="2102.75 1456.34 2188.72 1480.94 2257.97 1554.75 2172.01 1653.16 1933.2 1730.25 1632.32 1705.65 1405.46 1626.92 1340.98 1561.31 1221.58 1539.99 1360.08 1477.66 1672.91 1457.98 2028.72 1446.5 2102.75 1456.34"/><polygon class="cls-6" points="1887.83 1469.46 2083.65 1480.94 2157.68 1512.11 2031.11 1600.68 1856.79 1658.08 1527.24 1597.4 1462.77 1530.15 1713.51 1472.74 1887.83 1469.46"/></g><polygon class="cls-7" points="2440.55 1478.36 2364.13 1182.25 2161.15 945.84 1888.92 821.66 1590.42 824.05 1456.69 967.33 1196.39 1206.13 1012.52 1246.72 788.05 1418.66 671.03 1530.9 890.73 1607.31 1408.93 1655.07 2261.45 1652.69 2428.61 1569.11 2440.55 1478.36"/><path class="cls-8" d="M2206.52,1645.52,2357,1535.67l4.78-124.17-71.64-203L2094.28,1039l-210.14-78.81-310.44,21.5-289,269.84-248.35,86L862.07,1495.08s7.17,71.64,14.33,74,150.45,31,150.45,31L1354,1621.64l699.69,11.94Z"/><path class="cls-9" d="M2187.42,1621.64l119.4-117-76.42-205.37-226.86-162.38L1719.37,1113l-317.61,155.22s-124.17,97.91-136.11,100.29-176.71,45.38-176.71,45.38L950.43,1576.27l186.27,45.37,300.88,38.21L1939.06,1624l148.06,23.88Z"/><polygon class="cls-10" points="2094.28 1616.87 2180.25 1581.05 2249.51 1473.59 2163.54 1330.31 1924.74 1218.07 1623.85 1253.89 1396.99 1368.51 1332.51 1464.03 1213.11 1495.08 1351.62 1585.82 1664.44 1614.48 2020.26 1631.19 2094.28 1616.87"/><polygon class="cls-11" points="1879.36 1597.76 2075.18 1581.05 2149.21 1535.67 2022.64 1406.72 1848.32 1323.14 1518.78 1411.5 1454.3 1509.4 1705.04 1592.99 1879.36 1597.76"/><polygon class="cls-12" points="2011.1 1069.86 1976.89 1116.9 1908.46 1142.57 1805.81 1140.43 1741.66 1082.69 1829.33 877.4 1865.69 706.32 1835.75 511.72 1799.4 297.88 1810.09 220.89 1887.07 208.06 1979.03 308.57 2013.24 498.89 2032.49 755.51 2006.83 973.63 2011.1 1069.86"/><polygon class="cls-13" points="1908.46 173.21 2034.63 83.4 2265.58 106.92 2419.55 188.18 2445.21 378.5 2321.18 515.37 1923.43 630.84 1664.68 660.78 1433.73 526.06 1316.11 352.84 1305.42 76.98 1493.6 6.42 1752.36 0 1807.95 57.74 1792.99 177.49 1848.59 215.98 1908.46 173.21"/><polygon class="cls-14" points="1364.44 78 1532.13 17.71 1574.53 16.37 1754.14 22.87 1801.92 75.11 1795.94 136.73 1793.19 179.72 1842.85 213.41 1896.36 179.53 2009.11 108.38 2069.58 115.83 2212.72 125.25 2349.3 188.31 2377.91 356.21 2253.19 499.92 1906.25 600.47 1676.63 619.04 1469.79 500.22 1372.46 335.17 1364.44 78"/><polygon class="cls-15" points="1423.47 79.01 1570.65 29 1607.67 27.5 1755.93 45.74 1795.89 92.49 1792.62 146.11 1793.39 181.95 1837.11 210.84 1884.25 185.84 1983.59 133.35 2036.02 141.29 2159.85 143.58 2279.05 188.45 2310.61 333.92 2185.19 484.48 1889.06 570.1 1688.57 577.3 1505.85 474.38 1428.8 317.49 1423.47 79.01"/><polygon class="cls-16" points="1482.49 80.02 1609.17 40.29 1640.81 38.64 1757.72 68.61 1789.86 109.86 1789.3 155.5 1793.6 184.18 1831.38 208.27 1872.15 192.15 1958.07 158.33 2002.46 166.74 2106.98 161.91 2208.79 188.58 2243.32 311.63 2117.2 469.03 1871.88 539.72 1700.52 535.56 1541.91 448.55 1485.14 299.81 1482.49 80.02"/><polygon class="cls-17" points="1541.52 81.03 1647.69 51.58 1673.96 49.77 1759.51 91.47 1783.83 127.23 1785.99 164.88 1793.8 186.41 1825.64 205.7 1860.04 198.46 1932.54 183.31 1968.9 192.2 2054.11 180.24 2138.54 188.71 2176.02 289.34 2049.2 453.59 1854.69 509.35 1712.46 493.82 1577.97 422.71 1541.49 282.14 1541.52 81.03"/><polygon class="cls-18" points="1600.54 82.04 1686.21 62.87 1707.1 60.91 1761.29 114.34 1777.79 144.61 1782.67 174.26 1794 188.63 1819.9 203.13 1847.94 204.77 1907.02 208.28 1935.35 217.66 2001.25 198.57 2068.29 188.84 2108.72 267.05 1981.21 438.14 1837.51 478.98 1724.41 452.08 1614.03 396.87 1597.83 264.46 1600.54 82.04"/><polygon class="cls-19" points="1901.79 243.11 1998.03 188.97 2041.42 244.76 1913.21 422.7 1820.33 448.6 1650.09 371.04 1659.56 83.05 1740.24 72.04 1779.35 183.65 1901.79 243.11"/><polygon class="cls-20" points="1765.99 1042.08 1650.3 840.02 1500.39 756.92 1414.03 758.55 1430.32 809.07 1516.68 846.54 1604.67 928.02 1607.93 1020.9 1669.85 1069.78 1759.47 1063.26 1765.99 1042.08"/><path class="cls-13" d="M1565.57,745.52s105.91,22.81,101,29.33-47.25,84.73-47.25,84.73l-242.79,47.25L1246.19,884l-96.14-101,76.59-53.77,118.95-17.92,135.24-8.15L1533,708l-21.19,42.36Z"/><path class="cls-14" d="M1371.66,713.47l110-.82,46,4-15.33,35.26,47.46-4.13s93.49,18.9,89.41,24.33-44,75.77-44,75.77L1392.3,889.18l-122.48-19.82-79-91.25,71.67-47Z"/><path class="cls-15" d="M1397.73,715.64l84.73,6.52,39.91,3.15-9.48,28.15,41.14-3.38s81.06,15,77.8,19.33-40.74,66.81-40.74,66.81l-183,35.31-114.61-16.84-61.92-81.47,66.76-40.13Z"/><path class="cls-16" d="M1423.8,717.81l59.48,13.86,33.78,2.28-3.63,21,34.83-2.61s68.63,11.07,66.19,14.33S1577,824.55,1577,824.55L1423.8,853.88,1317.07,840l-44.81-71.7L1334.1,735Z"/><path class="cls-17" d="M1449.87,720l34.22,21.18,27.67,1.41,2.22,13.93,28.51-1.86s56.21,7.16,54.58,9.33-34.22,48.89-34.22,48.89l-123.3,23.35-98.85-10.86L1313,763.44,1369.92,737Z"/><path class="cls-18" d="M1475.94,722.16l9,28.52,21.55.54,8.06,6.81,22.2-1.1s43.78,3.25,43,4.34-31,39.92-31,39.92l-93.43,17.38-91-7.88-10.6-52.14,52-19.66Z"/><polygon class="cls-19" points="1562.31 758.55 1485.72 760.18 1502.02 724.33 1394.47 753.66 1387.95 796.03 1471.06 800.92 1534.61 789.51 1562.31 758.55"/><circle class="cls-21" cx="1345.1" cy="509.31" r="30.22"/><circle class="cls-21" cx="1182.5" cy="876.23" r="19.43"/><circle class="cls-21" cx="1038.61" cy="479.09" r="33.82"/><circle class="cls-21" cx="704.75" cy="578.41" r="10.11"/><circle class="cls-21" cx="1751.6" cy="723.06" r="42.45"/><circle class="cls-21" cx="1274.56" cy="670.5" r="15.87"/><circle class="cls-21" cx="994.72" cy="694.21" r="13.67"/><circle class="cls-21" cx="691.11" cy="771.98" r="15.11"/><text class="cls-22" transform="translate(15.69 1355.02)">Drug release</text><text class="cls-23" transform="translate(0 1336.32)">Drug release</text></g></g></svg>