<svg xmlns="http://www.w3.org/2000/svg" viewBox="0 0 4067.59 768.89"><defs><style>.cls-1{fill:none;stroke:#f8f8f8;stroke-miterlimit:10;stroke-width:10px;}</style></defs><title>Frame</title><g id="Layer_2" data-name="Layer 2"><g id="图层_4" data-name="图层 4"><rect class="cls-1" x="5" y="6.45" width="60.54" height="60.54"/><line class="cls-1" x1="60.68" y1="66.75" x2="106.41" y2="66.75"/><line class="cls-1" x1="65.72" y1="61.99" x2="65.72" y2="107.73"/><line class="cls-1" x1="101.05" y1="67.49" x2="101.05" y2="0.61"/><line class="cls-1" x1="0.61" y1="102.61" x2="67.49" y2="102.61"/><line class="cls-1" x1="96.35" y1="5.58" x2="384.2" y2="5.58"/><line class="cls-1" x1="5.78" y1="97.75" x2="5.78" y2="385.6"/><rect class="cls-1" x="6.45" y="703.35" width="60.54" height="60.54" transform="translate(-696.9 770.34) rotate(-90)"/><line class="cls-1" x1="66.75" y1="708.21" x2="66.75" y2="662.47"/><line class="cls-1" x1="61.99" y1="703.17" x2="107.73" y2="703.17"/><line class="cls-1" x1="67.49" y1="667.84" x2="0.61" y2="667.84"/><line class="cls-1" x1="102.61" y1="768.28" x2="102.61" y2="701.4"/><line class="cls-1" x1="5.58" y1="672.53" x2="5.58" y2="384.69"/><line class="cls-1" x1="97.75" y1="763.11" x2="385.6" y2="763.11"/><rect class="cls-1" x="4002.05" y="701.9" width="60.54" height="60.54" transform="translate(8064.64 1464.35) rotate(180)"/><line class="cls-1" x1="4006.91" y1="702.14" x2="3961.17" y2="702.14"/><line class="cls-1" x1="4001.87" y1="706.9" x2="4001.87" y2="661.16"/><line class="cls-1" x1="3966.53" y1="701.4" x2="3966.53" y2="768.28"/><line class="cls-1" x1="4066.98" y1="666.27" x2="4000.1" y2="666.27"/><line class="cls-1" x1="3971.23" y1="763.31" x2="3683.38" y2="763.31"/><line class="cls-1" x1="4061.81" y1="671.14" x2="4061.81" y2="383.29"/><rect class="cls-1" x="4000.6" y="5" width="60.54" height="60.54" transform="translate(4066.14 -3995.6) rotate(90)"/><line class="cls-1" x1="4000.83" y1="60.68" x2="4000.83" y2="106.41"/><line class="cls-1" x1="4005.6" y1="65.72" x2="3959.86" y2="65.72"/><line class="cls-1" x1="4000.1" y1="101.05" x2="4066.98" y2="101.05"/><line class="cls-1" x1="3964.97" y1="0.61" x2="3964.97" y2="67.49"/><line class="cls-1" x1="4062.01" y1="96.35" x2="4062.01" y2="384.2"/><line class="cls-1" x1="3969.83" y1="5.78" x2="3681.99" y2="5.78"/><line class="cls-1" x1="300.89" y1="5.61" x2="3742.3" y2="5.61"/><line class="cls-1" x1="341.16" y1="763.09" x2="3782.57" y2="763.09"/></g></g></svg>