<svg xmlns="http://www.w3.org/2000/svg" viewBox="0 0 1572.92 691.44"><defs><style>.cls-1{fill:#fff;}</style></defs><title>Graph</title><g id="Layer_2" data-name="Layer 2"><g id="图层_4" data-name="图层 4"><path class="cls-1" d="M11.23,687.74.33,680.12C3.69,673.37,343.8,5.47,1021.08,0l.07,15C351.2,20.41,14.55,681.07,11.23,687.74Z"/><path class="cls-1" d="M1044.23,691.44c-409.07-4.28-671.13-189-818.94-343.19C65,181,.63,12.24,0,10.55L11.56,4.46c2.49,6.63,258.05,663.86,1032.8,672Z"/><path class="cls-1" d="M749.12,154.5a19.68,19.68,0,0,0,6.88,4.38,22.28,22.28,0,0,0,8.2,1.71q11.81,0,11.81-10a10.11,10.11,0,0,0-1.28-5,13.53,13.53,0,0,0-3.48-4,88.65,88.65,0,0,0-8.29-5.27q-8.43-5-11.12-9.26a18,18,0,0,1-2.68-9.78q0-8.28,5.62-13.15t14.16-4.85c5.57,0,9.67.79,12.28,2.41v9.36q-5.07-4.17-12.82-4.16a13.15,13.15,0,0,0-8.39,2.55,8.51,8.51,0,0,0-3.24,7.11,9.52,9.52,0,0,0,2.25,6.58q2.24,2.52,9.73,6.91,8.26,4.69,11.56,9.37A17.8,17.8,0,0,1,783.6,150c0,5.85-1.77,10.33-5.36,13.46s-8.53,4.67-14.89,4.67a32.91,32.91,0,0,1-7.75-1.1,16.91,16.91,0,0,1-6.48-2.72Z"/><path class="cls-1" d="M810.3,166.53A11.48,11.48,0,0,1,804,168q-10.77,0-10.76-14.12V126.45H786.4v-7h6.88V108.05l7.07-2.66v14.09h9.95v7h-9.95v25.94q0,4.68,1.33,6.71a5,5,0,0,0,4.46,2,6,6,0,0,0,4.16-1.59Z"/><path class="cls-1" d="M840.18,127.81a7.32,7.32,0,0,0-4.88-1.5q-4.14,0-6.81,4.58t-2.68,12V167h-7.1V119.48h7.1v9.66H826q3-10.48,10.51-10.48a8.59,8.59,0,0,1,3.72.65Z"/><path class="cls-1" d="M878.6,145.38h-28c.12,5.07,1.3,9,3.52,11.75a11.26,11.26,0,0,0,9.3,4.15,18,18,0,0,0,12.36-5.11v7.51c-3.53,3-8.21,4.43-14,4.43s-10.32-2.17-13.57-6.52-4.87-10.41-4.87-18.14q0-10.9,5.35-18t13.27-7.09a14.41,14.41,0,0,1,12.28,6q4.41,6,4.41,16.78Zm-7.09-6.74c0-4.3-.89-7.62-2.57-10a8.31,8.31,0,0,0-7.14-3.51,9.26,9.26,0,0,0-7.33,3.73,18.78,18.78,0,0,0-3.9,9.75Z"/><path class="cls-1" d="M921.93,167h-7.07V140q0-14.64-9-14.65a9.11,9.11,0,0,0-7.68,4.13,17.26,17.26,0,0,0-3,10.43V167h-7.1V119.48h7.1v7.86h.14q4.53-9,13.15-9a11.43,11.43,0,0,1,10,5q3.42,5,3.43,14.58Z"/><path class="cls-1" d="M968.55,163q0,26.37-21.59,26.38a24.75,24.75,0,0,1-13-3.3V178q6.69,4.41,12.85,4.42,14.61,0,14.61-18.21v-5h-.15q-4.56,9-13.62,9a14,14,0,0,1-12.06-6.4q-4.53-6.41-4.53-17,0-12.17,5-19.26a15.51,15.51,0,0,1,13.33-7.12q8,0,11.88,7.56h.15v-6.44h7.09Zm-7.09-24.27a14.59,14.59,0,0,0-3.12-9.46,9.59,9.59,0,0,0-7.76-4,10.15,10.15,0,0,0-9,5.05c-2.15,3.36-3.22,8-3.22,13.85q0,7.56,3.12,12.25a9.48,9.48,0,0,0,8.26,4.68,10.07,10.07,0,0,0,8.47-4.47,18.45,18.45,0,0,0,3.27-11.34Z"/><path class="cls-1" d="M1000.46,166.53A11.48,11.48,0,0,1,994.2,168q-10.77,0-10.77-14.12V126.45h-6.88v-7h6.88V108.05l7.07-2.66v14.09h10v7h-10v25.94q0,4.68,1.34,6.71a5,5,0,0,0,4.46,2,6,6,0,0,0,4.16-1.59Z"/><path class="cls-1" d="M1042.69,167h-7.06V139.66q0-14.32-9-14.34a9.12,9.12,0,0,0-7.63,4.19,17.51,17.51,0,0,0-3,10.55V167h-7.11V96.67H1016V127.3h.13c3.08-6,7.43-8.94,13.09-8.94q13.5,0,13.5,19.38Z"/><path class="cls-1" d="M1073.8,143.75q0-11.76,5.55-18.58t15-6.81c6,0,10.72,2.18,14.15,6.55s5.12,10.4,5.12,18.11c0,7.5-1.82,13.57-5.47,18.17a17.71,17.71,0,0,1-14.66,6.92,17.41,17.41,0,0,1-14.35-6.7Q1073.8,154.7,1073.8,143.75Zm7.24-.26q0,8.22,3.5,12.94a11.1,11.1,0,0,0,9.4,4.72,10.59,10.59,0,0,0,9.28-4.62q3.18-4.6,3.18-13.25T1103.22,130a10.58,10.58,0,0,0-9.28-4.64,11,11,0,0,0-9.44,4.86Q1081.05,135,1081,143.49Z"/><path class="cls-1" d="M1142.73,103.83a8.06,8.06,0,0,0-4.31-1.24q-6.66,0-6.66,9.8v7.09h9.37v7h-9.37V167h-7V126.45h-6.85v-7h6.85V112c0-5.1,1.23-9.12,3.72-12a13.07,13.07,0,0,1,14.28-3.54Z"/><path class="cls-1" d="M1189.1,166.53a11.54,11.54,0,0,1-6.27,1.49q-10.77,0-10.76-14.12V126.45h-6.88v-7h6.88V108.05l7.07-2.66v14.09h10v7h-10v25.94q0,4.68,1.33,6.71a5,5,0,0,0,4.46,2,6.05,6.05,0,0,0,4.17-1.59Z"/><path class="cls-1" d="M1231.33,167h-7.06V139.66q0-14.32-9-14.34a9.13,9.13,0,0,0-7.64,4.19,17.58,17.58,0,0,0-3,10.55V167h-7.1V96.67h7.1V127.3h.14q4.6-8.92,13.08-8.94,13.52,0,13.51,19.38Z"/><path class="cls-1" d="M1275.8,145.38h-28c.12,5.07,1.3,9,3.52,11.75a11.28,11.28,0,0,0,9.31,4.15,18,18,0,0,0,12.35-5.11v7.51c-3.53,3-8.2,4.43-14,4.43s-10.32-2.17-13.57-6.52-4.87-10.41-4.87-18.14q0-10.9,5.35-18t13.27-7.09a14.41,14.41,0,0,1,12.28,6q4.41,6,4.41,16.78Zm-7.09-6.74c0-4.3-.89-7.62-2.57-10a8.29,8.29,0,0,0-7.14-3.51,9.26,9.26,0,0,0-7.33,3.73,18.78,18.78,0,0,0-3.9,9.75Z"/><path class="cls-1" d="M1314.31,160.3V167h-7.1V96.67h7.1v31h.14q4.71-9.34,13.76-9.33a14,14,0,0,1,12,6.3q4.44,6.28,4.43,17.2,0,12-5,19.14a15.41,15.41,0,0,1-13.27,7.11q-7.81,0-11.92-7.81Zm0-12.85a15.17,15.17,0,0,0,3.15,9.73,9.67,9.67,0,0,0,7.89,4,9.92,9.92,0,0,0,8.84-5.14c2.12-3.45,3.18-8.2,3.18-14.28q0-7.51-3-12a9.27,9.27,0,0,0-8.12-4.45,10.43,10.43,0,0,0-8.6,4.42,18,18,0,0,0-3.38,11.26Z"/><path class="cls-1" d="M1351.9,143.75q0-11.76,5.55-18.58t15-6.81c6,0,10.72,2.18,14.15,6.55s5.12,10.4,5.12,18.11c0,7.5-1.82,13.57-5.47,18.17a17.71,17.71,0,0,1-14.67,6.92,17.41,17.41,0,0,1-14.34-6.7Q1351.91,154.7,1351.9,143.75Zm7.24-.26q0,8.22,3.5,12.94a11.1,11.1,0,0,0,9.4,4.72,10.59,10.59,0,0,0,9.28-4.62q3.18-4.6,3.18-13.25T1381.32,130a10.58,10.58,0,0,0-9.28-4.64,11,11,0,0,0-9.44,4.86Q1359.15,135,1359.14,143.49Z"/><path class="cls-1" d="M1435.6,167h-7.06V140q0-14.64-9-14.65a9.09,9.09,0,0,0-7.67,4.13,17.2,17.2,0,0,0-3,10.43V167h-7.1V119.48h7.1v7.86h.14c3-6,7.4-9,13.16-9a11.42,11.42,0,0,1,10,5q3.42,5,3.43,14.58Z"/><path class="cls-1" d="M1480.08,145.38h-28c.12,5.07,1.3,9,3.52,11.75a11.24,11.24,0,0,0,9.3,4.15,18,18,0,0,0,12.36-5.11v7.51c-3.54,3-8.21,4.43-14,4.43s-10.32-2.17-13.57-6.52-4.87-10.41-4.87-18.14q0-10.9,5.35-18t13.27-7.09a14.41,14.41,0,0,1,12.28,6q4.41,6,4.41,16.78Zm-7.09-6.74c0-4.3-.89-7.62-2.57-10a8.31,8.31,0,0,0-7.14-3.51,9.26,9.26,0,0,0-7.33,3.73,18.78,18.78,0,0,0-3.9,9.75Z"/><path class="cls-1" d="M711.81,578a19.68,19.68,0,0,0,6.88,4.38,22.27,22.27,0,0,0,8.19,1.71q11.8,0,11.81-10a10.08,10.08,0,0,0-1.27-5,13.53,13.53,0,0,0-3.48-4,88.65,88.65,0,0,0-8.29-5.27q-8.43-5-11.12-9.27a18,18,0,0,1-2.68-9.77q0-8.29,5.62-13.15t14.16-4.85c5.57,0,9.67.79,12.28,2.41v9.36q-5.08-4.17-12.83-4.16a13.19,13.19,0,0,0-8.39,2.55,8.53,8.53,0,0,0-3.23,7.11,9.52,9.52,0,0,0,2.25,6.58q2.24,2.52,9.73,6.91,8.26,4.69,11.55,9.37a17.81,17.81,0,0,1,3.3,10.52q0,8.77-5.36,13.46T726,591.56a33.06,33.06,0,0,1-7.76-1.1,16.92,16.92,0,0,1-6.47-2.72Z"/><path class="cls-1" d="M773,590a11.48,11.48,0,0,1-6.26,1.49q-10.77,0-10.76-14.13V549.9h-6.89v-7H756V531.5l7.06-2.66v14.09h10v7H763v25.94q0,4.68,1.34,6.71a5,5,0,0,0,4.46,2A6,6,0,0,0,773,583Z"/><path class="cls-1" d="M802.87,551.26a7.32,7.32,0,0,0-4.88-1.5q-4.14,0-6.81,4.58t-2.68,12v24.07h-7.11V542.93h7.11v9.66h.13q3.06-10.49,10.52-10.48a8.62,8.62,0,0,1,3.72.65Z"/><path class="cls-1" d="M841.29,568.83h-28c.12,5.07,1.29,9,3.52,11.75a11.24,11.24,0,0,0,9.3,4.15,18,18,0,0,0,12.36-5.11v7.51q-5.31,4.44-14,4.43T810.85,585c-3.24-4.35-4.87-10.41-4.87-18.14q0-10.9,5.35-18t13.27-7.09a14.41,14.41,0,0,1,12.28,6q4.41,6,4.41,16.78Zm-7.09-6.74q0-6.45-2.57-10a8.31,8.31,0,0,0-7.14-3.51,9.25,9.25,0,0,0-7.33,3.73,18.78,18.78,0,0,0-3.9,9.75Z"/><path class="cls-1" d="M884.62,590.45h-7.07v-27q0-14.64-9-14.65a9.1,9.1,0,0,0-7.67,4.13,17.26,17.26,0,0,0-3,10.43v27.12h-7.11V542.93h7.11v7.86H858q4.54-9,13.16-9a11.4,11.4,0,0,1,10,5q3.44,5,3.44,14.58Z"/><path class="cls-1" d="M931.23,586.45q0,26.37-21.58,26.38a24.73,24.73,0,0,1-13-3.3v-8.12q6.69,4.41,12.85,4.42,14.61,0,14.6-18.21v-5H924c-3,6-7.58,9-13.61,9a14,14,0,0,1-12.06-6.4q-4.55-6.4-4.53-17,0-12.16,5-19.26a15.5,15.5,0,0,1,13.33-7.12q8,0,11.87,7.56h.15v-6.44h7.09Zm-7.09-24.27a14.53,14.53,0,0,0-3.11-9.46,9.61,9.61,0,0,0-7.76-4,10.15,10.15,0,0,0-9,5.05c-2.15,3.36-3.22,8-3.22,13.85,0,5,1,9.13,3.12,12.25a9.48,9.48,0,0,0,8.26,4.68,10.09,10.09,0,0,0,8.47-4.47,18.38,18.38,0,0,0,3.26-11.34Z"/><path class="cls-1" d="M963.15,590a11.52,11.52,0,0,1-6.27,1.49q-10.75,0-10.76-14.13V549.9h-6.88v-7h6.88V531.5l7.07-2.66v14.09h10v7h-10v25.94q0,4.68,1.33,6.71a5,5,0,0,0,4.46,2,6.05,6.05,0,0,0,4.17-1.59Z"/><path class="cls-1" d="M1005.38,590.45h-7.06V563.11q0-14.33-9-14.34a9.13,9.13,0,0,0-7.64,4.19,17.56,17.56,0,0,0-3,10.55v26.94h-7.1V520.12h7.1v30.63h.14c3.08-6,7.42-8.94,13.08-8.94q13.51,0,13.51,19.38Z"/><path class="cls-1" d="M1036.49,567.2q0-11.76,5.54-18.58t15-6.81c6,0,10.72,2.18,14.15,6.55s5.12,10.4,5.12,18.11c0,7.5-1.83,13.57-5.47,18.17a17.73,17.73,0,0,1-14.67,6.92,17.41,17.41,0,0,1-14.34-6.7Q1036.49,578.16,1036.49,567.2Zm7.24-.26q0,8.22,3.49,12.94a11.13,11.13,0,0,0,9.41,4.72,10.56,10.56,0,0,0,9.27-4.62q3.19-4.61,3.19-13.25c0-5.78-1.06-10.23-3.19-13.32a10.55,10.55,0,0,0-9.27-4.64,11,11,0,0,0-9.44,4.86Q1043.74,558.48,1043.73,566.94Z"/><path class="cls-1" d="M1105.42,527.28a8.09,8.09,0,0,0-4.32-1.24c-4.43,0-6.66,3.26-6.66,9.8v7.09h9.38v7h-9.38v40.55h-7V549.9h-6.84v-7h6.84v-7.47c0-5.1,1.24-9.12,3.72-12a13.09,13.09,0,0,1,14.29-3.54Z"/><path class="cls-1" d="M1151.78,590a11.48,11.48,0,0,1-6.26,1.49q-10.77,0-10.76-14.13V549.9h-6.88v-7h6.88V531.5l7.07-2.66v14.09h10v7h-10v25.94q0,4.68,1.33,6.71a5,5,0,0,0,4.46,2,6,6,0,0,0,4.16-1.59Z"/><path class="cls-1" d="M1194,590.45h-7V563.11q0-14.33-9-14.34a9.13,9.13,0,0,0-7.63,4.19,17.49,17.49,0,0,0-3,10.55v26.94h-7.1V520.12h7.1v30.63h.14q4.6-8.93,13.08-8.94,13.52,0,13.5,19.38Z"/><path class="cls-1" d="M1238.49,568.83h-28c.12,5.07,1.3,9,3.52,11.75a11.24,11.24,0,0,0,9.3,4.15,18,18,0,0,0,12.36-5.11v7.51q-5.31,4.44-14,4.43T1208.05,585c-3.24-4.35-4.87-10.41-4.87-18.14q0-10.9,5.35-18t13.27-7.09a14.41,14.41,0,0,1,12.28,6q4.41,6,4.41,16.78Zm-7.09-6.74c0-4.3-.89-7.62-2.57-10a8.31,8.31,0,0,0-7.14-3.51,9.26,9.26,0,0,0-7.33,3.73,18.78,18.78,0,0,0-3.9,9.75Z"/><path class="cls-1" d="M1303.73,590.45h-7.06V563.11q0-14.33-9-14.34A9.13,9.13,0,0,0,1280,553a17.56,17.56,0,0,0-3,10.55v26.94h-7.1V520.12h7.1v30.63h.14q4.6-8.93,13.08-8.94,13.52,0,13.51,19.38Z"/><path class="cls-1" d="M1348.18,542.93,1330,597.63q-5.07,15.18-14.3,15.2a13,13,0,0,1-4.54-.69v-7.39a9.64,9.64,0,0,0,4,1q4.81,0,7.21-6.71l3.07-8.63-15.71-47.43h7.85l10.48,35.7.87,3.92h.18c.14-.9.43-2.17.87-3.83l10.93-35.79Z"/><path class="cls-1" d="M1389.2,590.45h-7.09v-7.9H1382q-4.38,9-13.62,9a14,14,0,0,1-12.09-6.42q-4.5-6.42-4.5-17.34,0-11.76,5.08-18.87t13.26-7.12c5.44,0,9.41,2.52,11.87,7.56h.15V520.12h7.09Zm-7.06-28.27a14.56,14.56,0,0,0-3.17-9.56,9.75,9.75,0,0,0-7.81-3.85,10.14,10.14,0,0,0-8.91,5q-3.26,5-3.26,13.64c0,5.29,1,9.49,3.14,12.56a9.64,9.64,0,0,0,8.35,4.62,9.94,9.94,0,0,0,8.4-4.53,18.77,18.77,0,0,0,3.26-11.28Z"/><path class="cls-1" d="M1423.36,551.26a7.28,7.28,0,0,0-4.88-1.5q-4.14,0-6.81,4.58t-2.68,12v24.07h-7.1V542.93h7.1v9.66h.14c2-7,5.53-10.48,10.51-10.48a8.56,8.56,0,0,1,3.72.65Z"/><path class="cls-1" d="M1426.47,567.2q0-11.76,5.55-18.58t15-6.81q9,0,14.15,6.55c3.42,4.38,5.13,10.4,5.13,18.11,0,7.5-1.83,13.57-5.47,18.17a17.73,17.73,0,0,1-14.67,6.92,17.41,17.41,0,0,1-14.34-6.7Q1426.49,578.16,1426.47,567.2Zm7.24-.26c0,5.48,1.18,9.79,3.5,12.94a11.11,11.11,0,0,0,9.4,4.72,10.58,10.58,0,0,0,9.28-4.62q3.19-4.61,3.19-13.25c0-5.78-1.06-10.23-3.19-13.32a10.57,10.57,0,0,0-9.28-4.64,11,11,0,0,0-9.44,4.86C1434.88,556.86,1433.71,561.3,1433.71,566.94Z"/><path class="cls-1" d="M1511.08,586.45q0,26.37-21.58,26.38a24.73,24.73,0,0,1-13-3.3v-8.12q6.69,4.41,12.85,4.42,14.59,0,14.6-18.21v-5h-.15c-3,6-7.59,9-13.61,9a14,14,0,0,1-12.06-6.4q-4.55-6.4-4.54-17,0-12.16,5-19.26a15.5,15.5,0,0,1,13.33-7.12c5.32,0,9.29,2.52,11.87,7.56h.15v-6.44h7.09ZM1504,562.18a14.58,14.58,0,0,0-3.11-9.46,9.61,9.61,0,0,0-7.76-4,10.14,10.14,0,0,0-9,5.05c-2.15,3.36-3.23,8-3.23,13.85q0,7.56,3.13,12.25a9.47,9.47,0,0,0,8.25,4.68,10.09,10.09,0,0,0,8.48-4.47q3.3-4.47,3.26-11.34Z"/><path class="cls-1" d="M1556.4,568.83h-28c.12,5.07,1.29,9,3.52,11.75a11.24,11.24,0,0,0,9.3,4.15,18,18,0,0,0,12.36-5.11v7.51q-5.31,4.44-14,4.43T1526,585c-3.24-4.35-4.87-10.41-4.87-18.14q0-10.9,5.35-18t13.27-7.09a14.41,14.41,0,0,1,12.28,6q4.41,6,4.41,16.78Zm-7.09-6.74q0-6.45-2.57-10a8.32,8.32,0,0,0-7.14-3.51,9.25,9.25,0,0,0-7.33,3.73,18.69,18.69,0,0,0-3.9,9.75Z"/><path class="cls-1" d="M1565.81,590.45V520.12h7.11v70.33Z"/></g></g></svg>