<svg xmlns="http://www.w3.org/2000/svg" viewBox="0 0 247.61 235.14"><defs><style>.cls-1{fill:#ffde55;}.cls-2{fill:#448aff;}</style></defs><title>h_pic</title><g id="Layer_2" data-name="Layer 2"><g id="图层_5" data-name="图层 5"><rect class="cls-1" width="247.61" height="235.14" rx="38" ry="38"/></g><g id="图层_24" data-name="图层 24"><path class="cls-2" d="M61.3,52.36c-6,11.14-12.13,23.78-11.1,36.79,1.09,13.91,10.59,21.53,19.22,31.24,8.15,9.18,13.57,21.49,11,33.88a46.26,46.26,0,0,1-6.7,15.57,65.69,65.69,0,0,1-5.78,7.61c-1,1.19-2.13,2.35-3.23,3.48s-3.69,2.15-.82,2.12l5.79,4.4-.18-.48-.61,4.62.3-.46-6.78,2.76.38.11c7.44,2.1,10.62-9.47,3.19-11.57l-.38-.11a6.44,6.44,0,1,0-1.71,12.73C69.8,195,74.48,188.31,78,184.12a71.46,71.46,0,0,0,10.56-16.46c5.37-12,6-25.15,1-37.42A63.74,63.74,0,0,0,79,113.14c-4.26-5-9.78-9.18-13.41-14.74-8.23-12.6-.11-28.38,6.1-40,3.64-6.8-6.71-12.87-10.36-6Z"/><path class="cls-2" d="M114.3,48.36c-6,11.14-12.13,23.78-11.1,36.79,1.09,13.91,10.59,21.53,19.22,31.24,8.15,9.18,13.57,21.49,11,33.88a46.26,46.26,0,0,1-6.7,15.57,65.69,65.69,0,0,1-5.78,7.61c-1,1.19-2.13,2.35-3.23,3.48s-3.69,2.15-.82,2.12l5.79,4.4-.18-.48-.61,4.62.3-.46-6.78,2.76.38.11c7.44,2.1,10.62-9.47,3.19-11.57l-.38-.11a6.44,6.44,0,1,0-1.71,12.73c5.93-.07,10.61-6.74,14.08-10.93a71.46,71.46,0,0,0,10.56-16.46c5.37-12,6-25.15,1-37.42A63.74,63.74,0,0,0,132,109.14c-4.26-5-9.78-9.18-13.41-14.74-8.23-12.6-.11-28.38,6.1-40,3.64-6.8-6.71-12.87-10.36-6Z"/><path class="cls-2" d="M168.3,48.36c-6,11.14-12.13,23.78-11.1,36.79,1.09,13.91,10.59,21.53,19.22,31.24,8.15,9.18,13.57,21.49,11,33.88a46.26,46.26,0,0,1-6.7,15.57,65.69,65.69,0,0,1-5.78,7.61c-1,1.19-2.13,2.35-3.23,3.48s-3.69,2.15-.82,2.12l5.79,4.4-.18-.48-.61,4.62.3-.46-6.78,2.76.38.11c7.44,2.1,10.62-9.47,3.19-11.57l-.38-.11a6.44,6.44,0,1,0-1.71,12.73c5.93-.07,10.61-6.74,14.08-10.93a71.46,71.46,0,0,0,10.56-16.46c5.37-12,6-25.15,1-37.42A63.74,63.74,0,0,0,186,109.14c-4.26-5-9.78-9.18-13.41-14.74-8.23-12.6-.11-28.38,6.1-40,3.64-6.8-6.71-12.87-10.36-6Z"/><path class="cls-2" d="M34.31,103.42C50.62,109.22,68,114,85.4,110.58c8.28-1.64,15.64-5.77,23.51-8.61a34.1,34.1,0,0,1,21.6-1.09c14.76,4,28.09,13.22,44,12.09C191,111.8,205,102.38,218,92.94c6.18-4.5.2-14.92-6.06-10.36-12.25,8.9-26.39,19.49-42.37,18.41-14.22-.95-26.43-10.21-40.33-12.72A43.34,43.34,0,0,0,108,89.6c-7.08,2.26-13.63,5.91-20.73,8.11-16.63,5.17-34.05-.26-49.81-5.86-7.3-2.59-10.43,9-3.19,11.57Z"/><path class="cls-2" d="M41.49,154.35A68.77,68.77,0,0,0,89.07,161c14.44-3.28,30.05-16.18,45.37-11.87,7.84,2.2,14.27,8,21.73,11.13a46.37,46.37,0,0,0,23.73,3.1c17.11-2.07,31.42-12,43.82-23.35,5.7-5.23-2.8-13.7-8.48-8.49-11.25,10.32-24.76,19.9-40.62,20.24-8.19.18-14.88-2.68-21.78-6.79-6.29-3.75-12.59-7.38-20-8.33-15.28-2-28.26,7.13-42.23,11.5A56,56,0,0,1,47.55,144c-6.82-3.63-12.88,6.72-6.06,10.37Z"/></g></g></svg>