<svg xmlns="http://www.w3.org/2000/svg" viewBox="0 0 1208.13 950.66"><defs><style>.cls-1{fill:#358d93;}.cls-2{fill:#ebeded;}.cls-3{opacity:0.39;}.cls-4{fill:#e6dded;}.cls-5{fill:#dacce4;}.cls-6{fill:#cdbcdb;}.cls-7{fill:#c2abd1;}.cls-8{fill:#b69ac8;}</style></defs><title>H_step2</title><g id="Layer_2" data-name="Layer 2"><g id="图层_4" data-name="图层 4"><path class="cls-1" d="M489.13,343.19s-126.7-33.84-109,122.21,151,93.74,148.56,208.46S428.34,803,428.34,803s-131.79,104.8,30.85,142.24,249.2-132.39,396.57-93.46,238.12,129.69,330.67,21S1043.55,667.86,1075,534.87s54.51-182.11-138.68-216.55S686.22,368.94,489.13,343.19Z"/><path class="cls-2" d="M626.65,510.63c29-63.36,149.79-23.81,200-16.34,56.89,8.47,113.36,4.63,168.79-10.39,12.3-3.34,7.08-22.47-5.27-19.12C951,475.41,911,480.66,870.32,478.84S790.2,466.65,750,461.06c-44.46-6.17-117.81-9.81-140.43,39.57-5.27,11.51,11.81,21.6,17.12,10Z"/><path class="cls-2" d="M626.46,633.2c58.63-65,159.83-24.94,232.53-14.43,57.93,8.38,117.15,3.9,163.7-34.66,9.83-8.14-4.26-22.1-14-14C893.25,665.7,716.4,503.87,612.44,619.18c-8.52,9.46,5.46,23.52,14,14Z"/><path class="cls-2" d="M579.73,581.23c83.69-.76,138,69.21,199.5,115.2,47.39,35.43,110,60.78,165.4,28,11-6.49,1-23.64-10-17.12-73.86,43.69-148.78-30-201-74.79-44.3-38-93.33-71.66-153.84-71.12-12.75.11-12.78,19.94,0,19.83Z"/><path class="cls-2" d="M824.13,352.54c47.32,82.71,51.17,180.56,25.31,271-12.4,43.37-37.11,82-49.22,125.17-5.51,19.67-13.72,57.34,5.69,72,2.57,1.93,7.44,1.83,10,0l2.49-1.77c4.79-3.41,5.82-8.23,3.55-13.56l-1-2.27c-5-11.71-22.06-1.62-17.12,10l1,2.27,3.56-13.56q13.38,8,7-7.43A65.21,65.21,0,0,1,816.54,765c2.84-14.18,8.53-28.23,14.16-41.4,7.06-16.48,15.18-32.47,22-49.08a442.11,442.11,0,0,0,29.42-111.64c9.65-76.38-2.41-153.23-40.83-220.38-6.33-11.07-23.47-1.09-17.12,10Z"/><g class="cls-3"><path class="cls-4" d="M0,59.06,37.81,0,958.17,316.7s-30.34,376-346.56,463Z"/><path class="cls-5" d="M3.24,58.21l34.36-55L824.49,276.92s-26,322-296.78,396.48Z"/><path class="cls-6" d="M6.48,57.36l30.92-51,653.4,230.8s-21.63,268-247,330Z"/><path class="cls-7" d="M9.71,56.51l27.48-47L557.11,197.36s-17.27,214-197.22,263.47Z"/><path class="cls-8" d="M13,55.66l24-43,386.44,144.9S410.51,317.53,276,354.55Z"/></g></g></g></svg>