<svg xmlns="http://www.w3.org/2000/svg" viewBox="0 0 830.19 640.68"><defs><style>.cls-1{fill:#358d93;}.cls-2{fill:#ebeded;}</style></defs><title>H_step3</title><g id="Layer_2" data-name="Layer 2"><g id="图层_4" data-name="图层 4"><path class="cls-1" d="M111.19,33.21S-15.51-.63,2.17,155.42s151,93.74,148.57,208.46S50.4,493,50.4,493-81.39,597.81,81.25,635.25s249.2-132.4,396.57-93.46,238.12,129.69,330.67,21S665.61,357.88,697.06,224.89,751.57,42.78,558.38,8.34,308.28,59,111.19,33.21Z"/><path class="cls-2" d="M248.71,200.65c29-63.36,149.79-23.81,200-16.34,56.89,8.47,113.36,4.63,168.79-10.4,12.3-3.33,7.08-22.46-5.27-19.11C573,165.43,533,170.68,492.39,168.86S412.26,156.67,372,151.08c-44.47-6.17-117.82-9.81-140.44,39.56-5.27,11.52,11.81,21.61,17.12,10Z"/><path class="cls-2" d="M248.52,323.22c58.63-65,159.83-24.94,232.53-14.43,57.93,8.37,117.15,3.9,163.7-34.66,9.83-8.14-4.26-22.1-14-14C515.31,355.72,338.47,193.89,234.5,309.2c-8.52,9.46,5.46,23.52,14,14Z"/><path class="cls-2" d="M201.79,271.24c83.69-.75,138,69.22,199.5,115.21,47.39,35.43,110,60.78,165.4,28,11-6.49,1-23.63-10-17.11-73.86,43.69-148.78-30-201-74.79-44.3-38-93.33-71.66-153.84-71.12-12.75.11-12.78,19.94,0,19.82Z"/><path class="cls-2" d="M446.2,42.56c47.31,82.71,51.16,180.56,25.3,271-12.4,43.36-37.11,81.95-49.21,125.16-5.52,19.68-13.73,57.35,5.69,72,2.56,1.93,7.43,1.83,10,0l2.49-1.77c4.79-3.41,5.82-8.23,3.55-13.56l-1-2.28c-5-11.7-22.06-1.61-17.12,10l1,2.27,3.56-13.56q13.38,8,7-7.43a65.21,65.21,0,0,1,1.11-29.38c2.84-14.19,8.53-28.23,14.17-41.4,7.05-16.48,15.17-32.47,22-49.08a441.69,441.69,0,0,0,29.42-111.64c9.65-76.39-2.41-153.23-40.82-220.38-6.34-11.07-23.48-1.09-17.12,10Z"/></g></g></svg>