<svg xmlns="http://www.w3.org/2000/svg" viewBox="0 0 644.38 644.38"><defs><style>.cls-1{fill:#358d93;}.cls-2{fill:#ebeded;}</style></defs><title>H_step4</title><g id="Layer_2" data-name="Layer 2"><g id="图层_4" data-name="图层 4"><circle class="cls-1" cx="322.19" cy="322.19" r="322.19"/><path class="cls-2" d="M143.32,240.4c31-67.59,159.79-25.4,213.36-17.43,60.69,9,120.93,4.94,180.07-11.09,13.12-3.56,7.55-24-5.62-20.4-41.84,11.34-84.49,16.94-127.86,15s-85.47-13-128.4-19c-47.44-6.59-125.68-10.47-149.82,42.2-5.62,12.29,12.6,23.05,18.27,10.68Z"/><path class="cls-2" d="M143.12,371.16c62.54-69.38,170.5-26.61,248.06-15.4,61.8,8.94,125,4.16,174.63-37,10.5-8.69-4.54-23.58-14.95-15-123.13,102-311.79-70.65-422.7,52.37-9.09,10.09,5.82,25.09,15,15Z"/><path class="cls-2" d="M93.26,315.71c89.29-.8,147.2,73.84,212.83,122.91,50.55,37.79,117.32,64.83,176.45,29.86,11.71-6.93,1.08-25.22-10.67-18.27-78.81,46.61-158.73-32-214.49-79.78-47.26-40.5-99.56-76.45-164.12-75.87-13.6.12-13.63,21.27,0,21.15Z"/><path class="cls-2" d="M354,71.74c50.47,88.24,54.58,192.63,27,289.13-13.23,46.26-39.59,87.43-52.5,133.53-5.88,21-14.64,61.18,6.07,76.81,2.73,2.07,7.93,2,10.67,0l2.66-1.88c5.11-3.64,6.21-8.78,3.79-14.47l-1-2.43c-5.3-12.48-23.53-1.72-18.26,10.68l1,2.42,3.79-14.47q14.28,8.55,7.5-7.92a69.68,69.68,0,0,1,1.18-31.34c3-15.14,9.1-30.12,15.12-44.17,7.52-17.58,16.18-34.65,23.42-52.36a471.75,471.75,0,0,0,31.38-119.1c10.3-81.49-2.57-163.47-43.55-235.1-6.76-11.81-25-1.17-18.26,10.67Z"/><path class="cls-2" d="M248,198.55c-1.17,17.66.68,34.2,7.32,50.7,10.88,27,23.6,45.49,16.69,76.28-1.49,6.63,8.71,9.46,10.2,2.81,10.8-48.13-26.77-82.29-23.64-129.79.45-6.8-10.13-6.77-10.57,0Z"/><path class="cls-2" d="M385.11,115.83c-13.78.5-22.11,10.26-24.3,23.65-1.58,9.66,0,19.55-1.7,29.23-2.4,13.5-8.63,25.43-17.42,35.84L350,211c1.05-2.25,2.11-4.5,3.16-6.76,2.87-6.13-6.24-11.5-9.13-5.34l-3.17,6.77c-2.35,5,4.14,11.33,8.31,6.4,8.22-9.73,14.63-20.35,18.23-32.65,4.1-14-1.23-52.28,17.71-53,6.79-.25,6.82-10.82,0-10.58Z"/><path class="cls-2" d="M468.4,218.26c16.18,18.08,35.89,35,42.52,58.94,4.3,15.53,6.7,30.56,19.82,41.22,5.24,4.26,12.76-3.18,7.48-7.48-16-13-14-34.95-22.5-52.22-8.89-18.15-26.54-33.07-39.84-47.94-4.55-5.08-12,2.42-7.48,7.48Z"/><path class="cls-2" d="M321.23,337.74c3.79,16.67,5.55,31.82-13.68,39.32-4.35,1.69-7.66,1.05-11.22,4.5C287,390.64,292.41,406,291.09,417h10.57l.08-9.9c.05-6.8-10.53-6.81-10.58,0l-.07,9.9c0,7,9.79,6.58,10.57,0,.7-5.82-1.26-12.54-.37-18.09,1.36-8.53,4.65-8.55,12.4-11.95,5.55-2.43,9.64-3.7,13.74-8.67,10.25-12.42,7.28-28.94,4-43.37-1.51-6.63-11.71-3.82-10.2,2.81Z"/><path class="cls-2" d="M376.45,392.67c24.4,20.26,38.33,48.44,39.07,80.21.16,6.8,10.74,6.82,10.58,0-.8-34.33-15.7-65.71-42.18-87.68-5.2-4.32-12.72,3.12-7.47,7.47Z"/><circle class="cls-2" cx="408.82" cy="225.24" r="26.69"/><circle class="cls-2" cx="397.56" cy="349.99" r="26.69"/><circle class="cls-2" cx="180.23" cy="331.64" r="26.69"/><circle class="cls-2" cx="355.44" cy="457.6" r="26.69"/></g></g></svg>