<svg xmlns="http://www.w3.org/2000/svg" viewBox="0 0 867.39 632.25"><defs><style>.cls-1{fill:#358d93;}.cls-2{fill:#ebeded;}</style></defs><title>H_step1</title><g id="Layer_2" data-name="Layer 2"><g id="图层_4" data-name="图层 4"><path class="cls-1" d="M187.34,39.18S68.12,74,36.18,199.94c-29.87,117.81-34,89.82-36,184.75s12,122.36,12,122.36S1.71,570.58,136.3,601.56s178.62-16.36,300.57,15.86,224.65,14.12,301.24-75.85S837.93,348.38,864,238.33,764.7,41.29,604.82,12.79,348.09,8,187.34,39.18Z"/><path class="cls-2" d="M448,101.5c50-48.59,148.27,31.92,192.39,57,50,28.44,104,45.27,161.14,51.29,12.68,1.33,14.72-18.39,2-19.73-40.42-4.26-79.58-13.81-116.83-30.2s-70.31-40.31-105.81-60.06C541.64,78,474.56,48.12,435.63,86c-9.08,8.83,3.2,24.41,12.35,15.52Z"/><path class="cls-2" d="M96.84,498.33c58.63-65,159.83-24.94,232.53-14.43,57.93,8.38,117.15,3.9,163.69-34.66,9.84-8.14-4.26-22.1-14-14C363.62,530.83,186.78,369,82.82,484.31c-8.52,9.46,5.45,23.53,14,14Z"/><path class="cls-2" d="M101.5,221.2c83.69-.75,138,69.21,199.5,115.21,47.39,35.42,110,60.77,165.4,28,11-6.49,1-23.64-10-17.12-73.86,43.69-148.78-30-201-74.79-44.3-38-93.33-71.66-153.84-71.12-12.75.12-12.78,19.94,0,19.83Z"/><path class="cls-2" d="M297.89,150.9c92.63,22.33,166.45,86.68,214.51,167.56,23,38.77,34.16,83.23,57.29,121.68C580.22,457.65,602,489.48,626,485.41c3.16-.54,6.43-4.15,6.86-7.28l.42-3c.81-5.83-2-9.88-7.42-11.89l-2.32-.86c-11.92-4.42-16.31,14.93-4.47,19.32l2.32.86-7.43-11.9q15-4.23-.58-10.21a65.41,65.41,0,0,1-20.61-21c-8.37-11.81-14.68-25.58-20.4-38.72-7.14-16.44-13.21-33.32-20.63-49.64a442,442,0,0,0-61-98c-48.94-59.44-113.12-103.39-188.32-121.52-12.4-3-16.91,16.32-4.47,19.32Z"/></g></g></svg>