<svg xmlns="http://www.w3.org/2000/svg" viewBox="0 0 466.79 463.61"><defs><style>.cls-1{fill:#8a7a73;}.cls-2{fill:#4b4335;}</style></defs><title>Hardware</title><g id="Layer_2" data-name="Layer 2"><g id="图层_4" data-name="图层 4"><path class="cls-1" d="M0,199.54v64.77L43.88,271a190.49,190.49,0,0,0,27.51,66l-26,35.89,46.12,45.8,35.82-26.08A193.07,193.07,0,0,0,193.75,420l7.16,43.62h65.21L272.88,420a192.92,192.92,0,0,0,66.45-27.31l36.13,25.82,46.11-45.8-26.26-35.58a190.34,190.34,0,0,0,27.56-66l43.92-7.12V199.3l-43.89-6.72a190.33,190.33,0,0,0-27.5-66l26-35.89L375.28,44.91,339.46,71A193,193,0,0,0,273,43.62L265.88,0H200.66L193.9,43.58A193.16,193.16,0,0,0,127.46,70.9L91.33,45.08,45.22,90.88l26.26,35.58a190.34,190.34,0,0,0-27.56,66Z"/><ellipse class="cls-2" cx="233.39" cy="231.8" rx="125.54" ry="124.69"/><polygon class="cls-1" points="179.67 169.55 249.29 217.43 220.37 243.34 179.67 169.55"/><path class="cls-1" d="M220,242.88a19.67,19.67,0,0,0,27.64,1.41,19.35,19.35,0,0,0,1.41-27.45"/></g></g></svg>