<svg xmlns="http://www.w3.org/2000/svg" xmlns:xlink="http://www.w3.org/1999/xlink" viewBox="0 0 1974.63 2695.26"><defs><style>.cls-1,.cls-19{fill:none;stroke-miterlimit:10;stroke-width:10px;}.cls-1{stroke:#f7f7f7;}.cls-2{fill:url(#未命名的渐变_201);}.cls-3{fill:url(#未命名的渐变_201-2);}.cls-4{fill:url(#未命名的渐变_593);}.cls-5{fill:url(#未命名的渐变_593-2);}.cls-6{fill:url(#未命名的渐变_593-3);}.cls-7{fill:url(#未命名的渐变_593-4);}.cls-8{fill:url(#未命名的渐变_212);}.cls-9{fill:#899fab;}.cls-10{fill:url(#未命名的渐变_201-3);}.cls-11{fill:url(#未命名的渐变_201-4);}.cls-12{fill:url(#未命名的渐变_201-5);}.cls-13{fill:url(#未命名的渐变_201-6);}.cls-14{fill:url(#未命名的渐变_201-7);}.cls-15{fill:url(#未命名的渐变_201-8);}.cls-16{fill:url(#未命名的渐变_201-9);}.cls-17{opacity:0.5;fill:url(#未命名的渐变_5);}.cls-18{fill:#e7f4fa;}.cls-19{stroke:#91a9b6;}.cls-20{opacity:0.3;}.cls-21{fill:url(#未命名的渐变_201-10);}.cls-22{fill:url(#未命名的渐变_201-11);}.cls-23{fill:url(#未命名的渐变_201-12);}.cls-24{fill:url(#未命名的渐变_201-13);}.cls-25{fill:url(#未命名的渐变_201-14);}.cls-26{fill:url(#未命名的渐变_201-15);}.cls-27{font-size:105.68px;fill:#231916;font-family:AdobeSongStd-Light-GBpc-EUC-H, Adobe Song Std;}.cls-28{fill:url(#未命名的渐变_201-16);}.cls-29{fill:url(#未命名的渐变_201-17);}.cls-30{font-size:352.27px;fill:#fff;font-family:ArialMT, Arial;}</style><linearGradient id="未命名的渐变_201" x1="-1843.12" y1="2154.92" x2="-1839.43" y2="1318.91" gradientTransform="translate(2798.83)" gradientUnits="userSpaceOnUse"><stop offset="0" stop-color="#a08120"/><stop offset="0.32" stop-color="#9e8222"/><stop offset="0.49" stop-color="#98832a"/><stop offset="0.62" stop-color="#8e8638"/><stop offset="0.74" stop-color="#808b4b"/><stop offset="0.84" stop-color="#6d9064"/><stop offset="0.94" stop-color="#579782"/><stop offset="1" stop-color="#449d9b"/></linearGradient><linearGradient id="未命名的渐变_201-2" x1="4439.47" y1="2125.51" x2="4437.83" y2="1753.82" gradientTransform="matrix(-1, 0, 0, 1, 4810.97, 0)" xlink:href="#未命名的渐变_201"/><linearGradient id="未命名的渐变_593" x1="-2287.51" y1="836.5" x2="-2276.72" y2="182.92" gradientTransform="matrix(1, -0.04, 0.04, 1, 3710.54, 28.28)" gradientUnits="userSpaceOnUse"><stop offset="0" stop-color="#d39600"/><stop offset="0.1" stop-color="#cd9607"/><stop offset="0.24" stop-color="#be971c"/><stop offset="0.42" stop-color="#a5993e"/><stop offset="0.62" stop-color="#829b6d"/><stop offset="0.84" stop-color="#569da9"/><stop offset="1" stop-color="#329fda"/></linearGradient><linearGradient id="未命名的渐变_593-2" x1="-2190.03" y1="270.7" x2="-2180.46" y2="-308.92" gradientTransform="matrix(0.99, -0.16, 0.16, 0.99, 3636.51, 326.99)" xlink:href="#未命名的渐变_593"/><linearGradient id="未命名的渐变_593-3" x1="-2204.37" y1="254.95" x2="-2196.16" y2="-241.97" gradientTransform="matrix(0.99, -0.16, 0.16, 0.99, 3636.51, 326.99)" xlink:href="#未命名的渐变_593"/><linearGradient id="未命名的渐变_593-4" x1="-2241.92" y1="252.17" x2="-2237.06" y2="-157.62" gradientTransform="matrix(0.99, -0.16, 0.16, 0.99, 3636.51, 326.99)" xlink:href="#未命名的渐变_593"/><linearGradient id="未命名的渐变_212" x1="-1257.92" y1="601.99" x2="-1368.08" y2="1150.08" gradientTransform="translate(2567.25 215.6) rotate(-5.96)" gradientUnits="userSpaceOnUse"><stop offset="0" stop-color="#d39600"/><stop offset="0.14" stop-color="#c19718"/><stop offset="0.44" stop-color="#939a57"/><stop offset="0.87" stop-color="#4a9eba"/><stop offset="1" stop-color="#329fda"/></linearGradient><linearGradient id="未命名的渐变_201-3" x1="3866.56" y1="2129.66" x2="3863.84" y2="1513.43" gradientTransform="matrix(-1, 0, 0, 1, 4810.97, 0)" xlink:href="#未命名的渐变_201"/><linearGradient id="未命名的渐变_201-4" x1="3801.42" y1="2125.87" x2="3799.1" y2="1601.37" gradientTransform="matrix(-1, 0, 0, 1, 4810.97, 0)" xlink:href="#未命名的渐变_201"/><linearGradient id="未命名的渐变_201-5" x1="3743.67" y1="2097.77" x2="3741.91" y2="1698.3" gradientTransform="matrix(-1, 0, 0, 1, 4810.97, 0)" xlink:href="#未命名的渐变_201"/><linearGradient id="未命名的渐变_201-6" x1="3653.64" y1="2070.77" x2="3652.45" y2="1801.98" gradientTransform="matrix(-1, 0, 0, 1, 4810.97, 0)" xlink:href="#未命名的渐变_201"/><linearGradient id="未命名的渐变_201-7" x1="4433.19" y1="2095.5" x2="4431.87" y2="1795.64" gradientTransform="matrix(-1, 0, 0, 1, 4810.97, 0)" xlink:href="#未命名的渐变_201"/><linearGradient id="未命名的渐变_201-8" x1="4432.94" y1="2094.49" x2="4432.01" y2="1882.77" gradientTransform="matrix(-1, 0, 0, 1, 4810.97, 0)" xlink:href="#未命名的渐变_201"/><linearGradient id="未命名的渐变_201-9" x1="4389.32" y1="2051.8" x2="4388.8" y2="1934.44" gradientTransform="matrix(-1, 0, 0, 1, 4810.97, 0)" xlink:href="#未命名的渐变_201"/><linearGradient id="未命名的渐变_5" x1="4295.78" y1="207.34" x2="3269.52" y2="1139.68" gradientTransform="matrix(-1, 0, 0, 1, 4810.97, 0)" gradientUnits="userSpaceOnUse"><stop offset="0" stop-color="#fff"/><stop offset="1" stop-color="#fff" stop-opacity="0"/></linearGradient><linearGradient id="未命名的渐变_201-10" x1="-1849.16" y1="-2843.88" x2="-1847.07" y2="-3316.37" gradientTransform="matrix(1, 0, 0, -1, 2798.83, -864.08)" xlink:href="#未命名的渐变_201"/><linearGradient id="未命名的渐变_201-11" x1="4445.88" y1="-2860.76" x2="4444.96" y2="-3069.88" gradientTransform="translate(4810.97 -864.08) rotate(180)" xlink:href="#未命名的渐变_201"/><linearGradient id="未命名的渐变_201-12" x1="3872.71" y1="-2858.1" x2="3871.17" y2="-3205.92" gradientTransform="translate(4810.97 -864.08) rotate(180)" xlink:href="#未命名的渐变_201"/><linearGradient id="未命名的渐变_201-13" x1="3807.69" y1="-2860.16" x2="3806.38" y2="-3156.19" gradientTransform="translate(4810.97 -864.08) rotate(180)" xlink:href="#未命名的渐变_201"/><linearGradient id="未命名的渐变_201-14" x1="3750.04" y1="-2875.86" x2="3749.05" y2="-3101.28" gradientTransform="translate(4810.97 -864.08) rotate(180)" xlink:href="#未命名的渐变_201"/><linearGradient id="未命名的渐变_201-15" x1="3660.07" y1="-2891.54" x2="3659.4" y2="-3042.76" gradientTransform="translate(4810.97 -864.08) rotate(180)" xlink:href="#未命名的渐变_201"/><linearGradient id="未命名的渐变_201-16" x1="4439.36" y1="-2878" x2="4438.83" y2="-2997.27" gradientTransform="translate(4810.97 -864.08) rotate(180)" xlink:href="#未命名的渐变_201"/><linearGradient id="未命名的渐变_201-17" x1="4395.95" y1="-2902.04" x2="4395.66" y2="-2968.03" gradientTransform="translate(4810.97 -864.08) rotate(180)" xlink:href="#未命名的渐变_201"/></defs><title>Hytrogel</title><g id="Layer_2" data-name="Layer 2"><g id="Layer_1-2" data-name="Layer 1"><line class="cls-1" x1="1094.16" y1="662.15" x2="1536.88" y2="662.15"/><path class="cls-2" d="M1644,1302.17l-82.75-7.22-591.8,46.3L702.29,1548.43,633.17,1677l-31.09,68.75-267-3.94-140.42,92.89s-42.6,34.57-74.23,49.69S6.69,1934.08,6.69,1934.08L17.49,2068l224.67,49.69,810.1,25.92,380.21-23.76,371.07-45.52,104.18-376.47Z"/><path class="cls-3" d="M602.08,1745.76l-267-3.94L91.46,1897.58l-84.77,36.5s-.1,131.53,10.8,133.94,234,50,234,50l362.25,3.37,123.8-91.43L678,1876.16,670.21,1786Z"/><polygon class="cls-4" points="1693.61 374.92 1687.77 483.27 1622.92 570.35 1552.26 633.07 1533.05 727.54 1498.41 947.21 1457.56 965.39 1440.04 962.89 1437.12 925.37 1393.31 940.01 1373.62 953.44 1336.19 948.11 1321.85 940 1304.98 882 1286.96 889.62 1320.53 726.29 1310.59 631 1249.41 550.83 1200.15 445.27 1239.05 361.79 1324.67 315.16 1424.64 360.63 1452.51 429.55 1488.79 398.35 1548.77 353.41 1634.91 351.75 1693.61 374.92"/><polygon class="cls-5" points="1301.81 874.93 1334.16 723.68 1327.62 628.32 1271.95 542.33 1238.85 443.5 1277.3 400.71 1350.47 387.41 1438.86 451.1 1532.53 404.46 1594.95 389.02 1641.63 443.91 1657.77 486.87 1602.81 563.65 1543.48 613.77 1494.29 945.45 1454.44 958.06 1442.53 909.19 1379.24 935.2 1369.52 947.22 1333.3 932.31 1325.12 914.11 1309.81 876.22 1301.81 874.93"/><polygon class="cls-6" points="1326.44 868.62 1353.38 723.68 1348.77 641.7 1298.48 526.03 1297.36 474.26 1355.5 454.59 1442.5 498.61 1561.55 446.15 1603.71 493.71 1592.3 551.34 1533.28 618.03 1484.58 912.37 1470.7 939.99 1460.86 909.93 1432.94 904.37 1379.4 929.62 1346.5 923.61 1326.44 868.62"/><polygon class="cls-7" points="1318.02 902.81 1368.94 673.68 1362.68 635.56 1332.67 554.37 1362.44 532.26 1426.73 557.73 1524.04 519.85 1548.42 556.56 1523.65 609.16 1521.8 677.95 1488 941.47 1448.14 958.02 1437.13 911.09 1380.05 934.91 1361.04 941.16 1331.9 936.54 1318.02 902.81"/><polygon class="cls-8" points="1566.98 1371.22 1578.28 1461.58 1535.39 1525.25 1463.09 1550.85 1400.44 1519.34 1346.09 1444.13 1260.32 1507.1 1180.57 1510.64 1125.78 1477.99 1085.6 1415.83 1109.45 1352.41 1165.1 1299.95 1224.9 1253.42 1274.46 970.12 1281.74 919.58 1299.28 910.89 1319.57 967.79 1334.37 975.02 1372.06 978.11 1390.9 963.53 1433.77 946.3 1438.92 983.59 1456.56 985.03 1496.25 964.45 1493.95 988.1 1462.1 1211.47 1505.66 1301.83 1566.98 1371.22"/><path class="cls-9" d="M1501.33,928.65l-38.67-2.56-29.44-28.82L1372,917.72s-31.15-27.42-34.4-30.67-44.94-25.27-44.94-25.27L1276.2,958s28.88,14.09,31.21,16,36.25,23.24,46.48,23.24S1419,975.83,1419,975.83s22.31,27.42,25.57,27.42,34.86-6,38.11-7,11-5.81,11-5.81Z"/><path class="cls-10" d="M1738.73,2050.39l85.38-310.88-130.5-188.66H1433.22l-279.36-56.13L823.24,1524.1,676.37,1719.29l-21.74,74.07-2.74,73.44,14.65,113.26-43,96.6L67.17,1962.26s19.27,85.68,48.64,88.13,93,39.16,112.6,39.16S1024,2121.37,1024,2121.37Z"/><path class="cls-11" d="M1675.09,2045.49l63.64-269.26-83.85-122.4H1369.11L1153.7,1585.3l-362.28,63.64L651.89,1866.8l-318.22,90.57-51.41,88.12s53.86,36.72,71,36.72,511.27,32.65,511.27,32.65l186.35,3.84Z"/><path class="cls-12" d="M1603.71,2035.7l66.48-205.62-33.24-61.2L1318,1759.09l-232.42-73.43L818.34,1764s-110.15,193.38-110.15,200.72-242.34,71-242.34,71,132.19,26.93,161.56,26.93S1006.83,2092,1028.86,2092s402.22-17.89,421.68-20.17S1603.71,2035.7,1603.71,2035.7Z"/><path class="cls-13" d="M1433.22,2045.49l131.72-63.64L1578.28,1852H1318l-174.11-58.64-259.48,34.27-71,102.81L737.56,2021s107.71,19.59,129.74,24.48,176.24,17.14,200.72,19.58,241.07-12.13,263.92,0S1433.22,2045.49,1433.22,2045.49Z"/><polygon class="cls-14" points="536.84 2092 639.65 1852 465.85 1801.85 363.04 1786.02 117.65 1942.3 184.35 2025.91 353.25 2067.84 536.84 2092"/><path class="cls-15" d="M486.36,2092l53.85-171.67L408,1876.16l-159.11,78.6-31.82,29.32,110.16,56.2s75.88,17.13,85.67,17.13S486.36,2092,486.36,2092Z"/><polygon class="cls-16" points="509.91 2050.55 509.91 1968.54 399.76 1930.6 333.67 1986.9 421.79 2035.86 509.91 2050.55"/><line class="cls-1" x1="1606.54" y1="715.95" x2="1095.43" y2="715.95"/><path class="cls-1" d="M1095.54,662.13a26.9,26.9,0,0,0-19,46,25.36,25.36,0,0,0,19,7.91"/><path class="cls-1" d="M1107.41,715.84a26.91,26.91,0,0,1-19-46,25.36,25.36,0,0,1,19-7.91"/><path class="cls-1" d="M1120.43,716a26.9,26.9,0,0,1-19-46,25.32,25.32,0,0,1,19-7.91"/><polygon class="cls-17" points="1417 1278.82 1661.61 996.64 589.16 123.53 589.16 135.97 1417 1278.82"/><path class="cls-1" d="M1605.8,769.88a26.9,26.9,0,0,0,19-46,25.36,25.36,0,0,0-19-7.91"/><line class="cls-1" x1="1387.65" y1="769.98" x2="1606.19" y2="769.98"/><path class="cls-1" d="M1387.71,823.81a26.9,26.9,0,0,1-19-46,25.33,25.33,0,0,1,19-7.92"/><line class="cls-1" x1="1386.59" y1="823.84" x2="1915.16" y2="823.84"/><path class="cls-1" d="M1593.21,770.21a26.91,26.91,0,0,0,19-46,25.36,25.36,0,0,0-19-7.91"/><path class="cls-18" d="M661.35,38.48c63.19-2,122.23.81,139,11.62,26.4,17.08,16.33,39.55-78.09,44.62C642.36,99,663.42,113.07,687,120.23c21.41,6.49,87.45,5.88,98.87,6.1,116.17,2.26,192.39-10.17,194.53-8.65,4.26,3-266.64,36.3-434.26,29-53.1-2.31-152.47-6.19-163.74-44.67C381.69,99.47,377,88.62,350,83.08c-7.62-1.56-12.75-1.81-18.27-2.56C297.8,76,264.29,55,293.13,38.67c27.63-15.62,103.33-21.74,160.47-10v-.21C463.25,11.24,512.72-.65,563,0c58.88.79,109.75,18.69,99,39.22"/><path class="cls-19" d="M587.87,91c8.37-1.74,53.19-11.36,48.63-21.62-6.28-14.11-104.09-25.33-153.1-14.6-42.61,9.33-30.9,31.43-19.82,41.63,29,26.7,125.93,38.5,156.71,39.47,117.63,3.68,198-.48,227.34-4,20.63-2.46,120.15-11.66,131.66-13.64"/><g class="cls-20"><path class="cls-21" d="M1637.29,2460.6l-82.75,4.07-591.8-26.11L695.6,2321.71l-69.12-72.53-31.09-38.77-267,2.22-140.42-52.4s-42.6-19.49-74.23-28S0,2104.19,0,2104.19l10.8-75.55,224.67-28,810.1-14.62,380.21,13.4,371.07,25.67L1901,2237.41Z"/><path class="cls-22" d="M595.39,2210.41l-267,2.22L84.77,2124.77,0,2104.19s-.1-74.19,10.8-75.55,234-28.19,234-28.19l362.25-1.9,123.8,51.57-59.57,86.74-7.78,50.84Z"/><path class="cls-23" d="M1732,2038.59l85.38,175.34-130.5,106.41H1426.53L1147.17,2352l-330.62-16.57L669.68,2225.34l-21.74-41.78-2.74-41.42,14.65-63.89-43.05-54.48L60.48,2088.29s19.27-48.32,48.64-49.7,93-22.09,112.6-22.09,795.55-18,795.55-18Z"/><path class="cls-24" d="M1668.4,2041.35,1732,2193.22l-83.85,69H1362.42L1147,2300.91,784.73,2265,645.2,2142.14,327,2091.05l-51.41-49.7s53.86-20.71,71-20.71,511.27-18.42,511.27-18.42l186.35-2.16Z"/><path class="cls-25" d="M1597,2046.87l66.48,116-33.24,34.51-318.93,5.53-232.42,41.41-267.26-44.18S701.5,2091.05,701.5,2086.91s-242.34-40-242.34-40,132.19-15.19,161.56-15.19,379.42-16.56,401.45-16.56,402.22,10.09,421.68,11.37S1597,2046.87,1597,2046.87Z"/><path class="cls-26" d="M1426.53,2041.35l131.72,35.9,13.34,73.23H1311.33l-174.11,33.08-259.48-19.33-71-58-75.89-51.09s107.71-11,129.74-13.8,176.24-9.67,200.72-11,241.07,6.84,263.92,0S1426.53,2041.35,1426.53,2041.35Z"/><text class="cls-27" transform="matrix(-1, 0, 0, 1, 550.94, 2108.12)">是非</text><path class="cls-28" d="M479.67,2015.12l53.85,96.82-132.19,24.92-159.11-44.34L210.4,2076l110.16-31.7s75.88-9.67,85.67-9.67S479.67,2015.12,479.67,2015.12Z"/><polygon class="cls-29" points="503.22 2038.5 503.22 2084.75 393.07 2106.15 326.98 2074.39 415.1 2046.78 503.22 2038.5"/></g><text class="cls-30" transform="translate(50.52 1651.41)"><tspan xml:space="preserve"> Hydrogel</tspan></text></g></g></svg>