<svg xmlns="http://www.w3.org/2000/svg" xmlns:xlink="http://www.w3.org/1999/xlink" viewBox="0 0 855.04 1752.75"><defs><style>.cls-1,.cls-10,.cls-12,.cls-13,.cls-15,.cls-16,.cls-17,.cls-18,.cls-6,.cls-7,.cls-9{opacity:0.3;}.cls-2{fill:#f39800;}.cls-3{fill:#337fb9;}.cls-23,.cls-4{fill:#448aff;}.cls-11,.cls-4{opacity:0.5;}.cls-20,.cls-22,.cls-24,.cls-5{fill:none;}.cls-5{stroke:#181d62;stroke-width:2px;}.cls-22,.cls-24,.cls-5{stroke-miterlimit:10;}.cls-6{fill:url(#未命名的渐变_15);}.cls-7{fill:url(#未命名的渐变_15-2);}.cls-8{opacity:0.4;}.cls-9{fill:url(#未命名的渐变_15-3);}.cls-10{fill:url(#未命名的渐变_15-4);}.cls-12{fill:url(#未命名的渐变_15-5);}.cls-13{fill:url(#未命名的渐变_15-6);}.cls-14{opacity:0.6;}.cls-15{fill:url(#未命名的渐变_15-7);}.cls-16{fill:url(#未命名的渐变_15-8);}.cls-17{fill:url(#未命名的渐变_15-9);}.cls-18{fill:url(#未命名的渐变_15-10);}.cls-19{fill:#deefee;}.cls-21{fill:#da7170;}.cls-22{stroke:#010100;stroke-width:0.25px;}.cls-24{stroke:#da7170;stroke-width:20px;}</style><linearGradient id="未命名的渐变_15" x1="1827.04" y1="800.75" x2="1930.61" y2="800.75" gradientTransform="translate(-1469.66 211.74)" gradientUnits="userSpaceOnUse"><stop offset="0" stop-color="#fff" stop-opacity="0"/><stop offset="0.04" stop-color="#fff" stop-opacity="0.05"/><stop offset="0.12" stop-color="#fff" stop-opacity="0.17"/><stop offset="0.23" stop-color="#fff" stop-opacity="0.38"/><stop offset="0.36" stop-color="#fff" stop-opacity="0.66"/><stop offset="0.5" stop-color="#fff"/><stop offset="0.54" stop-color="#fff" stop-opacity="0.9"/><stop offset="0.71" stop-color="#fff" stop-opacity="0.52"/><stop offset="0.85" stop-color="#fff" stop-opacity="0.24"/><stop offset="0.95" stop-color="#fff" stop-opacity="0.07"/><stop offset="1" stop-color="#fff" stop-opacity="0"/></linearGradient><linearGradient id="未命名的渐变_15-2" x1="1808.76" y1="240.26" x2="1912.33" y2="240.26" gradientTransform="translate(-1323.97 226.11)" xlink:href="#未命名的渐变_15"/><linearGradient id="未命名的渐变_15-3" x1="829.11" y1="768.61" x2="932.67" y2="768.61" gradientTransform="translate(-460.17 249.25)" xlink:href="#未命名的渐变_15"/><linearGradient id="未命名的渐变_15-4" x1="810.83" y1="208.12" x2="914.4" y2="208.12" gradientTransform="translate(-411.25 249.79)" xlink:href="#未命名的渐变_15"/><linearGradient id="未命名的渐变_15-5" x1="-156.06" y1="522.2" x2="-52.49" y2="522.2" gradientTransform="translate(528.01 503.62)" xlink:href="#未命名的渐变_15"/><linearGradient id="未命名的渐变_15-6" x1="-174.33" y1="-38.29" x2="-70.76" y2="-38.29" gradientTransform="translate(479.23 507.35)" xlink:href="#未命名的渐变_15"/><linearGradient id="未命名的渐变_15-7" x1="-1186.94" y1="191.44" x2="-1083.37" y2="191.44" gradientTransform="translate(1538.66 844.7)" xlink:href="#未命名的渐变_15"/><linearGradient id="未命名的渐变_15-8" x1="-1205.22" y1="-369.05" x2="-1101.65" y2="-369.05" gradientTransform="translate(1394.22 868.53)" xlink:href="#未命名的渐变_15"/><linearGradient id="未命名的渐变_15-9" x1="-2097.72" y1="-69.12" x2="-1994.15" y2="-69.12" gradientTransform="translate(2452.08 1096.39)" xlink:href="#未命名的渐变_15"/><linearGradient id="未命名的渐变_15-10" x1="-2116" y1="-629.62" x2="-2012.43" y2="-629.62" gradientTransform="translate(2216.92 1156.63)" xlink:href="#未命名的渐变_15"/></defs><title>L_step2</title><g id="Layer_2" data-name="Layer 2"><g id="图层_4" data-name="图层 4"><g class="cls-1"><rect class="cls-2" x="476.51" y="434.18" width="243.69" height="97.48" transform="translate(145.38 -138.41) rotate(15)"/><path class="cls-3" d="M691.67,558.38,489.84,1311.63,365,1464.55c-17.13,21-51,11.91-55.34-14.83L278,1254.86,479.82,501.62Z"/><rect class="cls-4" x="343.63" y="512.56" width="219.32" height="1023.51" transform="translate(280.56 -82.42) rotate(15)"/><g class="cls-1"><line class="cls-5" x1="493.28" y1="404.31" x2="468.05" y2="498.46"/><line class="cls-5" x1="505.05" y1="407.46" x2="479.82" y2="501.62"/><line class="cls-5" x1="516.82" y1="410.61" x2="491.59" y2="504.77"/><line class="cls-5" x1="528.59" y1="413.77" x2="503.36" y2="507.92"/><line class="cls-5" x1="540.36" y1="416.92" x2="515.13" y2="511.08"/><line class="cls-5" x1="552.13" y1="420.08" x2="526.9" y2="514.23"/><line class="cls-5" x1="563.9" y1="423.23" x2="538.67" y2="517.38"/><line class="cls-5" x1="575.67" y1="426.38" x2="550.44" y2="520.54"/><line class="cls-5" x1="587.44" y1="429.54" x2="562.21" y2="523.69"/><line class="cls-5" x1="599.21" y1="432.69" x2="573.98" y2="526.85"/><line class="cls-5" x1="610.98" y1="435.84" x2="585.75" y2="530"/><line class="cls-5" x1="622.74" y1="439" x2="597.52" y2="533.15"/><line class="cls-5" x1="634.51" y1="442.15" x2="609.29" y2="536.31"/><line class="cls-5" x1="646.28" y1="445.3" x2="621.05" y2="539.46"/><line class="cls-5" x1="658.05" y1="448.46" x2="632.82" y2="542.61"/><line class="cls-5" x1="669.82" y1="451.61" x2="644.59" y2="545.77"/><line class="cls-5" x1="681.59" y1="454.77" x2="656.36" y2="548.92"/><line class="cls-5" x1="693.36" y1="457.92" x2="668.13" y2="552.07"/><line class="cls-5" x1="705.13" y1="461.07" x2="679.9" y2="555.23"/><line class="cls-5" x1="716.9" y1="464.23" x2="691.67" y2="558.38"/><line class="cls-5" x1="728.67" y1="467.38" x2="703.44" y2="561.54"/></g><rect class="cls-6" x="357.37" y="500.74" width="103.57" height="1023.51" transform="translate(275.99 -71.4) rotate(15)"/><rect class="cls-7" x="484.79" y="417.63" width="103.57" height="97.48" transform="translate(138.99 -122.98) rotate(15)"/></g><g class="cls-8"><rect class="cls-2" x="393.25" y="414.74" width="243.69" height="97.48" transform="matrix(1, 0.09, -0.09, 1, 42.36, -43.13)"/><path class="cls-3" d="M620.09,521.59l-68,776.85-96.39,172.28c-13.23,23.64-48.16,20.58-57.08-5l-65-186.4,68-776.85Z"/><rect class="cls-4" x="356.58" y="510.09" width="219.32" height="1023.51" transform="translate(90.83 -36.75) rotate(5)"/><g class="cls-1"><line class="cls-5" x1="397.96" y1="404.31" x2="389.46" y2="501.41"/><line class="cls-5" x1="410.09" y1="405.37" x2="401.6" y2="502.48"/><line class="cls-5" x1="422.23" y1="406.43" x2="413.74" y2="503.54"/><line class="cls-5" x1="434.37" y1="407.49" x2="425.88" y2="504.6"/><line class="cls-5" x1="446.51" y1="408.56" x2="438.01" y2="505.66"/><line class="cls-5" x1="458.65" y1="409.62" x2="450.15" y2="506.72"/><line class="cls-5" x1="470.79" y1="410.68" x2="462.29" y2="507.79"/><line class="cls-5" x1="482.92" y1="411.74" x2="474.43" y2="508.85"/><line class="cls-5" x1="495.06" y1="412.8" x2="486.57" y2="509.91"/><line class="cls-5" x1="507.2" y1="413.87" x2="498.71" y2="510.97"/><line class="cls-5" x1="519.34" y1="414.93" x2="510.84" y2="512.03"/><line class="cls-5" x1="531.48" y1="415.99" x2="522.98" y2="513.1"/><line class="cls-5" x1="543.62" y1="417.05" x2="535.12" y2="514.16"/><line class="cls-5" x1="555.75" y1="418.11" x2="547.26" y2="515.22"/><line class="cls-5" x1="567.89" y1="419.18" x2="559.4" y2="516.28"/><line class="cls-5" x1="580.03" y1="420.24" x2="571.54" y2="517.34"/><line class="cls-5" x1="592.17" y1="421.3" x2="583.67" y2="518.41"/><line class="cls-5" x1="604.31" y1="422.36" x2="595.81" y2="519.47"/><line class="cls-5" x1="616.45" y1="423.42" x2="607.95" y2="520.53"/><line class="cls-5" x1="628.58" y1="424.48" x2="620.09" y2="521.59"/><line class="cls-5" x1="640.72" y1="425.55" x2="632.23" y2="522.65"/></g><rect class="cls-9" x="368.94" y="506.1" width="103.57" height="1023.51" transform="translate(90.31 -32.8) rotate(5)"/><rect class="cls-10" x="399.58" y="409.17" width="103.57" height="97.48" transform="translate(41.63 -37.6) rotate(5)"/></g><g class="cls-11"><rect class="cls-2" x="298.56" y="414.74" width="243.69" height="97.48" transform="translate(-38.8 38.4) rotate(-5)"/><path class="cls-3" d="M533.9,502.48l68,776.85-65,186.4c-8.92,25.57-43.85,28.63-57.08,5l-96.4-172.28-68-776.85Z"/><rect class="cls-4" x="359.59" y="510.09" width="219.32" height="1023.51" transform="translate(-87.27 44.79) rotate(-5)"/><g class="cls-1"><line class="cls-5" x1="294.78" y1="425.55" x2="303.27" y2="522.65"/><line class="cls-5" x1="306.91" y1="424.48" x2="315.41" y2="521.59"/><line class="cls-5" x1="319.05" y1="423.42" x2="327.55" y2="520.53"/><line class="cls-5" x1="331.19" y1="422.36" x2="339.69" y2="519.47"/><line class="cls-5" x1="343.33" y1="421.3" x2="351.82" y2="518.4"/><line class="cls-5" x1="355.47" y1="420.24" x2="363.96" y2="517.34"/><line class="cls-5" x1="367.6" y1="419.17" x2="376.1" y2="516.28"/><line class="cls-5" x1="379.74" y1="418.11" x2="388.24" y2="515.22"/><line class="cls-5" x1="391.88" y1="417.05" x2="400.38" y2="514.16"/><line class="cls-5" x1="404.02" y1="415.99" x2="412.52" y2="513.1"/><line class="cls-5" x1="416.16" y1="414.93" x2="424.65" y2="512.03"/><line class="cls-5" x1="428.3" y1="413.87" x2="436.79" y2="510.97"/><line class="cls-5" x1="440.43" y1="412.8" x2="448.93" y2="509.91"/><line class="cls-5" x1="452.57" y1="411.74" x2="461.07" y2="508.85"/><line class="cls-5" x1="464.71" y1="410.68" x2="473.21" y2="507.79"/><line class="cls-5" x1="476.85" y1="409.62" x2="485.34" y2="506.72"/><line class="cls-5" x1="488.99" y1="408.56" x2="497.48" y2="505.66"/><line class="cls-5" x1="501.13" y1="407.49" x2="509.62" y2="504.6"/><line class="cls-5" x1="513.26" y1="406.43" x2="521.76" y2="503.54"/><line class="cls-5" x1="525.4" y1="405.37" x2="533.9" y2="502.48"/><line class="cls-5" x1="537.54" y1="404.31" x2="546.04" y2="501.41"/></g><rect class="cls-12" x="371.95" y="514.07" width="103.57" height="1023.51" transform="translate(-87.79 40.83) rotate(-5)"/><rect class="cls-13" x="304.9" y="420.32" width="103.57" height="97.48" transform="translate(-39.52 32.87) rotate(-5)"/></g><g class="cls-14"><rect class="cls-2" x="180.73" y="434.18" width="243.69" height="97.48" transform="translate(-114.68 94.77) rotate(-15)"/><path class="cls-3" d="M421.12,501.62,623,1254.86l-31.66,194.86c-4.34,26.74-38.21,35.82-55.34,14.83L411.1,1311.63,209.27,558.38Z"/><rect class="cls-4" x="337.98" y="512.56" width="219.32" height="1023.51" transform="translate(-249.86 150.76) rotate(-15)"/><g class="cls-1"><line class="cls-5" x1="172.27" y1="467.38" x2="197.5" y2="561.54"/><line class="cls-5" x1="184.04" y1="464.23" x2="209.27" y2="558.38"/><line class="cls-5" x1="195.81" y1="461.07" x2="221.04" y2="555.23"/><line class="cls-5" x1="207.58" y1="457.92" x2="232.81" y2="552.07"/><line class="cls-5" x1="219.35" y1="454.77" x2="244.58" y2="548.92"/><line class="cls-5" x1="231.12" y1="451.61" x2="256.35" y2="545.77"/><line class="cls-5" x1="242.89" y1="448.46" x2="268.12" y2="542.61"/><line class="cls-5" x1="254.66" y1="445.3" x2="279.89" y2="539.46"/><line class="cls-5" x1="266.43" y1="442.15" x2="291.66" y2="536.31"/><line class="cls-5" x1="278.2" y1="439" x2="303.42" y2="533.15"/><line class="cls-5" x1="289.97" y1="435.84" x2="315.19" y2="530"/><line class="cls-5" x1="301.73" y1="432.69" x2="326.96" y2="526.85"/><line class="cls-5" x1="313.5" y1="429.54" x2="338.73" y2="523.69"/><line class="cls-5" x1="325.27" y1="426.38" x2="350.5" y2="520.54"/><line class="cls-5" x1="337.04" y1="423.23" x2="362.27" y2="517.38"/><line class="cls-5" x1="348.81" y1="420.08" x2="374.04" y2="514.23"/><line class="cls-5" x1="360.58" y1="416.92" x2="385.81" y2="511.08"/><line class="cls-5" x1="372.35" y1="413.77" x2="397.58" y2="507.92"/><line class="cls-5" x1="384.12" y1="410.61" x2="409.35" y2="504.77"/><line class="cls-5" x1="395.89" y1="407.46" x2="421.12" y2="501.62"/><line class="cls-5" x1="407.66" y1="404.31" x2="432.89" y2="498.46"/></g><rect class="cls-15" x="351.73" y="524.39" width="103.57" height="1023.51" transform="translate(-254.42 139.74) rotate(-15)"/><rect class="cls-16" x="189.01" y="450.74" width="103.57" height="97.48" transform="translate(-121.07 79.34) rotate(-15)"/></g><rect class="cls-2" x="88.84" y="451.24" width="243.69" height="97.48" transform="translate(-191.56 135.88) rotate(-25)"/><path class="cls-3" d="M330.67,497.8l329.57,706.76L662.9,1402c.36,27.09-31.42,41.91-51.93,24.22L461.46,1297.25,131.9,590.49Z"/><rect class="cls-4" x="337.9" y="496.2" width="219.32" height="1023.51" transform="translate(-384.05 283.58) rotate(-25)"/><g class="cls-1"><line class="cls-5" x1="79.66" y1="507.3" x2="120.85" y2="595.64"/><line class="cls-5" x1="90.7" y1="502.15" x2="131.9" y2="590.49"/><line class="cls-5" x1="101.74" y1="497" x2="142.94" y2="585.34"/><line class="cls-5" x1="112.79" y1="491.85" x2="153.98" y2="580.19"/><line class="cls-5" x1="123.83" y1="486.7" x2="165.03" y2="575.04"/><line class="cls-5" x1="134.87" y1="481.55" x2="176.07" y2="569.89"/><line class="cls-5" x1="145.92" y1="476.4" x2="187.11" y2="564.74"/><line class="cls-5" x1="156.96" y1="471.25" x2="198.16" y2="559.59"/><line class="cls-5" x1="168" y1="466.1" x2="209.2" y2="554.45"/><line class="cls-5" x1="179.05" y1="460.95" x2="220.24" y2="549.3"/><line class="cls-5" x1="190.09" y1="455.8" x2="231.28" y2="544.15"/><line class="cls-5" x1="201.13" y1="450.65" x2="242.33" y2="539"/><line class="cls-5" x1="212.18" y1="445.5" x2="253.37" y2="533.85"/><line class="cls-5" x1="223.22" y1="440.35" x2="264.41" y2="528.7"/><line class="cls-5" x1="234.26" y1="435.2" x2="275.46" y2="523.55"/><line class="cls-5" x1="245.3" y1="430.05" x2="286.5" y2="518.4"/><line class="cls-5" x1="256.35" y1="424.91" x2="297.54" y2="513.25"/><line class="cls-5" x1="267.39" y1="419.76" x2="308.59" y2="508.1"/><line class="cls-5" x1="278.43" y1="414.61" x2="319.63" y2="502.95"/><line class="cls-5" x1="289.48" y1="409.46" x2="330.67" y2="497.8"/><line class="cls-5" x1="300.52" y1="404.31" x2="341.72" y2="492.65"/></g><rect class="cls-17" x="354.37" y="515.51" width="103.57" height="1023.51" transform="translate(-396.09 267.89) rotate(-25)"/><rect class="cls-18" x="100.93" y="478.27" width="103.57" height="97.48" transform="translate(-208.42 113.92) rotate(-25)"/><polygon class="cls-19" points="210.16 132.96 159.02 161.04 185.91 109.27 237.06 81.17 210.16 132.96"/><polygon class="cls-20" points="210.16 132.96 159.02 161.04 185.91 109.27 237.06 81.17 210.16 132.96"/><polygon class="cls-19" points="261.08 65.98 242.77 76.05 252.4 57.5 270.72 47.44 261.08 65.98"/><polygon class="cls-20" points="261.08 65.98 242.77 76.05 252.4 57.5 270.72 47.44 261.08 65.98"/><polygon class="cls-19" points="244.41 74.37 254.47 92.69 235.92 83.05 225.86 64.73 244.41 74.37"/><polygon class="cls-20" points="244.41 74.37 254.47 92.69 235.92 83.05 225.86 64.73 244.41 74.37"/><polygon class="cls-19" points="213.96 177.35 157.92 161.04 213.56 143.45 269.59 159.75 213.96 177.35"/><polygon class="cls-20" points="213.96 177.35 157.92 161.04 213.56 143.45 269.59 159.75 213.96 177.35"/><polygon class="cls-19" points="297.32 166 277.25 160.17 297.18 153.86 317.24 159.7 297.32 166"/><polygon class="cls-20" points="297.32 166 277.25 160.17 297.18 153.86 317.24 159.7 297.32 166"/><polygon class="cls-19" points="279.6 160.13 273.76 180.2 267.46 160.27 273.29 140.21 279.6 160.13"/><polygon class="cls-20" points="279.6 160.13 273.76 180.2 267.46 160.27 273.29 140.21 279.6 160.13"/><polygon class="cls-19" points="143.4 217.46 159.7 161.43 177.3 217.07 161 273.1 143.4 217.46"/><polygon class="cls-20" points="143.4 217.46 159.7 161.43 177.3 217.07 161 273.1 143.4 217.46"/><polygon class="cls-19" points="154.75 300.82 160.58 280.76 166.89 300.69 161.05 320.75 154.75 300.82"/><polygon class="cls-20" points="154.75 300.82 160.58 280.76 166.89 300.69 161.05 320.75 154.75 300.82"/><polygon class="cls-19" points="160.61 283.1 140.54 277.27 160.47 270.96 180.54 276.8 160.61 283.1"/><polygon class="cls-20" points="160.61 283.1 140.54 277.27 160.47 270.96 180.54 276.8 160.61 283.1"/><polygon class="cls-19" points="177.35 103.29 161.05 159.32 143.45 103.68 159.76 47.65 177.35 103.29"/><polygon class="cls-20" points="177.35 103.29 161.05 159.32 143.45 103.68 159.76 47.65 177.35 103.29"/><polygon class="cls-19" points="166.01 19.92 160.17 39.98 153.87 20.06 159.7 0 166.01 19.92"/><polygon class="cls-20" points="166.01 19.92 160.17 39.98 153.87 20.06 159.7 0 166.01 19.92"/><polygon class="cls-19" points="160.14 37.64 180.21 43.48 160.28 49.78 140.22 43.95 160.14 37.64"/><polygon class="cls-20" points="160.14 37.64 180.21 43.48 160.28 49.78 140.22 43.95 160.14 37.64"/><polygon class="cls-19" points="187.82 211.82 159.72 160.67 211.5 187.57 239.6 238.72 187.82 211.82"/><polygon class="cls-20" points="187.82 211.82 159.72 160.67 211.5 187.57 239.6 238.72 187.82 211.82"/><polygon class="cls-19" points="254.78 262.74 244.73 244.43 263.27 254.06 273.33 272.38 254.78 262.74"/><polygon class="cls-20" points="254.78 262.74 244.73 244.43 263.27 254.06 273.33 272.38 254.78 262.74"/><polygon class="cls-19" points="246.4 246.07 228.09 256.13 237.72 237.58 256.04 227.52 246.4 246.07"/><polygon class="cls-20" points="246.4 246.07 228.09 256.13 237.72 237.58 256.04 227.52 246.4 246.07"/><polygon class="cls-19" points="132.94 108.93 161.02 160.07 109.25 133.18 81.15 82.03 132.94 108.93"/><polygon class="cls-20" points="132.94 108.93 161.02 160.07 109.25 133.18 81.15 82.03 132.94 108.93"/><polygon class="cls-19" points="65.97 58 76.03 76.32 57.48 66.69 47.42 48.37 65.97 58"/><polygon class="cls-20" points="65.97 58 76.03 76.32 57.48 66.69 47.42 48.37 65.97 58"/><polygon class="cls-19" points="74.35 74.68 92.67 64.62 83.03 83.17 64.71 93.22 74.35 74.68"/><polygon class="cls-20" points="74.35 74.68 92.67 64.62 83.03 83.17 64.71 93.22 74.35 74.68"/><polygon class="cls-19" points="108.93 187.81 160.08 159.73 133.18 211.5 82.03 239.6 108.93 187.81"/><polygon class="cls-20" points="108.93 187.81 160.08 159.73 133.18 211.5 82.03 239.6 108.93 187.81"/><polygon class="cls-19" points="58.01 254.78 76.32 244.72 66.69 263.27 48.37 273.33 58.01 254.78"/><polygon class="cls-20" points="58.01 254.78 76.32 244.72 66.69 263.27 48.37 273.33 58.01 254.78"/><polygon class="cls-19" points="74.68 246.4 64.62 228.08 83.17 237.72 93.23 256.03 74.68 246.4"/><polygon class="cls-20" points="74.68 246.4 64.62 228.08 83.17 237.72 93.23 256.03 74.68 246.4"/><polygon class="cls-19" points="103.29 143.4 159.32 159.7 103.68 177.3 47.65 160.99 103.29 143.4"/><polygon class="cls-20" points="103.29 143.4 159.32 159.7 103.68 177.3 47.65 160.99 103.29 143.4"/><polygon class="cls-19" points="19.92 154.74 39.99 160.58 20.06 166.88 0 161.05 19.92 154.74"/><polygon class="cls-20" points="19.92 154.74 39.99 160.58 20.06 166.88 0 161.05 19.92 154.74"/><polygon class="cls-19" points="37.64 160.61 43.48 140.54 49.78 160.47 43.95 180.53 37.64 160.61"/><polygon class="cls-20" points="37.64 160.61 43.48 140.54 49.78 160.47 43.95 180.53 37.64 160.61"/><path class="cls-21" d="M803.42,167.69a79,79,0,1,1-79-79,79,79,0,0,1,79,79"/><path class="cls-22" d="M803.42,167.69a79,79,0,1,1-79-79A79,79,0,0,1,803.42,167.69Z"/><path class="cls-21" d="M711.79,58a14.62,14.62,0,1,1,20,5.36,14.62,14.62,0,0,1-20-5.36"/><path class="cls-22" d="M711.79,58a14.62,14.62,0,1,1,20,5.36A14.62,14.62,0,0,1,711.79,58Z"/><path class="cls-21" d="M717.15,269.71a14.62,14.62,0,1,1-5.36,20,14.62,14.62,0,0,1,5.36-20"/><path class="cls-22" d="M717.15,269.71a14.62,14.62,0,1,1-5.36,20A14.62,14.62,0,0,1,717.15,269.71Z"/><path class="cls-21" d="M793.42,128.06a79,79,0,1,1-107.87-28.9,79,79,0,0,1,107.87,28.9"/><path class="cls-22" d="M793.42,128.06a79,79,0,1,1-107.87-28.9A79,79,0,0,1,793.42,128.06Z"/><path class="cls-21" d="M659.23,78.89a14.62,14.62,0,1,1,20-5.35,14.61,14.61,0,0,1-20,5.35"/><path class="cls-22" d="M659.23,78.89a14.62,14.62,0,1,1,20-5.35A14.61,14.61,0,0,1,659.23,78.89Z"/><path class="cls-21" d="M769.71,259.54a14.62,14.62,0,1,1,5.35,20,14.63,14.63,0,0,1-5.35-20"/><path class="cls-22" d="M769.71,259.54a14.62,14.62,0,1,1,5.35,20A14.63,14.63,0,0,1,769.71,259.54Z"/><path class="cls-21" d="M764.94,98.73a79,79,0,1,1-107.87,28.9,79,79,0,0,1,107.87-28.9"/><path class="cls-22" d="M764.94,98.73a79,79,0,1,1-107.87,28.9A79,79,0,0,1,764.94,98.73Z"/><path class="cls-21" d="M624.14,123.25a14.63,14.63,0,1,1,14.63-14.62,14.63,14.63,0,0,1-14.63,14.62"/><path class="cls-22" d="M624.14,123.25a14.63,14.63,0,1,1,14.63-14.62A14.63,14.63,0,0,1,624.14,123.25Z"/><path class="cls-21" d="M810.15,224.46a14.63,14.63,0,1,1,14.62,14.62,14.62,14.62,0,0,1-14.62-14.62"/><path class="cls-22" d="M810.15,224.46a14.63,14.63,0,1,1,14.62,14.62A14.62,14.62,0,0,1,810.15,224.46Z"/><path class="cls-21" d="M725.61,87.58a79,79,0,1,1-79,79,79,79,0,0,1,79-79"/><path class="cls-22" d="M725.61,87.58a79,79,0,1,1-79,79A79,79,0,0,1,725.61,87.58Z"/><path class="cls-21" d="M615.94,179.21a14.62,14.62,0,1,1,5.35-20,14.63,14.63,0,0,1-5.35,20"/><path class="cls-22" d="M615.94,179.21a14.62,14.62,0,1,1,5.35-20A14.63,14.63,0,0,1,615.94,179.21Z"/><path class="cls-21" d="M827.63,173.85a14.62,14.62,0,1,1,20,5.36,14.62,14.62,0,0,1-20-5.36"/><path class="cls-22" d="M827.63,173.85a14.62,14.62,0,1,1,20,5.36A14.62,14.62,0,0,1,827.63,173.85Z"/><path class="cls-21" d="M686,97.58a79,79,0,1,1-28.9,107.87A79,79,0,0,1,686,97.58"/><path class="cls-22" d="M686,97.58a79,79,0,1,1-28.9,107.87A79,79,0,0,1,686,97.58Z"/><path class="cls-21" d="M636.81,231.77a14.62,14.62,0,1,1-5.36-20,14.63,14.63,0,0,1,5.36,20"/><path class="cls-22" d="M636.81,231.77a14.62,14.62,0,1,1-5.36-20A14.63,14.63,0,0,1,636.81,231.77Z"/><path class="cls-21" d="M817.46,121.29a14.62,14.62,0,1,1,20-5.36,14.62,14.62,0,0,1-20,5.36"/><path class="cls-22" d="M817.46,121.29a14.62,14.62,0,1,1,20-5.36A14.62,14.62,0,0,1,817.46,121.29Z"/><path class="cls-21" d="M656.65,126.06a79,79,0,1,1,28.9,107.87,79,79,0,0,1-28.9-107.87"/><path class="cls-22" d="M656.65,126.06a79,79,0,1,1,28.9,107.87A79,79,0,0,1,656.65,126.06Z"/><path class="cls-21" d="M681.16,266.86a14.62,14.62,0,1,1-14.62-14.62,14.61,14.61,0,0,1,14.62,14.62"/><path class="cls-22" d="M681.16,266.86a14.62,14.62,0,1,1-14.62-14.62A14.61,14.61,0,0,1,681.16,266.86Z"/><path class="cls-21" d="M782.37,80.85A14.63,14.63,0,1,1,797,66.23a14.63,14.63,0,0,1-14.63,14.62"/><path class="cls-22" d="M782.37,80.85A14.63,14.63,0,1,1,797,66.23,14.63,14.63,0,0,1,782.37,80.85Z"/><polygon class="cls-23" points="357.78 154.9 482.43 154.9 482.43 92.11 546.09 175.09 481.11 258.05 482.43 193.03 357.78 195.27 357.78 154.9"/><polygon class="cls-20" points="357.78 154.9 482.43 154.9 482.43 92.11 546.09 175.09 481.11 258.05 482.43 193.03 357.78 195.27 357.78 154.9"/><g class="cls-11"><path class="cls-24" d="M296.24,1254.15c-96.56,54.32-116.15,96.08-114.61,125,1.73,32.63,30.25,48.54,122.16,141.7,83.14,84.27,89.36,101.21,88.17,116.22-4.43,56.06-112.77,91.06-168.63,106"/><path class="cls-24" d="M486.78,1254.15c-96.56,54.32-116.16,96.08-114.62,125,1.74,32.63,30.25,48.54,122.16,141.7,83.14,84.27,89.37,101.21,88.18,116.22-4.44,56.06-112.78,91.06-168.64,106"/><path class="cls-24" d="M657.31,1254.15c-96.56,54.32-116.15,96.08-114.61,125,1.73,32.63,30.25,48.54,122.16,141.7,83.14,84.27,89.36,101.21,88.17,116.22-4.43,56.06-112.77,91.06-168.63,106"/></g></g></g></svg>