<svg xmlns="http://www.w3.org/2000/svg" xmlns:xlink="http://www.w3.org/1999/xlink" viewBox="0 0 302.64 1163.44"><defs><style>.cls-1{fill:#727171;}.cls-2{fill:#92a2d2;}.cls-15,.cls-2,.cls-3,.cls-4{opacity:0.5;}.cls-3{fill:url(#未命名的渐变_118);}.cls-4{fill:url(#未命名的渐变_215);}.cls-5,.cls-6{fill:#efefef;}.cls-5{opacity:0.8;}.cls-6{opacity:0.3;}.cls-7{fill:#3f3b3a;}.cls-8{fill:url(#未命名的渐变_235);}.cls-9{fill:url(#未命名的渐变_235-2);}.cls-10{fill:url(#未命名的渐变_235-3);}.cls-11{fill:#595857;}.cls-12{fill:none;stroke:#f7f8f8;stroke-miterlimit:10;stroke-width:2px;}.cls-13{fill:url(#未命名的渐变_235-4);}.cls-14{fill:#f6d150;}.cls-15{fill:#2ea7e0;}</style><linearGradient id="未命名的渐变_118" x1="7940.85" y1="8232.49" x2="8031.5" y2="8232.49" gradientTransform="translate(-7853.22 -7668.47)" gradientUnits="userSpaceOnUse"><stop offset="0" stop-color="#fff" stop-opacity="0"/><stop offset="0.48" stop-color="#f7f8f8"/><stop offset="1" stop-color="#fff" stop-opacity="0"/></linearGradient><linearGradient id="未命名的渐变_215" x1="7956.77" y1="8640.41" x2="8028.95" y2="8640.41" gradientTransform="translate(-7787.34 -7731.87) rotate(0.46)" gradientUnits="userSpaceOnUse"><stop offset="0" stop-color="#fff" stop-opacity="0"/><stop offset="0.04" stop-color="#fefefe" stop-opacity="0.14"/><stop offset="0.12" stop-color="#fbfcfc" stop-opacity="0.44"/><stop offset="0.2" stop-color="#fafafa" stop-opacity="0.68"/><stop offset="0.27" stop-color="#f8f9f9" stop-opacity="0.85"/><stop offset="0.32" stop-color="#f7f8f8" stop-opacity="0.96"/><stop offset="0.35" stop-color="#f7f8f8"/><stop offset="0.35" stop-color="#f7f8f8"/><stop offset="0.5" stop-color="#f9fafa" stop-opacity="0.7"/><stop offset="0.63" stop-color="#fbfcfc" stop-opacity="0.45"/><stop offset="0.75" stop-color="#fdfdfd" stop-opacity="0.26"/><stop offset="0.86" stop-color="#fefefe" stop-opacity="0.12"/><stop offset="0.94" stop-color="#fff" stop-opacity="0.03"/><stop offset="1" stop-color="#fff" stop-opacity="0"/></linearGradient><linearGradient id="未命名的渐变_235" x1="7895.53" y1="7749.03" x2="7940.85" y2="7749.03" gradientTransform="translate(-7787.34 -7731.87) rotate(0.46)" gradientUnits="userSpaceOnUse"><stop offset="0" stop-color="#727171"/><stop offset="0.22" stop-color="#5c5959"/><stop offset="0.45" stop-color="#4c4848"/><stop offset="0.7" stop-color="#423e3d"/><stop offset="1" stop-color="#3f3b3a"/></linearGradient><linearGradient id="未命名的渐变_235-2" x1="-5434.63" y1="7809.46" x2="-5389.3" y2="7809.46" gradientTransform="matrix(1, 0, 0, -1, 5646.49, 7951.25)" xlink:href="#未命名的渐变_235"/><linearGradient id="未命名的渐变_235-3" x1="7895.53" y1="7809.46" x2="7940.85" y2="7809.46" gradientTransform="translate(-7849.85 -7668.99)" xlink:href="#未命名的渐变_235"/><linearGradient id="未命名的渐变_235-4" x1="-5511.63" y1="7749.03" x2="-5466.3" y2="7749.03" gradientTransform="matrix(-1, -0.01, -0.01, 1, -5192.01, -7711.18)" xlink:href="#未命名的渐变_235"/></defs><title>L_step3</title><g id="Layer_2" data-name="Layer 2"><g id="图层_4" data-name="图层 4"><polygon class="cls-1" points="226.38 217.27 271.7 217.63 302.15 187.65 302.64 127.22 257.55 96.65 227.22 111.51 226.38 217.27"/><rect class="cls-2" x="45.26" y="186.45" width="211.51" height="15.11" transform="translate(1.55 -1.2) rotate(0.46)"/><path class="cls-2" d="M205.61,927.21c-.27,32.87-12.16,61.56-29.75,77.32a52,52,0,0,1-16.28,10.11l-.5,63.28-30.22-.24.51-63.28A52,52,0,0,1,113.25,1004c-17.33-16-28.77-44.92-28.51-77.79Z"/><rect class="cls-2" x="87.63" y="201.54" width="120.87" height="725.19" transform="translate(4.5 -1.16) rotate(0.46)"/><rect class="cls-3" x="87.63" y="201.42" width="90.65" height="725.19" transform="translate(4.5 -1.04) rotate(0.46)"/><path class="cls-4" d="M205.61,927.21c-.27,32.87-12.16,61.56-29.75,77.32-9.19,8.24-19.94,12.93-31.41,12.84s-22.13-5-31.2-13.34c-17.33-16-28.77-44.92-28.51-77.79Z"/><path class="cls-5" d="M199.77,711.86c-.23,28.76-10.64,53.87-26,67.66-8,7.21-17.45,11.32-27.48,11.24s-19.37-4.34-27.3-11.68c-15.17-14-25.17-39.3-24.95-68.06Z"/><rect class="cls-6" x="87.64" y="201.09" width="7.46" height="725.19" transform="translate(4.5 -0.71) rotate(0.46)"/><rect class="cls-6" x="201.04" y="202" width="7.46" height="725.19" transform="translate(4.51 -1.61) rotate(0.46)"/><path class="cls-6" d="M84.74,926.24C84.48,959.11,95.92,988,113.25,1004a52,52,0,0,0,16.12,10.37l-.51,63.28,30.22.24.5-63.28a52,52,0,0,0,16.28-10.11c17.59-15.76,29.48-44.45,29.75-77.32ZM172.05,995c-8.05,7.2-17.45,11.31-27.49,11.23s-19.36-4.33-27.29-11.67c-15.18-14-25.19-39.3-25-68.07l105.76.85C197.84,956.09,187.43,981.19,172.05,995Z"/><polygon class="cls-1" points="75.3 216.06 29.98 215.7 0 185.24 0.48 124.81 46.05 94.96 76.14 110.31 75.3 216.06"/><rect class="cls-1" x="45.62" y="110.91" width="211.51" height="75.54" transform="translate(1.19 -1.2) rotate(0.46)"/><rect class="cls-7" x="91.19" y="50.48" width="120.87" height="135.97" transform="translate(0.95 -1.2) rotate(0.46)"/><polygon class="cls-8" points="46.05 94.96 91.73 50 91.25 110.43 46.05 94.96"/><rect class="cls-9" x="211.87" y="96.46" width="45.32" height="90.65" transform="translate(467.92 285.44) rotate(-179.54)"/><rect class="cls-10" x="45.68" y="95.14" width="45.32" height="90.65" transform="matrix(1, 0.01, -0.01, 1, 1.12, -0.54)"/><rect class="cls-11" x="30.27" y="171.34" width="241.73" height="15.11" transform="translate(1.43 -1.2) rotate(0.46)"/><rect class="cls-11" x="30.09" y="185.67" width="45.32" height="30.22" transform="translate(1.6 -0.41) rotate(0.46)"/><rect class="cls-11" x="226.43" y="202.34" width="45.32" height="15.11" transform="translate(1.68 -1.98) rotate(0.46)"/><rect class="cls-11" x="256.77" y="187.35" width="15.11" height="15.11" transform="translate(1.56 -2.1) rotate(0.46)"/><line class="cls-12" x1="105.27" y1="246.52" x2="135.49" y2="246.76"/><line class="cls-12" x1="104.79" y1="306.95" x2="119.9" y2="307.07"/><line class="cls-12" x1="105.15" y1="261.63" x2="120.26" y2="261.75"/><line class="cls-12" x1="105.03" y1="276.73" x2="120.14" y2="276.85"/><line class="cls-12" x1="104.91" y1="291.84" x2="120.02" y2="291.96"/><line class="cls-12" x1="104.67" y1="322.06" x2="134.89" y2="322.3"/><line class="cls-12" x1="104.19" y1="382.49" x2="119.3" y2="382.61"/><line class="cls-12" x1="104.55" y1="337.16" x2="119.66" y2="337.28"/><line class="cls-12" x1="104.43" y1="352.27" x2="119.54" y2="352.39"/><line class="cls-12" x1="104.31" y1="367.38" x2="119.42" y2="367.5"/><line class="cls-12" x1="104.07" y1="397.6" x2="134.28" y2="397.84"/><line class="cls-12" x1="103.59" y1="458.03" x2="118.69" y2="458.15"/><line class="cls-12" x1="103.95" y1="412.7" x2="119.06" y2="412.82"/><line class="cls-12" x1="103.83" y1="427.81" x2="118.93" y2="427.93"/><line class="cls-12" x1="103.71" y1="442.92" x2="118.81" y2="443.04"/><line class="cls-12" x1="103.47" y1="473.13" x2="133.68" y2="473.37"/><line class="cls-12" x1="102.98" y1="533.56" x2="118.09" y2="533.69"/><line class="cls-12" x1="103.35" y1="488.24" x2="118.45" y2="488.36"/><line class="cls-12" x1="103.22" y1="503.35" x2="118.33" y2="503.47"/><line class="cls-12" x1="103.1" y1="518.46" x2="118.21" y2="518.58"/><line class="cls-12" x1="102.86" y1="548.67" x2="133.08" y2="548.91"/><line class="cls-12" x1="102.38" y1="609.1" x2="117.49" y2="609.22"/><line class="cls-12" x1="102.74" y1="563.78" x2="117.85" y2="563.9"/><line class="cls-12" x1="102.62" y1="578.89" x2="117.73" y2="579.01"/><line class="cls-12" x1="102.5" y1="594" x2="117.61" y2="594.12"/><line class="cls-12" x1="102.26" y1="624.21" x2="132.48" y2="624.45"/><line class="cls-12" x1="101.78" y1="684.64" x2="116.89" y2="684.76"/><line class="cls-12" x1="102.14" y1="639.32" x2="117.25" y2="639.44"/><line class="cls-12" x1="102.02" y1="654.43" x2="117.13" y2="654.55"/><line class="cls-12" x1="101.9" y1="669.53" x2="117.01" y2="669.65"/><line class="cls-12" x1="101.66" y1="699.75" x2="131.87" y2="699.99"/><line class="cls-12" x1="101.18" y1="760.18" x2="116.29" y2="760.3"/><line class="cls-12" x1="101.54" y1="714.86" x2="116.65" y2="714.98"/><line class="cls-12" x1="101.42" y1="729.96" x2="116.53" y2="730.09"/><line class="cls-12" x1="101.3" y1="745.07" x2="116.41" y2="745.19"/><line class="cls-12" x1="101.06" y1="775.29" x2="131.27" y2="775.53"/><line class="cls-12" x1="100.58" y1="835.72" x2="115.68" y2="835.84"/><line class="cls-12" x1="100.94" y1="790.4" x2="116.04" y2="790.52"/><line class="cls-12" x1="100.82" y1="805.5" x2="115.92" y2="805.62"/><line class="cls-12" x1="100.7" y1="820.61" x2="115.8" y2="820.73"/><line class="cls-12" x1="100.45" y1="850.83" x2="130.67" y2="851.07"/><polygon class="cls-13" points="257.55 96.65 212.59 50.96 212.11 111.39 257.55 96.65"/><rect class="cls-14" x="137.25" y="0.12" width="30.22" height="50.36" transform="translate(0.21 -1.21) rotate(0.46)"/><rect class="cls-14" x="125.09" y="1069.41" width="37.77" height="15.11" transform="translate(8.59 -1.11) rotate(0.46)"/><polygon class="cls-1" points="147.07 1163.44 139.51 1163.38 136.42 1077.74 151.53 1077.86 147.07 1163.44"/><rect class="cls-14" x="128.72" y="1072.77" width="30.22" height="45.32" transform="translate(8.74 -1.11) rotate(0.46)"/><rect class="cls-14" x="133.06" y="35.37" width="37.77" height="15.11" transform="translate(0.35 -1.21) rotate(0.46)"/><path class="cls-15" d="M199.73,718.81l-1.67,209.12H198c-.39,28.49-10.75,53.3-26,67-8.05,7.21-17.44,11.31-27.48,11.23s-19.36-4.33-27.29-11.66c-15.07-13.94-25-38.91-25-67.4h-.13l1.67-209.82a1.42,1.42,0,0,0,.29,0c1,26.47,10.62,49.46,24.8,62.58,7.93,7.34,17.26,11.59,27.3,11.67s19.44-4,27.49-11.23c14.28-12.8,24.25-35.33,25.8-61.51Z"/><rect class="cls-5" x="94.46" y="646.3" width="106.1" height="65.35" transform="matrix(-1, -0.01, 0.01, -1, 289.59, 1359.09)"/></g></g></svg>