<svg xmlns="http://www.w3.org/2000/svg" xmlns:xlink="http://www.w3.org/1999/xlink" viewBox="0 0 1492.66 1918.22"><defs><style>.cls-1,.cls-30{fill:none;stroke-miterlimit:10;}.cls-1{stroke:#3f3b3a;stroke-width:15px;}.cls-2{fill:#c9bc9c;}.cls-3{fill:url(#未命名的渐变_65);}.cls-4,.cls-5{opacity:0.64;}.cls-4{fill:url(#未命名的渐变_7);}.cls-5{fill:url(#未命名的渐变_7-2);}.cls-11,.cls-12,.cls-13,.cls-14,.cls-16,.cls-17,.cls-18,.cls-20,.cls-21,.cls-22,.cls-6,.cls-7,.cls-8,.cls-9{opacity:0.5;}.cls-6{fill:url(#未命名的渐变_22);}.cls-7{fill:url(#未命名的渐变_22-2);}.cls-8{fill:url(#未命名的渐变_22-3);}.cls-9{fill:url(#未命名的渐变_22-4);}.cls-10{fill:url(#未命名的渐变_65-2);}.cls-11{fill:url(#未命名的渐变_22-5);}.cls-12{fill:url(#未命名的渐变_22-6);}.cls-13{fill:url(#未命名的渐变_22-7);}.cls-14{fill:url(#未命名的渐变_47);}.cls-15{fill:url(#未命名的渐变_65-3);}.cls-16{fill:#2ea7e0;}.cls-17{fill:url(#未命名的渐变_22-8);}.cls-18{fill:url(#未命名的渐变_22-9);}.cls-19{fill:#727171;}.cls-20{fill:#92a2d2;}.cls-21{fill:url(#未命名的渐变_118);}.cls-22{fill:url(#未命名的渐变_215);}.cls-23,.cls-24{fill:#efefef;}.cls-23{opacity:0.8;}.cls-24{opacity:0.3;}.cls-25{fill:#3f3b3a;}.cls-26{fill:url(#未命名的渐变_235);}.cls-27{fill:url(#未命名的渐变_235-2);}.cls-28{fill:url(#未命名的渐变_235-3);}.cls-29{fill:#595857;}.cls-30{stroke:#f7f8f8;stroke-width:2px;}.cls-31{fill:url(#未命名的渐变_235-4);}.cls-32{fill:#f6d150;}</style><linearGradient id="未命名的渐变_65" x1="255.77" y1="-4859.14" x2="248.86" y2="-4816.88" gradientTransform="translate(-3604.12 3327.81) rotate(66.21)" gradientUnits="userSpaceOnUse"><stop offset="0" stop-color="#786050"/><stop offset="0.14" stop-color="#7e6656"/><stop offset="1" stop-color="#a48b78"/></linearGradient><linearGradient id="未命名的渐变_7" x1="370.01" y1="-5246.01" x2="232.34" y2="-5300.08" gradientTransform="translate(-3604.12 3327.81) rotate(66.21)" gradientUnits="userSpaceOnUse"><stop offset="0" stop-color="#604d3f"/><stop offset="0.05" stop-color="#786654"/><stop offset="0.12" stop-color="#91816a"/><stop offset="0.2" stop-color="#a6977d"/><stop offset="0.29" stop-color="#b6a88b"/><stop offset="0.4" stop-color="#c1b395"/><stop offset="0.56" stop-color="#c7ba9a"/><stop offset="1" stop-color="#c9bc9c"/></linearGradient><linearGradient id="未命名的渐变_7-2" x1="232.04" y1="-5342.97" x2="279.02" y2="-5282.99" xlink:href="#未命名的渐变_7"/><radialGradient id="未命名的渐变_22" cx="-179" cy="-3907.74" r="60.88" gradientTransform="matrix(0, 1, -0.73, 0, -1447.26, 1519.14)" gradientUnits="userSpaceOnUse"><stop offset="0" stop-color="#fff"/><stop offset="0" stop-color="#fff"/><stop offset="0.31" stop-color="#e8e2d4"/><stop offset="0.59" stop-color="#d7cdb5"/><stop offset="0.83" stop-color="#cdc1a3"/><stop offset="1" stop-color="#c9bc9c"/></radialGradient><radialGradient id="未命名的渐变_22-2" cx="1293.87" cy="-5736.72" r="173.04" gradientTransform="matrix(0.01, -0.9, 0.16, 0, 2039.18, 2753.39)" xlink:href="#未命名的渐变_22"/><radialGradient id="未命名的渐变_22-3" cx="-854.34" cy="-2840.07" r="60.88" gradientTransform="matrix(0, 1, -0.73, 0, -721.14, 2401.18)" xlink:href="#未命名的渐变_22"/><radialGradient id="未命名的渐变_22-4" cx="127.61" cy="-2517.05" r="60.88" gradientTransform="matrix(0, 0.87, -0.42, 0, 152.91, 1396.62)" xlink:href="#未命名的渐变_22"/><linearGradient id="未命名的渐变_65-2" x1="215.84" y1="-4604.65" x2="234.29" y2="-4712.7" xlink:href="#未命名的渐变_65"/><radialGradient id="未命名的渐变_22-5" cx="1319.72" cy="-4723.99" r="247.24" gradientTransform="matrix(0.01, -1.45, 0.07, 0, 734.59, 3684.01)" xlink:href="#未命名的渐变_22"/><radialGradient id="未命名的渐变_22-6" cx="-5121.23" cy="-2719.41" r="60.88" gradientTransform="translate(5186.5 3673.76) scale(1 0.73)" xlink:href="#未命名的渐变_22"/><radialGradient id="未命名的渐变_22-7" cx="-3302.97" cy="430.53" r="60.88" gradientTransform="translate(3146.87 1671.9) scale(0.91 0.43)" xlink:href="#未命名的渐变_22"/><radialGradient id="未命名的渐变_47" cx="-3457.71" cy="-1322.53" r="60.88" gradientTransform="matrix(1.4, -0.02, 0.01, 0.44, 5022.83, 2289.59)" gradientUnits="userSpaceOnUse"><stop offset="0" stop-color="#a48b78"/><stop offset="0.3" stop-color="#b39e86"/><stop offset="0.72" stop-color="#c3b496"/><stop offset="1" stop-color="#c9bc9c"/></radialGradient><linearGradient id="未命名的渐变_65-3" x1="222.42" y1="-4784.42" x2="288.58" y2="-4784.42" xlink:href="#未命名的渐变_65"/><radialGradient id="未命名的渐变_22-8" cx="-2738.98" cy="1088.42" r="60.88" gradientTransform="matrix(0.89, 0, 0, 0.31, 3268.57, 1337.49)" xlink:href="#未命名的渐变_22"/><radialGradient id="未命名的渐变_22-9" cx="-3311.04" cy="3339.44" r="60.88" gradientTransform="translate(2991.18 756.48) scale(0.69 0.26)" xlink:href="#未命名的渐变_22"/><linearGradient id="未命名的渐变_118" x1="8304.92" y1="9023.01" x2="8395.57" y2="9023.01" gradientTransform="translate(-7943.36 -7938.96)" gradientUnits="userSpaceOnUse"><stop offset="0" stop-color="#fff" stop-opacity="0"/><stop offset="0.48" stop-color="#f7f8f8"/><stop offset="1" stop-color="#fff" stop-opacity="0"/></linearGradient><linearGradient id="未命名的渐变_215" x1="8320.84" y1="9430.93" x2="8393.01" y2="9430.93" gradientTransform="matrix(0.93, -0.37, 0.37, 0.93, -10680.54, -4227.3)" gradientUnits="userSpaceOnUse"><stop offset="0" stop-color="#fff" stop-opacity="0"/><stop offset="0.04" stop-color="#fefefe" stop-opacity="0.14"/><stop offset="0.12" stop-color="#fbfcfc" stop-opacity="0.44"/><stop offset="0.2" stop-color="#fafafa" stop-opacity="0.68"/><stop offset="0.27" stop-color="#f8f9f9" stop-opacity="0.85"/><stop offset="0.32" stop-color="#f7f8f8" stop-opacity="0.96"/><stop offset="0.35" stop-color="#f7f8f8"/><stop offset="0.35" stop-color="#f7f8f8"/><stop offset="0.5" stop-color="#f9fafa" stop-opacity="0.7"/><stop offset="0.63" stop-color="#fbfcfc" stop-opacity="0.45"/><stop offset="0.75" stop-color="#fdfdfd" stop-opacity="0.26"/><stop offset="0.86" stop-color="#fefefe" stop-opacity="0.12"/><stop offset="0.94" stop-color="#fff" stop-opacity="0.03"/><stop offset="1" stop-color="#fff" stop-opacity="0"/></linearGradient><linearGradient id="未命名的渐变_235" x1="8259.59" y1="8539.55" x2="8304.92" y2="8539.55" gradientTransform="matrix(0.93, -0.37, 0.37, 0.93, -10680.54, -4227.3)" gradientUnits="userSpaceOnUse"><stop offset="0" stop-color="#727171"/><stop offset="0.22" stop-color="#5c5959"/><stop offset="0.45" stop-color="#4c4848"/><stop offset="0.7" stop-color="#423e3d"/><stop offset="1" stop-color="#3f3b3a"/></linearGradient><linearGradient id="未命名的渐变_235-2" x1="-7399.62" y1="8599.98" x2="-7354.3" y2="8599.98" gradientTransform="matrix(1, 0, 0, -1, 7719.26, 9254.59)" xlink:href="#未命名的渐变_235"/><linearGradient id="未命名的渐变_235-3" x1="8259.59" y1="8599.98" x2="8304.92" y2="8599.98" gradientTransform="translate(-8094.45 -7884.14)" xlink:href="#未命名的渐变_235"/><linearGradient id="未命名的渐变_235-4" x1="-7476.62" y1="8539.55" x2="-7431.3" y2="8539.55" gradientTransform="matrix(-0.93, 0.37, 0.37, 0.93, -9756.02, -4593.74)" xlink:href="#未命名的渐变_235"/></defs><title>L_step4</title><g id="Layer_2" data-name="Layer 2"><g id="图层_4" data-name="图层 4"><path class="cls-1" d="M214.67,558.64c-18.72-41.52-58.13-143.93-39.32-275.3C197,132.11,282.29,36.71,313.08,5.24"/><path class="cls-2" d="M1396.29,1608.88c-39.92,15.22-65.33-9.57-155.31-6.39a409.53,409.53,0,0,0-65.08,7.71c-43.93,8.81-48.19,10.72-89.72,21.4-57.63,14.79-57.29,12.67-131.08,28.68-22,4.78-28.37,2.4-44.88,2.72a6.27,6.27,0,0,1-4.72-1.52,65.89,65.89,0,0,0,21.92-14.4c14.65-14.62,17.8-32.18,20.57-47.56a140.22,140.22,0,0,0,.07-48.64,6.77,6.77,0,0,1,1.39-.36c23.3-3.74,50.53-13.38,138.4-44.41,12-4.24,31.38-9.67,43.87-16.35,28.65-15.37,14.25-28.28,53.38-45.76,25-11.21,36.11,6.66,61.56-6.19,10.13-5.12,6.41-7,37.26-36,20.5-19.29,25.24-21.38,29.58-31.21,7.48-17,1.06-23.53,7.24-40.81,11.87-33.23,37.54-48.66,45.38-52.28,7.57-3.51,40.6-18.78,75.71-2.64,31.64,14.52,42.54,44.24,45.07,51.43,9.92,28.44,8.11,69.31-13.89,85.82-13.15,9.85-25.39,5-35.26,18.34-7.48,10.11-9.08,24.56-5.18,35.82,2.91,8.4,4.64,7.78,14,19.49,8.58,10.78,20.94,31.15,19.83,47.66-.6,8.86-2,13.23-17.84,29.27C1421.85,1589.76,1410.16,1603.61,1396.29,1608.88Z"/><path class="cls-3" d="M905.5,1661.48c-2.78-2.72-3.55-10,3.46-29.07,7.68-20.9,21.07-37.59,28.09-63.69,2.73-10.1,6.31-16.22,11-17.84a140.22,140.22,0,0,1-.07,48.64c-2.77,15.38-5.92,32.94-20.57,47.56A65.89,65.89,0,0,1,905.5,1661.48Z"/><path class="cls-4" d="M1456.36,1524.7c-.21.18-15.85-20.41-41.59-33.73-8.89-4.6-12.33,2.53-28.78,3.1-18.71.65-26-4.08-39.57-5.84-34.56-4.49-42.54,19-70.89,14.81s-53.06-32.3-48.81-47c2.17-7.47,11-8.33,24.87-15.08,40-19.38,36.3-45.69,63.05-55.88,41.22-15.71,105.29,28.09,112.37,48.64,2.51,7.31,1,18.82,1,18.82-.29,11.13,5.92,20.13,8.2,22C1469.72,1502.88,1456.58,1524.52,1456.36,1524.7Z"/><path class="cls-5" d="M1313.29,1372.29c2.41-5.26,17.26,13.41,26.9,20.53,12,8.88,23,14.88,48.2,25.12,32,13,44.65,16.53,50.15,9.73,4-5-16.38,33.6-23,18.49-3.49-7.91-75.94-10.85-100.12-15.31-12.24-2.25-41.07-19.24-29.55-28.93C1297.74,1391.9,1308.85,1382,1313.29,1372.29Z"/><ellipse class="cls-6" cx="1414.43" cy="1340.13" rx="50.7" ry="69.59" transform="translate(-502.41 1689.83) rotate(-53.79)"/><rect class="cls-7" x="1076.99" y="1423.79" width="77.76" height="319.9" rx="12" ry="12" transform="translate(2443.84 173.11) rotate(78.44)"/><ellipse class="cls-8" cx="1358.68" cy="1546.83" rx="50.7" ry="69.59" transform="translate(-487.18 2458.7) rotate(-74.99)"/><ellipse class="cls-9" cx="1214.07" cy="1507.7" rx="29.19" ry="60.57" transform="translate(-719.63 1596.74) rotate(-53.79)"/><path class="cls-10" d="M722.32,1716a33.94,33.94,0,0,1-.9-11.31c.68-7.65,5.92-13.51,2-13.46-8.18.09-28.12,1.16-50.35-11.2-9.7-5.38-15-12.9-20.72-21a96.5,96.5,0,0,1-14.46-31.7l.5,0c13.55,1.23,14.66,5.73,28.61,5.18,12.5-.47,12.41-.21,23.07,1,15.53,1.83,22.44,3.63,33.79,7.47,6.38,2.14,11.88,0,19.09-10.23,15-21.24,18.89-19.5,27.37-28.37,4.52-4.75,13.21,2,28.2,11.28,42.79,26.47,48.49,33.53,52.6,36.9s-5.08,3.11-16.9,6.07c0,0-23.12,5.75-41.34,14-20.15,9.16-24,23.68-39.38,31.21C742.47,1707.26,732.33,1711.9,722.32,1716Z"/><path class="cls-2" d="M722.32,1716c-24.68,10.13-48.56,17.08-82.24,24.55-13.17,2.91-60.43,18.34-147.22,41.29S379.22,1817.72,294,1847.19c-31.35,10.84-83.75,29.5-116.3,48.55-3.39,2-2.19,10.88-8.25,16.23-18.21,16.11-58.27-3.85-61-5.25-12-6.12-26.76-13.69-34.07-29.7-5.74-12.64-1.65-19.13-3.84-62.62-.7-14,0-21.76-2.27-24.18-18-19.59-35.06-21.77-53.37-45C.6,1727.22.23,1705.62.07,1695.86c-.17-9.58-2.06-46.74,34.36-70.68,27.92-18.37,65.64-16.67,84.75-7.18,6.06,3,8.84,11.42,18,13.65,7.67,1.88,17.2.44,19.52,1.36,29.74,11.75,75,27,109.83,36.85,20.9,5.9,51.29,4.89,111.11.74C459,1665,574,1637.18,610.4,1631.76c5.31-.79,15.83-5.41,27.46-4.51a96.5,96.5,0,0,0,14.46,31.7c5.73,8.15,11,15.67,20.72,21,22.23,12.36,42.17,11.29,50.35,11.2,4,0-1.29,5.81-2,13.46A33.94,33.94,0,0,0,722.32,1716Z"/><rect class="cls-11" x="360.22" y="1503.12" width="77.76" height="517.62" rx="12" ry="12" transform="translate(1959.69 851.86) rotate(72.51)"/><ellipse class="cls-12" cx="65.27" cy="1682.31" rx="69.59" ry="50.7" transform="translate(-1265.9 651.57) rotate(-50.03)"/><ellipse class="cls-13" cx="148.07" cy="1858.63" rx="63.18" ry="30.03" transform="translate(-327.05 55.66) rotate(-10.21)"/><ellipse class="cls-14" cx="165.67" cy="1761.27" rx="97.39" ry="43.5" transform="translate(-447.93 102.05) rotate(-14.92)"/><path class="cls-15" d="M894.34,1642.6c-11.11.28-13,8.23-23.07,10.59-15.21,3.56-24.91-18-44.85-20a80.35,80.35,0,0,0-9.15-.36,147.84,147.84,0,0,1,22.16-18.22c11.81-7.89,23.07-15.38,39.49-17.41a66.89,66.89,0,0,1,15.07-.12c1.29,5.8,13.92,16.68,25.14,23.81,11.86,7.53,18.18,8.4,18.55,12.94.51,6-11.2,14.91-21.11,12.21S904.74,1642.35,894.34,1642.6Z"/><path class="cls-16" d="M724.53,1692.1q-6.63,11-3.45,22.69c23.89-5.9-24.83,5,42.38-11,75.07-17.85,125.25-31.59,164.6-41.6-1.3-2.21-3.31-3.69-5.39-5.21-.32.38-.62.76-.95,1.14-2.23,1.89-.89-2.11-2.07-3.5l-.3-.26.3.26c1,.86,2,1.62,3,2.36,26.19-30.91,33.94-68.43,24.83-106-18.79,5.4-45.29,13.15-85.39,21.8-73.72,15.89-146.28,37-220,53a15.66,15.66,0,0,0-4.49,1.49C642.56,1669.21,682.79,1698,724.53,1692.1Z"/><path class="cls-16" d="M921.72,1658.17c.33-.38.63-.76.95-1.14-1-.74-2-1.5-3-2.36C920.83,1656.06,919.49,1660.06,921.72,1658.17Z"/><path class="cls-16" d="M919.65,1654.67a1.25,1.25,0,0,0-.3-.26Z"/><path class="cls-2" d="M910.67,1592.34c-9.8,2.74-15.29,0-16.58,2.75a3,3,0,0,0-.1,2,66.89,66.89,0,0,0-15.07.12c-16.42,2-27.68,9.52-39.49,17.41a147.84,147.84,0,0,0-22.16,18.22c-18.89.25-36.38,5.31-44.21-8-6.59-11.18-11.86-25-8.55-26.87,13.72-7.77,28.75-11,57.19-17.76,71.57-17.08,129.88-35.75,122.53-25.47-5.65,7.87-5.36,14.42-9.44,19.91C932.52,1577.69,924.49,1588.47,910.67,1592.34Z"/><path class="cls-2" d="M926.6,1663.53C889.41,1676,743.93,1710.68,722,1715.62c-2.56.58,6.62-4.11,13.06-11,16.31-17.45,2.37-26,18.23-41.77,11.24-11.2,29.46-24,49.86-25.94,6.43-.61,13.84.79,25.23-1.82,10.38-2.38,11.85-6,19.61-8.13,13.89-3.75,27.08,3.16,46.4,13.62C916.35,1652.47,933.28,1661.29,926.6,1663.53Z"/><ellipse class="cls-17" cx="819.91" cy="1669.54" rx="62.21" ry="21.13" transform="translate(-373.63 242.98) rotate(-13.76)"/><path class="cls-2" d="M762.75,1594.15c-16.23.42-115.38,30.18-115.43,30.2h0s.56,9.62.61,10.33c.75,11.14,25.93,48.41,60.65,47.69,4.76-.1,13.28-.39,20.76-6,6.33-4.76,8.71-10.94,13.17-22.95,6.27-16.91,3.29-18.75,9.4-32,.62-1.33,3.79-8.11,7.54-17.43C761.89,1597.92,763.55,1594.13,762.75,1594.15Z"/><ellipse class="cls-18" cx="703.39" cy="1629.62" rx="48.09" ry="18.1" transform="translate(-505.88 330.36) rotate(-19.6)"/><polygon class="cls-19" points="363.11 727.62 405.25 710.92 422.21 671.69 399.94 615.51 346.67 604.12 324.14 629.3 363.11 727.62"/><rect class="cls-20" x="178.78" y="726.83" width="211.51" height="15.11" transform="translate(-250.58 156.51) rotate(-21.62)"/><path class="cls-20" d="M610.71,1393.31c12.11,30.55,11.88,61.62,1.5,82.83a52.22,52.22,0,0,1-11.28,15.49l23.32,58.83-28.09,11.13-23.32-58.83a52.13,52.13,0,0,1-18.84-3.55c-22.08-8.35-43.54-30.81-55.65-61.37Z"/><rect class="cls-20" x="360.49" y="715.89" width="120.87" height="725.19" transform="translate(-367.77 230.98) rotate(-21.62)"/><rect class="cls-21" x="361.56" y="721.46" width="90.65" height="725.19" transform="translate(-370.81 226.2) rotate(-21.62)"/><path class="cls-22" d="M610.71,1393.31c12.11,30.55,11.88,61.62,1.5,82.83-5.43,11.09-13.62,19.48-24.28,23.71s-22.38,3.72-33.93-.64c-22.08-8.35-43.54-30.81-55.65-61.37Z"/><path class="cls-23" d="M524.36,1196c10.6,26.73,10.39,53.91,1.31,72.47-4.74,9.71-11.91,17-21.24,20.75s-19.58,3.26-29.69-.56c-19.33-7.3-38.1-27-48.69-53.7Z"/><rect class="cls-24" x="364.48" y="736.79" width="7.46" height="725.19" transform="translate(-379.18 213.03) rotate(-21.62)"/><rect class="cls-24" x="469.91" y="695" width="7.46" height="725.19" transform="translate(-356.37 248.93) rotate(-21.62)"/><path class="cls-24" d="M498.35,1437.84c12.11,30.56,33.57,53,55.65,61.37a52.09,52.09,0,0,0,18.84,3.55l23.32,58.83,28.09-11.13-23.32-58.83a52.22,52.22,0,0,0,11.28-15.49c10.38-21.21,10.61-52.28-1.5-82.83Zm106.73,30.88c-4.74,9.71-11.91,17-21.24,20.74s-19.57,3.26-29.68-.55c-19.34-7.31-38.11-27-48.71-53.7l98.32-39C614.37,1423,614.16,1450.16,605.08,1468.72Z"/><polygon class="cls-19" points="222.66 783.28 180.53 799.99 141.3 783.03 119.03 726.85 150.04 682.06 183.69 684.97 222.66 783.28"/><rect class="cls-19" x="162.08" y="654.48" width="211.51" height="75.54" transform="translate(-236.23 147.4) rotate(-21.62)"/><rect class="cls-25" x="196.27" y="596.17" width="120.87" height="135.97" transform="translate(-226.66 141.32) rotate(-21.62)"/><polygon class="cls-26" points="150.04 682.06 175.47 623.22 197.74 679.4 150.04 682.06"/><rect class="cls-27" x="319.64" y="609.28" width="45.32" height="90.65" transform="translate(901.72 1137.03) rotate(158.38)"/><rect class="cls-28" x="165.14" y="670.52" width="45.32" height="90.65" transform="translate(-250.55 119.57) rotate(-21.62)"/><rect class="cls-29" x="158.11" y="712.78" width="241.73" height="15.11" transform="translate(-245.79 153.47) rotate(-21.62)"/><rect class="cls-29" x="173.36" y="762.48" width="45.32" height="30.22" transform="translate(-272.72 126.94) rotate(-21.62)"/><rect class="cls-29" x="358.74" y="704.69" width="45.32" height="15.11" transform="translate(-235.6 190.65) rotate(-21.62)"/><rect class="cls-29" x="382.32" y="685.08" width="15.11" height="15.11" transform="matrix(0.93, -0.37, 0.37, 0.93, -227.78, 192.39)"/><line class="cls-30" x1="261.89" y1="800.24" x2="289.98" y2="789.11"/><line class="cls-30" x1="284.15" y1="856.42" x2="298.2" y2="850.86"/><line class="cls-30" x1="267.45" y1="814.29" x2="281.5" y2="808.72"/><line class="cls-30" x1="273.02" y1="828.33" x2="287.06" y2="822.77"/><line class="cls-30" x1="278.59" y1="842.38" x2="292.63" y2="836.81"/><line class="cls-30" x1="289.72" y1="870.47" x2="317.81" y2="859.33"/><line class="cls-30" x1="311.99" y1="926.65" x2="326.03" y2="921.08"/><line class="cls-30" x1="295.29" y1="884.51" x2="309.33" y2="878.95"/><line class="cls-30" x1="300.85" y1="898.56" x2="314.9" y2="892.99"/><line class="cls-30" x1="306.42" y1="912.6" x2="320.47" y2="907.04"/><line class="cls-30" x1="317.55" y1="940.69" x2="345.65" y2="929.56"/><line class="cls-30" x1="339.82" y1="996.87" x2="353.87" y2="991.31"/><line class="cls-30" x1="323.12" y1="954.74" x2="337.17" y2="949.17"/><line class="cls-30" x1="328.69" y1="968.78" x2="342.73" y2="963.22"/><line class="cls-30" x1="334.26" y1="982.83" x2="348.3" y2="977.26"/><line class="cls-30" x1="345.39" y1="1010.92" x2="373.48" y2="999.79"/><line class="cls-30" x1="367.66" y1="1067.1" x2="381.7" y2="1061.53"/><line class="cls-30" x1="350.96" y1="1024.96" x2="365" y2="1019.4"/><line class="cls-30" x1="356.52" y1="1039.01" x2="370.57" y2="1033.44"/><line class="cls-30" x1="362.09" y1="1053.05" x2="376.14" y2="1047.49"/><line class="cls-30" x1="373.22" y1="1081.15" x2="401.31" y2="1070.01"/><line class="cls-30" x1="395.49" y1="1137.33" x2="409.54" y2="1131.76"/><line class="cls-30" x1="378.79" y1="1095.19" x2="392.84" y2="1089.62"/><line class="cls-30" x1="384.36" y1="1109.24" x2="398.4" y2="1103.67"/><line class="cls-30" x1="389.92" y1="1123.28" x2="403.97" y2="1117.71"/><line class="cls-30" x1="401.06" y1="1151.37" x2="429.15" y2="1140.24"/><line class="cls-30" x1="423.33" y1="1207.55" x2="437.37" y2="1201.99"/><line class="cls-30" x1="406.63" y1="1165.42" x2="420.67" y2="1159.85"/><line class="cls-30" x1="412.19" y1="1179.46" x2="426.24" y2="1173.89"/><line class="cls-30" x1="417.76" y1="1193.51" x2="431.8" y2="1187.94"/><line class="cls-30" x1="428.89" y1="1221.6" x2="456.98" y2="1210.46"/><line class="cls-30" x1="451.16" y1="1277.78" x2="465.21" y2="1272.21"/><line class="cls-30" x1="434.46" y1="1235.64" x2="448.5" y2="1230.08"/><line class="cls-30" x1="440.03" y1="1249.69" x2="454.07" y2="1244.12"/><line class="cls-30" x1="445.59" y1="1263.73" x2="459.64" y2="1258.17"/><line class="cls-30" x1="456.73" y1="1291.82" x2="484.82" y2="1280.69"/><line class="cls-30" x1="478.99" y1="1348" x2="493.04" y2="1342.44"/><line class="cls-30" x1="462.29" y1="1305.87" x2="476.34" y2="1300.3"/><line class="cls-30" x1="467.86" y1="1319.91" x2="481.91" y2="1314.35"/><line class="cls-30" x1="473.43" y1="1333.96" x2="487.47" y2="1328.39"/><line class="cls-30" x1="484.56" y1="1362.05" x2="512.65" y2="1350.92"/><polygon class="cls-31" points="346.67 604.12 287.83 578.69 310.1 634.87 346.67 604.12"/><rect class="cls-32" x="207.27" y="552.36" width="30.22" height="50.36" transform="translate(-197.16 122.57) rotate(-21.62)"/><rect class="cls-32" x="591.01" y="1547.69" width="37.77" height="15.11" transform="translate(-530.15 334.15) rotate(-21.62)"/><polygon class="cls-19" points="645.26 1634.22 638.24 1637.01 603.18 1558.81 617.22 1553.24 645.26 1634.22"/><rect class="cls-32" x="601.59" y="1549.75" width="30.22" height="45.32" transform="translate(-535.99 337.87) rotate(-21.62)"/><rect class="cls-32" x="209.73" y="586.48" width="37.77" height="15.11" transform="translate(-202.8 126.03) rotate(-21.62)"/><path class="cls-16" d="M526.94,1202.39,604,1396.81l-.08,0c10.34,26.55,10.07,53.43,1.07,71.86-4.75,9.7-11.92,17-21.25,20.74s-19.57,3.26-29.67-.56c-19.2-7.25-37.82-26.65-48.45-53.08l-.13,0-77.31-195a1.22,1.22,0,0,0,.27-.09c10.87,24.15,28.43,41.84,46.5,48.67,10.11,3.81,20.36,4.24,29.69.55s16.5-11,21.25-20.74c8.43-17.23,9.2-41.86.8-66.7Z"/><rect class="cls-23" x="410.52" y="1152.44" width="106.1" height="65.35" transform="translate(1331.19 2116.03) rotate(158.38)"/></g></g></svg>