<svg xmlns="http://www.w3.org/2000/svg" xmlns:xlink="http://www.w3.org/1999/xlink" viewBox="0 0 245.69 1120.99"><defs><style>.cls-1{fill:#f39800;}.cls-2{fill:#337fb9;}.cls-3{fill:#448aff;opacity:0.5;}.cls-4,.cls-6,.cls-7{opacity:0.3;}.cls-5{fill:none;stroke:#181d62;stroke-miterlimit:10;stroke-width:2px;}.cls-6{fill:url(#未命名的渐变_15);}.cls-7{fill:url(#未命名的渐变_15-2);}</style><linearGradient id="未命名的渐变_15" x1="25.37" y1="609.23" x2="128.94" y2="609.23" gradientUnits="userSpaceOnUse"><stop offset="0" stop-color="#fff" stop-opacity="0"/><stop offset="0.04" stop-color="#fff" stop-opacity="0.05"/><stop offset="0.12" stop-color="#fff" stop-opacity="0.17"/><stop offset="0.23" stop-color="#fff" stop-opacity="0.38"/><stop offset="0.36" stop-color="#fff" stop-opacity="0.66"/><stop offset="0.5" stop-color="#fff"/><stop offset="0.54" stop-color="#fff" stop-opacity="0.9"/><stop offset="0.71" stop-color="#fff" stop-opacity="0.52"/><stop offset="0.85" stop-color="#fff" stop-opacity="0.24"/><stop offset="0.95" stop-color="#fff" stop-opacity="0.07"/><stop offset="1" stop-color="#fff" stop-opacity="0"/></linearGradient><linearGradient id="未命名的渐变_15-2" x1="7.09" y1="48.74" x2="110.66" y2="48.74" xlink:href="#未命名的渐变_15"/></defs><title>L_step1</title><g id="Layer_2" data-name="Layer 2"><g id="图层_4" data-name="图层 4"><rect class="cls-1" x="1" width="243.69" height="97.48"/><path class="cls-2" d="M232.51,97.48V877.29l-81,180c-11.11,24.7-46.18,24.7-57.29,0l-81-180V97.48Z"/><rect class="cls-3" x="13.18" y="97.48" width="219.32" height="1023.51"/><g class="cls-4"><line class="cls-5" x1="1" x2="1" y2="97.48"/><line class="cls-5" x1="13.18" x2="13.18" y2="97.48"/><line class="cls-5" x1="25.37" x2="25.37" y2="97.48"/><line class="cls-5" x1="37.55" x2="37.55" y2="97.48"/><line class="cls-5" x1="49.74" x2="49.74" y2="97.48"/><line class="cls-5" x1="61.92" x2="61.92" y2="97.48"/><line class="cls-5" x1="74.11" x2="74.11" y2="97.48"/><line class="cls-5" x1="86.29" x2="86.29" y2="97.48"/><line class="cls-5" x1="98.48" x2="98.48" y2="97.48"/><line class="cls-5" x1="110.66" x2="110.66" y2="97.48"/><line class="cls-5" x1="122.85" x2="122.85" y2="97.48"/><line class="cls-5" x1="135.03" x2="135.03" y2="97.48"/><line class="cls-5" x1="147.22" x2="147.22" y2="97.48"/><line class="cls-5" x1="159.4" x2="159.4" y2="97.48"/><line class="cls-5" x1="171.58" x2="171.58" y2="97.48"/><line class="cls-5" x1="183.77" x2="183.77" y2="97.48"/><line class="cls-5" x1="195.95" x2="195.95" y2="97.48"/><line class="cls-5" x1="208.14" x2="208.14" y2="97.48"/><line class="cls-5" x1="220.32" x2="220.32" y2="97.48"/><line class="cls-5" x1="232.51" x2="232.51" y2="97.48"/><line class="cls-5" x1="244.69" x2="244.69" y2="97.48"/></g><rect class="cls-6" x="25.37" y="97.48" width="103.57" height="1023.51"/><rect class="cls-7" x="7.09" width="103.57" height="97.48"/></g></g></svg>