<svg xmlns="http://www.w3.org/2000/svg" viewBox="0 0 529.8 441.62"><defs><style>.cls-1{fill:#9e6765;}.cls-2{fill:#5a5858;}.cls-3{fill:#eeecbc;}.cls-4{fill:#6b6b57;}.cls-5{fill:#f7f4e2;}.cls-6{fill:#828282;}</style></defs><title>Hp</title><g id="Layer_2" data-name="Layer 2"><g id="图层_4" data-name="图层 4"><polygon class="cls-1" points="363.95 256.54 351.14 264.9 342.89 290.21 359.32 313.01 369.58 304.49 366.26 282.69 369.58 266.65 369.58 256.54 363.95 256.54"/><polygon class="cls-1" points="395.37 259.39 406.61 273.51 408.75 293.69 407.95 316.04 399.16 324.92 392.42 324.92 393.99 339.53 393.99 362 397.92 377.45 381.52 386.44 363.37 382.23 354.29 378.02 354.29 346.83 352.99 320.43 352.99 304.69 354.55 283.06 362.33 265.93 370.11 256.09 377.11 252.44 395.37 259.39"/><path class="cls-2" d="M415,245.37c-.51.08-43.9-11.38-43.9-11.38l-1.54,4.36,1.49,3.36,39,7.21Z"/><path class="cls-2" d="M379.64,235.38l7.49-6.4,15.26,6.85s-2.05,12.38-2.75,12.27-6.85,6-6.85,6Z"/><polygon class="cls-3" points="394.85 245.56 391.44 258.63 381.9 262.75 376.9 252.22 380.13 235.3 389.83 237.41 394.85 245.56"/><polygon class="cls-2" points="401.4 238.99 402.44 225.48 394.05 221.11 389.14 231.8 401.4 238.99"/><polygon class="cls-4" points="384.05 260.47 383.01 270.3 380.42 276.77 376.9 268.62 376.9 260.47 379.38 256.54 384.05 260.47"/><polygon class="cls-3" points="362.33 265.93 372.35 262.6 376.28 261.2 379.3 265.85 379.3 268.61 372.12 268.61 368.96 269.86 367.26 271.12 361.2 272.35 362.33 265.93"/><polygon class="cls-5" points="307.82 23.73 251.34 131.82 279.58 321.64 307.82 383.6 327.41 0 307.82 23.73"/><path class="cls-6" d="M0,342.36l144.46,32.08H403.09l126.71-16s-90.26,63.37-95.47,67.34S264.9,441.62,264.9,441.62H128.84L61.32,411.84Z"/></g></g></svg>