<svg xmlns="http://www.w3.org/2000/svg" viewBox="0 0 560.68 560.68"><defs><style>.cls-1{fill:#358d93;}.cls-2{fill:#ebeded;}</style></defs><title>Logo_hydrogel</title><g id="Layer_2" data-name="Layer 2"><g id="图层_4" data-name="图层 4"><circle class="cls-1" cx="280.34" cy="280.34" r="280.27"/><path class="cls-2" d="M146.93,173.22c40.53-50.4,140.19,12.65,183.66,30.8,49.26,20.56,100.94,30,154.23,29,11.83-.2,11.48-18.6-.39-18.4-37.71.64-74.86-3.73-111-14.62s-69.31-29.19-104.24-43.38C230.56,141,165.39,121,133.81,160.32c-7.37,9.16,5.7,22.12,13.12,12.9Z"/><path class="cls-2" d="M118.88,283.45c67.54-45.17,149.47,13.92,212.49,39.92,50.21,20.72,104.51,30.16,155.16,6.06,10.7-5.09,1.2-20.85-9.42-15.8-125.6,59.76-247.89-126.08-367.66-46-9.82,6.57-.44,22.4,9.43,15.8Z"/><path class="cls-2" d="M88.66,226.05c75.47,18.37,108.39,93.67,153.28,149.05,34.57,42.66,85.11,79.7,142.44,62.82,11.35-3.35,6.29-21-5.11-17.68-76.4,22.5-127-60.85-163.87-113-31.23-44.24-67.67-85.71-122.23-99-11.5-2.8-16,15-4.51,17.83Z"/><path class="cls-2" d="M360.58,75.91c23.75,85.18,4.95,174.09-38.9,249.6-21,36.19-52,65.29-72.75,101.41-9.44,16.45-25.4,48.48-11.27,66.08,1.87,2.32,6.27,3.34,9,2.28l2.64-1c5.09-2,7.11-6.08,6.28-11.39l-.35-2.27c-1.81-11.66-19.47-6.47-17.68,5.11l.35,2.27,6.29-11.4q10.22,10.24,8-5.08a60.52,60.52,0,0,1,7.69-26.18c5.78-12.12,14.09-23.46,22.16-34,10.1-13.22,21-25.77,30.92-39.16a410.22,410.22,0,0,0,51.87-93.75C390.91,211.84,397.54,140,378.26,70.8c-3.18-11.4-20.87-6.32-17.68,5.11Z"/><path class="cls-2" d="M244.14,160.24c-4.75,14.65-6.72,29-4.63,44.33,3.42,25.07,10.2,43.39-2.2,67.89-2.67,5.27,5.33,9.83,8,4.54,19.38-38.28-5-75.11,7.75-114.5,1.83-5.64-7.1-7.87-8.92-2.26Z"/><path class="cls-2" d="M377.42,119.73c-11.73-2.52-20.83,3.93-25.54,14.76-3.39,7.81-4.14,16.49-7.66,24.29-4.91,10.87-12.71,19.6-22.34,26.51l5.64,7.17,4.11-5c3.73-4.55-2.81-11-6.56-6.45L321,186c-3.05,3.73,1.08,10.45,5.64,7.18,9-6.46,16.69-14.05,22.34-23.65,6.45-10.94,10.12-44.35,26.23-40.89,5.78,1.24,8.06-7.67,2.26-8.92Z"/><path class="cls-2" d="M425.81,223.88c9.79,18.69,22.82,37.14,23.3,58.77.31,14-.87,27.2,7.92,39,3.51,4.7,11.44,0,7.9-4.72-10.7-14.36-4.39-32.47-7.83-48.84-3.63-17.2-15.33-33.55-23.38-48.92-2.76-5.26-10.65-.53-7.91,4.71Z"/><path class="cls-2" d="M276.22,293.26c-.36,14.86-2.11,28-19.93,30.23-4,.51-6.68-.74-10.42,1.41-9.81,5.66-8.51,19.76-12,28.78l8.92,2.26L245,347.6c1.5-5.73-7.42-8-8.92-2.25l-2.17,8.33c-1.53,5.88,6.85,7.63,8.92,2.26,1.83-4.77,1.61-10.85,3.54-15.34,3-6.91,5.75-6.22,13-7.43,5.2-.87,8.92-1.07,13.44-4.39,11.29-8.29,12.31-22.86,12.62-35.72.14-5.92-9.06-5.72-9.2.2Z"/><path class="cls-2" d="M311.07,351.36c16.26,22.28,22,49,15.85,76-1.32,5.76,7.6,8,8.92,2.25A101,101,0,0,0,319,346.65c-3.47-4.75-11.4-.08-7.9,4.71Z"/><circle class="cls-2" cx="374.08" cy="217.05" r="23.22"/><circle class="cls-2" cx="337.98" cy="319.86" r="23.22"/><circle class="cls-2" cx="158.6" cy="258.04" r="23.22"/><circle class="cls-2" cx="279.5" cy="401.63" r="23.22"/></g></g></svg>