<svg xmlns="http://www.w3.org/2000/svg" viewBox="0 0 677.3 527.25"><defs><style>.cls-1{fill:#ddeffb;}.cls-2{fill:#bfdff1;}.cls-3{fill:#f5fbfe;}.cls-4{fill:#ffcc80;}.cls-5{opacity:0.35;}.cls-6{fill:#9fc8db;}.cls-7{fill:#87b4d3;}.cls-8{fill:#6ea1ca;}.cls-9{fill:#5490c2;}.cls-10{fill:#337fb9;}.cls-11{fill:#358d93;}</style></defs><title>Logo_drug</title><g id="Layer_2" data-name="Layer 2"><g id="图层_4" data-name="图层 4"><rect class="cls-1" x="97.6" y="167.63" width="331.65" height="331.71" transform="translate(3.09 -2.42) rotate(0.53)"/><polygon class="cls-2" points="580.57 386.17 427.71 500.86 430.77 169.17 583.63 54.48 580.57 386.17"/><polygon class="cls-3" points="432.37 169.18 99.14 166.1 250.41 51.4 583.63 54.48 432.37 169.18"/><circle class="cls-4" cx="13.87" cy="162.28" r="13.87" transform="translate(-148.53 174.65) rotate(-89.47)"/><circle class="cls-4" cx="27.74" cy="274.32" r="10.6" transform="translate(-246.83 299.53) rotate(-89.47)"/><circle class="cls-4" cx="158.91" cy="77.29" r="13.66" transform="translate(80.16 235.47) rotate(-89.47)"/><circle class="cls-4" cx="332.42" cy="117.6" r="7.39" transform="translate(211.75 448.91) rotate(-89.47)"/><circle class="cls-4" cx="488.64" cy="188.2" r="7.65" transform="translate(295.93 675.08) rotate(-89.47)"/><circle class="cls-4" cx="508.89" cy="326.64" r="13.87" transform="translate(177.56 832.48) rotate(-89.47)"/><circle class="cls-4" cx="127" cy="313.29" r="10.73" transform="translate(-187.44 437.39) rotate(-89.47)"/><ellipse class="cls-4" cx="67.65" cy="451.19" rx="21.53" ry="21.53" transform="translate(-384.15 514.66) rotate(-89.47)"/><circle class="cls-4" cx="230" cy="517.29" r="9.96" transform="translate(-289.39 742.49) rotate(-89.47)"/><circle class="cls-4" cx="418.06" cy="9.09" r="9.09" transform="translate(405.11 427.05) rotate(-89.47)"/><circle class="cls-4" cx="422.71" cy="471.25" r="10.8" transform="translate(-52.43 889.58) rotate(-89.47)"/><circle class="cls-4" cx="528.45" cy="487.14" r="16.74" transform="matrix(0.01, -1, 1, 0.01, 36.44, 1011.07)"/><circle class="cls-4" cx="610.51" cy="263.04" r="8.71" transform="translate(341.83 871.09) rotate(-89.47)"/><circle class="cls-4" cx="563.85" cy="124.47" r="20.41" transform="translate(434.18 687.15) rotate(-89.47)"/><circle class="cls-4" cx="500.43" cy="77.55" r="10.76" transform="translate(418.25 577.24) rotate(-89.47)"/><circle class="cls-4" cx="664" cy="388.06" r="13.3" transform="translate(269.82 1048.44) rotate(-89.47)"/><g class="cls-5"><rect class="cls-6" x="186.38" y="108.02" width="330.16" height="330.1" transform="translate(75.16 622) rotate(-89.47)"/><rect class="cls-7" x="217.5" y="139.58" width="267.47" height="267.42" transform="translate(74.71 621.99) rotate(-89.47)"/><rect class="cls-8" x="248.62" y="171.15" width="204.77" height="204.73" transform="translate(74.26 621.98) rotate(-89.47)"/><rect class="cls-9" x="279.74" y="202.71" width="142.08" height="142.05" transform="translate(73.81 621.98) rotate(-89.47)"/><rect class="cls-10" x="310.86" y="234.28" width="79.38" height="79.37" transform="translate(73.36 621.97) rotate(-89.47)"/></g><path class="cls-11" d="M143.91,208.36c-4,7.32-7.82,18,.55,24,5.52,3.91,14.11,2.94,18.5-2.24,5-5.93,3.59-15.16-1.72-20.42-5.15-5.08-15.27-6.38-19.18.92-2.37,4.41,4.32,8.42,6.69,4,2.95-5.49,14.17,5.61,7.76,11-2,1.69-5.74,1.93-7.82.22-4-3.25.11-10.18,1.92-13.45,2.42-4.39-4.27-8.39-6.7-4Z"/><path class="cls-11" d="M163.93,226.67c18.83-1.76,30.12,13,46.37,18.43,12,4,24.7,4.06,37,1.91,33.39-5.8,60.52-28.52,89.89-43.79,4.45-2.31.58-9.08-3.87-6.77-29.65,15.42-57.36,39.11-91.46,43.29-20.47,2.5-34.71-5-52.12-14.6-9.11-5-15.38-7.23-25.75-6.27-4.95.47-5.07,8.26-.08,7.8Z"/><path class="cls-11" d="M245.42,180.69c-9.65-2.59-10.63,14.33-8,20,3.86,8.26,13.64,8.44,19.05,1.66,4.89-6.13,5.93-16.62-.4-22.2a11.21,11.21,0,0,0-17.74,4.09c-1.86,4.66,5.66,6.76,7.5,2.14.78-2,4.2-1.28,5.35-.16,2.35,2.3,1.65,6.71.42,9.34-1.16,2.46-4.3,5.85-6.63,2.68a7.25,7.25,0,0,1-1-4.82c.05-1.12.21-5.28,1.47-5.82l-3,.37.86.23c4.85,1.3,7-6.2,2.15-7.5Z"/><path class="cls-11" d="M243.66,201.91c-8.93,62.77,4.47,140-50.38,185.3l6.07,4.78,3-4.56c2.78-4.19-3.92-8.16-6.69-4l-3,4.55c-2.59,3.91,2.85,7.44,6.08,4.78,56.67-46.75,43.49-126,52.71-190.79.71-4.95-7.09-5-7.79-.07Z"/><path class="cls-11" d="M308,261c8-4.06,15.92,7.79,7.13,12.73-8.13,4.58-14.59-7.34-7.74-12.35,4-2.93.18-9.73-3.87-6.77a16.18,16.18,0,0,0-4.72,20.6c3.9,7.48,13.11,9.32,20.2,5.29s10.5-13,6-20.31a16.22,16.22,0,0,0-20.82-6c-4.47,2.27-.6,9,3.87,6.76Z"/><path class="cls-11" d="M303.76,261.91C283,263.5,257.1,270,239.08,257.55,222.3,245.92,212,226.2,206.42,207.1c-1.39-4.81-8.94-2.83-7.54,2,6.09,21,17.45,41.35,35.27,54.74,20,15,46.29,7.65,69.54,5.86,5-.38,5.08-8.18.07-7.79Z"/><path class="cls-11" d="M188.19,274c-6.12,7.69-3.77,18.94,5.83,22.54,9.36,3.5,19.8-3.44,20.84-13.26,1-9.18-7.5-17.4-16.58-16.87-9.69.57-15.7,10.34-14,19.36.92,4.92,8.45,2.91,7.54-2-1.86-10,13.22-13.23,15.23-3.15.87,4.34-3,8.84-7.35,9.07-5.17.28-9.65-5.57-6-10.13,3.08-3.88-2.34-9.48-5.46-5.56Z"/><path class="cls-11" d="M195.73,296.92c-7.53,26.45,1.83,55.7,26.76,69.4,42.65,23.42,112.87-11.65,117.41,60.22.32,5,8.11,5.09,7.79.08C345.84,397.3,334.27,378,305,370.82c-15.58-3.84-31.61-2.46-47.44-3.81-37-3.16-65.39-29-54.3-67.95,1.37-4.83-6.12-7-7.5-2.14Z"/><path class="cls-11" d="M122.34,349.7c-3.12,6.73-3.91,16.34,3.94,20.16,7.7,3.75,17.66-1.51,20.28-9.3s-2.71-17.16-11.09-18.23c-8.71-1.13-15.34,7.06-14,15.3.83,4.94,8.36,2.92,7.53-2-.62-3.71,3.69-6.74,7-5.08a6.33,6.33,0,0,1,2.45,9c-1.64,2.57-6.5,5.31-9.37,3-2.45-2-1.14-6.51-.06-8.84,2.1-4.52-4.58-8.55-6.69-4Z"/><path class="cls-11" d="M143.66,362.53c16.71-17.25,37.19-30,61-34.68,26.32-5.17,43.65,6.1,67.43,14.14,23.36,7.9,56,9.87,73.2-11,3.15-3.84-2.27-9.44-5.46-5.56-32.49,39.51-84.53-9.68-123.74-6.91-30.27,2.14-57,17-77.85,38.45-3.48,3.6,2,9.17,5.46,5.56Z"/><path class="cls-11" d="M345.5,219.61a16.5,16.5,0,0,0,2.86,21.6c6.56,5.54,16.73,3.78,22.1-2.57,6.44-7.62,3.4-19.28-5.61-23.21s-18.7,2-20.78,11.15c-1.1,4.88,6.39,7,7.5,2.14s6.05-8.58,11-5.77,4.55,9.52,0,12.41c-8,5-15.29-4.69-10.31-11.75,2.89-4.11-3.82-8.08-6.7-4Z"/><path class="cls-11" d="M355.14,239.54c-17.32,25.87-35.72,54-38.29,85.86-1.4,17.42,5.17,32.41,6.62,49.51,2.45,29-14.37,51.41-31.39,73-3.06,3.89,2.36,9.5,5.46,5.56,18.09-23,37-48.18,34.3-79-2.23-25.49-10.88-42.66-3.2-69,6.55-22.45,20.33-42.69,33.19-61.91,2.8-4.18-3.91-8.15-6.69-4Z"/><path class="cls-11" d="M226.1,378.31c-6.15,5.73-12.22,15.78-4.84,23.17,6.44,6.44,16.56,4,21.6-2.76,2.49-3.32,4.49-8.19,3.4-12.39-1.19-4.59-6.2-6.3-10.21-7.62-4.49-1.48-9.51-1.86-13.59.93a10.12,10.12,0,0,0-4.31,11.06c1.27,4.84,8.8,2.86,7.53-2-1.39-5.32,8.13-2.59,10.23-1.76,1.59.63,2.21.56,2.54,2.13a5.09,5.09,0,0,1-.75,3.28,10.14,10.14,0,0,1-3.36,4c-2.61,1.74-7.07,1.64-8.39-1.68-1.58-4,3-8.37,5.61-10.77,3.67-3.42-1.79-9-5.46-5.56Z"/><path class="cls-11" d="M226.88,400.59c-22.07,1.17-41.62,9.49-59.62,22.08-14,9.81-30.78,21.52-30.17,40.34a4,4,0,0,0,4.9,3.81l1.21-.25a4,4,0,0,0,2.89-3.73l0-1.23c.2-5-7.59-5.09-7.79-.08l1.64-2.25,4.89,3.8c-.59-18.16,22.14-31.75,35.89-39.94,14.29-8.51,29.35-13.87,46-14.76,5-.26,5.1-8.06.08-7.79Z"/><path class="cls-11" d="M178.31,440.51c-2.75,8.2-1.82,17.49,8,19.77,8,1.86,16.59-3.55,18.75-11.41s-3.2-16.4-11.13-17.84c-8.19-1.49-16.17,5.94-15.21,14.21.57,4.91,8.37,5.05,7.79.07-.41-3.59,2.32-7.44,6.29-6.56s5.91,5.62,4.34,9.13a8.46,8.46,0,0,1-8.68,4.9c-5.43-.89-3.9-6.37-2.64-10.13,1.6-4.77-5.9-6.89-7.49-2.14Z"/><path class="cls-11" d="M199.53,454.48c24.64-17.78,49.88-35.57,80.13-42.13,32.8-7.1,66.57-2.5,98.95,4.4,4.88,1,7.05-6.45,2.14-7.5-30.83-6.56-62.65-11.16-94.08-6.11-34.86,5.6-62.93,24.31-91,44.58-4,2.9-.2,9.71,3.88,6.76Z"/><path class="cls-11" d="M269.26,296.32A14.86,14.86,0,0,0,273.13,318a15.3,15.3,0,0,0,21.77-7.21c3.71-8.68-2-16.27-10.67-17.56-5.32-.79-21.15.12-16.15,9.41,2.38,4.42,9.15.56,6.77-3.87l-.37-.68.36,3c.19-1,8.75-.17,9.71.11,4.17,1.21,4.69,5.34,1.93,8.53a7.3,7.3,0,0,1-10.39.83c-3.16-2.84-2.53-7.2-.14-10.25,3.09-3.94-3.64-7.89-6.69-4Z"/><path class="cls-11" d="M275.81,311.13c-7.74,18.22-38.14,31.25-54.3,41.67-14.23,9.18-29.31,17.85-42,29.19-19.15,17.12-30.46,39.16-24.67,65,1.09,4.9,8.63,2.9,7.53-2C152.11,399.21,202.2,374.51,234,354c17.37-11.19,40.85-20.75,49.36-40.77,2-4.61-5.56-6.7-7.5-2.14Z"/><rect class="cls-11" x="213.57" y="234.49" width="14.78" height="14.78" transform="translate(2.25 -2.03) rotate(0.53)"/><rect class="cls-11" x="236.74" y="237.35" width="14.78" height="14.78" transform="translate(2.27 -2.25) rotate(0.53)"/><rect class="cls-11" x="236.56" y="256.96" width="14.78" height="14.78" transform="translate(2.45 -2.24) rotate(0.53)"/><rect class="cls-11" x="312.58" y="200.89" width="14.78" height="14.78" transform="translate(1.94 -2.95) rotate(0.53)"/><rect class="cls-11" x="228.61" y="316.99" width="14.78" height="14.78" transform="translate(3.01 -2.17) rotate(0.53)"/><rect class="cls-11" x="213.95" y="349.74" width="14.78" height="14.78" transform="matrix(1, 0.01, -0.01, 1, 3.31, -2.03)"/><rect class="cls-11" x="149.23" y="426.97" width="14.78" height="14.78" transform="translate(4.02 -1.43) rotate(0.53)"/><rect class="cls-11" x="314.54" y="400.99" width="14.78" height="14.78" transform="translate(3.79 -2.96) rotate(0.53)"/><rect class="cls-11" x="322.13" y="379.05" width="14.78" height="14.78" transform="translate(3.59 -3.03) rotate(0.53)"/><rect class="cls-11" x="313.93" y="334.78" width="14.78" height="14.78" transform="translate(3.18 -2.96) rotate(0.53)"/><rect class="cls-11" x="319.66" y="294.84" width="14.78" height="14.78" transform="translate(2.81 -3.01) rotate(0.53)"/><rect class="cls-11" x="319.1" y="355.4" width="14.78" height="14.78" transform="translate(3.37 -3) rotate(0.53)"/><rect class="cls-11" x="404.08" y="335.61" width="14.78" height="14.78" transform="translate(3.19 -3.79) rotate(0.53)"/><rect class="cls-11" x="334.39" y="401.18" width="14.78" height="14.78" transform="translate(3.79 -3.14) rotate(0.53)"/><rect class="cls-11" x="190.57" y="318.55" width="14.78" height="14.78" transform="translate(3.02 -1.82) rotate(0.53)"/><path class="cls-11" d="M431.27,251.93a15.5,15.5,0,0,0-.25,15.63c2.62,4.62,8.47,8.5,13,4,4.19-4.15,8.24-11.58,6.51-17.57-2.08-7.24-10.29-7.27-16.3-6.11-4.92,1-2.91,8.48,2,7.53,2.85-.55,7.37-1.51,6.73,2.79a12.53,12.53,0,0,1-1.47,3.62c-.52,1-2.37,2.75-2.53,3.72-.69.61-.5.68.58.19a7.84,7.84,0,0,1-1.27-1.24,7.65,7.65,0,0,1-.32-8.56c2.62-4.3-4.08-8.28-6.69-4Z"/><path class="cls-11" d="M435.65,258.8c-15-3.91-28.55,9.52-39.95,17.68-28.48,20.38-58.49,22.94-92.71,19.57-32.05-3.17-63.41-10.7-95.22-15.49-10.75-1.61-27.48-8.61-34.61,2-2.81,4.17,3.9,8.14,6.69,4,5.87-8.73,76.33,10.55,88.35,12.54,19.46,3.22,39.09,6,58.85,6.14,14.92.13,30.68-.37,44.87-5.53,16.37-6,43.62-38.12,61.59-33.41,4.86,1.27,7-6.23,2.14-7.5Z"/><path class="cls-11" d="M289,347.07c-6.18,1.59-8.42,8.95-6.19,14.46,2.47,6.1,9.62,7.82,14.36,3.11a18.89,18.89,0,0,0,4.37-7.54c1.08-3.54-.52-6.5-3.38-8.56-2.67-1.94-6.16-3.21-9.47-2.31a8.12,8.12,0,0,0-6,7.6c-.25,5,7.54,5.07,7.79.07,0-.78,3.58,1,3.61,1.06.21.94-2,4.23-2.84,4.59-1.54.63-2.33-4.4-.21-4.94,4.85-1.25,2.87-8.79-2-7.54Z"/><path class="cls-11" d="M298.71,363.61c25-8.31,45.82,17.84,71.83,13.24,22.76-4,38.92-23,52.88-39.72,3.18-3.82-2.25-9.41-5.46-5.56-6.95,8.32-13.85,17-22.28,23.94-20.76,17-37.39,15-60.74,5.88-13.74-5.37-23.55-10.19-38.23-5.32-4.74,1.57-2.78,9.12,2,7.54Z"/></g></g></svg>