<svg xmlns="http://www.w3.org/2000/svg" viewBox="0 0 527.61 518.5"><defs><style>.cls-1{fill:#828282;}</style></defs><title>Project</title><g id="Layer_2" data-name="Layer 2"><g id="图层_4" data-name="图层 4"><polygon class="cls-1" points="141.07 200.76 121.89 182.4 47.24 181.98 13.83 150 18.15 100.71 78.69 82.57 95.17 20.2 142.5 14.03 176.34 46.42 180.94 120.77 200.1 139.1 209.31 129.47 193.92 114.74 189.31 40.4 147.11 0 84.57 8.15 67.71 71.95 5.67 90.54 0 155.21 41.87 195.28 116.51 195.69 131.86 210.38 141.07 200.76"/><polygon class="cls-1" points="458.9 448.39 514.38 430.3 527.61 364.19 486.76 325.1 406.58 318.29 395.89 308.06 386.68 317.68 400.77 331.17 480.95 337.97 513.11 368.75 502.84 420.04 448.18 437.87 430.56 495.48 383.84 504.16 351.9 473.58 341.75 392.84 324.87 376.68 315.66 386.31 329.13 399.19 339.27 479.94 379.56 518.5 440.94 507.11 458.9 448.39"/><polygon class="cls-1" points="277.65 255.18 240.02 219.16 239.09 176.4 199.16 138.19 208.26 128.48 252.26 170.6 253.2 213.35 286.75 245.47 277.65 255.18"/><polygon class="cls-1" points="223.52 298.11 131.74 210.27 140.95 200.64 228.65 284.58 268.15 283.71 268.09 297.13 223.52 298.11"/><polygon class="cls-1" points="113.99 88.24 133 24.06 146.09 27.84 127.09 92.02 113.99 88.24"/><polygon class="cls-1" points="75.57 165.1 13.44 105.63 22.87 95.78 78.92 149.43 188.45 110.38 193.03 123.22 75.57 165.1"/><rect class="cls-1" x="157.04" y="124.28" width="13.63" height="82.66" transform="translate(-69.08 169.47) rotate(-46.25)"/><polygon class="cls-1" points="150.53 227.42 150.23 213.79 250.33 211.18 281.86 241.36 272.95 250.67 245.5 224.4 150.53 227.42"/><polygon class="cls-1" points="265.25 297.19 264.96 283.78 305.73 282.54 276.41 253.98 285.61 244.37 338.7 295.46 265.25 297.19"/><polygon class="cls-1" points="83.83 173 65.95 155.89 75.36 146.06 103.67 173.15 83.83 173"/><rect class="cls-1" x="320.15" y="266.17" width="13.58" height="45.56" transform="translate(608.66 -44.23) rotate(88.75)"/><rect class="cls-1" x="235.61" y="228.78" width="13.39" height="63.37" transform="matrix(0.72, 0.69, -0.69, 0.72, 247.37, -95.24)"/><path class="cls-1" d="M481.65,333.71l37.62,36S499,390.32,465.86,385a55.32,55.32,0,0,0-51.39,18.86l37.62,36s25.3-20.08,16.26-54.39S481.65,333.71,481.65,333.71Z"/><path class="cls-1" d="M468.65,387l-6.95-6.65h0a8.2,8.2,0,0,0,8.45,13.49l-4.2-4Z"/><path class="cls-1" d="M471.84,383.66l3.92,3.76a8.23,8.23,0,0,0-14.06-7.08l6.95,6.65Z"/><path class="cls-1" d="M271.72,312.16A8.23,8.23,0,1,0,272,323.8,8.24,8.24,0,0,0,271.72,312.16Z"/><path class="cls-1" d="M370,438.34a8.23,8.23,0,1,0,11.64-.26A8.24,8.24,0,0,0,370,438.34Z"/><path class="cls-1" d="M267.56,213.94a8.24,8.24,0,1,0-.25-11.64A8.25,8.25,0,0,0,267.56,213.94Z"/><path class="cls-1" d="M261.67,220.1A16.76,16.76,0,0,0,282,222.26l-2.66-2.55,5.89-6.15,2.66,2.55a16.75,16.75,0,1,0-26.22,4ZM279,202a8.24,8.24,0,1,1-11.64.26A8.25,8.25,0,0,1,279,202Z"/><path class="cls-1" d="M278,323.67l2.67,2.55a16.77,16.77,0,1,0-5.89,6.15l-2.67-2.55Zm-17.66.38A8.23,8.23,0,1,1,272,323.8,8.24,8.24,0,0,1,260.34,324.05Z"/><path class="cls-1" d="M462,392a8.24,8.24,0,0,1-.25-11.64h0l-3.83-3.67,3.83,3.67a8.23,8.23,0,0,1,14.06,7.08l6.7,6.41a16.76,16.76,0,1,0-5.76,6.28l-6.55-6.28A8.22,8.22,0,0,1,462,392Z"/><path class="cls-1" d="M381.53,432.06l2.55-2.67a16.74,16.74,0,1,0,6.16,5.89L387.68,438Zm.39,17.66a8.23,8.23,0,1,1-.26-11.64A8.24,8.24,0,0,1,381.92,449.72Z"/><path class="cls-1" d="M375.83,329l2.55-2.67a16.76,16.76,0,1,0,6.15,5.89L382,334.91Zm.39,17.66A8.23,8.23,0,1,1,376,335,8.25,8.25,0,0,1,376.22,346.68Z"/><path class="cls-1" d="M282,222.26l67.31,64.43-26.86,79.52,4.15,4-5.89,6.16-1.27-1.22-3.78,11.18,8.07,2.73,35.39-104.75-71.23-68.17a16.73,16.73,0,0,1-2.53,3.47A17.06,17.06,0,0,1,282,222.26Z"/><path class="cls-1" d="M279.34,219.71l2.66,2.55a17.06,17.06,0,0,0,3.36-2.68,16.73,16.73,0,0,0,2.53-3.47l-2.66-2.55Z"/><path class="cls-1" d="M280.67,326.22a17.15,17.15,0,0,1-2.54,3.47,16.64,16.64,0,0,1-3.35,2.68l44.66,42.75,3-8.91Z"/><path class="cls-1" d="M280.67,326.22,278,323.67l-5.89,6.15,2.67,2.55a16.64,16.64,0,0,0,3.35-2.68A17.15,17.15,0,0,0,280.67,326.22Z"/><polygon class="cls-1" points="326.6 370.18 322.45 366.21 319.44 375.12 320.71 376.34 326.6 370.18"/><rect class="cls-1" x="375.08" y="321.64" width="19.25" height="8.52" transform="translate(-116.74 378.47) rotate(-46.25)"/><path class="cls-1" d="M471.84,383.66,468.65,387l5,4.73a8.1,8.1,0,0,0,2.16-4.3Z"/><path class="cls-1" d="M466,389.82l4.2,4a8.1,8.1,0,0,0,3.45-2.11h0l-5-4.73Z"/><path class="cls-1" d="M479.75,397.61l25.07,24-25.07-24h0a16.71,16.71,0,0,1-3.05,2.49L503.75,426l5.89-6.15-27.18-26A16.41,16.41,0,0,1,479.75,397.61Z"/><path class="cls-1" d="M479.75,397.61l-6.15-5.89h0a8.1,8.1,0,0,1-3.45,2.11l6.55,6.28a16.71,16.71,0,0,0,3.05-2.49Z"/><path class="cls-1" d="M473.6,391.72l6.15,5.89a16.41,16.41,0,0,0,2.71-3.78l-6.7-6.41A8.1,8.1,0,0,1,473.6,391.72Z"/><path class="cls-1" d="M384.08,429.39a16.88,16.88,0,0,1,3.47,2.54,16.7,16.7,0,0,1,2.69,3.35l23.59-24.64,33.68,32.24,5.89-6.15-39.84-38.14Z"/><path class="cls-1" d="M384.08,429.39l-2.55,2.67,6.15,5.89,2.56-2.67a16.7,16.7,0,0,0-2.69-3.35A16.88,16.88,0,0,0,384.08,429.39Z"/><path class="cls-1" d="M461.53,380.17a8.23,8.23,0,1,0,11.64-.25A8.24,8.24,0,0,0,461.53,380.17Z"/><rect class="cls-1" x="468.9" y="357.24" width="44.95" height="7.66" transform="translate(386.06 -239.54) rotate(43.75)"/><rect class="cls-1" x="421.28" y="407.79" width="44.95" height="7.66" transform="translate(407.8 -192.57) rotate(43.75)"/><rect class="cls-1" x="464.25" y="365.51" width="35.7" height="7.69" transform="translate(389.21 -230.82) rotate(43.75)"/><rect class="cls-1" x="433.06" y="398.71" width="38.75" height="7.69" transform="translate(403.94 -201.1) rotate(43.75)"/><polygon class="cls-1" points="20.94 80.15 6.83 83.95 8.66 67.89 22.77 64.09 20.94 80.15"/><rect class="cls-1" x="69.23" y="77.37" width="58.98" height="13.09" transform="translate(29.12 -25.37) rotate(17.15)"/></g></g></svg>