<svg xmlns="http://www.w3.org/2000/svg" xmlns:xlink="http://www.w3.org/1999/xlink" viewBox="0 0 507.53 489.25"><defs><style>.cls-1{fill:#c9bc9c;}.cls-2{fill:url(#未命名的渐变_65);}.cls-3{fill:url(#未命名的渐变_65-2);}.cls-4{fill:url(#未命名的渐变_65-3);}.cls-5{fill:#2ea7e0;opacity:0.5;}.cls-6{fill:#828282;}</style><linearGradient id="未命名的渐变_65" x1="-1387.05" y1="104.05" x2="-1389.78" y2="120.78" gradientTransform="matrix(-0.57, 0.82, -0.82, -0.57, -423.09, 1518.99)" gradientUnits="userSpaceOnUse"><stop offset="0" stop-color="#786050"/><stop offset="0.14" stop-color="#7e6656"/><stop offset="1" stop-color="#a48b78"/></linearGradient><linearGradient id="未命名的渐变_65-2" x1="-1402.93" y1="205.05" x2="-1395.6" y2="162.12" xlink:href="#未命名的渐变_65"/><linearGradient id="未命名的渐变_65-3" x1="-1402.25" y1="133.87" x2="-1370.48" y2="133.87" xlink:href="#未命名的渐变_65"/></defs><title>Model</title><g id="Layer_2" data-name="Layer 2"><g id="图层_4" data-name="图层 4"><path class="cls-1" d="M364.65,482.67c-13.71-10.06-8.58-25.9-27-57.08a133.68,133.68,0,0,0-15.48-21.07c-11.9-13.24-13.47-14.23-25.66-26.1-16.91-16.48-16-16.95-36.46-38.85-6.09-6.51-6.36-9.45-9.63-15.24a2.52,2.52,0,0,1-.29-2.1,22.84,22.84,0,0,0,10,3.87c8.66,1.21,16.32-2.47,23-5.69a82,82,0,0,0,19.56-13.29,2.22,2.22,0,0,1,.41.4c5.93,7.27,15,14.34,44.17,37.14,4,3.13,9.85,8.54,14.92,11.15,11.62,6,14.07-2.66,28.53,6.5,9.27,5.85,4.2,14.68,14.2,20.23,4,2.21,4,.38,21.56,3.42,11.65,2,13.39,3.14,18.16,2,8.24-2,9.66-6.07,17.78-8.6,15.61-4.86,26.69.06,29.64,1.86s15.27,9.32,15.46,26.25c.18,15.24-9.69,27.26-12.1,30.13-9.54,11.31-26.3,21.86-37.13,18.54-6.45-2-6.81-7.69-14.07-7.54-5.48.1-11.59,3.49-15.38,8-2.82,3.34-2.24,3.78-5.17,10.31-2.7,6-8.54,16-15.38,20.11-3.68,2.21-5.7,2.9-15.16,1.65C377.19,486.54,369.4,486.16,364.65,482.67Z"/><path class="cls-2" d="M250.16,322.23c.57-1.73,3.36-4,12.34-6.72,9.86-3,19.12-2.78,30.94-7.43,4.58-1.79,7.72-2.19,9.26-1a82,82,0,0,1-19.56,13.29c-6.7,3.22-14.36,6.9-23,5.69A22.84,22.84,0,0,1,250.16,322.23Z"/><path class="cls-3" d="M193.43,271.89a20.82,20.82,0,0,1,4.37-3.42c3.2-1.85,6.56-1.58,5.78-3a35.14,35.14,0,0,1-5.08-21c.32-4.92,2.34-8.87,4.52-13.14a58.23,58.23,0,0,1,10-13.82l.08.18c2.09,5.17.49,6.79,3.36,11.61a34.17,34.17,0,0,1,4,8.5,52.23,52.23,0,0,1,3.42,14.08c.36,2.86,2.26,4.23,7.74,4,11.38-.48,11.43,1.39,16.61,2,2.77.31,1.71,5.25.83,13.13-2.5,22.49-4.25,26.45-4.82,28.84s-2.22-1-5.66-4.36a90.74,90.74,0,0,0-13.5-10.89c-7.52-4.67-14.09-2.07-20-5.48C200.76,276.69,197,274.34,193.43,271.89Z"/><path class="cls-1" d="M193.43,271.89c-8.77-6-16.1-12.62-25.51-22.57-3.67-3.9-18.87-16.51-44.59-41.15s-36-30.65-64.1-52.94C48.91,147,31.45,133.47,17.6,127.09c-1.45-.66-4.79,2.19-8.09,1.5C-.43,126.51,0,106.78,0,105.41c.18-5.94.41-13.28,5.45-20.26,4-5.51,7.38-5.82,24.44-18.51,5.5-4.09,8.74-6,9.28-7.43,4.45-11.78,2.08-18.44,7.92-31.31,4.53-10,13.14-16.07,17-18.79S82.53-4.42,99.07,2c12.69,4.92,19.18,18.82,19,28.23-.06,3-2.91,6.27-2.07,10.13.7,3.25,3.09,6.25,3.16,7.33.94,13.81,3.41,34.08,6.09,49.2,1.6,9.07,7.79,19.62,20.83,39.79C163.84,164.13,196.88,197.5,206,209c1.33,1.68,5.18,4.17,7,8.56a58.23,58.23,0,0,0-10,13.82c-2.18,4.27-4.2,8.22-4.52,13.14a35.14,35.14,0,0,0,5.08,21c.78,1.39-2.58,1.12-5.78,3A20.82,20.82,0,0,0,193.43,271.89Z"/><path class="cls-4" d="M255.63,313.09c-2.23-3.88-5.78-2.37-8.65-5.32-4.32-4.45,2.5-13.8-.5-21.45a27.17,27.17,0,0,0-1.59-3.35,53.41,53.41,0,0,1,11.53,2.9c5.42,2.05,10.57,4,14.51,9.3a22.49,22.49,0,0,1,2.91,5.34c-2.08,2.05-4,9.52-4.78,15.47-.77,6.29.08,8.78-1.67,10.15-2.32,1.82-8.12.09-8.93-4.18S257.7,316.72,255.63,313.09Z"/><path class="cls-5" d="M203.44,266.15a15.5,15.5,0,0,0-9.78,5c6.92,6.89-6.74-7.47,12.47,12.1,21.45,21.85,36.51,36,48,47.24a9.67,9.67,0,0,0,1.07-3.34c-.22,0-.43,0-.64,0-1.19-.27.68-.89,1-1.69,0-.06,0-.12,0-.18s0,.12,0,.18c-.16.58-.27,1.15-.37,1.72,17.4.87,34-6.64,47.33-20.18-5.74-5.22-13.89-12.53-25-24.45-20.4-21.91-42.7-42-63.14-63.86a4.87,4.87,0,0,0-1.45-1.19C197.05,230.68,193.12,252.9,203.44,266.15Z"/><path class="cls-5" d="M254.58,327.1c.21,0,.42,0,.64,0,.1-.57.21-1.14.37-1.72C255.26,326.21,253.39,326.83,254.58,327.1Z"/><path class="cls-5" d="M255.59,325.41a.61.61,0,0,0,0-.18C255.62,325.29,255.61,325.35,255.59,325.41Z"/><path class="cls-1" d="M278.93,305.15c-3-2.74-2.9-5.45-4.26-5.15a1.79,1.79,0,0,0-.83.51,22.49,22.49,0,0,0-2.91-5.34c-3.94-5.29-9.09-7.25-14.51-9.3a53.41,53.41,0,0,0-11.53-2.9c-3.7-6.67-9-11.51-5.2-17.94,3.24-5.41,7.78-11.07,9.17-10.4,5.73,2.76,9.88,7.23,18,15.51,20.48,20.82,39.07,36.48,33.54,36.68-4.23.14-6.81,2-9.79,2.08C289,308.92,283.11,309,278.93,305.15Z"/><path class="cls-1" d="M253.35,330.31c-12.09-9.83-53.69-52.17-59.84-58.62-.72-.76,2.91,1.23,6.91,1.64,10.11,1,10.88-6.27,20.25-4.94,6.64.93,15.25,3.92,19.91,10.66,1.47,2.12,2.31,5.15,5.53,8.49,2.93,3,4.68,2.57,7,4.76,4.15,3.92,3.88,10.51,3.35,20.25C255.85,323.63,255.52,332.07,253.35,330.31Z"/><path class="cls-1" d="M250.07,253C246.81,247.29,216,220.11,216,220.1h0l-4,3c-4.33,3.32-14.52,22.49-7.63,34.66.95,1.67,2.69,4.63,6.37,5.75,3.12.95,6.06.11,11.73-1.59,8-2.4,8.17-4,14.64-5.4.65-.15,4-.87,8.44-2.09C248.39,253.68,250.23,253.23,250.07,253Z"/><path class="cls-6" d="M280.36,60.37a18.12,18.12,0,0,1-19.77-16.21c-.17-2.09,1.65-11.71,1.47-13.8-1-12-14.06-10.91-16.67-10.69C227.11,21.21,205.81,43,201.17,69.14c-3.55,20.28-7.86,69-11,131.33-6,109.87-10.21,128.63-24.86,198.21C152.75,456,124.88,481,96.69,483.33,80,484.73,48.34,477.4,46,449.21c-1.1-13,6.24-25.76,22.43-27.13,17.23-1.45,23.89,9,24.86,20.52.44,5.22-.69,10.58-5.08,14.63-5.87,5.22-8.74,8.62-8.56,10.71.31,3.65,10.49,5.95,16.23,5.47,24.54-2.07,42.7-36.2,47.54-85,5.82-62,10.3-121.28,13.13-168.84,4.17-69.23,7.58-97.38,24.9-147.74,14-40.09,46-65.92,76.27-68.46,25.58-2.16,45.91,14.54,47.23,30.2.7,8.35-3.33,16.58-12.82,22.64A27.55,27.55,0,0,1,280.36,60.37Z"/><path class="cls-6" d="M391.63,65.59a18.11,18.11,0,0,1-19.77-16.21c-.18-2.09,1.64-11.71,1.47-13.8-1-12-14.07-10.91-16.68-10.69-18.27,1.54-39.57,23.31-44.21,49.47-3.55,20.28-7.86,69-11,131.33-6,109.87-10.21,128.63-24.86,198.22-12.53,57.31-40.4,82.27-68.6,84.64-16.7,1.41-48.34-5.92-50.72-34.12-1.09-13.05,6.25-25.76,22.43-27.12,17.23-1.45,23.9,9,24.87,20.52.44,5.22-.69,10.57-5.08,14.62-5.87,5.23-8.74,8.62-8.57,10.71.31,3.65,10.5,5.95,16.24,5.47,24.54-2.07,42.7-36.19,47.53-85,5.83-62,10.3-121.27,13.14-168.83,4.16-69.23,7.58-97.39,24.9-147.75,14-40.08,46-65.91,76.26-68.46,25.59-2.15,45.92,14.54,47.24,30.2.7,8.36-3.34,16.58-12.82,22.64A27.41,27.41,0,0,1,391.63,65.59Z"/></g></g></svg>