<svg xmlns="http://www.w3.org/2000/svg" viewBox="0 0 401.03 401.03"><defs><style>.cls-1{fill:#8a7a73;}.cls-2{fill:#4b4334;}</style></defs><title>Middle5_Gear</title><g id="图层_2" data-name="图层 2"><g id="图层_4" data-name="图层 4"><path class="cls-1" d="M401,172.61v56l-37.7,5.8a165.27,165.27,0,0,1-23.63,57.08L362,322.57l-39.61,39.61-30.78-22.56a165.15,165.15,0,0,1-57.06,23.68L228.42,401h-56l-5.81-37.7A165.4,165.4,0,0,1,109.5,339.7L78.46,362,38.84,322.42l22.57-30.78a165.15,165.15,0,0,1-23.68-57.06L0,228.42v-56l37.7-5.81A165.4,165.4,0,0,1,61.33,109.5L39,78.46,78.61,38.84,109.39,61.4a165.32,165.32,0,0,1,57.06-23.67L172.61,0h56l5.8,37.7a165.27,165.27,0,0,1,57.08,23.63L322.57,39l39.61,39.62-22.56,30.78a165.15,165.15,0,0,1,23.68,57.06Z"/><circle class="cls-2" cx="200.52" cy="200.52" r="107.86"/><polygon class="cls-1" points="155.88 146.42 185.72 202.68 207.77 183.39 155.88 146.42"/><circle class="cls-1" cx="201.39" cy="198.35" r="16.66"/></g></g></svg>