<svg xmlns="http://www.w3.org/2000/svg" viewBox="0 0 627.73 623.46"><defs><style>.cls-1{fill:#8a7a73;}.cls-2{fill:#4b4335;}</style></defs><title>Regulation</title><g id="Layer_2" data-name="Layer 2"><g id="图层_3" data-name="图层 3"><path class="cls-1" d="M0,268.34v87.11l59,9a256.08,256.08,0,0,0,37,88.74L61,501.48l62,61.59L171.23,528a259.42,259.42,0,0,0,89.32,36.81l9.64,58.66h87.69L367,564.85a259.77,259.77,0,0,0,89.36-36.74l48.59,34.72,62-61.59L531.62,453.4a256,256,0,0,0,37.06-88.72l59.05-9.57V268l-59-9a255.91,255.91,0,0,0-37-88.74l35-48.26-62-61.59L456.5,95.46a259.84,259.84,0,0,0-89.31-36.81L357.55,0h-87.7l-9.09,58.61a259.71,259.71,0,0,0-89.35,36.74L122.82,60.62l-62,61.59,35.31,47.85a256.08,256.08,0,0,0-37.06,88.71Z"/><ellipse class="cls-2" cx="313.87" cy="311.73" rx="168.83" ry="167.68"/><polygon class="cls-1" points="241.63 228.01 335.24 292.39 296.35 327.25 241.63 228.01"/><path class="cls-1" d="M295.86,326.63A26.44,26.44,0,0,0,333,328.52a26,26,0,0,0,1.91-36.91"/></g></g></svg>