<svg xmlns="http://www.w3.org/2000/svg" viewBox="0 0 374.77 130.1"><defs><style>.cls-1{fill:#51586a;}.cls-2,.cls-3{fill:none;}.cls-2{stroke:#51586a;stroke-miterlimit:10;stroke-width:4px;}.cls-4{fill:#fff;}</style></defs><title>Logo</title><g id="图层_2" data-name="图层 2"><g id="图层_12" data-name="图层 12"><polygon class="cls-1" points="114.09 90.78 97.94 90.78 64.95 122 36.81 122 17.98 98.51 36.95 65.08 17.96 30.73 36.17 8.11 64.67 8.11 97.97 38.84 114.09 38.84 114.09 30.74 101.14 30.74 67.83 0 32.29 0 8.23 29.89 27.66 65.03 8.21 99.3 32.92 130.1 68.18 130.1 101.16 98.88 114.09 98.88 114.09 90.78"/><polygon class="cls-1" points="357.96 65.91 374.74 34.62 352.74 0 318.34 0 280.24 30.74 271.23 30.74 271.23 38.85 283.1 38.85 321.2 8.11 348.28 8.11 365.35 34.97 348.83 65.8 365.32 98.53 348.43 122 321.53 122 283.11 90.78 268.89 90.78 268.89 98.88 280.23 98.88 318.65 130.1 352.59 130.1 374.77 99.28 357.96 65.91"/><polygon class="cls-1" points="197.02 57.24 165.32 57.24 146.93 38.84 113.3 38.84 113.22 30.75 150.28 30.75 168.67 49.14 196.93 49.14 197.02 57.24"/><polygon class="cls-1" points="191.28 98.88 113.99 98.88 113.99 90.78 187.85 90.78 204.84 73.78 210.47 79.7 191.28 98.88"/><polygon class="cls-1" points="54.85 52.72 36.21 16.51 43.55 12.66 62.2 48.87 54.85 52.72"/><polygon class="cls-1" points="70.3 102.66 17.98 102.66 17.98 94.37 65.18 94.37 96.9 31.12 104.31 34.84 70.3 102.66"/><rect class="cls-1" x="84.17" y="61.6" width="50.29" height="8.29"/><polygon class="cls-1" points="129.47 98.52 123.6 92.65 166.5 49.4 193.06 49.4 193.06 57.24 169.94 57.24 129.47 98.52"/><polygon class="cls-1" points="209.24 80.92 203.47 75.15 220.87 57.45 195.97 57.24 195.97 49.14 240.8 49.26 209.24 80.92"/><polygon class="cls-1" points="77.25 102.66 62.2 102.66 62.2 94.38 86.04 94.38 77.25 102.66"/><rect class="cls-1" x="228.76" y="37.49" width="8.26" height="27.72" transform="translate(104.52 -149.64) rotate(45)"/><rect class="cls-1" x="179.64" y="55.16" width="8.15" height="38.56"/><path class="cls-2" d="M319.72,5.94H351.4a38.84,38.84,0,0,1-17,29.2,33.67,33.67,0,0,0-14.65,29.91H351.4a32.51,32.51,0,0,0-15.73-30.74C317.25,23,319.72,5.94,319.72,5.94Z"/><path class="cls-3" d="M336.42,34.82h-5.86A5,5,0,0,0,340,37.2h-3.53Z"/><path class="cls-3" d="M336.42,32h3.3a5,5,0,0,0-9.16,2.8h5.86Z"/><path class="cls-3" d="M218.38,84.78a5,5,0,1,0,5,5A5,5,0,0,0,218.38,84.78Z"/><path class="cls-3" d="M314.67,98.88a5,5,0,1,0,5-5A5,5,0,0,0,314.67,98.88Z"/><path class="cls-3" d="M175.24,43.36a5,5,0,1,0-5-5A5,5,0,0,0,175.24,43.36Z"/><path class="cls-1" d="M175.24,48.54a10.19,10.19,0,0,0,9.84-7.6h-2.24V35.76h2.24a10.19,10.19,0,1,0-9.84,12.78Zm0-15.2a5,5,0,1,1-5,5A5,5,0,0,1,175.24,33.34Z"/><path class="cls-1" d="M226,87.19h2.25a10.2,10.2,0,1,0,0,5.19H226Zm-7.6,7.61a5,5,0,1,1,5-5A5,5,0,0,1,218.38,94.8Z"/><path class="cls-1" d="M335.57,39.83a5,5,0,0,1-5-5h0a5,5,0,0,1,9.16-2.8h5.64a10.2,10.2,0,1,0,.11,5.18H340A5,5,0,0,1,335.57,39.83Z"/><path class="cls-1" d="M317.09,91.28V89a10.19,10.19,0,1,0,5.18,0v2.24Zm7.6,7.6a5,5,0,1,1-5-5A5,5,0,0,1,324.69,98.88Z"/><path class="cls-1" d="M271.23,48.39V46.15a10.2,10.2,0,1,0,5.18,0v2.24Zm7.6,7.6a5,5,0,1,1-5-5A5,5,0,0,1,278.83,56Z"/><path class="cls-1" d="M185.08,40.94h56.69l21.65,46.25h3.49v5.19h-1.07l3.05,6.5,4.69-2.19L245.06,35.76h-60a9.76,9.76,0,0,1,0,5.18Z"/><path class="cls-1" d="M182.84,40.94h2.24a9.76,9.76,0,0,0,0-5.18h-2.24Z"/><path class="cls-1" d="M228.23,87.19a10.07,10.07,0,0,1,0,5.19h37.61l-2.42-5.19Z"/><path class="cls-1" d="M228.23,87.19H226v5.19h2.25a10.07,10.07,0,0,0,0-5.19Z"/><polygon class="cls-1" points="266.91 87.19 263.42 87.19 265.84 92.38 266.91 92.38 266.91 87.19"/><rect class="cls-1" x="271.23" y="37.43" width="5.18" height="11.71"/><path class="cls-1" d="M336.42,32v2.8h4.16a4.91,4.91,0,0,0-.86-2.8Z"/><path class="cls-1" d="M336.42,37.2H340a4.91,4.91,0,0,0,.63-2.38h-4.16Z"/><path class="cls-1" d="M345.77,34.82h0a9.82,9.82,0,0,1-.3,2.38h22.79V32h-22.9A10,10,0,0,1,345.77,34.82Z"/><path class="cls-1" d="M345.77,34.82h-5.19A4.91,4.91,0,0,1,340,37.2h5.52a9.82,9.82,0,0,0,.3-2.38Z"/><path class="cls-1" d="M340.58,34.82h5.19a10,10,0,0,0-.41-2.8h-5.64A4.91,4.91,0,0,1,340.58,34.82Z"/><path class="cls-1" d="M317.09,89a9.76,9.76,0,0,1,5.18,0V68.28h28.37V63.1H317.09Z"/><path class="cls-1" d="M317.09,89v2.24h5.18V89a9.76,9.76,0,0,0-5.18,0Z"/><path class="cls-4" d="M330.42,34.82a5,5,0,1,0,5-5A5,5,0,0,0,330.42,34.82Z"/><rect class="cls-1" x="321.83" y="11.54" width="27.35" height="4.66"/><rect class="cls-1" x="322.16" y="53.79" width="27.35" height="4.66"/><rect class="cls-1" x="324.05" y="19.07" width="21.72" height="4.68"/><rect class="cls-1" x="324.05" y="46.15" width="23.58" height="4.68"/><polygon class="cls-1" points="10.55 88.3 5.95 95.91 0 88.08 4.6 80.47 10.55 88.3"/><rect class="cls-1" x="28.38" y="53.25" width="35.89" height="7.97" transform="translate(-20.73 26.8) rotate(-26.6)"/></g></g></svg>