<svg xmlns="http://www.w3.org/2000/svg" xmlns:xlink="http://www.w3.org/1999/xlink" viewBox="0 0 3411.14 3324.9"><defs><style>.cls-1{fill:#c9bc9c;}.cls-2{fill:url(#未命名的渐变_65);}.cls-3{fill:url(#未命名的渐变_65-2);}.cls-4{fill:#727171;}.cls-5{fill:url(#未命名的渐变_65-3);}.cls-6{fill:#595857;}.cls-7{fill:#2ea7e0;}.cls-10,.cls-12,.cls-13,.cls-14,.cls-7,.cls-8,.cls-9{opacity:0.5;}.cls-8{fill:url(#未命名的渐变_22);}.cls-9{fill:url(#未命名的渐变_22-2);}.cls-11{fill:url(#未命名的渐变_247);}.cls-12{fill:#92a2d2;}.cls-13{fill:url(#未命名的渐变_118);}.cls-14{fill:url(#未命名的渐变_215);}.cls-15,.cls-16{fill:#efefef;}.cls-15{opacity:0.8;}.cls-16{opacity:0.3;}.cls-17{fill:#3f3b3a;}.cls-18{fill:url(#未命名的渐变_235);}.cls-19{fill:url(#未命名的渐变_235-2);}.cls-20{fill:url(#未命名的渐变_235-3);}.cls-21,.cls-24,.cls-25,.cls-26{fill:none;stroke-miterlimit:10;}.cls-21{stroke:#f7f8f8;stroke-width:2px;}.cls-22{fill:url(#未命名的渐变_235-4);}.cls-23{fill:#f6d150;}.cls-24,.cls-25,.cls-26{stroke:#fff;stroke-width:10px;}.cls-24{stroke-dasharray:12.06 12.06;}.cls-25{stroke-dasharray:12;}.cls-26{stroke-dasharray:11.95 11.95;}</style><linearGradient id="未命名的渐变_65" x1="5430.13" y1="329.48" x2="5410.06" y2="452.36" gradientTransform="translate(6034.62 917.72) rotate(153.97)" gradientUnits="userSpaceOnUse"><stop offset="0" stop-color="#786050"/><stop offset="0.14" stop-color="#7e6656"/><stop offset="1" stop-color="#a48b78"/></linearGradient><linearGradient id="未命名的渐变_65-2" x1="5314.05" y1="1069.41" x2="5367.67" y2="755.26" xlink:href="#未命名的渐变_65"/><linearGradient id="未命名的渐变_65-3" x1="5333.16" y1="546.74" x2="5525.52" y2="546.74" xlink:href="#未命名的渐变_65"/><radialGradient id="未命名的渐变_22" cx="7611.39" cy="13452" r="177.01" gradientTransform="matrix(0, 0.89, -0.31, 0, 4905.53, -4152.7)" gradientUnits="userSpaceOnUse"><stop offset="0" stop-color="#fff"/><stop offset="0" stop-color="#fff"/><stop offset="0.31" stop-color="#e8e2d4"/><stop offset="0.59" stop-color="#d7cdb5"/><stop offset="0.83" stop-color="#cdc1a3"/><stop offset="1" stop-color="#c9bc9c"/></radialGradient><radialGradient id="未命名的渐变_22-2" cx="8613.2" cy="17171.19" r="177.01" gradientTransform="matrix(0, 0.69, -0.26, 0, 5390.9, -3646.17)" xlink:href="#未命名的渐变_22"/><linearGradient id="未命名的渐变_247" x1="7088.87" y1="3610.58" x2="8207.56" y2="3610.58" gradientTransform="translate(7408.34 -3414.09) rotate(113.94)" gradientUnits="userSpaceOnUse"><stop offset="0" stop-color="#00a1e9"/><stop offset="0.04" stop-color="#0ca5ea" stop-opacity="0.95"/><stop offset="0.4" stop-color="#73cbf3" stop-opacity="0.55"/><stop offset="0.69" stop-color="#bee7f9" stop-opacity="0.25"/><stop offset="0.89" stop-color="#edf8fd" stop-opacity="0.07"/><stop offset="1" stop-color="#fff" stop-opacity="0"/></linearGradient><linearGradient id="未命名的渐变_118" x1="7176.56" y1="9655.84" x2="7310.47" y2="9655.84" gradientTransform="translate(-5679.74 -8873.76)" gradientUnits="userSpaceOnUse"><stop offset="0" stop-color="#fff" stop-opacity="0"/><stop offset="0.48" stop-color="#f7f8f8"/><stop offset="1" stop-color="#fff" stop-opacity="0"/></linearGradient><linearGradient id="未命名的渐变_215" x1="7200.07" y1="10258.45" x2="7306.7" y2="10258.45" gradientTransform="translate(-1190.52 -10970.27) rotate(23.69)" gradientUnits="userSpaceOnUse"><stop offset="0" stop-color="#fff" stop-opacity="0"/><stop offset="0.04" stop-color="#fefefe" stop-opacity="0.14"/><stop offset="0.12" stop-color="#fbfcfc" stop-opacity="0.44"/><stop offset="0.2" stop-color="#fafafa" stop-opacity="0.68"/><stop offset="0.27" stop-color="#f8f9f9" stop-opacity="0.85"/><stop offset="0.32" stop-color="#f7f8f8" stop-opacity="0.96"/><stop offset="0.35" stop-color="#f7f8f8"/><stop offset="0.35" stop-color="#f7f8f8"/><stop offset="0.5" stop-color="#f9fafa" stop-opacity="0.7"/><stop offset="0.63" stop-color="#fbfcfc" stop-opacity="0.45"/><stop offset="0.75" stop-color="#fdfdfd" stop-opacity="0.26"/><stop offset="0.86" stop-color="#fefefe" stop-opacity="0.12"/><stop offset="0.94" stop-color="#fff" stop-opacity="0.03"/><stop offset="1" stop-color="#fff" stop-opacity="0"/></linearGradient><linearGradient id="未命名的渐变_235" x1="7109.6" y1="8941.64" x2="7176.56" y2="8941.64" gradientTransform="translate(-1190.52 -10970.27) rotate(23.69)" gradientUnits="userSpaceOnUse"><stop offset="0" stop-color="#727171"/><stop offset="0.22" stop-color="#5c5959"/><stop offset="0.45" stop-color="#4c4848"/><stop offset="0.7" stop-color="#423e3d"/><stop offset="1" stop-color="#3f3b3a"/></linearGradient><linearGradient id="未命名的渐变_235-2" x1="1042.83" y1="9030.91" x2="1109.79" y2="9030.91" gradientTransform="matrix(1, 0, 0, -1, 871.37, 9298.99)" xlink:href="#未命名的渐变_235"/><linearGradient id="未命名的渐变_235-3" x1="7109.6" y1="9030.91" x2="7176.56" y2="9030.91" gradientTransform="translate(-5420.23 -8861.46)" xlink:href="#未命名的渐变_235"/><linearGradient id="未命名的渐变_235-4" x1="965.83" y1="8941.64" x2="1032.79" y2="8941.64" gradientTransform="matrix(-0.92, -0.4, -0.4, 0.92, 6490.77, -7600.61)" xlink:href="#未命名的渐变_235"/></defs><title>Menu</title><g id="Layer_2" data-name="Layer 2"><g id="图层_3" data-name="图层 3"><path class="cls-1" d="M1211.24,3173.31c-30.37-79.66-44.34-122.81-52.26-162.24a19.57,19.57,0,0,0-1.2-4c-61.37,13-111.23,9.54-141.31,5.31-45-6.29-96.37-13.47-140.51-54.36A191.88,191.88,0,0,1,831.64,2896c-3.62,4-4.17,9.21-3.88,13.9,2.8,47.9-3.38,66.84,13,130,13.42,52,23.19,91.24,31,123.28,9.72,3.1,19.44,7.87,29.16,7.87C1004.06,3173.62,1107.69,3173.69,1211.24,3173.31Z"/><path class="cls-2" d="M831.64,2896c7.58-8.37,28.75-11.46,84.84,6.76,61.6,19.94,111.61,57,188.24,74.4,29.65,6.78,47.82,16.5,53.06,30-61.37,13-111.23,9.54-141.31,5.31-45-6.29-96.37-13.47-140.51-54.36A191.88,191.88,0,0,1,831.64,2896Z"/><path class="cls-3" d="M652.56,2370a99.28,99.28,0,0,1,32.77-3.91c22.3,1.11,39.92,15.68,39.33,4.22-1.19-23.77-6.58-81.58,26.81-147.58,14.54-28.77,35.8-45,58.82-62.57a280.22,280.22,0,0,1,90.45-45.59c0,.5,0,.94,0,1.44-2.05,39.52-15,43.25-11.81,83.72,2.78,36.25,2,36-.39,67.14-3.55,45.33-8,65.6-17.85,99-5.51,18.78,1.35,34.52,31.85,54.31,63.41,41.07,58.82,52.65,85.53,76.29,14.32,12.59-4.31,38.62-29.56,83.21-72.05,127.32-91.92,144.69-101.25,157-9.56,12.67-9.61-14.4-19.55-48.4,0,0-19.31-66.52-45.46-118.53-28.91-57.5-71.54-67.11-95.15-110.86C680.16,2427.51,665.52,2398.56,652.56,2370Z"/><path class="cls-1" d="M652.56,2370c-32.21-70.56-55.12-139.16-80.65-236.16-9.93-37.92-60.12-173.48-136.62-423-76.37-249.25-117.23-326.1-212.51-570.37-35-89.85-95.18-240-154.22-332.37-6.21-9.64-31.85-5.13-48.08-22.13-48.87-51.09,4.57-169.73,8.34-177.9,16.41-35.53,36.72-79.3,82.41-102.36,36.08-18.12,55.38-7,181.5-18.27,40.67-3.6,63.21-2.52,70-9.33C417.6,423.5,422,373.75,487.27,317.94c50.8-43.48,113.52-47,141.85-48.6,27.82-1.58,135.56-11.26,209.25,91.82,56.52,79,55.86,188.83,30.46,245.41-8.07,17.95-32.18,27-37.62,53.73-4.6,22.5.67,50-1.74,56.87-30.78,87.73-69.92,220.82-94.6,323.24-14.78,61.41-8.4,149.59,10.45,322.89,25.63,235.85,119.36,566.92,139.21,671.94,2.91,15.34,17.5,45.4,16.21,79.29a280.22,280.22,0,0,0-90.45,45.59c-23,17.58-44.28,33.8-58.82,62.57-33.39,66-28,123.81-26.81,147.58.59,11.46-17-3.11-39.33-4.22A99.28,99.28,0,0,0,652.56,2370Z"/><polygon class="cls-4" points="518 851.09 245.63 940.44 236.28 905.29 517.3 846.11 518 851.09"/><path class="cls-5" d="M885.23,2861.4c-2.08-32.25-25.39-36.79-33.39-65.82-12.05-43.8,49.45-74.42,53-132.58a233.73,233.73,0,0,0,0-26.6,430.23,430.23,0,0,1,55.44,62.3c24.24,33.43,47.3,65.27,55.06,112.76a195.14,195.14,0,0,1,2,43.77c-16.7,4.4-46.87,42.32-66.32,75.74-20.53,35.29-22.35,53.77-35.49,55.35-17.38,2.15-44.58-30.84-37.87-60S887.13,2891.57,885.23,2861.4Z"/><polygon class="cls-4" points="298.86 1127.17 700.13 856.35 718.46 885.46 300.52 1131.71 298.86 1127.17"/><path class="cls-6" d="M395.12,776.64l-43.2,12.51,690.08,2384q23.43.17,46.88.23Z"/><rect class="cls-6" x="357.52" y="764.47" width="71.06" height="171.79" transform="translate(1007.04 1557.91) rotate(163.86)"/><path class="cls-7" d="M722.15,2373.68q-32.55-18-66.29-7.47c19.86,68.74-17.43-71.55,36.61,121.89,60.38,216.09,106,360.29,139.53,473.5,6.27-4,10.33-10,14.51-16.25-1.14-.88-2.28-1.74-3.4-2.64-5.77-6.27,6-2.82,9.92-6.41.24-.3.48-.61.73-.9-.25.29-.49.6-.73.9-2.38,2.93-4.47,6-6.52,9,92.79,72.57,202.66,90.83,310.91,60.12-17.79-54-43.34-130.09-73-245.62-54.52-212.37-124.16-420.8-178.92-633.11-1.49-5.78-2.79-9.51-4.83-12.89C779.38,2132.94,700.2,2253.09,722.15,2373.68Z"/><path class="cls-7" d="M843.11,2942.71c1.12.9,2.26,1.76,3.4,2.64,2-3,4.14-6.12,6.52-9C849.13,2939.89,837.34,2936.44,843.11,2942.71Z"/><path class="cls-7" d="M853,2936.3a3.52,3.52,0,0,0,.73-.9C853.51,2935.69,853.27,2936,853,2936.3Z"/><path class="cls-1" d="M1033.1,2903.16c-9.08-28.16-1.7-44.45-9.87-47.87a8.73,8.73,0,0,0-5.86-.06,195.14,195.14,0,0,0-2-43.77c-7.76-47.49-30.82-79.33-55.06-112.76a430.23,430.23,0,0,0-55.44-62.3C902,2581.52,885.27,2531.31,923,2507c31.72-20.41,71.24-37.3,77.09-27.9,24.12,39,35.18,82.29,58.06,164.15,57.75,206,118.6,373.29,87.9,353.1-23.51-15.53-42.49-13.93-58.9-25.18C1078.12,2965,1045.89,2942.85,1033.1,2903.16Z"/><path class="cls-1" d="M828.07,2957.49C787.56,2850.86,670.4,2432.12,653.54,2369c-2-7.36,12.71,18.78,33.47,36.71,52.55,45.41,75.7,3.92,123.43,48.22,33.82,31.37,73.09,82.85,81,141.9,2.5,18.64-.74,40.32,8.14,73.11,8.1,29.89,18.9,33.75,25.85,56,12.46,40-6.13,79.05-34.33,136.34C859.06,2926.47,835.35,2976.64,828.07,2957.49Z"/><ellipse class="cls-8" cx="798.52" cy="2648.21" rx="61.44" ry="180.87" transform="translate(-698.86 322.59) rotate(-16)"/><path class="cls-1" d="M1011.07,2473.6c-3.07-47.09-100.77-331.79-100.82-331.92h0s-27.89,2.72-29.94,2.94c-32.29,3.45-137.7,80.82-131.68,181.6.83,13.83,2.63,38.55,19.86,59.64,14.56,17.84,32.78,24.07,68.18,35.65,49.83,16.31,54.86,7.44,93.94,23.7,3.94,1.64,24,10.09,51.49,19.92C1000,2471.53,1011.22,2475.93,1011.07,2473.6Z"/><ellipse class="cls-9" cx="901.29" cy="2305.17" rx="52.63" ry="139.81" transform="translate(-792.66 500.55) rotate(-21.83)"/><g class="cls-10"><path class="cls-1" d="M1211.24,3173.31c-30.37-79.66-44.34-122.81-52.26-162.24a19.57,19.57,0,0,0-1.2-4c-61.37,13-111.23,9.54-141.31,5.31-45-6.29-96.37-13.47-140.51-54.36A191.88,191.88,0,0,1,831.64,2896c-3.62,4-4.17,9.21-3.88,13.9,2.8,47.9-3.38,66.84,13,130,13.42,52,23.19,91.24,31,123.28,9.72,3.1,19.44,7.87,29.16,7.87C1004.06,3173.62,1107.69,3173.69,1211.24,3173.31Z"/><path class="cls-1" d="M652.56,2370c-32.21-70.56-55.12-139.16-80.65-236.16-9.93-37.92-60.12-173.48-136.62-423-76.37-249.25-117.23-326.1-212.51-570.37-35-89.85-95.18-240-154.22-332.37-6.21-9.64-31.85-5.13-48.08-22.13-48.87-51.09,4.57-169.73,8.34-177.9,16.41-35.53,36.72-79.3,82.41-102.36,36.08-18.12,55.38-7,181.5-18.27,40.67-3.6,63.21-2.52,70-9.33C417.6,423.5,422,373.75,487.27,317.94c50.8-43.48,113.52-47,141.85-48.6,27.82-1.58,135.56-11.26,209.25,91.82,56.52,79,55.86,188.83,30.46,245.41-8.07,17.95-32.18,27-37.62,53.73-4.6,22.5.67,50-1.74,56.87-30.78,87.73-69.92,220.82-94.6,323.24-14.78,61.41-8.4,149.59,10.45,322.89,25.63,235.85,119.36,566.92,139.21,671.94,2.91,15.34,17.5,45.4,16.21,79.29a280.22,280.22,0,0,0-90.45,45.59c-23,17.58-44.28,33.8-58.82,62.57-33.39,66-28,123.81-26.81,147.58.59,11.46-17-3.11-39.33-4.22A99.28,99.28,0,0,0,652.56,2370Z"/></g><polygon class="cls-11" points="605.88 2402.91 1224.83 1596.72 1234.36 1601.24 1003.02 2722.23 605.88 2402.91"/><polygon class="cls-4" points="1892.63 365.79 1953.94 392.69 2012.75 369.74 2048.62 287.99 2005.23 220.21 1955.39 222.72 1892.63 365.79"/><rect class="cls-12" x="1647.65" y="279.14" width="312.46" height="22.32" transform="translate(268.58 -700.22) rotate(23.69)"/><path class="cls-12" d="M1450.78,1317.44c-19.51,44.46-52.37,76.49-85.43,87.63a76.54,76.54,0,0,1-28,4.24l-37.56,85.62L1258.93,1477l37.55-85.62a76.91,76.91,0,0,1-15.83-23.47c-14.19-31.86-12.89-77.73,6.62-122.2Z"/><rect class="cls-12" x="1494.94" y="255.39" width="178.55" height="1071.31" transform="translate(451.24 -569.78) rotate(23.69)"/><rect class="cls-13" x="1496.82" y="246.43" width="133.91" height="1071.31" transform="translate(445.92 -562.33) rotate(23.69)"/><path class="cls-14" d="M1450.78,1317.44c-19.51,44.46-52.37,76.49-85.43,87.63-17.28,5.82-34.61,5.94-50.12-.86s-27.16-19.64-34.58-36.3c-14.19-31.86-12.89-77.73,6.62-122.2Z"/><path class="cls-15" d="M1568.33,1021.7c-17.07,38.91-45.83,66.93-74.75,76.68-15.13,5.1-30.29,5.2-43.86-.75s-23.76-17.18-30.26-31.76c-12.41-27.88-11.27-68,5.8-106.93Z"/><rect class="cls-16" x="1501.99" y="221.74" width="11.02" height="1071.31" transform="translate(431.26 -541.8) rotate(23.69)"/><rect class="cls-16" x="1655.42" y="289.05" width="11.02" height="1071.31" transform="translate(471.22 -597.77) rotate(23.69)"/><path class="cls-16" d="M1287.27,1245.71c-19.51,44.47-20.81,90.34-6.62,122.2a76.91,76.91,0,0,0,15.83,23.47L1258.93,1477l40.87,17.93,37.56-85.62a76.54,76.54,0,0,0,28-4.24c33.06-11.14,65.92-43.17,85.43-87.63Zm78.46,144.18c-15.12,5.09-30.27,5.18-43.85-.77s-23.75-17.17-30.25-31.74c-12.43-27.9-11.29-68,5.78-107l143.07,62.76C1423.41,1352.12,1394.66,1380.12,1365.73,1389.89Z"/><polygon class="cls-4" points="1688.24 276.13 1626.92 249.23 1603.98 190.42 1639.84 108.66 1719.09 94.68 1751 133.05 1688.24 276.13"/><rect class="cls-4" x="1674.55" y="173.18" width="312.46" height="111.59" transform="translate(246.22 -716.19) rotate(23.69)"/><rect class="cls-17" x="1759.44" y="87.67" width="178.55" height="200.87" transform="translate(231.3 -726.83) rotate(23.69)"/><polygon class="cls-18" points="1719.09 94.68 1807.31 60.27 1771.44 142.02 1719.09 94.68"/><rect class="cls-19" x="1914.2" y="201.12" width="66.96" height="133.91" transform="translate(3623.59 1296.01) rotate(-156.31)"/><rect class="cls-20" x="1689.37" y="102.49" width="66.96" height="133.91" transform="translate(213.21 -677.84) rotate(23.69)"/><rect class="cls-6" x="1634.3" y="258.7" width="357.1" height="22.32" transform="translate(261.13 -705.54) rotate(23.69)"/><rect class="cls-6" x="1633.07" y="219.92" width="66.96" height="44.64" transform="translate(237.71 -649.09) rotate(23.69)"/><rect class="cls-6" x="1894.29" y="357.86" width="66.96" height="22.32" transform="translate(310.64 -743.35) rotate(23.69)"/><rect class="cls-6" x="1946.01" y="346.38" width="22.32" height="22.32" transform="translate(308.51 -756.13) rotate(23.69)"/><line class="cls-21" x1="1711.18" y1="334.93" x2="1752.06" y2="352.87"/><line class="cls-21" x1="1675.32" y1="416.69" x2="1695.76" y2="425.66"/><line class="cls-21" x1="1702.22" y1="355.37" x2="1722.66" y2="364.34"/><line class="cls-21" x1="1693.25" y1="375.81" x2="1713.69" y2="384.78"/><line class="cls-21" x1="1684.29" y1="396.25" x2="1704.73" y2="405.22"/><line class="cls-21" x1="1666.35" y1="437.13" x2="1707.23" y2="455.06"/><line class="cls-21" x1="1630.49" y1="518.88" x2="1650.93" y2="527.85"/><line class="cls-21" x1="1657.39" y1="457.57" x2="1677.83" y2="466.53"/><line class="cls-21" x1="1648.42" y1="478.01" x2="1668.86" y2="486.97"/><line class="cls-21" x1="1639.46" y1="498.44" x2="1659.89" y2="507.41"/><line class="cls-21" x1="1621.52" y1="539.32" x2="1662.4" y2="557.25"/><line class="cls-21" x1="1585.66" y1="621.08" x2="1606.1" y2="630.04"/><line class="cls-21" x1="1612.56" y1="559.76" x2="1633" y2="568.73"/><line class="cls-21" x1="1603.59" y1="580.2" x2="1624.03" y2="589.17"/><line class="cls-21" x1="1594.63" y1="600.64" x2="1615.06" y2="609.6"/><line class="cls-21" x1="1576.69" y1="641.52" x2="1617.57" y2="659.45"/><line class="cls-21" x1="1540.83" y1="723.27" x2="1561.27" y2="732.24"/><line class="cls-21" x1="1567.73" y1="661.95" x2="1588.17" y2="670.92"/><line class="cls-21" x1="1558.76" y1="682.39" x2="1579.2" y2="691.36"/><line class="cls-21" x1="1549.79" y1="702.83" x2="1570.23" y2="711.8"/><line class="cls-21" x1="1531.86" y1="743.71" x2="1572.74" y2="761.64"/><line class="cls-21" x1="1496" y1="825.46" x2="1516.44" y2="834.43"/><line class="cls-21" x1="1522.9" y1="764.15" x2="1543.34" y2="773.11"/><line class="cls-21" x1="1513.93" y1="784.59" x2="1534.37" y2="793.55"/><line class="cls-21" x1="1504.96" y1="805.02" x2="1525.4" y2="813.99"/><line class="cls-21" x1="1487.03" y1="845.9" x2="1527.91" y2="863.83"/><line class="cls-21" x1="1451.17" y1="927.66" x2="1471.61" y2="936.62"/><line class="cls-21" x1="1478.07" y1="866.34" x2="1498.5" y2="875.31"/><line class="cls-21" x1="1469.1" y1="886.78" x2="1489.54" y2="895.75"/><line class="cls-21" x1="1460.13" y1="907.22" x2="1480.57" y2="916.18"/><line class="cls-21" x1="1442.2" y1="948.1" x2="1483.08" y2="966.03"/><line class="cls-21" x1="1406.34" y1="1029.85" x2="1426.78" y2="1038.82"/><line class="cls-21" x1="1433.24" y1="968.53" x2="1453.67" y2="977.5"/><line class="cls-21" x1="1424.27" y1="988.97" x2="1444.71" y2="997.94"/><line class="cls-21" x1="1415.3" y1="1009.41" x2="1435.74" y2="1018.38"/><line class="cls-21" x1="1397.37" y1="1050.29" x2="1438.25" y2="1068.22"/><line class="cls-21" x1="1361.51" y1="1132.04" x2="1381.95" y2="1141.01"/><line class="cls-21" x1="1388.4" y1="1070.73" x2="1408.84" y2="1079.69"/><line class="cls-21" x1="1379.44" y1="1091.17" x2="1399.88" y2="1100.13"/><line class="cls-21" x1="1370.47" y1="1111.61" x2="1390.91" y2="1120.57"/><line class="cls-21" x1="1352.54" y1="1152.48" x2="1393.42" y2="1170.42"/><polygon class="cls-22" points="2005.23 220.21 1970.82 131.99 1934.95 213.75 2005.23 220.21"/><rect class="cls-23" x="1881.69" y="24.87" width="44.64" height="74.4" transform="translate(185.33 -759.66) rotate(23.69)"/><rect class="cls-23" x="1251.96" y="1473.67" width="55.8" height="22.32" transform="translate(704.31 -389.07) rotate(23.69)"/><polygon class="cls-4" points="1233.67 1604.02 1223.45 1599.54 1269.14 1481.48 1289.58 1490.44 1233.67 1604.02"/><rect class="cls-23" x="1246.59" y="1476.33" width="44.64" height="66.96" transform="translate(713.43 -382.57) rotate(23.69)"/><rect class="cls-23" x="1865.27" y="74.59" width="55.8" height="22.32" transform="translate(193.93 -753.31) rotate(23.69)"/><path class="cls-7" d="M1564.23,1031.11,1440.12,1314l-.11,0c-17.14,38.44-45.65,66.09-74.35,75.78-15.13,5.09-30.28,5.19-43.86-.77s-23.75-17.16-30.25-31.74c-12.33-27.69-11.29-67.4,5.41-106l-.18-.08L1421.3,967.3a2.58,2.58,0,0,0,.37.19c-14.06,36.51-14.4,73.32-2.79,99.4,6.49,14.58,16.68,25.79,30.26,31.75s28.74,5.86,43.86.77c26.85-9.05,53.51-33.83,70.87-68.46Z"/><rect class="cls-15" x="1438.18" y="898.33" width="156.73" height="96.53" transform="translate(2525.06 2422.69) rotate(-156.31)"/></g><g id="图层_4" data-name="图层 4"><circle class="cls-24" cx="1420.28" cy="1168.97" r="191.96"/><line class="cls-25" x1="1612.23" y1="1168.97" x2="2684.56" y2="555.29"/><line class="cls-25" x1="1612.23" y1="1168.97" x2="2644.48" y2="1222.2"/><line class="cls-25" x1="1612.23" y1="1168.97" x2="2686.48" y2="1916.63"/><line class="cls-25" x1="1612.23" y1="1168.97" x2="2754.07" y2="2656.58"/><circle class="cls-26" cx="3025.7" cy="385.44" r="380.44"/><circle class="cls-26" cx="3025.7" cy="1260.7" r="380.44"/><circle class="cls-26" cx="3025.7" cy="2103.89" r="380.44"/><circle class="cls-26" cx="3025.7" cy="2939.46" r="380.44"/></g></g></svg>