<svg xmlns="http://www.w3.org/2000/svg" xmlns:xlink="http://www.w3.org/1999/xlink" viewBox="0 0 4825.67 6835.2"><defs><style>.cls-1{fill:url(#未命名的渐变_201);}.cls-2{fill:url(#未命名的渐变_201-2);}.cls-3{fill:url(#未命名的渐变_593);}.cls-4{fill:url(#未命名的渐变_593-2);}.cls-5{fill:url(#未命名的渐变_593-3);}.cls-6{fill:url(#未命名的渐变_593-4);}.cls-7{fill:url(#未命名的渐变_212);}.cls-8{fill:#8aa0ac;}.cls-9{fill:url(#未命名的渐变_201-3);}.cls-10{fill:url(#未命名的渐变_201-4);}.cls-11{fill:url(#未命名的渐变_201-5);}.cls-12{fill:url(#未命名的渐变_201-6);}.cls-13{fill:url(#未命名的渐变_201-7);}.cls-14{fill:url(#未命名的渐变_201-8);}.cls-15{fill:url(#未命名的渐变_201-9);}.cls-16{opacity:0.3;}.cls-17{fill:url(#未命名的渐变_201-10);}.cls-18{fill:url(#未命名的渐变_201-11);}.cls-19{fill:url(#未命名的渐变_593-5);}.cls-20{fill:url(#未命名的渐变_593-6);}.cls-21{fill:url(#未命名的渐变_593-7);}.cls-22{fill:url(#未命名的渐变_593-8);}.cls-23{fill:url(#未命名的渐变_212-2);}.cls-24{fill:url(#未命名的渐变_201-12);}.cls-25{fill:url(#未命名的渐变_201-13);}.cls-26{fill:url(#未命名的渐变_201-14);}.cls-27{fill:url(#未命名的渐变_201-15);}.cls-28{fill:url(#未命名的渐变_201-16);}.cls-29{fill:url(#未命名的渐变_201-17);}.cls-30{fill:url(#未命名的渐变_201-18);}</style><linearGradient id="未命名的渐变_201" x1="2414.17" y1="4653.75" x2="2423.52" y2="2539.02" gradientTransform="matrix(-1, 0, 0, 1, 4822.33, 0)" gradientUnits="userSpaceOnUse"><stop offset="0" stop-color="#a0821f"/><stop offset="0.32" stop-color="#9e8321"/><stop offset="0.49" stop-color="#988429"/><stop offset="0.62" stop-color="#8e8737"/><stop offset="0.74" stop-color="#808c4a"/><stop offset="0.84" stop-color="#6d9163"/><stop offset="0.93" stop-color="#579881"/><stop offset="1" stop-color="#439e9b"/></linearGradient><linearGradient id="未命名的渐变_201-2" x1="3885.96" y1="4579.37" x2="3881.8" y2="3639.16" gradientTransform="matrix(1, 0, 0, 1, 0, 0)" xlink:href="#未命名的渐变_201"/><linearGradient id="未命名的渐变_593" x1="2595.03" y1="1673.08" x2="2622.33" y2="19.81" gradientTransform="matrix(-1, -0.04, -0.04, 1, 3793.25, 87.93)" gradientUnits="userSpaceOnUse"><stop offset="0" stop-color="#d49600"/><stop offset="0.1" stop-color="#ce9607"/><stop offset="0.24" stop-color="#bf971c"/><stop offset="0.42" stop-color="#a6993e"/><stop offset="0.62" stop-color="#839b6d"/><stop offset="0.84" stop-color="#569ea9"/><stop offset="1" stop-color="#31a0db"/></linearGradient><linearGradient id="未命名的渐变_593-2" x1="2350.47" y1="1482.22" x2="2374.67" y2="16.04" gradientTransform="matrix(-0.99, -0.16, -0.16, 0.99, 3542.25, 519.86)" xlink:href="#未命名的渐变_593"/><linearGradient id="未命名的渐变_593-3" x1="2314.2" y1="1442.39" x2="2334.95" y2="185.39" gradientTransform="matrix(-0.99, -0.16, -0.16, 0.99, 3542.25, 519.86)" xlink:href="#未命名的渐变_593"/><linearGradient id="未命名的渐变_593-4" x1="2219.22" y1="1435.34" x2="2231.5" y2="398.75" gradientTransform="matrix(-0.99, -0.16, -0.16, 0.99, 3542.25, 519.86)" xlink:href="#未命名的渐变_593"/><linearGradient id="未命名的渐变_212" x1="3288.05" y1="1595.84" x2="3009.41" y2="2982.24" gradientTransform="matrix(-0.99, -0.1, -0.1, 0.99, 4774.32, 347.35)" gradientUnits="userSpaceOnUse"><stop offset="0" stop-color="#d49600"/><stop offset="0.14" stop-color="#c29718"/><stop offset="0.44" stop-color="#939a57"/><stop offset="0.86" stop-color="#4a9eba"/><stop offset="1" stop-color="#31a0db"/></linearGradient><linearGradient id="未命名的渐变_201-3" x1="2436.75" y1="4589.86" x2="2429.86" y2="3031.08" gradientTransform="matrix(1, 0, 0, 1, 0, 0)" xlink:href="#未命名的渐变_201"/><linearGradient id="未命名的渐变_201-4" x1="2271.97" y1="4580.27" x2="2266.1" y2="3253.52" gradientTransform="matrix(1, 0, 0, 1, 0, 0)" xlink:href="#未命名的渐变_201"/><linearGradient id="未命名的渐变_201-5" x1="2125.9" y1="4509.19" x2="2121.43" y2="3498.72" gradientTransform="matrix(1, 0, 0, 1, 0, 0)" xlink:href="#未命名的渐变_201"/><linearGradient id="未命名的渐变_201-6" x1="1898.16" y1="4440.89" x2="1895.15" y2="3760.99" gradientTransform="matrix(1, 0, 0, 1, 0, 0)" xlink:href="#未命名的渐变_201"/><linearGradient id="未命名的渐变_201-7" x1="3870.07" y1="4503.45" x2="3866.72" y2="3744.93" gradientTransform="matrix(1, 0, 0, 1, 0, 0)" xlink:href="#未命名的渐变_201"/><linearGradient id="未命名的渐变_201-8" x1="3869.45" y1="4500.89" x2="3867.08" y2="3965.35" gradientTransform="matrix(1, 0, 0, 1, 0, 0)" xlink:href="#未命名的渐变_201"/><linearGradient id="未命名的渐变_201-9" x1="3759.1" y1="4392.91" x2="3757.79" y2="4096.03" gradientTransform="matrix(1, 0, 0, 1, 0, 0)" xlink:href="#未命名的渐变_201"/><linearGradient id="未命名的渐变_201-10" x1="2398.9" y1="-10313.41" x2="2404.18" y2="-11508.61" gradientTransform="translate(4822.33 -6102.63) rotate(180)" xlink:href="#未命名的渐变_201"/><linearGradient id="未命名的渐变_201-11" x1="3902.18" y1="-10356.13" x2="3899.84" y2="-10885.1" gradientTransform="matrix(1, 0, 0, -1, 0, -6102.63)" xlink:href="#未命名的渐变_201"/><linearGradient id="未命名的渐变_593-5" x1="3165.81" y1="-11969.47" x2="3181.28" y2="-12906.03" gradientTransform="translate(3793.25 -6190.57) rotate(177.46)" xlink:href="#未命名的渐变_593"/><linearGradient id="未命名的渐变_593-6" x1="4463.78" y1="-11988.75" x2="4477.85" y2="-12840.56" gradientTransform="translate(3542.25 -6622.49) rotate(170.69)" xlink:href="#未命名的渐变_593"/><linearGradient id="未命名的渐变_593-7" x1="4461.22" y1="-12008.31" x2="4473.23" y2="-12735.78" gradientTransform="translate(3542.25 -6622.49) rotate(170.69)" xlink:href="#未命名的渐变_593"/><linearGradient id="未命名的渐变_593-8" x1="4372.97" y1="-12016.95" x2="4380.06" y2="-12615.02" gradientTransform="translate(3542.25 -6622.49) rotate(170.69)" xlink:href="#未命名的渐变_593"/><linearGradient id="未命名的渐变_212-2" x1="4634.99" y1="-11966.92" x2="4479.04" y2="-11190.96" gradientTransform="translate(4774.32 -6449.99) rotate(174.04)" xlink:href="#未命名的渐变_212"/><linearGradient id="未命名的渐变_201-12" x1="2452.31" y1="-10349.39" x2="2448.42" y2="-11229.21" gradientTransform="matrix(1, 0, 0, -1, 0, -6102.63)" xlink:href="#未命名的渐变_201"/><linearGradient id="未命名的渐变_201-13" x1="2287.84" y1="-10354.61" x2="2284.53" y2="-11103.43" gradientTransform="matrix(1, 0, 0, -1, 0, -6102.63)" xlink:href="#未命名的渐变_201"/><linearGradient id="未命名的渐变_201-14" x1="2142.02" y1="-10394.32" x2="2139.5" y2="-10964.53" gradientTransform="matrix(1, 0, 0, -1, 0, -6102.63)" xlink:href="#未命名的渐变_201"/><linearGradient id="未命名的渐变_201-15" x1="1914.42" y1="-10433.97" x2="1912.73" y2="-10816.49" gradientTransform="matrix(1, 0, 0, -1, 0, -6102.63)" xlink:href="#未命名的渐变_201"/><linearGradient id="未命名的渐变_201-16" x1="3886.02" y1="-10398.54" x2="3884.14" y2="-10825.53" gradientTransform="matrix(1, 0, 0, -1, 0, -6102.63)" xlink:href="#未命名的渐变_201"/><linearGradient id="未命名的渐变_201-17" x1="3885.67" y1="-10399.73" x2="3884.34" y2="-10701.42" gradientTransform="matrix(1, 0, 0, -1, 0, -6102.63)" xlink:href="#未命名的渐变_201"/><linearGradient id="未命名的渐变_201-18" x1="3775.86" y1="-10460.54" x2="3775.12" y2="-10627.46" gradientTransform="matrix(1, 0, 0, -1, 0, -6102.63)" xlink:href="#未命名的渐变_201"/></defs><title>Middle4</title><g id="图层_2" data-name="图层 2"><g id="图层_4" data-name="图层 4"><path class="cls-1" d="M667.15,2496.69l209.3-18.27,1497,117.11,675.73,524.08,174.87,325.26,78.63,173.89,675.46-10,355.2,235s107.77,87.43,187.76,125.69,287.65,125.68,287.65,125.68l-27.33,338.8-568.3,125.68-2049.18,65.57-961.78-60.11L263.54,4450,0,3497.64Z"/><path class="cls-2" d="M3302.68,3618.76l675.46-10,616.18,394,214.43,92.33s.24,332.7-27.33,338.8-592,126.44-592,126.44l-916.31,8.52L2960,4337.62l150.69-389,19.69-228Z"/><polygon class="cls-3" points="541.6 151.17 556.38 425.24 720.41 645.5 899.15 804.15 947.74 1043.13 1035.38 1598.81 1138.71 1644.79 1183.02 1638.47 1190.41 1543.54 1301.23 1580.58 1351.03 1614.55 1445.72 1601.06 1481.99 1580.57 1524.65 1433.83 1570.24 1453.11 1485.34 1039.97 1510.47 798.93 1665.23 596.14 1789.82 329.12 1691.44 117.96 1474.86 0 1221.97 115.01 1151.47 289.35 1059.69 210.42 907.99 96.76 690.09 92.56 541.6 151.17"/><polygon class="cls-4" points="1532.68 1415.96 1450.84 1033.36 1467.39 792.15 1608.22 574.62 1691.93 324.65 1594.67 216.41 1409.6 182.76 1186.02 343.87 949.05 225.9 791.15 186.82 673.09 325.68 632.26 434.35 771.29 628.55 921.37 755.35 1045.79 1594.33 1146.59 1626.23 1176.72 1502.62 1336.81 1568.43 1361.39 1598.83 1453.02 1561.12 1473.71 1515.07 1512.43 1419.23 1532.68 1415.96"/><polygon class="cls-5" points="1470.38 1400 1402.24 1033.36 1413.89 826 1541.09 533.4 1543.93 402.46 1396.86 352.7 1176.79 464.05 875.66 331.33 769 451.66 797.87 597.42 947.18 766.13 1070.35 1510.68 1105.46 1580.54 1130.36 1504.49 1200.96 1490.43 1336.41 1554.31 1419.63 1539.11 1470.38 1400"/><polygon class="cls-6" points="1491.68 1486.48 1362.88 906.89 1378.69 810.47 1454.61 605.08 1379.31 549.16 1216.69 613.59 970.55 517.78 908.86 610.64 971.51 743.7 976.19 917.7 1061.7 1584.27 1162.53 1626.15 1190.38 1507.42 1334.76 1567.68 1382.85 1583.49 1456.57 1571.82 1491.68 1486.48"/><polygon class="cls-7" points="861.92 2671.34 833.35 2899.91 941.84 3060.97 1124.72 3125.73 1283.19 3046.02 1420.68 2855.77 1637.63 3015.05 1839.37 3024.02 1977.95 2941.43 2079.59 2784.19 2019.27 2623.76 1878.49 2491.06 1727.22 2373.38 1601.85 1656.73 1583.45 1528.89 1539.09 1506.93 1487.74 1650.85 1450.31 1669.15 1354.99 1676.96 1307.31 1640.08 1198.89 1596.48 1185.85 1690.81 1141.24 1694.47 1040.84 1642.4 1046.64 1702.22 1127.22 2267.26 1017.02 2495.83 861.92 2671.34"/><path class="cls-8" d="M1028,1551.85l97.84-6.48,74.46-72.89,154.82,51.73s78.78-69.37,87-77.6,113.67-63.9,113.67-63.9l41.68,243.44s-73,35.63-78.93,40.33-91.71,58.79-117.58,58.79-164.6-54.09-164.6-54.09-56.44,69.37-64.67,69.37-88.19-15.28-96.42-17.63-27.75-14.68-27.75-14.68Z"/><path class="cls-9" d="M427.46,4389.33,211.5,3603l330.1-477.23h658.67l706.64-142,836.34,74.3,371.51,493.75,55,187.37,6.94,185.76-37,286.51,108.88,244.34,1407.24-289.37s-48.74,216.72-123,222.91-235.29,99.08-284.83,99.08-2012.38,80.49-2012.38,80.49Z"/><path class="cls-10" d="M588.45,4377l-161-681.11,212.1-309.6h722.88l544.89-173.38,916.41,161,352.94,551.09,805,229.1,130,222.91s-136.22,92.88-179.57,92.88-1293.27,82.58-1293.27,82.58l-471.38,9.73Z"/><path class="cls-11" d="M769,4352.18,600.83,3832.06l84.08-154.8,806.77-24.77,587.91-185.76,676,198.15s278.64,489.16,278.64,507.74,613,179.56,613,179.56-334.36,68.11-408.67,68.11-959.75,74.31-1015.48,74.31-1017.43-45.26-1066.65-51S769,4352.18,769,4352.18Z"/><path class="cls-12" d="M1200.27,4377,867.09,4216,833.35,3887.5h658.33l440.42-148.32,656.35,86.69L2768,4085.93,2960,4315s-272.45,49.54-328.18,61.92-445.82,43.34-507.74,49.54-609.79-30.69-667.58,0S1200.27,4377,1200.27,4377Z"/><polygon class="cls-13" points="3467.71 4494.6 3207.64 3887.5 3647.27 3760.66 3907.33 3720.6 4528.07 4115.92 4359.35 4327.41 3932.1 4433.48 3467.71 4494.6"/><path class="cls-14" d="M3595.41,4494.6l-136.22-434.24,334.36-111.74L4196,4147.45l80.49,74.16-278.63,142.15s-191.95,43.35-216.72,43.35S3595.41,4494.6,3595.41,4494.6Z"/><polygon class="cls-15" points="3535.82 4389.73 3535.82 4182.31 3814.45 4086.33 3981.64 4228.74 3758.73 4352.58 3535.82 4389.73"/><g class="cls-16"><path class="cls-17" d="M684.07,5427l209.3,10.31,1497-66.06,675.74-295.59L3241,4892.19l78.63-98.08,675.47,5.62,355.19-132.53S4458,4617.88,4538,4596.31s287.64-70.89,287.64-70.89l-27.32-191.09L4230,4263.44l-2049.18-37-961.78,33.91L280.46,4325.3,16.92,4862.42Z"/><path class="cls-18" d="M3319.6,4794.11l675.47,5.62,616.17-222.23,214.43-52.08s.24-187.65-27.32-191.09-592-71.32-592-71.32l-916.32-4.8-313.17,130.45,150.69,219.4,19.69,128.61Z"/><polygon class="cls-19" points="558.52 6749.93 573.3 6595.35 737.34 6471.11 916.08 6381.63 964.66 6246.84 1052.3 5933.42 1155.63 5907.49 1199.95 5911.05 1207.33 5964.6 1318.16 5943.7 1367.95 5924.54 1462.64 5932.15 1498.91 5943.71 1541.58 6026.47 1587.17 6015.6 1502.26 6248.62 1527.4 6384.57 1682.15 6498.95 1806.75 6649.56 1708.36 6768.66 1491.78 6835.19 1238.89 6770.32 1168.39 6671.99 1076.62 6716.51 924.91 6780.62 707.01 6782.99 558.52 6749.93"/><polygon class="cls-20" points="1549.61 6036.55 1467.76 6252.35 1484.32 6388.4 1625.14 6511.09 1708.86 6652.08 1611.6 6713.14 1426.52 6732.11 1202.94 6641.24 965.97 6707.78 808.08 6729.82 690.01 6651.51 649.19 6590.21 788.21 6480.67 938.29 6409.16 1062.71 5935.95 1163.52 5917.95 1193.64 5987.68 1353.73 5950.56 1378.32 5933.41 1469.94 5954.68 1490.63 5980.66 1529.35 6034.71 1549.61 6036.55"/><polygon class="cls-21" points="1487.31 6045.56 1419.16 6252.35 1430.81 6369.31 1558.01 6534.34 1560.86 6608.2 1413.78 6636.26 1193.71 6573.46 892.59 6648.32 785.92 6580.45 814.8 6498.24 964.1 6403.08 1087.27 5983.13 1122.39 5943.73 1147.28 5986.62 1217.89 5994.55 1353.34 5958.52 1436.55 5967.09 1487.31 6045.56"/><polygon class="cls-22" points="1508.6 5996.78 1379.8 6323.68 1395.61 6378.07 1471.53 6493.91 1396.23 6525.45 1233.62 6489.11 987.47 6543.15 925.78 6490.78 988.43 6415.73 993.12 6317.59 1078.62 5941.62 1179.45 5918 1207.3 5984.97 1351.68 5950.98 1399.78 5942.06 1473.49 5948.65 1508.6 5996.78"/><polygon class="cls-23" points="878.84 5328.48 850.27 5199.56 958.76 5108.72 1141.64 5072.19 1300.12 5117.16 1437.61 5224.46 1654.55 5134.62 1856.29 5129.56 1994.87 5176.15 2096.51 5264.83 2036.19 5355.32 1895.41 5430.17 1744.15 5496.54 1618.77 5900.75 1600.37 5972.86 1556.01 5985.25 1504.67 5904.07 1467.23 5893.75 1371.91 5889.34 1324.23 5910.15 1215.81 5934.73 1202.78 5881.53 1158.16 5879.47 1057.76 5908.84 1063.56 5875.1 1144.15 5556.4 1033.94 5427.48 878.84 5328.48"/><path class="cls-8" d="M1044.89,5959.91l97.85,3.65,74.45,41.12L1372,5975.5s78.78,39.13,87,43.77,113.68,36,113.68,36L1614.37,5918s-73-20.09-78.92-22.75-91.72-33.15-117.58-33.15-164.61,30.5-164.61,30.5-56.44-39.13-64.67-39.13-88.18,8.63-96.41,9.95-27.76,8.28-27.76,8.28Z"/><path class="cls-24" d="M444.38,4359.49,228.42,4803l330.1,269.17h658.67l706.65,80.07,836.33-41.91,371.52-278.48,55-105.69,7-104.77-37.05-161.6L3265.44,4322l1407.24,163.2s-48.73-122.23-123-125.72-235.29-55.88-284.83-55.88-2012.38-45.4-2012.38-45.4Z"/><path class="cls-25" d="M605.37,4366.47l-161,384.17,212.1,174.62h722.89l544.89,97.79,916.41-90.8,352.94-310.83,804.95-129.22,130-125.73s-136.22-52.39-179.57-52.39-1293.27-46.57-1293.27-46.57L2184.37,4262Z"/><path class="cls-26" d="M785.92,4380.44,617.76,4673.81l84.08,87.31,806.76,14,587.91,104.77,676-111.76s278.64-275.9,278.64-286.38,613-101.28,613-101.28S3329.83,4342,3255.53,4342s-959.76-41.9-1015.48-41.9-1017.44,25.52-1066.66,28.78S785.92,4380.44,785.92,4380.44Z"/><path class="cls-27" d="M1217.19,4366.47,884,4457.27l-33.74,185.26H1508.6L1949,4726.19l656.35-48.89,179.57-146.68,191.95-129.22s-272.45-27.94-328.18-34.93S2202.89,4342,2141,4338.53s-609.78,17.31-667.58,0S1217.19,4366.47,1217.19,4366.47Z"/><polygon class="cls-28" points="3484.63 4300.11 3224.57 4642.53 3664.2 4714.08 3924.26 4736.67 4544.99 4513.7 4376.27 4394.41 3949.02 4334.59 3484.63 4300.11"/><path class="cls-29" d="M3612.33,4300.12,3476.11,4545l334.36,63L4213,4495.92l80.5-41.83-278.64-80.18s-191.95-24.45-216.72-24.45S3612.33,4300.12,3612.33,4300.12Z"/><polygon class="cls-30" points="3552.74 4359.26 3552.74 4476.26 3831.38 4530.39 3998.56 4450.06 3775.65 4380.22 3552.74 4359.26"/></g></g></g></svg>