<svg xmlns="http://www.w3.org/2000/svg" xmlns:xlink="http://www.w3.org/1999/xlink" viewBox="0 0 764.54 1262.46"><defs><style>.cls-1{fill:url(#未命名的渐变_71);}.cls-2{fill:none;stroke:#b3dee4;stroke-miterlimit:10;stroke-width:10px;}</style><linearGradient id="未命名的渐变_71" x1="1861.77" y1="1299.91" x2="1808.7" y2="152.72" gradientTransform="matrix(0.99, -0.14, 0.14, 0.99, -1564.85, 225.97)" gradientUnits="userSpaceOnUse"><stop offset="0" stop-color="#a0821f"/><stop offset="0.36" stop-color="#818b48"/><stop offset="1" stop-color="#439e9b"/></linearGradient></defs><title>Middle5_Stone</title><g id="图层_2" data-name="图层 2"><g id="图层_4" data-name="图层 4"><polygon class="cls-1" points="440.17 1262.46 211.57 1262.46 47.04 1064.37 0 579.91 94.52 130.51 297.66 0 644.75 334.07 764.54 904.53 636.9 1254.44 440.17 1262.46"/><path class="cls-2" d="M256.73,337.06c2.08,8.28,10.81,36.18,20.16,42.48,27.3,18.39,78.52-35.3,115.79-17.35,12.76,6.14,23,13.37,21.49,24.7-2.22,17.17-16.93,20.05-34.6,33.87-23.86,18.64-19.43,63.83,32.29,210.47"/><path class="cls-2" d="M300.83,379.91a73.4,73.4,0,0,1,11.26,31.2c2.3,21.31-19.71,53.5-23.51,68-11.57,44.33,1.79,96.64,34.83,125.39"/><path class="cls-2" d="M291.91,475.4l152.84-8.89"/><path class="cls-2" d="M386,855.16c-8.72-.39-23.55-7.46-32,6.51-6.68,11.09,1.87,18.59,4.52,26.66,7.67,23.41,10.83,33.13,17.86,84.48"/><path class="cls-2" d="M298.68,863.71c2.72-63.67,16.08-104.37,30-114,2.43-1.68,2.38,1.45,4.3,2.75,31.47,21.26,55.06,66.35,62,79.74"/><path class="cls-2" d="M313.1,843.74l63.27-14.15"/><path class="cls-2" d="M332.07,897.53c17.76-5.85,36.88-4.42,54.63-10.27"/><path class="cls-2" d="M325.19,982.29c31.51-8.94,64.66-9.14,96.16-18.08"/><path class="cls-2" d="M382,908.05c0,3,.22,20.08,13.31,30.68a33.79,33.79,0,0,0,11.71,6.1"/><path class="cls-2" d="M339.56,915.33c9.17,12.64,11,27.29,4.67,36.83a22.78,22.78,0,0,1-9.11,7.75"/><path class="cls-2" d="M440.33,707.74l8.84,63.62"/><path class="cls-2" d="M453.51,906.71c-6.84-.48-19.05-2.44-25.94-11.88-4.49-6.15-4.85-12.89-5.13-16.71-3.13-43.83-19.22-53.7-10.56-76,5.88-15.13,18.09-22.88,22.63-25.41,12.51-7,31.77-10.38,46.61-.67,8.92,5.83,13.78,14.8,15.6,18.16A60.42,60.42,0,0,1,503,812.71c11.77,63.36,12.24,67.56,9.38,74.2-8.09,18.72-23.32,11.67-36.63,32.19-13.59,20.94-13.07,51.95-.7,75.6a79.09,79.09,0,0,0,36.57,34.6"/><path class="cls-2" d="M424,821.77l56.56-9.8"/><path class="cls-2" d="M437.49,872.15l50-9.85"/></g></g></svg>