<svg xmlns="http://www.w3.org/2000/svg" viewBox="0 0 1454.54 1970.98"><defs><style>.cls-1{fill:#cfd1c9;}.cls-2{fill:none;stroke:#b1a493;stroke-miterlimit:10;stroke-width:10px;}.cls-3{fill:#d3edfb;}.cls-4{fill:#5d9e55;}</style></defs><title>Middle3</title><g id="图层_2" data-name="图层 2"><g id="图层_3" data-name="图层 3"><polygon class="cls-1" points="126.04 470.29 195.29 503.3 329.9 504.91 396.71 471.13 353.85 440.83 203 439.02 126.04 470.29"/><path class="cls-2" d="M258.25,1063.54C237.4,689.36,287.3,428.18,345.57,275.7,403.44,124.27,482.09,48.09,560.43,18.86c144-53.72,304.32,64.07,342.47,92.1,303.8,223.21,302.49,687,302.18,797.17a1313,1313,0,0,1-11.51,169.8"/><polygon class="cls-3" points="126.37 494.99 155.66 603.31 148.57 1321.08 53.37 1498.33 0 1733.15 42.39 1883.08 139.81 1949.72 227.35 1970.98 345.54 1967.71 441.96 1927.24 522.79 1861.85 546.67 1742.65 496.73 1486.06 381.31 1321.55 362.81 593.15 396.71 471.13 319.48 497.83 210.76 487.19 125.71 470.45 126.37 494.99"/><path class="cls-4" d="M797.14,105.15c37.74,150.58-14.25,178.61,11.77,294.32,25.83,114.85,93.16,159,119.41,270.78,1.72,7.29,7.32,32.22,13.46,32,7.51-.32,12.65-38.24,16.82-97.55,9.38-133.73,14.08-200.59,3.36-259-33.2-181-164.43-316.25-180-307.78C776.36,41,786.5,62.7,797.14,105.15Z"/><path class="cls-4" d="M1105.71,348.05c88.57,110,54.89,153.23,120.42,238.92,65,85,138.83,95.56,203.1,177.93,4.18,5.37,18.3,23.82,23.42,21.24,6.27-3.15-3.58-36.5-22.29-87.17-42.19-114.23-63.28-171.35-94.3-215.53-96.13-136.92-258.43-198.19-268.45-185.2C1064,303,1080.74,317,1105.71,348.05Z"/><path class="cls-4" d="M1164.48,636.7c-1.21,141.23,52,154.23,53.78,262.09,1.75,107-49.59,161.08-48.89,265.55,0,6.81.42,30-5.19,31.2-6.88,1.41-19.84-30.86-36.6-82.2-37.78-115.77-56.68-173.65-59.76-227.55-9.55-167,79.72-315.76,95.65-311.79C1169.25,575.44,1164.83,596.89,1164.48,636.7Z"/></g></g></svg>