<svg xmlns="http://www.w3.org/2000/svg" xmlns:xlink="http://www.w3.org/1999/xlink" viewBox="0 0 520.71 1039.43"><defs><style>.cls-1{fill:url(#未命名的渐变_593);}.cls-2{fill:url(#未命名的渐变_593-2);}.cls-3{fill:url(#未命名的渐变_593-3);}.cls-4{fill:url(#未命名的渐变_593-4);}.cls-5{fill:url(#未命名的渐变_593-5);}</style><linearGradient id="未命名的渐变_593" x1="-869.56" y1="900.35" x2="-51.87" y2="818.64" gradientTransform="matrix(0.1, -1.24, 1.37, 0.11, -867.46, -155.36)" gradientUnits="userSpaceOnUse"><stop offset="0" stop-color="#d49600"/><stop offset="0.1" stop-color="#ce9607"/><stop offset="0.24" stop-color="#bf971c"/><stop offset="0.42" stop-color="#a6993e"/><stop offset="0.62" stop-color="#839b6d"/><stop offset="0.84" stop-color="#569ea9"/><stop offset="1" stop-color="#31a0db"/></linearGradient><linearGradient id="未命名的渐变_593-2" x1="-852.72" y1="896.36" x2="-170.21" y2="828.16" gradientTransform="matrix(0.12, -1.24, 1.37, 0.13, -858.12, -163.82)" xlink:href="#未命名的渐变_593"/><linearGradient id="未命名的渐变_593-3" x1="-869.07" y1="892.71" x2="-283.59" y2="834.2" gradientTransform="matrix(0.1, -1.24, 1.37, 0.11, -866.5, -152.53)" xlink:href="#未命名的渐变_593"/><linearGradient id="未命名的渐变_593-4" x1="-882.33" y1="877.14" x2="-411.71" y2="830.12" gradientTransform="matrix(0.06, -1.25, 1.37, 0.07, -884.42, -131.2)" xlink:href="#未命名的渐变_593"/><linearGradient id="未命名的渐变_593-5" x1="-1007.27" y1="970.97" x2="-554.24" y2="925.7" gradientTransform="translate(-698.06 22.65) rotate(-90.1)" xlink:href="#未命名的渐变_593"/></defs><title>Middle1</title><g id="图层_2" data-name="图层 2"><g id="图层_3" data-name="图层 3"><polygon class="cls-1" points="112.69 790.33 1.84 522.62 0 327.52 52.27 125.45 185.08 0 331.73 15.7 465.75 136.35 520.71 317.54 474.85 580.91 394.3 826.84 328.17 1019.63 290.38 1039.43 232.52 987.03 112.69 790.33"/><polygon class="cls-2" points="136.11 813.59 38.88 550.35 83.13 236.33 218.46 154.36 417.35 235.2 482.6 439.26 441.82 647.31 376.35 866.86 297.06 1023.05 136.11 813.59"/><polygon class="cls-3" points="158.96 847.3 72.72 626.09 105.4 359.79 218.63 288.4 388.11 353.77 446.39 525.4 425.76 709.38 367.09 896.37 298 1032.29 158.96 847.3"/><polygon class="cls-4" points="173.14 867.06 102.42 699.82 121.64 495.52 206.66 438.49 337.64 484.8 385.91 614.75 374.12 755.84 333.31 900.07 293.71 1034.13 173.14 867.06"/><polygon class="cls-5" points="202.98 900.41 147.52 774.46 153.52 616.4 210.82 569.12 303.98 599.56 342.41 697.69 339.3 806.79 304.81 1012.41 293.25 1024.25 202.98 900.41"/></g></g></svg>