<svg xmlns="http://www.w3.org/2000/svg" xmlns:xlink="http://www.w3.org/1999/xlink" viewBox="0 0 2668.61 2062.94"><defs><style>.cls-1{fill:url(#未命名的渐变_71);}.cls-2{fill:url(#未命名的渐变_71-2);}.cls-3{fill:url(#未命名的渐变_71-3);}.cls-4{fill:url(#未命名的渐变_71-4);}.cls-5{fill:url(#未命名的渐变_71-5);}.cls-6{opacity:0.3;}.cls-7{fill:url(#未命名的渐变_71-6);}.cls-8{fill:url(#未命名的渐变_71-7);}.cls-9{fill:url(#未命名的渐变_71-8);}.cls-10{fill:url(#未命名的渐变_71-9);}.cls-11{fill:url(#未命名的渐变_71-10);}</style><linearGradient id="未命名的渐变_71" x1="1336.9" y1="1442.04" x2="1292.17" y2="33.99" gradientUnits="userSpaceOnUse"><stop offset="0" stop-color="#a0821f"/><stop offset="0.36" stop-color="#818b48"/><stop offset="1" stop-color="#439e9b"/></linearGradient><linearGradient id="未命名的渐变_71-2" x1="1286.05" y1="1440.46" x2="1249.01" y2="274.56" xlink:href="#未命名的渐变_71"/><linearGradient id="未命名的渐变_71-3" x1="962.31" y1="1396.49" x2="931.8" y2="436.03" xlink:href="#未命名的渐变_71"/><linearGradient id="未命名的渐变_71-4" x1="840.95" y1="1400.87" x2="816.32" y2="625.56" xlink:href="#未命名的渐变_71"/><linearGradient id="未命名的渐变_71-5" x1="841" y1="1347.9" x2="821.65" y2="738.87" xlink:href="#未命名的渐变_71"/><linearGradient id="未命名的渐变_71-6" x1="1336.03" y1="21520.09" x2="1312.28" y2="20772.58" gradientTransform="matrix(1, 0, 0, -1, 0, 22831.54)" xlink:href="#未命名的渐变_71"/><linearGradient id="未命名的渐变_71-7" x1="1284.77" y1="21506.79" x2="1265.76" y2="20908.38" gradientTransform="matrix(1, 0, 0, -1, 0, 22831.54)" xlink:href="#未命名的渐变_71"/><linearGradient id="未命名的渐变_71-8" x1="961.03" y1="21484.23" x2="945.3" y2="20989.1" gradientTransform="matrix(1, 0, 0, -1, 0, 22831.54)" xlink:href="#未命名的渐变_71"/><linearGradient id="未命名的渐变_71-9" x1="840.27" y1="21488.32" x2="827.45" y2="21084.86" gradientTransform="matrix(1, 0, 0, -1, 0, 22831.54)" xlink:href="#未命名的渐变_71"/><linearGradient id="未命名的渐变_71-10" x1="840.28" y1="21459.93" x2="830.24" y2="21144.01" gradientTransform="matrix(1, 0, 0, -1, 0, 22831.54)" xlink:href="#未命名的渐变_71"/></defs><title>Middle5_Mountain</title><g id="图层_2" data-name="图层 2"><g id="图层_4" data-name="图层 4"><path class="cls-1" d="M0,1332.51,148,675.77V402.89l111-148,55.5,101.75,106.37-333S1336.62-4.11,1350.49.52s235.87,337.62,235.87,337.62l194.25,453.25,314.5,277.5,467.12,120.25L2668.61,1388H1951.74l-971.25,69.37L55.5,1425Z"/><polygon class="cls-2" points="106.37 1411.13 83.25 1346.38 226.62 629.51 226.62 486.14 300.62 426.02 344.65 453.77 448.62 291.89 1313.49 241.02 1489.24 495.39 1604.86 879.26 2030.36 1166.01 2400.36 1290.89 2483.61 1369.51 1910.11 1374.13 1003.62 1452.76 106.37 1411.13"/><polygon class="cls-3" points="180.37 1357.69 157.25 1297.56 344.65 608.44 402.37 608.44 485.62 432.69 1239.49 400.32 1378.24 599.19 1470.74 955.32 1725.78 1228.19 1762.11 1329.94 1382.87 1357.69 959.68 1399.31 180.37 1357.69"/><polygon class="cls-4" points="263.62 1366.94 263.62 1316.06 430.12 756.44 494.87 728.69 550.37 613.07 1211.74 613.07 1283.43 776.99 1368.99 1029.32 1415.24 1339.19 959.68 1399.31 513.37 1366.94 263.62 1366.94"/><polygon class="cls-5" points="344.65 1311.44 490.25 899.82 624.37 728.69 1137.74 776.99 1230.24 983.07 1334.3 1288.31 878.74 1348.44 490.25 1348.44 344.65 1311.44"/><g class="cls-6"><path class="cls-7" d="M0,1380.09l148,336.55v139.84l111,75.84,55.5-52.14,106.37,170.65s915.75,14.22,929.62,11.85,235.87-173,235.87-173l194.25-232.27,314.5-142.2,467.12-61.63,106.38-101.91H1951.74L980.49,1316.1l-925,16.59Z"/><polygon class="cls-8" points="106.37 1339.8 83.25 1372.98 226.62 1740.35 226.62 1813.82 300.62 1844.63 344.65 1830.41 448.62 1913.36 1313.49 1939.43 1489.24 1809.08 1604.86 1612.36 2030.36 1465.41 2400.36 1401.42 2483.61 1361.13 1910.11 1358.76 1003.62 1318.47 106.37 1339.8"/><polygon class="cls-9" points="180.37 1367.19 157.25 1398 344.65 1751.14 402.37 1751.14 485.62 1841.21 1239.49 1857.8 1378.24 1755.88 1470.74 1573.39 1725.78 1433.55 1762.11 1381.41 1382.87 1367.19 959.68 1345.86 180.37 1367.19"/><polygon class="cls-10" points="263.62 1362.45 263.62 1388.52 430.12 1675.3 494.87 1689.52 550.37 1748.77 1211.74 1748.77 1283.43 1664.77 1368.99 1535.47 1415.24 1376.67 959.68 1345.86 513.37 1362.45 263.62 1362.45"/><polygon class="cls-11" points="344.65 1390.89 490.25 1601.83 624.37 1689.52 1137.74 1664.77 1230.24 1559.17 1334.3 1402.74 878.74 1371.93 490.25 1371.93 344.65 1390.89"/></g></g></g></svg>