<?xml version="1.0" encoding="utf-8"?>
<!-- Generator: Adobe Illustrator 22.1.0, SVG Export Plug-In . SVG Version: 6.00 Build 0)  -->
<svg version="1.1" id="图层_1" xmlns="http://www.w3.org/2000/svg" xmlns:xlink="http://www.w3.org/1999/xlink" x="0px" y="0px"
	 viewBox="0 0 5705.3 5676.4" style="enable-background:new 0 0 5705.3 5676.4;" xml:space="preserve">
<style type="text/css">
	.st0{fill:url(#SVGID_1_);}
	.st1{opacity:0.3;fill:url(#SVGID_2_);enable-background:new    ;}
	.st2{fill:url(#SVGID_3_);}
	.st3{fill:url(#SVGID_4_);}
	.st4{fill:url(#SVGID_5_);}
	.st5{fill:url(#SVGID_6_);}
	.st6{fill:url(#SVGID_7_);}
	.st7{fill:url(#SVGID_8_);}
	.st8{fill:url(#SVGID_9_);}
	.st9{fill:url(#SVGID_10_);}
	.st10{fill:url(#SVGID_11_);}
	.st11{fill:#9E6764;}
	.st12{fill:#5A5858;}
	.st13{fill:#EEECBC;}
	.st14{fill:#6A6B56;}
	.st15{fill:#4B4334;}
	.st16{fill:#D3D3D4;}
	.st17{fill:#4D4B63;}
	.st18{fill:#8A7A73;}
	.st19{fill:#C4C4B7;}
	.st20{fill:#A5A99A;}
	.st21{fill:url(#SVGID_12_);}
	.st22{fill:url(#SVGID_13_);}
	.st23{fill:url(#SVGID_14_);}
	.st24{fill:url(#SVGID_15_);}
	.st25{fill:url(#SVGID_16_);}
	.st26{fill:#614D3F;}
	.st27{fill:#556C7E;}
	.st28{fill:none;stroke:#A49A81;stroke-width:20;stroke-miterlimit:10;}
</style>
<title>Middle2</title>
<g id="图层_2_1_">
	<g id="图层_10">
		
			<linearGradient id="SVGID_1_" gradientUnits="userSpaceOnUse" x1="2760.9832" y1="1050.9099" x2="2770.3333" y2="3165.6396" gradientTransform="matrix(1 0 0 -1 0 5676)">
			<stop  offset="0" style="stop-color:#A0821F"/>
			<stop  offset="0.32" style="stop-color:#9E8321"/>
			<stop  offset="0.49" style="stop-color:#988429"/>
			<stop  offset="0.62" style="stop-color:#8E8737"/>
			<stop  offset="0.74" style="stop-color:#808C4A"/>
			<stop  offset="0.84" style="stop-color:#6D9163"/>
			<stop  offset="0.93" style="stop-color:#579881"/>
			<stop  offset="1" style="stop-color:#439E9B"/>
		</linearGradient>
		<path class="st0" d="M4523.1,2468.1l-209.3-18.3l-1497,117.2l-675.7,524l-174.9,325.3l-393.4,163.9h-360.7l-355.1,235
			c0,0-107.8,87.4-187.8,125.7S386,4168,386,4168l-48.1,203.3L977.2,4531l2049.2,65.6l961.8-60.1l938.6-115.1l263.5-952.3
			L4523.1,2468.1z"/>
		
			<linearGradient id="SVGID_2_" gradientUnits="userSpaceOnUse" x1="2764.4294" y1="-3421.0701" x2="2771.1196" y2="-1908.5903" gradientTransform="matrix(1 0 0 1 0 7543.6299)">
			<stop  offset="0" style="stop-color:#A0821F"/>
			<stop  offset="0.32" style="stop-color:#9E8321"/>
			<stop  offset="0.49" style="stop-color:#988429"/>
			<stop  offset="0.62" style="stop-color:#8E8737"/>
			<stop  offset="0.74" style="stop-color:#808C4A"/>
			<stop  offset="0.84" style="stop-color:#6D9163"/>
			<stop  offset="0.93" style="stop-color:#579881"/>
			<stop  offset="1" style="stop-color:#439E9B"/>
		</linearGradient>
		<path class="st1" d="M4523.1,5663.3l-209.3,13.1l-1497-83.7l-675.7-374.4l-174.9-232.4l-393.4-117.1h-360.7L857,4700.9
			c0,0-107.8-62.5-187.8-89.8s-287.6-89.8-287.6-89.8l-38.4-166.1l634-165.8l2049.2-46.9l961.8,43l938.6,82.3l263.5,680.4
			L4523.1,5663.3z"/>
		
			<linearGradient id="SVGID_3_" gradientUnits="userSpaceOnUse" x1="2876.1238" y1="1244.98" x2="2882.1235" y2="2602.7" gradientTransform="matrix(1 0 0 -1 0 5676)">
			<stop  offset="0" style="stop-color:#A0821F"/>
			<stop  offset="0.15" style="stop-color:#98842A"/>
			<stop  offset="0.41" style="stop-color:#828B47"/>
			<stop  offset="0.75" style="stop-color:#5F9575"/>
			<stop  offset="1" style="stop-color:#439E9B"/>
		</linearGradient>
		<path class="st2" d="M537.2,4352.7l-26.8-184.4l405.2-278.1c0,0,370.2-166.1,381.7-183.5s567.4-90.1,567.4-90.1l651.4-357.1
			l760.9,36.1l346.8,290.8l139.6-325c0,0,816.2-223.6,845.8-223.6s461.6,191.1,492.2,194.9s145.3,363.1,145.3,363.1L5070.8,3871
			l3.8,332.6l-72.6,217.8L537.2,4352.7z"/>
		
			<linearGradient id="SVGID_4_" gradientUnits="userSpaceOnUse" x1="4325.1216" y1="1157.25" x2="4330.9116" y2="2467.8501" gradientTransform="matrix(1 0 0 -1 0 5676)">
			<stop  offset="0" style="stop-color:#A0821F"/>
			<stop  offset="0.16" style="stop-color:#9C8324"/>
			<stop  offset="0.34" style="stop-color:#918633"/>
			<stop  offset="0.55" style="stop-color:#7F8C4B"/>
			<stop  offset="0.76" style="stop-color:#66936C"/>
			<stop  offset="0.98" style="stop-color:#469D97"/>
			<stop  offset="1" style="stop-color:#439E9B"/>
		</linearGradient>
		<polygon class="st3" points="3847.4,4498.3 3735.4,4144 3654.6,3888.6 3739.1,3513.5 4098.5,3254.5 4469.5,3167 4706.8,3287.3 
			4915,3522.2 4794.6,3877.4 4883.1,4232.6 4998.9,4432.1 4261.2,4474.5 		"/>
		
			<linearGradient id="SVGID_5_" gradientUnits="userSpaceOnUse" x1="4304.9863" y1="1177.6603" x2="4309.4766" y2="2194.3003" gradientTransform="matrix(1 0 0 -1 0 5676)">
			<stop  offset="0" style="stop-color:#A0821F"/>
			<stop  offset="0.16" style="stop-color:#9C8324"/>
			<stop  offset="0.34" style="stop-color:#918633"/>
			<stop  offset="0.55" style="stop-color:#7F8C4B"/>
			<stop  offset="0.76" style="stop-color:#66936C"/>
			<stop  offset="0.98" style="stop-color:#469D97"/>
			<stop  offset="1" style="stop-color:#439E9B"/>
		</linearGradient>
		<path class="st4" d="M4041.3,4482.9l-141.6-273.2l-85.6-267.8l80.1-316.9l308.8-139l289.1-35.9c0,0,202.7,76.5,204,103.8
			s76.2,163.9,76.2,163.9l-75.8,278.7l14.1,284.2l87.9,147.5l-228.5,32.8l-339.1,21.9H4041.3z"/>
		
			<linearGradient id="SVGID_6_" gradientUnits="userSpaceOnUse" x1="4330.3604" y1="1212.79" x2="4333.7007" y2="1967.5601" gradientTransform="matrix(1 0 0 -1 0 5676)">
			<stop  offset="0" style="stop-color:#A0821F"/>
			<stop  offset="0.16" style="stop-color:#9C8324"/>
			<stop  offset="0.34" style="stop-color:#918633"/>
			<stop  offset="0.55" style="stop-color:#7F8C4B"/>
			<stop  offset="0.76" style="stop-color:#66936C"/>
			<stop  offset="0.98" style="stop-color:#469D97"/>
			<stop  offset="1" style="stop-color:#439E9B"/>
		</linearGradient>
		<path class="st5" d="M4102.5,4450.1l-120.8-289.6v-290.7l92.9-108.2l221.7-76.5h195.8l144.2,131.1v207.6l-31.4,202.2l76.9,191.3
			l-209.3,32.8c0,0-202.8,5.5-207.5,0S4102.5,4450.1,4102.5,4450.1z"/>
		
			<linearGradient id="SVGID_7_" gradientUnits="userSpaceOnUse" x1="4337.6714" y1="1255.3397" x2="4340.1812" y2="1825.1598" gradientTransform="matrix(1 0 0 -1 0 5676)">
			<stop  offset="0" style="stop-color:#A0821F"/>
			<stop  offset="0.16" style="stop-color:#9C8324"/>
			<stop  offset="0.34" style="stop-color:#918633"/>
			<stop  offset="0.55" style="stop-color:#7F8C4B"/>
			<stop  offset="0.76" style="stop-color:#66936C"/>
			<stop  offset="0.98" style="stop-color:#469D97"/>
			<stop  offset="1" style="stop-color:#439E9B"/>
		</linearGradient>
		<path class="st6" d="M4158.5,4411.9c0,0-39.1-251.4-56-284.2s73.1-218.6,73.1-218.6l155.2-76.5l130.5,133.9l19.6,183.1l89.3,125.7
			c0,0,14.6,92.9,0,98.4s-178.6,5.5-178.6,5.5l-126.5,5.5L4158.5,4411.9z"/>
		
			<linearGradient id="SVGID_8_" gradientUnits="userSpaceOnUse" x1="2262.4504" y1="1144.7202" x2="2267.3706" y2="2256.6101" gradientTransform="matrix(1 0 0 -1 0 5676)">
			<stop  offset="0" style="stop-color:#A0821F"/>
			<stop  offset="0.15" style="stop-color:#98842A"/>
			<stop  offset="0.41" style="stop-color:#828B47"/>
			<stop  offset="0.75" style="stop-color:#5F9575"/>
			<stop  offset="1" style="stop-color:#439E9B"/>
		</linearGradient>
		<polygon class="st7" points="3856.8,4522.7 3658.6,3920.6 3324.6,3566.7 2931.3,3386.9 2476.3,3561.1 2178.5,3864.6 
			1774.1,4063.6 847.1,4117 669.2,4291.4 706.6,4406.7 854.1,4498.6 		"/>
		
			<linearGradient id="SVGID_9_" gradientUnits="userSpaceOnUse" x1="2279.7625" y1="1159.3901" x2="2283.9724" y2="2110.78" gradientTransform="matrix(1 0 0 -1 0 5676)">
			<stop  offset="0" style="stop-color:#A0821F"/>
			<stop  offset="0.15" style="stop-color:#98842A"/>
			<stop  offset="0.41" style="stop-color:#828B47"/>
			<stop  offset="0.75" style="stop-color:#5F9575"/>
			<stop  offset="1" style="stop-color:#439E9B"/>
		</linearGradient>
		<polygon class="st8" points="3739.1,4507.2 3563.1,4040.6 3290.8,3633.6 2990.1,3538.1 2473.2,3701 2287.8,4040.6 1844.2,4156 
			1080,4217.8 821.5,4274 984.5,4454.7 1254.1,4454.7 1945.1,4454.7 3169.9,4507.2 		"/>
		
			<linearGradient id="SVGID_10_" gradientUnits="userSpaceOnUse" x1="2533.3164" y1="1185.4399" x2="2536.2664" y2="1853.7" gradientTransform="matrix(1 0 0 -1 0 5676)">
			<stop  offset="0" style="stop-color:#A0821F"/>
			<stop  offset="0.15" style="stop-color:#98842A"/>
			<stop  offset="0.41" style="stop-color:#828B47"/>
			<stop  offset="0.75" style="stop-color:#5F9575"/>
			<stop  offset="1" style="stop-color:#439E9B"/>
		</linearGradient>
		<polygon class="st9" points="3557.2,4482.9 3465.1,4122.3 3161.7,3832.6 2816.8,3802.3 2516.2,3914.6 2481.9,4142.6 
			2341.5,4324.7 1510,4369.7 1774.1,4452.6 2408.9,4452.6 2925.7,4482.9 		"/>
		
			<linearGradient id="SVGID_11_" gradientUnits="userSpaceOnUse" x1="2944.1436" y1="1250.98" x2="2946.0637" y2="1684.8701" gradientTransform="matrix(1 0 0 -1 0 5676)">
			<stop  offset="0" style="stop-color:#A0821F"/>
			<stop  offset="0.15" style="stop-color:#98842A"/>
			<stop  offset="0.41" style="stop-color:#828B47"/>
			<stop  offset="0.75" style="stop-color:#5F9575"/>
			<stop  offset="1" style="stop-color:#439E9B"/>
		</linearGradient>
		<polygon class="st10" points="3372.5,4420.8 3313.4,4173 3110.7,3978 2689.8,4050.9 2566.2,4182.3 2516.2,4347.2 2781.2,4336 
			2993.1,4341.6 3167.3,4386.5 		"/>
	</g>
	<g id="图层_11">
		<polygon class="st11" points="2666,2585.9 2697.7,2604 2718.1,2658.8 2677.4,2708.1 2652.1,2689.7 2660.3,2642.5 2652.1,2607.8 
			2652.1,2585.9 		"/>
		<polygon class="st11" points="2588.3,2592.1 2560.4,2622.7 2555.1,2666.3 2557.1,2714.7 2578.9,2733.9 2595.5,2733.9 
			2591.7,2765.5 2591.7,2814.1 2581.9,2847.6 2622.5,2867 2667.4,2857.9 2689.9,2848.8 2689.9,2781.3 2693.1,2724.2 2693.1,2690.1 
			2689.3,2643.3 2670,2606.3 2650.8,2585 2633.4,2577.1 		"/>
		<path class="st12" d="M2539.6,2561.8c1.3,0.2,108.6-24.6,108.6-24.6l3.8,9.4l-3.7,7.3l-96.5,15.6L2539.6,2561.8z"/>
		<path class="st12" d="M2627.2,2540.2l-18.5-13.9l-37.8,14.8c0,0,5.1,26.8,6.8,26.5s16.9,13,16.9,13L2627.2,2540.2z"/>
		<polygon class="st13" points="2589.5,2562.2 2598,2590.5 2621.6,2599.4 2633.9,2576.6 2626,2540 2601.9,2544.6 		"/>
		<polygon class="st12" points="2573.3,2548 2570.8,2518.8 2591.5,2509.3 2603.7,2532.4 		"/>
		<polygon class="st14" points="2616.3,2594.4 2618.8,2615.7 2625.2,2629.7 2633.9,2612.1 2633.9,2594.4 2627.8,2585.9 		"/>
		<polygon class="st13" points="2670,2606.3 2645.2,2599.1 2635.5,2596 2628,2606.1 2628,2612.1 2645.8,2612.1 2653.6,2614.8 
			2657.8,2617.5 2672.8,2620.1 		"/>
		<path class="st15" d="M3628.6,3034.6l-2.2,34.7l-25.7,5.6c0,0,10.7,62.8,10.8,64.1s20,7.2,20,7.2l18.1,1.2l16-10.4l2.2-17.3
			l-2.5-54.8l-27.8,1.9l-3.7-32.8L3628.6,3034.6z"/>
		<path class="st15" d="M3864.8,3028l-2.2,34.7l-25.7,5.6c0,0,10.7,62.8,10.8,64.1s20,7.2,20,7.2l18.1,1.2l16-10.4l2.2-17.3
			l-2.5-54.9l-27.8,1.9l-3.8-32.8L3864.8,3028z"/>
		<polygon class="st16" points="3703.1,3111.9 3706.5,3145.2 3704.6,3162.9 3704.6,3183.1 3703.7,3206 3709.8,3208.9 3716.5,3206.2 
			3732.1,3158.6 3733.3,3127 3739.3,3159.4 3746,3206.1 3754,3207.4 3761.5,3202 3762.8,3149.7 3758.1,3117.1 3728,3109.4 		"/>
		<polygon class="st17" points="3724.4,3027.5 3710.6,3030.9 3694.1,3051 3690.7,3030.8 3676.6,3029.8 3673,3060.7 3682.6,3081.9 
			3698.4,3088 3710.5,3071.1 3701.3,3110.8 3716.4,3119.4 3752.9,3120.6 3758.1,3117.1 3761.8,3061.1 3773.6,3079 3793.6,3070.3 
			3813.6,3031.6 3799.6,3028.4 3784.1,3053.6 3767.9,3040 3761.9,3029.7 3751.4,3028.7 		"/>
		<path class="st18" d="M3613.2,3037.4c1.8-0.2,91.2-8.2,91.2-8.2l83.7-1.2l84.7,4l5.1-4.6l-4.3-5.5l-78.3-3.8l-87,0.2l-87.7,8.5
			l-10.3,4.2L3613.2,3037.4z"/>
		<polygon class="st13" points="3728.9,2998.3 3726.1,3029.1 3740,3040.5 3758.2,3032.9 3766.6,3010.9 3759.1,2990.1 3737,2985.7 		
			"/>
		<path class="st14" d="M3728.7,3007.9l-10.7-8.7l10.7-16.3l34.3-2.3l13.6,9.4l-6.7,7.9c-1.9,1.9-3.8,3.8-5.9,5.5
			C3762.8,3004,3728.7,3007.9,3728.7,3007.9z"/>
		<polygon class="st19" points="2993.2,2931.8 2991.9,2967.8 2957,2966.5 2946.2,2957.6 2944.3,2946.8 2952.5,2932.8 2969.9,2930.3 
					"/>
		<path class="st15" d="M3098.9,2943.1l-110.4,2.5l-4.3,5.2l1.9,3.6c0,0,11.7,1.1,12.4,0.5s88.4-4.2,88.4-4.2l11.7,0.5l6.4-3.1
			l-0.7-4.8L3098.9,2943.1z"/>
		<polygon class="st16" points="3001.5,3039.7 3007.6,3072.6 3007.2,3090.4 3008.9,3110.5 3009.8,3133.5 3016.2,3135.8 
			3022.7,3132.6 3034.2,3083.9 3032.7,3052.3 3041.4,3084.1 3052,3130.1 3060.1,3130.6 3067.1,3124.6 3064.1,3072.4 3056.6,3040.4 
			3026,3035.1 		"/>
		<polygon class="st20" points="3015.6,2953.9 3002.2,2958.4 2985,2981.2 2976,3007.1 2974.6,3036.3 2980.5,3056.5 2990.5,3051 
			2992.2,3020.5 3005.4,2998.5 2999.5,3038.8 3015.3,3046.1 3051.8,3044.2 3056.6,3040.4 3055.7,2984.2 3069,3001.1 3088.1,2990.7 
			3104.8,2950.6 3089.6,2950.6 3077.3,2974.9 3060.1,2962.7 3053.2,2952.9 3042.6,2952.8 		"/>
		<polygon class="st13" points="3017.7,2924.3 3017.5,2955.3 3032.2,2965.5 3049.8,2956.4 3056.3,2933.8 3047.1,2913.7 
			3024.7,2911.1 		"/>
		<path class="st14" d="M3018.3,2934l-11.4-7.8l9.3-17.2l33.9-5.2l14.3,8.2l-6,8.5c-1.7,2.1-3.5,4.1-5.4,6
			C3052,2927.2,3018.3,2934,3018.3,2934z"/>
		<path class="st15" d="M990.3,3573.4l-2.2,34.7l-25.7,5.6c0,0,10.7,62.8,10.8,64.1s20,7.2,20,7.2l18.1,1.2l16-10.4l2.2-17.3
			l-2.5-54.9l-27.8,1.9l-3.8-32.8L990.3,3573.4z"/>
		<path class="st15" d="M1226.5,3566.7l-2.2,34.7l-25.7,5.7c0,0,10.7,62.8,10.8,64.1s20,7.2,20,7.2l18.1,1.2l16-10.4l2.2-17.3
			l-2.5-54.9l-27.8,1.9l-3.7-32.8L1226.5,3566.7z"/>
		<polygon class="st16" points="1064.8,3650.6 1068.2,3684 1066.3,3701.7 1066.3,3721.8 1065.4,3744.8 1071.5,3747.7 1078.2,3745 
			1093.8,3697.4 1094.9,3665.8 1100.9,3698.2 1107.7,3744.9 1115.7,3746.2 1123.2,3740.7 1124.5,3688.4 1119.8,3655.9 
			1089.7,3648.1 		"/>
		<polygon class="st20" points="1086.1,3566.3 1072.3,3569.7 1055.8,3589.8 1052.4,3569.6 1038.3,3568.6 1034.7,3599.4 
			1044.2,3620.6 1060.1,3626.8 1072.2,3609.9 1062.9,3649.6 1078.1,3658.2 1114.6,3659.3 1119.8,3655.9 1123.4,3599.8 
			1135.3,3617.8 1155.2,3609 1175.2,3570.4 1161.3,3567.2 1145.7,3592.3 1129.6,3578.8 1123.6,3568.5 1113.1,3567.5 		"/>
		<path class="st18" d="M974.9,3576.2c1.8-0.2,91.2-8.2,91.2-8.2l83.7-1.2l84.7,4l5.1-4.6l-4.3-5.5l-78.3-3.8l-87,0.2l-87.7,8.5
			l-10.3,4.2L974.9,3576.2z"/>
		<polygon class="st13" points="1090.6,3537.1 1087.8,3567.9 1101.6,3579.3 1119.9,3571.7 1128.3,3549.7 1120.8,3528.9 
			1098.7,3524.5 		"/>
		<path class="st14" d="M1090.3,3546.7l-10.7-8.7l10.7-16.4l34.2-2.3l13.6,9.4l-6.7,7.9c0,0-4.8,4.9-5.9,5.5
			S1090.3,3546.7,1090.3,3546.7z"/>
	</g>
	<g id="图层_8">
		
			<linearGradient id="SVGID_12_" gradientUnits="userSpaceOnUse" x1="3974.4011" y1="3876.7905" x2="4001.7004" y2="5530.0361" gradientTransform="matrix(0.993 0.1181 0.1181 -0.993 -352.9892 5059.5845)">
			<stop  offset="0" style="stop-color:#D49600"/>
			<stop  offset="0.1" style="stop-color:#CE9607"/>
			<stop  offset="0.24" style="stop-color:#BF971C"/>
			<stop  offset="0.42" style="stop-color:#A6993E"/>
			<stop  offset="0.62" style="stop-color:#839B6D"/>
			<stop  offset="0.84" style="stop-color:#569EA9"/>
			<stop  offset="1" style="stop-color:#31A0DB"/>
		</linearGradient>
		<polygon class="st21" points="4870.5,300.2 4811.5,568.3 4614,759.1 4411.9,886.7 4325.3,1114.7 4148.9,1648.8 4039.5,1677.5 
			3996.8,1664.1 4004.9,1569.2 3889.5,1587.8 3834.9,1613.3 3743.6,1584.7 3711.1,1558.6 3692.8,1406.9 3644.7,1418.5 
			3795.3,1024.6 3809.5,782.6 3689.6,557.5 3609.9,273.8 3741.1,81.3 3973.9,0 4204.9,154.4 4246.3,337.9 4349.6,274.8 
			4517.7,187.2 4733.4,218.3 		"/>
		
			<linearGradient id="SVGID_13_" gradientUnits="userSpaceOnUse" x1="4200.1475" y1="4015.3484" x2="4224.3574" y2="5481.5303" gradientTransform="matrix(1 0 0 -1 0 5676)">
			<stop  offset="0" style="stop-color:#D49600"/>
			<stop  offset="0.1" style="stop-color:#CE9607"/>
			<stop  offset="0.24" style="stop-color:#BF971C"/>
			<stop  offset="0.42" style="stop-color:#A6993E"/>
			<stop  offset="0.62" style="stop-color:#839B6D"/>
			<stop  offset="0.84" style="stop-color:#569EA9"/>
			<stop  offset="1" style="stop-color:#31A0DB"/>
		</linearGradient>
		<polygon class="st22" points="3687.7,1387.9 3830.4,1023.6 3853.1,782.9 3749.4,545.5 3707.2,285.2 3820.7,194.2 4008.8,190.9 
			4203.3,386.1 4456.3,308 4618.4,295 4712.5,451.1 4735.1,565 4566.5,734.1 4397.9,835 4139.4,1642.8 4034.7,1657.9 4025,1531.1 
			3856.4,1570.1 3827.2,1596.1 3742.9,1544.1 3729.9,1495.3 3707.2,1394.4 		"/>
		
			<linearGradient id="SVGID_14_" gradientUnits="userSpaceOnUse" x1="4163.8843" y1="4055.1792" x2="4184.6445" y2="5312.1787" gradientTransform="matrix(1 0 0 -1 0 5676)">
			<stop  offset="0" style="stop-color:#D49600"/>
			<stop  offset="0.1" style="stop-color:#CE9607"/>
			<stop  offset="0.24" style="stop-color:#BF971C"/>
			<stop  offset="0.42" style="stop-color:#A6993E"/>
			<stop  offset="0.62" style="stop-color:#839B6D"/>
			<stop  offset="0.84" style="stop-color:#569EA9"/>
			<stop  offset="1" style="stop-color:#31A0DB"/>
		</linearGradient>
		<polygon class="st23" points="3751.8,1382.3 3878.4,1031.5 3900.4,825 3822.3,515.7 3840.7,386 3993.9,360.7 4193,506.2 
			4511.6,423.9 4597.4,559.9 4545.3,699.1 4370.7,841.4 4128.6,1556.2 4082.7,1619.5 4070.4,1540.4 4003,1515.1 3859,1556.2 
			3779.4,1527.8 		"/>
		
			<linearGradient id="SVGID_15_" gradientUnits="userSpaceOnUse" x1="4068.9019" y1="4062.22" x2="4081.1819" y2="5098.8101" gradientTransform="matrix(1 0 0 -1 0 5676)">
			<stop  offset="0" style="stop-color:#D49600"/>
			<stop  offset="0.1" style="stop-color:#CE9607"/>
			<stop  offset="0.24" style="stop-color:#BF971C"/>
			<stop  offset="0.42" style="stop-color:#A6993E"/>
			<stop  offset="0.62" style="stop-color:#839B6D"/>
			<stop  offset="0.84" style="stop-color:#569EA9"/>
			<stop  offset="1" style="stop-color:#31A0DB"/>
		</linearGradient>
		<polygon class="st24" points="3716.8,1464.2 3937.7,913.1 3937.7,815.3 3896,600.4 3979.4,557.4 4129.4,647.3 4387.8,592.6 
			4433.7,694.2 4350.3,815.3 4317.5,986.3 4125.3,1630.3 4019,1655.3 4010.7,1533.6 3858.5,1569.7 3808.5,1577.5 3737.6,1554.1 		
			"/>
		
			<linearGradient id="SVGID_16_" gradientUnits="userSpaceOnUse" x1="4091.5913" y1="4170.082" x2="3812.9614" y2="2783.6719" gradientTransform="matrix(0.9946 -0.1038 -0.1038 -0.9946 215.4734 6136.978)">
			<stop  offset="0" style="stop-color:#D49600"/>
			<stop  offset="0.14" style="stop-color:#C29718"/>
			<stop  offset="0.44" style="stop-color:#939A57"/>
			<stop  offset="0.86" style="stop-color:#4A9EBA"/>
			<stop  offset="1" style="stop-color:#31A0DB"/>
		</linearGradient>
		<polygon class="st25" points="4328.4,2642.8 4356.9,2871.3 4248.5,3032.4 4065.6,3097.2 3907.1,3017.4 3769.6,2827.2 
			3552.7,2986.5 3350.9,2995.4 3212.3,2912.9 3110.7,2755.6 3171,2595.2 3311.8,2462.5 3463.1,2344.8 3588.4,1628.2 3606.8,1500.3 
			3651.2,1478.4 3702.5,1622.3 3740,1640.6 3835.3,1648.4 3883,1611.5 3991.4,1567.9 4004.4,1662.2 4049,1665.9 4149.5,1613.8 
			4143.6,1673.7 4063.1,2238.7 4173.3,2467.3 		"/>
		<polygon class="st26" points="4328,3088.2 4323.3,3091 4091.2,2612.7 4095.9,2609.8 		"/>
		<polygon class="st26" points="4400.1,3045.3 4395.4,3048.2 4163.2,2569.8 4168,2567 		"/>
		<polygon class="st26" points="4194.7,2604.2 4106.6,2656.6 4103.2,2649.5 4191.2,2597.1 		"/>
		<polygon class="st26" points="4217.9,2657.7 4138.2,2725.2 4134.1,2718.6 4213.8,2651.1 		"/>
		<polygon class="st26" points="4254.9,2730.3 4163.5,2775.3 4160.5,2768 4251.9,2723.1 		"/>
		<polygon class="st26" points="4285,2791.6 4197,2844 4193.5,2836.9 4281.5,2784.6 		"/>
		<polygon class="st26" points="4313.8,2857.2 4227.9,2913.8 4224.3,2906.8 4310.2,2850.3 		"/>
		<polygon class="st26" points="4347.9,2923.5 4257.7,2971.1 4254.5,2964 4344.7,2916.4 		"/>
		<polygon class="st26" points="4375.4,2980.9 4289.6,3037.7 4286,3030.8 4371.8,2974 		"/>
		<polygon class="st26" points="4073.6,2546 4068.3,2547.3 3988.1,2021.7 3993.5,2020.4 		"/>
		<polygon class="st26" points="4155.1,2526.4 4149.8,2527.7 4069.6,2002 4075,2000.7 		"/>
		<polygon class="st26" points="4089.5,2044.2 3989.9,2068.2 3988.7,2060.4 4088.3,2036.5 		"/>
		<polygon class="st26" points="4095.8,2102.2 3999.7,2143.1 3997.8,2135.6 4093.9,2094.7 		"/>
		<polygon class="st26" points="4109.7,2182.5 4009.1,2198.4 4008.3,2190.6 4108.9,2174.7 		"/>
		<polygon class="st26" points="4120.3,2249.9 4020.7,2273.9 4019.5,2266.2 4119.1,2242.2 		"/>
		<polygon class="st26" points="4128.4,2321.1 4029.6,2349.7 4028.2,2342.1 4127,2313.5 		"/>
		<polygon class="st26" points="4141.4,2394.6 4041.1,2413.4 4040.1,2405.6 4140.4,2386.8 		"/>
		<polygon class="st26" points="4150.6,2457.5 4051.9,2486.4 4050.4,2478.7 4149.2,2449.9 		"/>
		
			<ellipse transform="matrix(0.3827 -0.9239 0.9239 0.3827 1152.6686 4049.5435)" class="st27" cx="3606.6" cy="1162.2" rx="39.8" ry="21.3"/>
		
			<rect x="3674.9" y="1116.4" transform="matrix(0.3827 -0.9239 0.9239 0.3827 1172.8 4150.7378)" class="st27" width="35" height="162.7"/>
		
			<ellipse transform="matrix(0.9983 -5.843522e-02 5.843522e-02 0.9983 -104.3988 249.735)" class="st27" cx="4217.9" cy="1909.9" rx="21.3" ry="39.8"/>
		
			<rect x="4043.8" y="1897.8" transform="matrix(0.9983 -5.843519e-02 5.843519e-02 0.9983 -104.8703 244.3252)" class="st27" width="162.7" height="35"/>
		<path class="st28" d="M4141.9,1895.2c41,100.8,116.4,246.8,255.1,382.7c289.9,284,1532.8,1174.2,6620.5,1144.9"/>
	</g>
	<g id="图层_12">
		<path class="st28" d="M3660.8,1166.5c-70.3,205.8-369.7,737.9-1049.7,1189C739.7,3305.8-1965,3539.7-5339,3525.1"/>
	</g>
</g>
</svg>
