<svg xmlns="http://www.w3.org/2000/svg" xmlns:xlink="http://www.w3.org/1999/xlink" viewBox="0 0 5705.34 5676.38"><defs><style>.cls-1{fill:url(#未命名的渐变_201);}.cls-2{opacity:0.3;fill:url(#未命名的渐变_201-2);}.cls-3{fill:url(#未命名的渐变_206);}.cls-4{fill:url(#未命名的渐变_202);}.cls-5{fill:url(#未命名的渐变_202-2);}.cls-6{fill:url(#未命名的渐变_202-3);}.cls-7{fill:url(#未命名的渐变_202-4);}.cls-8{fill:url(#未命名的渐变_206-2);}.cls-9{fill:url(#未命名的渐变_206-3);}.cls-10{fill:url(#未命名的渐变_206-4);}.cls-11{fill:url(#未命名的渐变_206-5);}.cls-12{fill:#9e6764;}.cls-13{fill:#5a5858;}.cls-14{fill:#eeecbc;}.cls-15{fill:#6a6b56;}.cls-16{fill:#4b4334;}.cls-17{fill:#d3d3d4;}.cls-18{fill:#4d4b63;}.cls-19{fill:#8a7a73;}.cls-20{fill:#c4c4b7;}.cls-21{fill:#a5a99a;}.cls-22{fill:url(#未命名的渐变_593);}.cls-23{fill:url(#未命名的渐变_593-2);}.cls-24{fill:url(#未命名的渐变_593-3);}.cls-25{fill:url(#未命名的渐变_593-4);}.cls-26{fill:url(#未命名的渐变_212);}.cls-27{fill:#614d3f;}.cls-28{fill:#556c7e;}.cls-29{fill:none;stroke:#a49a81;stroke-miterlimit:10;stroke-width:20px;}</style><linearGradient id="未命名的渐变_201" x1="2760.93" y1="4625.09" x2="2770.28" y2="2510.36" gradientUnits="userSpaceOnUse"><stop offset="0" stop-color="#a0821f"/><stop offset="0.32" stop-color="#9e8321"/><stop offset="0.49" stop-color="#988429"/><stop offset="0.62" stop-color="#8e8737"/><stop offset="0.74" stop-color="#808c4a"/><stop offset="0.84" stop-color="#6d9163"/><stop offset="0.93" stop-color="#579881"/><stop offset="1" stop-color="#439e9b"/></linearGradient><linearGradient id="未命名的渐变_201-2" x1="2764.38" y1="5581.07" x2="2771.07" y2="4068.59" gradientTransform="matrix(1, 0, 0, -1, 0, 9703.63)" xlink:href="#未命名的渐变_201"/><linearGradient id="未命名的渐变_206" x1="2876.13" y1="4431.02" x2="2882.13" y2="3073.3" gradientUnits="userSpaceOnUse"><stop offset="0" stop-color="#a0821f"/><stop offset="0.15" stop-color="#98842a"/><stop offset="0.41" stop-color="#828b47"/><stop offset="0.75" stop-color="#5f9575"/><stop offset="1" stop-color="#439e9b"/></linearGradient><linearGradient id="未命名的渐变_202" x1="4325.12" y1="4518.75" x2="4330.91" y2="3208.15" gradientUnits="userSpaceOnUse"><stop offset="0" stop-color="#a0821f"/><stop offset="0.16" stop-color="#9c8324"/><stop offset="0.34" stop-color="#918633"/><stop offset="0.55" stop-color="#7f8c4b"/><stop offset="0.76" stop-color="#66936c"/><stop offset="0.98" stop-color="#469d97"/><stop offset="1" stop-color="#439e9b"/></linearGradient><linearGradient id="未命名的渐变_202-2" x1="4305.01" y1="4498.34" x2="4309.5" y2="3481.7" xlink:href="#未命名的渐变_202"/><linearGradient id="未命名的渐变_202-3" x1="4330.36" y1="4463.21" x2="4333.7" y2="3708.44" xlink:href="#未命名的渐变_202"/><linearGradient id="未命名的渐变_202-4" x1="4337.64" y1="4420.66" x2="4340.15" y2="3850.84" xlink:href="#未命名的渐变_202"/><linearGradient id="未命名的渐变_206-2" x1="2262.45" y1="4531.28" x2="2267.37" y2="3419.39" xlink:href="#未命名的渐变_206"/><linearGradient id="未命名的渐变_206-3" x1="2279.76" y1="4516.61" x2="2283.97" y2="3565.22" xlink:href="#未命名的渐变_206"/><linearGradient id="未命名的渐变_206-4" x1="2533.32" y1="4490.56" x2="2536.27" y2="3822.3" xlink:href="#未命名的渐变_206"/><linearGradient id="未命名的渐变_206-5" x1="2944.14" y1="4425.02" x2="2946.06" y2="3991.13" xlink:href="#未命名的渐变_206"/><linearGradient id="未命名的渐变_593" x1="4176.29" y1="1692.24" x2="4203.59" y2="38.97" gradientTransform="translate(103.93 -493.98) rotate(6.78)" gradientUnits="userSpaceOnUse"><stop offset="0" stop-color="#d49600"/><stop offset="0.1" stop-color="#ce9607"/><stop offset="0.24" stop-color="#bf971c"/><stop offset="0.42" stop-color="#a6993e"/><stop offset="0.62" stop-color="#839b6d"/><stop offset="0.84" stop-color="#569ea9"/><stop offset="1" stop-color="#31a0db"/></linearGradient><linearGradient id="未命名的渐变_593-2" x1="4200.15" y1="1660.65" x2="4224.36" y2="194.47" gradientTransform="matrix(1, 0, 0, 1, 0, 0)" xlink:href="#未命名的渐变_593"/><linearGradient id="未命名的渐变_593-3" x1="4163.88" y1="1620.82" x2="4184.64" y2="363.82" gradientTransform="matrix(1, 0, 0, 1, 0, 0)" xlink:href="#未命名的渐变_593"/><linearGradient id="未命名的渐变_593-4" x1="4068.9" y1="1613.78" x2="4081.18" y2="577.19" gradientTransform="matrix(1, 0, 0, 1, 0, 0)" xlink:href="#未命名的渐变_593"/><linearGradient id="未命名的渐变_212" x1="3904.69" y1="1580" x2="3626.06" y2="2966.41" gradientTransform="translate(-195.7 398.57) rotate(-5.96)" gradientUnits="userSpaceOnUse"><stop offset="0" stop-color="#d49600"/><stop offset="0.14" stop-color="#c29718"/><stop offset="0.44" stop-color="#939a57"/><stop offset="0.86" stop-color="#4a9eba"/><stop offset="1" stop-color="#31a0db"/></linearGradient></defs><title>Middle2</title><g id="图层_2" data-name="图层 2"><g id="图层_10" data-name="图层 10"><path class="cls-1" d="M4523.14,2468.13l-209.31-18.28L2816.83,2567,2141.1,3091,1966.24,3416.3,1572.8,3580.23H1212.14L857,3815.21s-107.77,87.43-187.77,125.68S386,4168,386,4168l-48.14,203.26,639.36,159.79,2049.18,65.58,961.78-60.11,938.62-115.14,263.54-952.3Z"/><path class="cls-2" d="M4523.14,5663.32l-209.31,13.06-1497-83.67L2141.1,5218.28l-174.86-232.39L1572.8,4868.77H1212.14L857,4700.89s-107.77-62.47-187.77-89.8-287.64-89.79-287.64-89.79l-38.38-166.08,634-165.78,2049.18-46.85,961.78,42.95,938.62,82.26,263.54,680.38Z"/><path class="cls-3" d="M537.19,4352.69l-26.76-184.44,405.2-278.1s370.24-166.15,381.71-183.47,567.42-90.12,567.42-90.12l651.42-357.14,760.87,36.11,346.75,290.8,139.61-325s816.15-223.61,845.81-223.61,461.61,191.13,492.19,194.95,145.26,363.15,145.26,363.15L5070.83,3871l3.82,332.57L5002,4421.38Z"/><polygon class="cls-4" points="3847.45 4498.27 3735.38 4144.05 3654.56 3888.58 3739.09 3513.48 4098.46 3254.47 4469.51 3167.04 4706.77 3287.26 4914.95 3522.23 4794.64 3877.42 4883.12 4232.61 4998.85 4432.09 4261.2 4474.49 3847.45 4498.27"/><path class="cls-5" d="M4041.29,4482.93,3899.73,4209.7l-85.57-267.76L3894.27,3625l308.79-139,289.08-35.9s202.69,76.5,204,103.82,76.19,163.94,76.19,163.94l-75.75,278.69,14.14,284.15,87.86,147.54-228.52,32.79L4231,4482.93Z"/><path class="cls-6" d="M4102.45,4450.14,3981.7,4160.52V3869.85l92.89-108.24,221.72-76.5h195.83l144.2,131.15v207.65l-31.41,202.18,76.92,191.26-209.29,32.79s-202.8,5.46-207.49,0S4102.45,4450.14,4102.45,4450.14Z"/><path class="cls-7" d="M4158.48,4411.89s-39.1-251.37-56-284.16,73.06-218.58,73.06-218.58l155.19-76.5,130.5,133.88,19.58,183.06,89.33,125.68s14.64,92.9,0,98.37-178.58,5.46-178.58,5.46l-126.46,5.46Z"/><polygon class="cls-8" points="3856.82 4522.74 3658.55 3920.55 3324.6 3566.69 2931.34 3386.92 2476.29 3561.08 2178.53 3864.62 1774.13 4063.61 847.07 4117.04 669.18 4291.41 706.63 4406.66 854.08 4498.6 3856.82 4522.74"/><polygon class="cls-9" points="3739.1 4507.21 3563.11 4040.58 3290.84 3633.55 2990.07 3538.05 2473.22 3700.97 2287.83 4040.58 1844.23 4156.03 1079.96 4217.82 821.54 4274 984.46 4454.67 1254.12 4454.67 1945.13 4454.67 3169.85 4507.21 3739.1 4507.21"/><polygon class="cls-10" points="3557.2 4482.93 3465.05 4122.27 3161.68 3832.65 2816.84 3802.26 2516.18 3914.62 2481.91 4142.59 2341.46 4324.73 1510 4369.68 1774.13 4452.57 2408.87 4452.57 2925.73 4482.93 3557.2 4482.93"/><polygon class="cls-11" points="3372.47 4420.83 3313.37 4173.05 3110.7 3978.04 2689.77 4050.89 2566.18 4182.28 2516.18 4347.2 2781.21 4335.97 2993.14 4341.59 3167.3 4386.53 3372.47 4420.83"/></g><g id="图层_11" data-name="图层 11"><polygon class="cls-12" points="2666 2585.95 2697.7 2604.04 2718.11 2658.8 2677.45 2708.14 2652.05 2689.7 2660.28 2642.54 2652.05 2607.83 2652.05 2585.95 2666 2585.95"/><polygon class="cls-12" points="2588.25 2592.11 2560.43 2622.67 2555.13 2666.34 2557.1 2714.69 2578.85 2733.9 2595.54 2733.9 2591.66 2765.51 2591.66 2814.14 2581.93 2847.57 2622.51 2867.02 2667.44 2857.91 2689.91 2848.79 2689.91 2781.32 2693.12 2724.18 2693.12 2690.14 2689.27 2643.33 2670.01 2606.25 2650.75 2584.98 2633.42 2577.08 2588.25 2592.11"/><path class="cls-13" d="M2539.61,2561.78c1.27.17,108.64-24.61,108.64-24.61l3.8,9.42-3.68,7.26-96.52,15.6Z"/><path class="cls-13" d="M2627.17,2540.16l-18.54-13.85-37.76,14.84s5.07,26.77,6.8,26.53,16.95,13,16.95,13Z"/><polygon class="cls-14" points="2589.53 2562.2 2597.96 2590.47 2621.58 2599.38 2633.95 2576.6 2625.96 2540 2601.95 2544.55 2589.53 2562.2"/><polygon class="cls-13" points="2573.31 2547.98 2570.75 2518.75 2591.5 2509.28 2603.66 2532.42 2573.31 2547.98"/><polygon class="cls-15" points="2616.27 2594.45 2618.83 2615.73 2625.23 2629.71 2633.95 2612.08 2633.95 2594.45 2627.82 2585.95 2616.27 2594.45"/><polygon class="cls-14" points="2670.01 2606.25 2645.21 2599.05 2635.48 2596.04 2628.02 2606.09 2628.02 2612.07 2645.78 2612.07 2653.59 2614.78 2657.81 2617.49 2672.8 2620.15 2670.01 2606.25"/><path class="cls-16" d="M3628.65,3034.6l-2.19,34.72-25.68,5.65s10.7,62.8,10.83,64.1,20,7.18,20,7.18l18.06,1.24,16-10.36,2.2-17.29L3665.4,3065l-27.81,1.92-3.74-32.8Z"/><path class="cls-16" d="M3864.78,3028l-2.19,34.72-25.69,5.65s10.7,62.8,10.84,64.1,20,7.18,20,7.18l18.07,1.24,16-10.37,2.19-17.28-2.46-54.88-27.81,1.92-3.75-32.8Z"/><polygon class="cls-17" points="3703.13 3111.86 3706.49 3145.19 3704.62 3162.9 3704.62 3183.06 3703.69 3206.03 3709.82 3208.91 3716.54 3206.19 3732.13 3158.61 3733.26 3127 3739.25 3159.41 3746.01 3206.14 3754.01 3207.38 3761.5 3201.96 3762.83 3149.67 3758.07 3117.15 3727.98 3109.36 3703.13 3111.86"/><polygon class="cls-18" points="3724.37 3027.51 3710.65 3030.95 3694.15 3050.97 3690.71 3030.82 3676.57 3029.78 3673.03 3060.67 3682.55 3081.88 3698.4 3087.99 3710.48 3071.13 3701.25 3110.79 3716.4 3119.43 3752.91 3120.56 3758.07 3117.15 3761.76 3061.05 3773.62 3078.99 3793.55 3070.25 3813.55 3031.62 3799.6 3028.38 3784.06 3053.55 3767.94 3040.01 3761.89 3029.69 3751.37 3028.72 3724.37 3027.51"/><path class="cls-19" d="M3613.21,3037.4c1.75-.23,91.17-8.23,91.17-8.23l83.68-1.19,84.71,4,5.12-4.59-4.29-5.51-78.26-3.78-87,.23-87.73,8.46-10.28,4.22Z"/><polygon class="cls-14" points="3728.89 2998.27 3726.12 3029.11 3739.96 3040.54 3758.24 3032.93 3766.61 3010.93 3759.12 2990.11 3736.99 2985.7 3728.89 2998.27"/><path class="cls-15" d="M3728.67,3007.9l-10.74-8.69,10.73-16.34,34.25-2.34,13.57,9.4-6.7,7.93a79.71,79.71,0,0,1-5.9,5.5C3762.82,3004,3728.67,3007.9,3728.67,3007.9Z"/><polygon class="cls-20" points="2993.22 2931.84 2991.89 2967.84 2957.02 2966.51 2946.22 2957.61 2944.33 2946.81 2952.47 2932.75 2969.91 2930.32 2993.22 2931.84"/><path class="cls-16" d="M3098.88,2943.1l-110.37,2.52-4.34,5.19,1.92,3.58s11.7,1.09,12.35.5,88.38-4.21,88.38-4.21l11.73.48,6.37-3.08-.69-4.77Z"/><polygon class="cls-17" points="3001.46 3039.68 3007.57 3072.61 3007.18 3090.42 3008.86 3110.51 3009.84 3133.48 3016.18 3135.84 3022.66 3132.57 3034.24 3083.86 3032.74 3052.26 3041.4 3084.07 3052.02 3130.07 3060.09 3130.64 3067.11 3124.61 3064.09 3072.4 3056.65 3040.39 3026.02 3035.12 3001.46 3039.68"/><polygon class="cls-21" points="3015.61 2953.86 3002.23 2958.42 2985.01 2981.24 2976.04 3007.15 2974.55 3036.3 2980.53 3056.49 2990.49 3051.01 2992.22 3020.54 3005.4 2998.48 2999.49 3038.76 3015.32 3046.12 3051.79 3044.21 3056.65 3040.39 3055.67 2984.18 3068.97 3001.07 3088.11 2990.7 3104.84 2950.55 3089.6 2950.56 3077.26 2974.85 3060.08 2962.69 3053.19 2952.91 3042.63 2952.82 3015.61 2953.86"/><polygon class="cls-14" points="3017.7 2924.34 3017.5 2955.31 3032.24 2965.54 3049.83 2956.44 3056.33 2933.82 3047.14 2913.7 3024.73 2911.14 3017.7 2924.34"/><path class="cls-15" d="M3018.28,2934l-11.43-7.77,9.34-17.18,33.93-5.17,14.31,8.23-6,8.46a79.15,79.15,0,0,1-5.42,6C3052,2927.22,3018.28,2934,3018.28,2934Z"/><path class="cls-16" d="M990.34,3573.38l-2.19,34.72-25.69,5.65s10.7,62.8,10.84,64.1,20,7.18,20,7.18l18.07,1.24,16-10.36,2.19-17.29-2.46-54.88-27.81,1.92-3.75-32.8Z"/><path class="cls-16" d="M1226.46,3566.74l-2.19,34.71-25.69,5.66s10.71,62.8,10.84,64.1,20,7.18,20,7.18l18.07,1.24,16-10.37,2.19-17.28-2.46-54.89L1235.4,3599l-3.74-32.8Z"/><polygon class="cls-17" points="1064.82 3650.64 1068.17 3683.97 1066.3 3701.68 1066.3 3721.84 1065.37 3744.81 1071.5 3747.69 1078.23 3744.97 1093.81 3697.39 1094.94 3665.78 1100.93 3698.19 1107.69 3744.92 1115.69 3746.16 1123.19 3740.73 1124.52 3688.45 1119.75 3655.93 1089.66 3648.14 1064.82 3650.64"/><polygon class="cls-21" points="1086.05 3566.29 1072.33 3569.73 1055.83 3589.75 1052.39 3569.59 1038.25 3568.56 1034.71 3599.45 1044.24 3620.65 1060.09 3626.77 1072.16 3609.91 1062.93 3649.57 1078.09 3658.2 1114.59 3659.34 1119.75 3655.93 1123.45 3599.83 1135.3 3617.77 1155.23 3609.03 1175.24 3570.4 1161.28 3567.16 1145.74 3592.33 1129.63 3578.78 1123.58 3568.47 1113.06 3567.49 1086.05 3566.29"/><path class="cls-19" d="M974.89,3576.18c1.76-.23,91.17-8.23,91.17-8.23l83.68-1.19,84.71,4,5.12-4.59-4.28-5.51-78.26-3.79-87,.24-87.73,8.46L972,3569.81Z"/><polygon class="cls-14" points="1090.58 3537.05 1087.81 3567.89 1101.64 3579.32 1119.93 3571.71 1128.29 3549.7 1120.8 3528.89 1098.68 3524.48 1090.58 3537.05"/><path class="cls-15" d="M1090.35,3546.68l-10.73-8.69,10.73-16.35,34.24-2.33,13.57,9.39-6.69,7.94s-4.84,4.86-5.9,5.5S1090.35,3546.68,1090.35,3546.68Z"/></g><g id="图层_8" data-name="图层 8"><polygon class="cls-22" points="4870.45 300.21 4811.51 568.28 4613.99 759.09 4411.93 886.72 4325.31 1114.68 4148.91 1648.85 4039.49 1677.51 3996.78 1664.1 4004.86 1569.22 3889.5 1587.85 3834.87 1613.31 3743.61 1584.67 3711.13 1558.58 3692.78 1406.87 3644.67 1418.52 3795.31 1024.57 3809.51 782.64 3689.62 557.48 3609.88 273.81 3741.14 81.35 3973.95 0 4204.9 154.42 4246.25 337.87 4349.59 274.83 4517.69 187.22 4733.4 218.34 4870.45 300.21"/><polygon class="cls-23" points="3687.74 1387.94 3830.43 1023.63 3853.12 782.92 3749.36 545.47 3707.2 285.24 3820.7 194.16 4008.78 190.91 4203.34 386.08 4456.27 308.01 4618.41 295 4712.45 451.13 4735.15 564.98 4566.53 734.13 4397.9 834.96 4139.35 1642.76 4034.72 1657.92 4024.99 1531.06 3856.37 1570.09 3827.18 1596.12 3742.87 1544.07 3729.9 1495.28 3707.2 1394.44 3687.74 1387.94"/><polygon class="cls-24" points="3751.81 1382.27 3878.38 1031.49 3900.45 824.98 3822.27 515.65 3840.66 385.98 3993.85 360.67 4192.99 506.17 4511.63 423.93 4597.42 559.93 4545.33 699.1 4370.7 841.42 4128.65 1556.23 4082.7 1619.48 4070.44 1540.41 4003.04 1515.11 3859.04 1556.23 3779.38 1527.76 3751.81 1382.27"/><polygon class="cls-25" points="3716.8 1464.16 3937.69 913.06 3937.69 815.35 3896.01 600.38 3979.37 557.39 4129.42 647.28 4387.82 592.57 4433.67 694.19 4350.31 815.35 4317.53 986.3 4125.29 1630.25 4019 1655.26 4010.73 1533.59 3858.5 1569.69 3808.49 1577.51 3737.64 1554.06 3716.8 1464.16"/><polygon class="cls-26" points="4328.37 2642.77 4356.94 2871.34 4248.45 3032.4 4065.57 3097.16 3907.09 3017.45 3769.61 2827.21 3552.66 2986.49 3350.92 2995.45 3212.34 2912.86 3110.7 2755.62 3171.02 2595.19 3311.8 2462.49 3463.06 2344.81 3588.44 1628.17 3606.84 1500.33 3651.2 1478.36 3702.54 1622.29 3739.97 1640.58 3835.3 1648.39 3882.98 1611.51 3991.4 1567.92 4004.43 1662.24 4049.04 1665.9 4149.45 1613.83 4143.65 1673.65 4063.06 2238.69 4173.27 2467.26 4328.37 2642.77"/><polygon class="cls-27" points="4328.05 3088.22 4323.32 3091.04 4091.18 2612.66 4095.91 2609.84 4328.05 3088.22"/><polygon class="cls-27" points="4400.11 3045.34 4395.38 3048.16 4163.24 2569.78 4167.97 2566.96 4400.11 3045.34"/><polygon class="cls-27" points="4194.66 2604.19 4106.65 2656.57 4103.23 2649.52 4191.24 2597.15 4194.66 2604.19"/><polygon class="cls-27" points="4217.89 2657.69 4138.21 2725.19 4134.13 2718.62 4213.8 2651.12 4217.89 2657.69"/><polygon class="cls-27" points="4254.94 2730.33 4163.53 2775.25 4160.45 2768.03 4251.85 2723.11 4254.94 2730.33"/><polygon class="cls-27" points="4284.96 2791.59 4196.95 2843.97 4193.53 2836.92 4281.54 2784.55 4284.96 2791.59"/><polygon class="cls-27" points="4313.83 2857.19 4227.93 2913.75 4224.32 2906.82 4310.23 2850.26 4313.83 2857.19"/><polygon class="cls-27" points="4347.94 2923.52 4257.71 2971.14 4254.5 2963.97 4344.73 2916.36 4347.94 2923.52"/><polygon class="cls-27" points="4375.4 2980.91 4289.61 3037.71 4286 3030.78 4371.78 2973.99 4375.4 2980.91"/><polygon class="cls-27" points="4073.62 2546.03 4068.26 2547.32 3988.13 2021.66 3993.48 2020.37 4073.62 2546.03"/><polygon class="cls-27" points="4155.14 2526.4 4149.79 2527.69 4069.65 2002.03 4075 2000.74 4155.14 2526.4"/><polygon class="cls-27" points="4089.47 2044.2 3989.9 2068.18 3988.72 2060.44 4088.29 2036.46 4089.47 2044.2"/><polygon class="cls-27" points="4095.82 2102.18 3999.74 2143.07 3997.78 2135.59 4093.87 2094.69 4095.82 2102.18"/><polygon class="cls-27" points="4109.72 2182.53 4009.11 2198.39 4008.3 2190.57 4108.91 2174.72 4109.72 2182.53"/><polygon class="cls-27" points="4120.26 2249.94 4020.69 2273.91 4019.51 2266.17 4119.08 2242.19 4120.26 2249.94"/><polygon class="cls-27" points="4128.42 2321.14 4029.63 2349.74 4028.23 2342.05 4127.03 2313.46 4128.42 2321.14"/><polygon class="cls-27" points="4141.36 2394.59 4041.09 2413.37 4040.14 2405.57 4140.42 2386.8 4141.36 2394.59"/><polygon class="cls-27" points="4150.61 2457.54 4051.86 2486.4 4050.45 2478.72 4149.2 2449.86 4150.61 2457.54"/><ellipse class="cls-28" cx="3606.76" cy="1162.34" rx="39.78" ry="21.28" transform="translate(1152.51 4049.63) rotate(-67.5)"/><rect class="cls-28" x="3675.05" y="1116.54" width="35" height="162.69" transform="translate(1172.63 4150.82) rotate(-67.5)"/><ellipse class="cls-28" cx="4217.87" cy="1909.87" rx="21.28" ry="39.78" transform="translate(-104.41 249.78) rotate(-3.35)"/><rect class="cls-28" x="4107.67" y="1833.95" width="35" height="162.69" transform="translate(5796.09 -2314.77) rotate(86.65)"/><path class="cls-29" d="M4141.87,1895.16c40.95,100.78,116.39,246.76,255.1,382.65,289.9,284,803.7,448.68,1307.56,489.54"/></g><g id="图层_12" data-name="图层 12"><path class="cls-29" d="M3660.76,1166.47c-70.34,205.75-299.29,770.74-979.33,1221.89C1924.33,2890.63,250.14,2971.1.12,2974"/></g></g></svg>