<svg xmlns="http://www.w3.org/2000/svg" xmlns:xlink="http://www.w3.org/1999/xlink" viewBox="0 0 1589.68 2621.26"><defs><style>.cls-1{opacity:0.4;}.cls-2{fill:url(#未命名的渐变_723);}.cls-3{fill:url(#未命名的渐变_723-2);}.cls-4{fill:url(#未命名的渐变_723-3);}.cls-5{fill:url(#未命名的渐变_723-4);}.cls-6{fill:url(#未命名的渐变_723-5);}.cls-7{fill:url(#未命名的渐变_794);}.cls-8{fill:url(#未命名的渐变_794-2);}.cls-9{fill:url(#未命名的渐变_794-3);}.cls-10{fill:url(#未命名的渐变_771);}.cls-11{fill:url(#未命名的渐变_723-6);}.cls-12{fill:url(#未命名的渐变_723-7);}.cls-13{fill:url(#未命名的渐变_723-8);}.cls-14{fill:url(#未命名的渐变_723-9);}.cls-15{fill:url(#未命名的渐变_723-10);}.cls-16{fill:url(#未命名的渐变_794-4);}.cls-17{fill:url(#未命名的渐变_794-5);}.cls-18{fill:url(#未命名的渐变_794-6);}.cls-19{fill:url(#未命名的渐变_771-2);}</style><linearGradient id="未命名的渐变_723" x1="1165.95" y1="1689.17" x2="1165.82" y2="515.29" gradientTransform="matrix(1, 0, 0, -1, 0, 3093.75)" gradientUnits="userSpaceOnUse"><stop offset="0" stop-color="#a0821f"/><stop offset="0.17" stop-color="#9d8323"/><stop offset="0.36" stop-color="#948630"/><stop offset="0.54" stop-color="#848a44"/><stop offset="0.73" stop-color="#6e9162"/><stop offset="0.91" stop-color="#529987"/><stop offset="1" stop-color="#439e9b"/></linearGradient><linearGradient id="未命名的渐变_723-2" x1="1144.47" y1="1697.63" x2="1144.35" y2="620.33" xlink:href="#未命名的渐变_723"/><linearGradient id="未命名的渐变_723-3" x1="1148.74" y1="1671.34" x2="1148.63" y2="717.32" xlink:href="#未命名的渐变_723"/><linearGradient id="未命名的渐变_723-4" x1="1208.5" y1="1674.76" x2="1208.4" y2="795.59" xlink:href="#未命名的渐变_723"/><linearGradient id="未命名的渐变_723-5" x1="1198.11" y1="1652.61" x2="1198.01" y2="874.57" xlink:href="#未命名的渐变_723"/><linearGradient id="未命名的渐变_794" x1="372.28" y1="1597.55" x2="372.21" y2="997.01" gradientTransform="matrix(1.23, -0.07, -0.05, -0.82, 53.05, 2718.38)" gradientUnits="userSpaceOnUse"><stop offset="0" stop-color="#a0821f"/><stop offset="0.16" stop-color="#97852b"/><stop offset="0.44" stop-color="#7f8c4b"/><stop offset="0.82" stop-color="#58987f"/><stop offset="1" stop-color="#439e9b"/></linearGradient><linearGradient id="未命名的渐变_794-2" x1="370.26" y1="1590.24" x2="370.2" y2="1091.01" xlink:href="#未命名的渐变_794"/><linearGradient id="未命名的渐变_794-3" x1="355.35" y1="1575.09" x2="355.3" y2="1154.26" xlink:href="#未命名的渐变_794"/><linearGradient id="未命名的渐变_771" x1="354.38" y1="1562.56" x2="354.34" y2="1210.02" gradientTransform="matrix(1.23, -0.07, -0.05, -0.82, 53.05, 2718.38)" gradientUnits="userSpaceOnUse"><stop offset="0" stop-color="#a0821f"/><stop offset="0.55" stop-color="#6b9266"/><stop offset="1" stop-color="#439e9b"/></linearGradient><linearGradient id="未命名的渐变_723-6" x1="1170.34" y1="1598.05" x2="1170.16" y2="56.21" gradientTransform="matrix(1, 0, 0, 1, 0, 0)" xlink:href="#未命名的渐变_723"/><linearGradient id="未命名的渐变_723-7" x1="1153.25" y1="1609.15" x2="1153.08" y2="194.17" gradientTransform="matrix(1, 0, 0, 1, 0, 0)" xlink:href="#未命名的渐变_723"/><linearGradient id="未命名的渐变_723-8" x1="1157.52" y1="1574.62" x2="1157.37" y2="321.56" gradientTransform="matrix(1, 0, 0, 1, 0, 0)" xlink:href="#未命名的渐变_723"/><linearGradient id="未命名的渐变_723-9" x1="1217.28" y1="1579.11" x2="1217.15" y2="424.37" gradientTransform="matrix(1, 0, 0, 1, 0, 0)" xlink:href="#未命名的渐变_723"/><linearGradient id="未命名的渐变_723-10" x1="1206.9" y1="1550.02" x2="1206.78" y2="528.11" gradientTransform="matrix(1, 0, 0, 1, 0, 0)" xlink:href="#未命名的渐变_723"/><linearGradient id="未命名的渐变_794-4" x1="373.3" y1="1496.1" x2="373.21" y2="708.66" gradientTransform="matrix(1.23, 0.07, -0.05, 0.82, 53.05, 375.37)" xlink:href="#未命名的渐变_794"/><linearGradient id="未命名的渐变_794-5" x1="371.34" y1="1486.66" x2="371.26" y2="831.39" gradientTransform="matrix(1.23, 0.07, -0.05, 0.82, 53.05, 375.37)" xlink:href="#未命名的渐变_794"/><linearGradient id="未命名的渐变_794-6" x1="356.46" y1="1466.89" x2="356.39" y2="914" gradientTransform="matrix(1.23, 0.07, -0.05, 0.82, 53.05, 375.37)" xlink:href="#未命名的渐变_794"/><linearGradient id="未命名的渐变_771-2" x1="356.26" y1="1450.9" x2="356.21" y2="987.28" gradientTransform="matrix(1.23, 0.07, -0.05, 0.82, 53.05, 375.37)" xlink:href="#未命名的渐变_771"/></defs><title>Mountain4</title><g id="图层_2" data-name="图层 2"><g id="图层_3" data-name="图层 3"><g class="cls-1"><polygon class="cls-2" points="795.13 1446.86 1002.16 1383.8 1225.1 1390.43 1368.43 1420.31 1589.68 1517.32 1551.27 1700.18 1567.21 2162.02 1526.22 2462.84 1348.58 2621.26 1076.99 2546.5 916.16 2369.54 1005.34 2216.86 1053.12 2057.55 1011.71 1948.03 872.02 1797.13 755.87 1654.73 742.2 1549.71 764.41 1489.19 795.13 1446.86"/><path class="cls-3" d="M803.69,1432.23l-32.45,46.28-15.37,51.62s12,65.86,12,71.2,249.38,258.1,249.38,258.1l56.37,122.81,22.21,65.86L1048,2206.52s-61.49,96.12-56.37,97.9,87.12,146,87.12,146,239.13,60.52,246,62.3,157.15-124.6,157.15-124.6l46.12-268.78-42.71-363.11,47.83-261.66-164-89-172.51-26.7-203.27-1.78Z"/><path class="cls-4" d="M984.75,1414.43l-165.68,64.08-10.25,62.3,39.28,90.78,254.51,226.06L1150.44,2000l-23.92,226.06-30.74,67.64,54.66,81.88,186.18,35.6,121.27-153.08,1.71-138.84s-49.53-307.93-47.82-320.39,76.86-283,76.86-283l-145.19-73-239.13-37.38Z"/><path class="cls-5" d="M979.89,1440.42,959,1653.62l208.77,243.66,16.7,311.1-29.23,67.44,37.58,39.16,142,15.23,87.68-124-39.66-311.1,43.84-243.66L1458,1468.7,1347.32,1423s-158.67-19.58-169.1-19.58-193.47,11-193.47,11Z"/><path class="cls-6" d="M1048.78,1440.42l-45.93,211,223.38,193.63,6.27,306.75-6.27,80.49,77.25,15.23,89.77-58.74-52.2-117.48,16.71-221.9,18.79-206.68s8.35-115.3-6.27-121.83-271.4-93.54-271.4-93.54l-50.1,4.35Z"/><path class="cls-7" d="M53.09,1428.12l139.23-39.79,162.74-17.43,183.55,1.37L783.32,1414l91.11,113.07-44.59,76.16-168,72L523.24,1813.79l-107.32,76.59-163.09-17.13-73.63-75.61L143,1677.07,54.69,1568.81S.3,1492.31,0,1488.62,53.09,1428.12,53.09,1428.12Z"/><polygon class="cls-8" points="57.62 1484.71 98.69 1424.77 200.03 1394.14 362.86 1377.95 526.98 1377.75 642.96 1409.41 733.8 1428.66 811.42 1523.84 772.12 1605.92 629.51 1633.53 482.01 1781.13 383.07 1811.64 254.09 1768.23 218.69 1718.02 193.35 1642.64 102.63 1534.48 57.62 1484.71"/><path class="cls-9" d="M130.44,1429.47s-38.62,30.19-33.32,36.12,63.13,65,63.13,65l104.46,98.87L277.43,1698l84.48,60.29,116.4-53.56,89.11-93,85.83-43.49,82.3-27.28-7.19-89.8L620.92,1405.5l-140.56-7.07-111.61-7.17L246.6,1403.1,149,1420Z"/><path class="cls-10" d="M162.1,1432.94l-34,27.51,92.28,67.34s88.55,81.09,86.44,84.89,29.66,69,29.66,69l26.41,28.41,117.43-70.89,8.13-79.4,158.37-41.92,49.36-46.74s1.07-47-6.24-47.86-133.55-9.86-133.55-9.86-57-18.35-66.5-16.67-189.88,10-189.88,10l-107.92,8.71Z"/></g><polygon class="cls-11" points="803.91 1542.5 1010.93 1625.33 1233.88 1616.61 1377.2 1577.37 1589.68 1517.32 1560.05 1209.78 1575.99 603.17 1534.99 208.07 1357.35 0 1085.76 98.19 924.94 330.62 1014.12 531.14 1061.89 740.39 1020.49 884.25 880.79 1082.44 764.64 1269.47 750.98 1407.41 773.18 1486.9 803.91 1542.5"/><path class="cls-12" d="M812.47,1561.71,780,1500.92l-15.37-67.79s12-86.51,12-93.52,249.38-339,249.38-339l56.37-161.32,22.2-86.5-47.83-208.07s-61.49-126.25-56.36-128.59,87.11-191.7,87.11-191.7,239.13-79.49,246-81.83,157.14,163.65,157.14,163.65l46.12,353L1494,1136.21l47.83,343.67-164,116.9-172.52,35.07-203.26,2.33Z"/><path class="cls-13" d="M993.52,1585.09l-165.68-84.17-10.25-81.82,39.29-119.23L1111.38,1003l47.83-187L1135.3,519l-30.75-88.84,54.66-107.54,186.18-46.76,121.28,201.06,1.71,182.35s-49.54,404.46-47.83,420.82,76.86,371.73,76.86,371.73l-145.18,95.85-239.14,49.1Z"/><path class="cls-14" d="M988.66,1551l-20.88-280,208.77-320,16.7-408.61L1164,453.71l37.57-51.44,142-20,87.68,162.88-39.67,408.61,43.84,320,31.32,240-110.65,60s-158.66,25.71-169.1,25.71-193.47-14.44-193.47-14.44Z"/><path class="cls-15" d="M1057.55,1551l-45.92-277.17L1235,1019.48l6.26-402.9L1235,510.86l77.24-20L1402,568l-52.19,154.31,16.7,291.45,18.79,271.46s8.35,151.44-6.26,160-271.4,122.87-271.4,122.87l-50.11-5.71Z"/><path class="cls-16" d="M61.87,1567.11l139.22,52.27,162.74,22.88,183.55-1.79,244.72-54.84,91.11-148.52-44.6-100-168-94.56L532,1060.56,424.69,960,261.6,982.46,188,1081.77l-36.19,158.35L63.46,1382.33S9.07,1482.81,8.78,1487.65,61.87,1567.11,61.87,1567.11Z"/><polygon class="cls-17" points="66.39 1492.79 107.46 1571.51 208.8 1611.74 371.64 1633.01 535.75 1633.27 651.73 1591.68 742.58 1566.4 820.19 1441.38 780.9 1333.58 638.28 1297.32 490.78 1103.46 391.85 1063.38 262.86 1120.39 227.46 1186.35 202.13 1285.36 111.41 1427.41 66.39 1492.79"/><path class="cls-18" d="M139.21,1565.33s-38.62-39.65-33.31-47.43S169,1432.54,169,1432.54l104.46-129.86,12.73-90,84.47-79.19,116.4,70.34L576.19,1326,662,1383.1l82.3,35.83-7.18,118L629.7,1596.83l-140.57,9.27-111.6,9.43L255.38,1600l-97.62-22.16Z"/><path class="cls-19" d="M170.87,1560.77l-34-36.12,92.28-88.45s88.56-106.51,86.45-111.5,29.65-90.63,29.65-90.63l26.41-37.32,117.43,93.11,8.13,104.29,158.37,55,49.36,61.39s1.08,61.69-6.24,62.87-133.54,13-133.54,13-57,24.1-66.51,21.9-189.88-13.19-189.88-13.19l-107.92-11.44Z"/></g></g></svg>