<svg xmlns="http://www.w3.org/2000/svg" xmlns:xlink="http://www.w3.org/1999/xlink" viewBox="0 0 2060.17 1574.01"><defs><style>.cls-1{opacity:0.6;}.cls-2{fill:url(#未命名的渐变_62);}.cls-3{fill:url(#未命名的渐变_40);}.cls-4{fill:url(#未命名的渐变_41);}.cls-5{fill:url(#未命名的渐变_39);}.cls-6{fill:url(#未命名的渐变_65);}.cls-7{fill:url(#未命名的渐变_62-2);}.cls-8{fill:url(#未命名的渐变_66);}.cls-9{fill:url(#未命名的渐变_62-3);}.cls-10{fill:url(#未命名的渐变_40-2);}.cls-11{fill:url(#未命名的渐变_41-2);}.cls-12{fill:url(#未命名的渐变_39-2);}.cls-13{fill:url(#未命名的渐变_39-3);}.cls-14{fill:url(#未命名的渐变_62-4);}.cls-15{fill:url(#未命名的渐变_66-2);}</style><linearGradient id="未命名的渐变_62" x1="1647.25" y1="406.44" x2="1647.18" y2="-181.49" gradientTransform="matrix(0.95, 0.26, 0.22, -0.8, 171.6, 818.27)" gradientUnits="userSpaceOnUse"><stop offset="0" stop-color="#8e7318"/><stop offset="0.03" stop-color="#91781e"/><stop offset="0.13" stop-color="#97832c"/><stop offset="0.26" stop-color="#9b8934"/><stop offset="0.48" stop-color="#9c8b36"/><stop offset="0.63" stop-color="#9a8c39"/><stop offset="0.72" stop-color="#928d42"/><stop offset="0.81" stop-color="#849051"/><stop offset="0.88" stop-color="#719467"/><stop offset="0.95" stop-color="#599982"/><stop offset="1" stop-color="#439e9b"/></linearGradient><linearGradient id="未命名的渐变_40" x1="834.27" y1="384.59" x2="834.13" y2="-811.58" gradientTransform="matrix(0.95, 0.26, 0.22, -0.8, 171.6, 818.27)" gradientUnits="userSpaceOnUse"><stop offset="0" stop-color="#91751a"/><stop offset="0.17" stop-color="#8e761e"/><stop offset="0.35" stop-color="#877a2b"/><stop offset="0.53" stop-color="#7a8140"/><stop offset="0.71" stop-color="#688a5d"/><stop offset="0.9" stop-color="#529683"/><stop offset="1" stop-color="#439e9b"/></linearGradient><linearGradient id="未命名的渐变_41" x1="860.42" y1="373.13" x2="860.3" y2="-680.84" gradientTransform="matrix(0.95, 0.26, 0.22, -0.8, 171.6, 818.27)" gradientUnits="userSpaceOnUse"><stop offset="0" stop-color="#91751a"/><stop offset="0.15" stop-color="#8e771f"/><stop offset="0.34" stop-color="#857b2e"/><stop offset="0.54" stop-color="#768347"/><stop offset="0.75" stop-color="#618e69"/><stop offset="0.97" stop-color="#479c95"/><stop offset="1" stop-color="#439e9b"/></linearGradient><linearGradient id="未命名的渐变_39" x1="873.57" y1="368.77" x2="873.46" y2="-542.99" gradientTransform="matrix(0.95, 0.26, 0.22, -0.8, 171.6, 818.27)" gradientUnits="userSpaceOnUse"><stop offset="0" stop-color="#91751a"/><stop offset="0.16" stop-color="#8e761f"/><stop offset="0.34" stop-color="#867b2c"/><stop offset="0.53" stop-color="#788243"/><stop offset="0.73" stop-color="#658c62"/><stop offset="0.93" stop-color="#4d998a"/><stop offset="1" stop-color="#439e9b"/></linearGradient><linearGradient id="未命名的渐变_65" x1="763.5" y1="374.46" x2="908.11" y2="-452.19" gradientTransform="matrix(0.95, 0.26, 0.22, -0.8, 171.6, 818.27)" gradientUnits="userSpaceOnUse"><stop offset="0" stop-color="#91751a"/><stop offset="0.15" stop-color="#947a20"/><stop offset="0.35" stop-color="#9b8833"/><stop offset="0.39" stop-color="#9c8b36"/><stop offset="0.49" stop-color="#978c3c"/><stop offset="0.63" stop-color="#888f4d"/><stop offset="0.78" stop-color="#709468"/><stop offset="0.95" stop-color="#4e9c8e"/><stop offset="1" stop-color="#439e9b"/></linearGradient><linearGradient id="未命名的渐变_62-2" x1="1684.58" y1="392.63" x2="1684.51" y2="-137.25" xlink:href="#未命名的渐变_62"/><linearGradient id="未命名的渐变_66" x1="1664.17" y1="366.25" x2="1664.11" y2="-69.27" gradientTransform="matrix(0.95, 0.26, 0.22, -0.8, 171.6, 818.27)" gradientUnits="userSpaceOnUse"><stop offset="0" stop-color="#8e7318"/><stop offset="0.2" stop-color="#957e26"/><stop offset="0.48" stop-color="#9c8b36"/><stop offset="0.63" stop-color="#9a8c39"/><stop offset="0.72" stop-color="#928d42"/><stop offset="0.81" stop-color="#849051"/><stop offset="0.88" stop-color="#719467"/><stop offset="0.95" stop-color="#599982"/><stop offset="1" stop-color="#439e9b"/></linearGradient><linearGradient id="未命名的渐变_62-3" x1="1781.35" y1="1239.64" x2="1781.29" y2="651.71" gradientTransform="translate(-13.46 27.46) rotate(-0.78)" xlink:href="#未命名的渐变_62"/><linearGradient id="未命名的渐变_40-2" x1="962.68" y1="1217.8" x2="962.54" y2="21.62" gradientTransform="translate(-13.46 27.46) rotate(-0.78)" xlink:href="#未命名的渐变_40"/><linearGradient id="未命名的渐变_41-2" x1="988.83" y1="1206.33" x2="988.71" y2="152.36" gradientTransform="translate(-13.46 27.46) rotate(-0.78)" xlink:href="#未命名的渐变_41"/><linearGradient id="未命名的渐变_39-2" x1="1001.98" y1="1201.97" x2="1001.87" y2="290.22" gradientTransform="translate(-13.46 27.46) rotate(-0.78)" xlink:href="#未命名的渐变_39"/><linearGradient id="未命名的渐变_39-3" x1="891.91" y1="1207.66" x2="1036.52" y2="381.01" gradientTransform="translate(-13.46 27.46) rotate(-0.78)" xlink:href="#未命名的渐变_39"/><linearGradient id="未命名的渐变_62-4" x1="1812.99" y1="1225.83" x2="1812.92" y2="695.95" gradientTransform="translate(-13.46 27.46) rotate(-0.78)" xlink:href="#未命名的渐变_62"/><linearGradient id="未命名的渐变_66-2" x1="1792.57" y1="1199.45" x2="1792.52" y2="763.94" gradientTransform="translate(-13.46 27.46) rotate(-0.78)" xlink:href="#未命名的渐变_66"/></defs><title>Mountain5</title><g id="图层_2" data-name="图层 2"><g id="图层_8" data-name="图层 8"><g class="cls-1"><path class="cls-2" d="M1550.62,911.14s-11.31,62.07-9.71,73.38-6.25,141.57-6.25,141.57l97.09,191.34,129.66,107.8,161.48,23.87-66.67-167,171.3-67.47,27.8-210.7-121.07-24.62L1718.38,881.7l-94.08-11.22Z"/><polygon class="cls-3" points="385.14 796.72 38.49 1014.47 0 1424.89 252.41 1574.01 586.19 1527.74 739.81 1356.74 858.66 1313.43 1790.48 1429.98 1674.02 1334.4 1592.65 1141.88 1608.28 991.25 1638.81 869.63 1258.65 816.99 938.8 791.39 542.37 778.05 385.14 796.72"/><path class="cls-4" d="M395.2,797.53l-271.85,236.8-16.21,277.8s187,156.62,193.91,158.49,283.36-43.06,283.36-43.06l202.16-143.92,971.18,131.43-85-95.68-117.17-168.26,30.6-171.72,36.7-102.14-362-49.19L937.63,800.17,538.82,786.9Z"/><polygon class="cls-5" points="440.28 822.72 177.04 1042.07 188.15 1241.22 327.98 1355.21 593.18 1340.95 771.49 1239.77 1737.68 1382.61 1661.61 1311.29 1555.53 1151.13 1572.63 995.1 1613.06 880.51 538.82 786.9 440.28 822.72"/><polygon class="cls-6" points="539.33 809.62 447.17 843.57 234.98 1059.96 256.18 1194.37 354.04 1277.95 601.79 1263.16 775.49 1188.13 1667.84 1312.67 1592.65 1141.88 1607.82 1000.76 1641.1 872.03 949.71 815.9 539.33 809.62"/><polygon class="cls-7" points="1654.07 894.43 1716.77 893.99 1928.82 986.74 2028.91 1011.8 2015.53 1185.43 1823.89 1266.76 1869.2 1397.28 1796.78 1395.08 1708.69 1316.38 1612.88 1141.47 1622.1 1021.42 1642.21 928.4 1654.07 894.43"/><path class="cls-8" d="M1681,910.51l-26.56,126.27,8.47,103,118.42,187.63,50.43,15.92-44.89-112.89,161.05-74.34,29.89-138.5-102.73-34.53s-101.27-49.46-111-52.11S1681,910.51,1681,910.51Z"/></g><path class="cls-9" d="M1504.18,1169.47s4.43-76,8.84-88.74,29.31-167.38,29.31-167.38l143.3-194.15L1840,632.61l164.6,21.17L1897.29,828.7l162.88,138.46-32.65,247.5-129.41-8.3-236.5,48.51-95.24-15.48Z"/><polygon class="cls-10" points="330.63 948.94 44.63 589.03 109.61 97.58 394.9 0 711.2 155.55 819.28 402.12 925.19 488.88 1869.74 635.89 1731.4 712.21 1603.25 912.52 1580.88 1093.35 1580.42 1244.79 1193.79 1190.76 873.18 1123.46 480.4 1018.56 330.63 948.94"/><path class="cls-11" d="M340.71,951.05,133,591.61,186.62,262S409.55,135.74,416.79,135.64,684.36,272.11,684.36,272.11L846.91,501.79l986.94,141.58-107.51,86L1569.1,890.42l-12.94,210L1566.63,1231l-367.91-52.52-324.5-65.63L479.13,1007.13Z"/><polygon class="cls-12" points="391.31 935.31 187.64 598.88 248.43 369.47 414.34 278.73 671.29 376.01 821.11 548.49 1806 675.21 1713.42 735.46 1569.1 890.42 1546.83 1078.02 1557.84 1224.25 479.13 1007.13 391.31 935.31"/><polygon class="cls-13" points="485.32 980.74 403.29 913.03 249.04 595.59 303.53 444.92 420.59 376.96 660.27 469.56 812.11 610.06 1719.89 735.73 1603.25 912.52 1582.82 1082.1 1583.26 1242.69 890.02 1098.13 485.32 980.74"/><polygon class="cls-14" points="1601.61 1220.44 1663.1 1240.01 1894.63 1196.05 1999.23 1197.18 2029.57 990.15 1861.69 836.83 1938.88 698.04 1867.19 678.61 1760.94 743.82 1623.03 919.15 1602.01 1062.29 1598.47 1177.12 1601.61 1220.44"/><path class="cls-15" d="M1632.08,1209.83l5.53-155.68,34.12-117.8L1835,753l53.52-3.28L1816.2,868.06l139.59,135.85-5.33,171L1840.9,1184s-111.87,27-122.08,27.17S1632.08,1209.83,1632.08,1209.83Z"/></g></g></svg>