<svg xmlns="http://www.w3.org/2000/svg" xmlns:xlink="http://www.w3.org/1999/xlink" viewBox="0 0 756.99 1354.83"><defs><style>.cls-1{fill:url(#未命名的渐变_428);}.cls-2{fill:url(#未命名的渐变_385);}.cls-3{fill:url(#未命名的渐变_455);}.cls-4{fill:url(#未命名的渐变_492);}.cls-5{opacity:0.4;}.cls-6{fill:url(#未命名的渐变_428-2);}.cls-7{fill:url(#未命名的渐变_385-2);}.cls-8{fill:url(#未命名的渐变_455-2);}.cls-9{fill:url(#未命名的渐变_492-2);}</style><linearGradient id="未命名的渐变_428" x1="378.5" y1="788.98" x2="378.41" y2="27.75" gradientUnits="userSpaceOnUse"><stop offset="0" stop-color="#a0821f"/><stop offset="0.26" stop-color="#9e8322"/><stop offset="0.43" stop-color="#97852b"/><stop offset="0.58" stop-color="#8c883a"/><stop offset="0.71" stop-color="#7c8d4f"/><stop offset="0.84" stop-color="#67936b"/><stop offset="0.96" stop-color="#4e9b8d"/><stop offset="1" stop-color="#439e9b"/></linearGradient><linearGradient id="未命名的渐变_385" x1="383.84" y1="770.21" x2="383.76" y2="106.84" gradientUnits="userSpaceOnUse"><stop offset="0" stop-color="#a0821f"/><stop offset="0.15" stop-color="#9c8325"/><stop offset="0.34" stop-color="#908735"/><stop offset="0.56" stop-color="#7b8d50"/><stop offset="0.8" stop-color="#609575"/><stop offset="1" stop-color="#439e9b"/></linearGradient><linearGradient id="未命名的渐变_455" x1="338.2" y1="771.84" x2="338.14" y2="200.65" gradientUnits="userSpaceOnUse"><stop offset="0" stop-color="#a0821f"/><stop offset="0.17" stop-color="#95852d"/><stop offset="0.48" stop-color="#7a8e52"/><stop offset="0.91" stop-color="#4d9b8d"/><stop offset="1" stop-color="#439e9b"/></linearGradient><linearGradient id="未命名的渐变_492" x1="341.17" y1="775.02" x2="341.12" y2="383.38" gradientUnits="userSpaceOnUse"><stop offset="0" stop-color="#a0821f"/><stop offset="0.28" stop-color="#89893e"/><stop offset="0.9" stop-color="#4d9b8e"/><stop offset="1" stop-color="#439e9b"/></linearGradient><linearGradient id="未命名的渐变_428-2" x1="406.95" y1="1153.22" x2="406.86" y2="411.44" gradientTransform="matrix(1, -0.07, -0.06, -0.86, 45.41, 1725.28)" xlink:href="#未命名的渐变_428"/><linearGradient id="未命名的渐变_385-2" x1="414.62" y1="1154.6" x2="414.54" y2="491.24" gradientTransform="matrix(1, -0.07, -0.06, -0.86, 45.41, 1725.28)" xlink:href="#未命名的渐变_385"/><linearGradient id="未命名的渐变_455-2" x1="368.98" y1="1156.24" x2="368.92" y2="585.05" gradientTransform="matrix(1, -0.07, -0.06, -0.86, 45.41, 1725.28)" xlink:href="#未命名的渐变_455"/><linearGradient id="未命名的渐变_492-2" x1="371.95" y1="1159.41" x2="371.91" y2="767.78" gradientTransform="matrix(1, -0.07, -0.06, -0.86, 45.41, 1725.28)" xlink:href="#未命名的渐变_492"/></defs><title>Mountain3</title><g id="图层_2" data-name="图层 2"><g id="图层_9" data-name="图层 9"><polygon class="cls-1" points="0 706.83 20.14 333.75 69.64 248.54 123.26 151.49 234.64 153.86 275.89 172.79 321.27 33.14 490.4 0 622.4 68.64 655.4 134.92 638.9 258 676.03 426.06 693.12 531.51 756.99 728.14 600.41 802.41 220.55 792.21 6.27 761.08 0 706.83"/><polygon class="cls-2" points="93.23 768.29 43.64 761.46 27.77 597.56 52.81 372.15 127.95 282.84 157.47 216.63 235.29 222.78 305.06 245.88 350.68 144.25 452.66 82.66 560 130.39 565.37 255.12 573.42 315.18 636.58 376 624.41 453.76 654.05 557.66 739.88 710.24 646.65 748.94 446.31 766.01 277.7 781.95 93.23 768.29"/><polygon class="cls-3" points="75.38 767.15 83.11 560.62 97.38 402.73 166.38 356.29 209.2 285.97 299.61 303.22 361.47 274.02 411.43 207.68 466.15 179.82 501.83 224.93 518.49 339.04 572.46 427.18 562.76 568.93 601.03 752.35 277.7 781.95 75.38 767.15"/><polygon class="cls-4" points="140.82 767.12 158.1 610.82 146.29 454.9 252.19 386 325.13 417.2 414.55 369.1 491.36 462.61 456.91 553.7 483.85 654.09 541.52 758.65 286.53 781.95 140.82 767.12"/><g class="cls-5"><polygon class="cls-6" points="6.47 780.38 50.36 1101.18 105.17 1171.14 164.84 1251.02 275.76 1240.77 315.69 1221.37 369.86 1338.67 540.64 1354.83 667.91 1285.81 696.59 1226.13 672.28 1121.02 698.58 973.11 708.9 880.76 756.99 728.14 612.28 684.11 278.63 695.03 9.26 733.06 6.47 780.38"/><polygon class="cls-7" points="95.53 720.42 46.51 729.98 41.14 872.73 80.5 1065.6 161.13 1137.21 194.79 1192.23 272.01 1181.18 340.12 1156.09 392.11 1240.52 497.73 1286.21 601.74 1237.07 599.13 1128.93 603.33 1076.46 662.43 1019.26 645.33 952.99 668.26 861.05 744.12 722.92 648.68 696.36 447.79 696.38 278.63 695.03 95.53 720.42"/><polygon class="cls-8" points="77.79 722.72 98.69 900.56 123 1035.9 194.77 1070.93 241.96 1128.52 331.02 1106.96 394.58 1127.62 448.63 1181.25 504.98 1201.28 537.7 1159.68 547.02 1059.89 595.23 979.78 576.5 858.04 602.96 696.78 278.63 695.03 77.79 722.72"/><polygon class="cls-9" points="143.06 717.93 170.27 851.67 168.44 987.23 278.45 1038.94 349.2 1006.62 441.45 1041.58 512.08 955.14 471.91 879 492.38 790.3 543.21 695.73 287.43 694.38 143.06 717.93"/></g></g></g></svg>