<svg xmlns="http://www.w3.org/2000/svg" xmlns:xlink="http://www.w3.org/1999/xlink" viewBox="0 0 496.41 734.4"><defs><style>.cls-1{opacity:0.3;}.cls-2{fill:url(#未命名的渐变_129);}.cls-3{fill:url(#未命名的渐变_129-2);}.cls-4{fill:url(#未命名的渐变_129-3);}.cls-5{fill:url(#未命名的渐变_129-4);}.cls-6{fill:url(#未命名的渐变_129-5);}.cls-7{fill:url(#未命名的渐变_129-6);}.cls-8{fill:url(#未命名的渐变_129-7);}.cls-9{fill:url(#未命名的渐变_129-8);}.cls-10{fill:url(#未命名的渐变_129-9);}.cls-11{fill:url(#未命名的渐变_129-10);}</style><linearGradient id="未命名的渐变_129" x1="252.73" y1="-1000.74" x2="246.08" y2="-1369.82" gradientTransform="matrix(1, 0, 0, -1, 0, -657.07)" gradientUnits="userSpaceOnUse"><stop offset="0" stop-color="#8e7318"/><stop offset="0.07" stop-color="#957e26"/><stop offset="0.18" stop-color="#9c8b36"/><stop offset="0.36" stop-color="#8d8e47"/><stop offset="0.71" stop-color="#669673"/><stop offset="1" stop-color="#439e9b"/></linearGradient><linearGradient id="未命名的渐变_129-2" x1="249.19" y1="-1003.42" x2="243.62" y2="-1312.09" xlink:href="#未命名的渐变_129"/><linearGradient id="未命名的渐变_129-3" x1="245.64" y1="-1006.09" x2="241.16" y2="-1254.35" xlink:href="#未命名的渐变_129"/><linearGradient id="未命名的渐变_129-4" x1="242.1" y1="-1008.77" x2="238.71" y2="-1196.61" xlink:href="#未命名的渐变_129"/><linearGradient id="未命名的渐变_129-5" x1="238.55" y1="-1011.44" x2="236.25" y2="-1138.88" xlink:href="#未命名的渐变_129"/><linearGradient id="未命名的渐变_129-6" x1="246.71" y1="390.73" x2="240.06" y2="21.66" gradientTransform="matrix(1, 0, 0, 1, 0, 0)" xlink:href="#未命名的渐变_129"/><linearGradient id="未命名的渐变_129-7" x1="243.17" y1="388.06" x2="237.6" y2="79.39" gradientTransform="matrix(1, 0, 0, 1, 0, 0)" xlink:href="#未命名的渐变_129"/><linearGradient id="未命名的渐变_129-8" x1="239.62" y1="385.39" x2="235.15" y2="137.13" gradientTransform="matrix(1, 0, 0, 1, 0, 0)" xlink:href="#未命名的渐变_129"/><linearGradient id="未命名的渐变_129-9" x1="236.08" y1="382.71" x2="232.69" y2="194.86" gradientTransform="matrix(1, 0, 0, 1, 0, 0)" xlink:href="#未命名的渐变_129"/><linearGradient id="未命名的渐变_129-10" x1="232.54" y1="380.04" x2="230.24" y2="252.6" gradientTransform="matrix(1, 0, 0, 1, 0, 0)" xlink:href="#未命名的渐变_129"/></defs><title>Mountain7</title><g id="图层_2" data-name="图层 2"><g id="图层_8" data-name="图层 8"><g class="cls-1"><polygon class="cls-2" points="39.15 356.67 6.02 485.89 98.79 721.15 218.08 734.4 413.57 591.92 496.41 369.92 459.96 359.98 39.15 356.67"/><polygon class="cls-3" points="76.43 357.05 46.61 466.28 119.57 662.59 220.16 673.12 376.71 558.91 449.16 370.57 419.44 359.93 76.43 357.05"/><polygon class="cls-4" points="113.7 357.43 87.2 446.67 140.35 604.02 222.23 611.84 339.84 525.9 401.92 371.21 378.93 359.88 113.7 357.43"/><polygon class="cls-5" points="150.98 357.81 127.8 427.06 161.12 545.46 224.31 550.56 302.98 492.89 354.67 371.85 338.41 359.83 150.98 357.81"/><polygon class="cls-6" points="188.26 358.19 168.39 407.45 181.9 486.9 226.39 489.28 266.11 459.88 307.43 372.49 297.89 359.78 188.26 358.19"/></g><polygon class="cls-7" points="33.13 377.73 0 248.51 92.78 13.25 212.06 0 407.56 142.48 490.39 364.48 453.94 374.42 33.13 377.73"/><polygon class="cls-8" points="70.41 377.35 40.59 268.12 113.55 71.82 214.14 61.28 370.69 175.49 443.15 363.84 413.43 374.47 70.41 377.35"/><polygon class="cls-9" points="107.69 376.97 81.19 287.73 134.33 130.38 216.22 122.56 333.83 208.5 395.9 363.2 372.91 374.52 107.69 376.97"/><polygon class="cls-10" points="144.96 376.59 121.78 307.34 155.11 188.94 218.29 183.84 296.96 241.51 348.65 362.55 332.39 374.57 144.96 376.59"/><polygon class="cls-11" points="182.24 376.21 162.38 326.95 175.88 247.51 220.37 245.13 260.1 274.52 301.41 361.91 291.88 374.62 182.24 376.21"/></g></g></svg>