<svg xmlns="http://www.w3.org/2000/svg" xmlns:xlink="http://www.w3.org/1999/xlink" viewBox="0 0 2060.44 1450.54"><defs><style>.cls-1{opacity:0.6;}.cls-2{fill:url(#未命名的渐变_66);}.cls-3{fill:url(#未命名的渐变_66-2);}.cls-4{fill:url(#未命名的渐变_66-3);}.cls-5{fill:url(#未命名的渐变_66-4);}.cls-6{fill:url(#未命名的渐变_45);}.cls-7{fill:url(#未命名的渐变_45-2);}.cls-8{fill:url(#未命名的渐变_82);}.cls-9{fill:url(#未命名的渐变_45-3);}</style><linearGradient id="未命名的渐变_66" x1="1055.5" y1="-976.04" x2="1055.4" y2="-1822.16" gradientTransform="matrix(0.95, 0.3, 0.3, -0.95, 429.73, -856.29)" gradientUnits="userSpaceOnUse"><stop offset="0" stop-color="#8e7318"/><stop offset="0.2" stop-color="#957e26"/><stop offset="0.48" stop-color="#9c8b36"/><stop offset="0.63" stop-color="#9a8c39"/><stop offset="0.72" stop-color="#928d42"/><stop offset="0.81" stop-color="#849051"/><stop offset="0.88" stop-color="#719467"/><stop offset="0.95" stop-color="#599982"/><stop offset="1" stop-color="#439e9b"/></linearGradient><linearGradient id="未命名的渐变_66-2" x1="991.02" y1="-1032.11" x2="990.93" y2="-1764.32" gradientTransform="matrix(0.96, 0.27, 0.27, -0.96, 437.97, -831.75)" xlink:href="#未命名的渐变_66"/><linearGradient id="未命名的渐变_66-3" x1="971.75" y1="-1055.72" x2="971.68" y2="-1650.8" gradientTransform="matrix(0.96, 0.27, 0.27, -0.96, 437.97, -831.75)" xlink:href="#未命名的渐变_66"/><linearGradient id="未命名的渐变_66-4" x1="938.61" y1="-1035.19" x2="938.55" y2="-1531.22" gradientTransform="matrix(0.96, 0.27, 0.27, -0.96, 437.97, -831.75)" xlink:href="#未命名的渐变_66"/><linearGradient id="未命名的渐变_45" x1="1057.88" y1="946.04" x2="1057.78" y2="99.42" gradientTransform="matrix(1, -0.04, 0.04, 1, -46.48, 3.06)" gradientUnits="userSpaceOnUse"><stop offset="0" stop-color="#8e7318"/><stop offset="0.2" stop-color="#957e26"/><stop offset="0.48" stop-color="#9c8b36"/><stop offset="0.82" stop-color="#5e987c"/><stop offset="1" stop-color="#439e9b"/></linearGradient><linearGradient id="未命名的渐变_45-2" x1="1052.95" y1="888.45" x2="1052.87" y2="156.28" gradientTransform="translate(-32.1 -18.46) rotate(-0.48)" xlink:href="#未命名的渐变_45"/><linearGradient id="未命名的渐变_82" x1="1029.1" y1="844.76" x2="1036.15" y2="250.12" gradientTransform="translate(-32.1 -18.46) rotate(-0.48)" gradientUnits="userSpaceOnUse"><stop offset="0" stop-color="#8e7318"/><stop offset="0.2" stop-color="#957e26"/><stop offset="0.48" stop-color="#9c8b36"/><stop offset="0.58" stop-color="#988c3b"/><stop offset="0.68" stop-color="#8b8f49"/><stop offset="0.8" stop-color="#779360"/><stop offset="0.92" stop-color="#5a9981"/><stop offset="1" stop-color="#439e9b"/></linearGradient><linearGradient id="未命名的渐变_45-3" x1="983.52" y1="896.95" x2="1025.49" y2="222.18" gradientTransform="translate(-32.1 -18.46) rotate(-0.48)" xlink:href="#未命名的渐变_45"/></defs><title>Mountain6</title><g id="图层_2" data-name="图层 2"><g id="图层_8" data-name="图层 8"><g class="cls-1"><polygon class="cls-2" points="747.76 401.59 1619.11 525.1 1804.85 610.61 1903.37 790.58 1982.5 1135.06 1918.2 1365.38 1719.49 1437.03 1588.76 1450.54 1355.77 1183.12 1246.92 1094.69 868.92 1030.74 164.16 929.38 2.78 656.71 124.72 621.83 180.9 456.02 85.66 320.49 123.74 298.58 747.76 401.59"/><polygon class="cls-3" points="159.97 328.68 1608.19 554.77 1753.24 633.39 1825.03 710.18 1865.54 821.36 1942.15 1101.93 1886.89 1323.65 1615.79 1358.51 1252.47 1005.02 169.11 863.07 64 747.12 189.2 634.91 74.94 482.07 188.89 380.19 159.97 328.68"/><polygon class="cls-4" points="154.23 351.34 169.4 452.66 113.25 463.56 233.42 598.58 167.04 736.45 206.84 810.39 1374.06 948.47 1610.31 1233.89 1798.63 1252.3 1872.92 1112.63 1828.18 875.58 1674.23 602.08 1560.55 568.45 154.23 351.34"/><polygon class="cls-5" points="215.16 356.91 181.44 414.39 298.16 516.37 260.5 671.88 260.49 727.42 1435.2 844.82 1610 1075.09 1719.9 1091.73 1779.52 1006.2 1776.15 838.56 1667.76 635.88 1582.31 555.04 675.28 401.77 215.16 356.91"/></g><polygon class="cls-6" points="682.8 784.62 1555.03 901.32 1755.97 869.09 1896.69 722.07 2060.44 411.05 2056.82 171.38 1883.22 48.44 1760.49 0 1467.8 195 1340.33 250.88 959.32 210.26 253.47 117.29 15.52 255.38 137.4 403.41 27.06 490.14 0 654.35 54.46 715.1 682.8 784.62"/><polygon class="cls-7" points="97.06 695.87 1552.02 869.73 1711.95 833.13 1800.7 778.46 1867.99 682.13 2013.1 432.1 2016.02 203.17 1763.23 96.13 1322.94 338.91 241.43 182.63 81.6 253.57 202.94 408.25 53.91 524.82 32.85 624.3 97.06 695.87"/><polygon class="cls-8" points="97.26 672.44 61.22 597.24 86.18 553.05 236.4 455.28 207.31 304.26 264.47 243.68 1425.93 426.41 1726.32 214.92 1912.74 248.13 1949.01 403.03 1845.7 619.68 1627.75 841.95 1509.51 843.63 97.26 672.44"/><polygon class="cls-9" points="178.99 662.85 108.05 605.64 292.98 516.01 296.09 355.75 307.13 337.91 1473.61 506.85 1700.71 331.95 1810.99 345.65 1846.83 444.32 1801.05 605.2 1670.98 733.79 1561.14 800.15 638.94 706.33 178.99 662.85"/></g></g></svg>