<svg xmlns="http://www.w3.org/2000/svg" xmlns:xlink="http://www.w3.org/1999/xlink" viewBox="0 0 642.02 731.53"><defs><style>.cls-1{opacity:0.4;}.cls-2{fill:url(#未命名的渐变_794);}.cls-3{fill:url(#未命名的渐变_794-2);}.cls-4{fill:url(#未命名的渐变_794-3);}.cls-5{fill:url(#未命名的渐变_771);}.cls-6{fill:url(#未命名的渐变_794-4);}.cls-7{fill:url(#未命名的渐变_794-5);}.cls-8{fill:url(#未命名的渐变_794-6);}.cls-9{fill:url(#未命名的渐变_771-2);}</style><linearGradient id="未命名的渐变_794" x1="632.16" y1="2229.84" x2="632.09" y2="1644.89" gradientTransform="matrix(-1.21, -0.18, 0.11, -0.77, 854.62, 2086.03)" gradientUnits="userSpaceOnUse"><stop offset="0" stop-color="#a0821f"/><stop offset="0.16" stop-color="#97852b"/><stop offset="0.44" stop-color="#7f8c4b"/><stop offset="0.82" stop-color="#58987f"/><stop offset="1" stop-color="#439e9b"/></linearGradient><linearGradient id="未命名的渐变_794-2" x1="630.73" y1="2211.37" x2="630.67" y2="1733.91" xlink:href="#未命名的渐变_794"/><linearGradient id="未命名的渐变_794-3" x1="619.89" y1="2196.96" x2="619.84" y2="1794.1" xlink:href="#未命名的渐变_794"/><linearGradient id="未命名的渐变_771" x1="619.75" y1="2185.31" x2="619.71" y2="1847.5" gradientTransform="matrix(-1.21, -0.18, 0.11, -0.77, 854.62, 2086.03)" gradientUnits="userSpaceOnUse"><stop offset="0" stop-color="#a0821f"/><stop offset="0.55" stop-color="#6b9266"/><stop offset="1" stop-color="#439e9b"/></linearGradient><linearGradient id="未命名的渐变_794-4" x1="502.26" y1="949.91" x2="502.19" y2="364.96" gradientTransform="matrix(-1.21, 0.18, 0.12, 0.82, 839.45, -364.23)" xlink:href="#未命名的渐变_794"/><linearGradient id="未命名的渐变_794-5" x1="500.83" y1="931.44" x2="500.77" y2="453.98" gradientTransform="matrix(-1.21, 0.18, 0.12, 0.82, 839.45, -364.23)" xlink:href="#未命名的渐变_794"/><linearGradient id="未命名的渐变_794-6" x1="489.98" y1="917.03" x2="489.94" y2="514.17" gradientTransform="matrix(-1.21, 0.18, 0.12, 0.82, 839.45, -364.23)" xlink:href="#未命名的渐变_794"/><linearGradient id="未命名的渐变_771-2" x1="489.84" y1="905.38" x2="489.81" y2="567.57" gradientTransform="matrix(-1.21, 0.18, 0.12, 0.82, 839.45, -364.23)" xlink:href="#未命名的渐变_771"/></defs><title>Mountain2</title><g id="图层_2" data-name="图层 2"><g id="图层_9" data-name="图层 9"><g class="cls-1"><path class="cls-2" d="M603.21,339.46l-77.63-53L404.93,261.94l-150-3.69L74.32,280.11,0,375.87l26.84,71.26,116.72,75.42,90.51,133.32,72.32,75.66,119.6-5,58.91-63.22,35-106,71.94-91.61s45-65.25,45.5-68.55S603.21,339.46,603.21,339.46Z"/><polygon class="cls-3" points="595.82 390.01 570.37 333.54 499.05 299.55 382.05 274.59 262.97 263.92 176.51 284.95 109.19 296.43 45.97 376.98 68.53 453.22 170.02 487.14 266.36 629.16 335.94 662.9 432.69 632.15 462.02 589.3 485.87 523.2 559.55 431.84 595.82 390.01"/><path class="cls-4" d="M547,335.73s25.84,29.59,21.56,34.58S518,424.65,518,424.65l-83,82.15-14.21,60.77-65.67,48.76-80.59-55.55-57.92-89.27L157.53,427,99.78,397.19,111.51,317l81.28-34.13,102.51,2.64,81.51.69,87.79,18.44L534.21,326Z"/><path class="cls-5" d="M523.76,336.83l22.68,26.88L474.59,418.3S404.45,485.49,405.71,489s-26.53,60.09-26.53,60.09L358,573l-80.08-71.19-.14-71.85L165.85,382.15,133.42,337s2.63-42.26,8-42.6,97.63-.32,97.63-.32,42.68-12.84,49.47-10.73,137.06,21.16,137.06,21.16l77.69,14.72Z"/></g><path class="cls-6" d="M608.35,418.56l-77.26,55.57L410.5,499l-150.16,2.57-181-24.79L4,374.58l26.24-75.36,116.2-79L235.91,79.63,307.66,0,427.45,6.33,487,73.92l36,112.75,72.85,97.82s45.66,69.62,46.17,73.12S608.35,418.56,608.35,418.56Z"/><polygon class="cls-7" points="600.5 364.87 575.51 424.55 504.4 459.98 387.48 485.41 268.34 495.68 181.58 472.6 114.07 459.82 50.05 373.81 71.96 293.13 173.28 258.05 268.48 108.24 337.85 73.07 435 106.55 464.75 152.27 489.22 222.6 563.81 320.17 600.5 364.87"/><path class="cls-8" d="M552.08,422s25.61-31.16,21.28-36.49-51.07-58.1-51.07-58.1l-83.81-87.88L423.71,175l-66.19-52.31-80.2,58.22L220.12,275l-58.81,46.75-57.56,31.06,12.46,85.2L197.89,475l102.63-1.89h81.61l87.74-18.78,69.51-22.08Z"/><path class="cls-9" d="M528.82,420.65l22.47-28.32-72.43-58.55s-70.83-71.9-69.6-75.65-27.1-64-27.1-64L360.7,168.67l-79.55,74.81.5,76.21L170,369.38,138,417s3,44.85,8.39,45.26,97.75,1.21,97.75,1.21,42.85,14,49.63,11.81S430.8,454.05,430.8,454.05l77.65-14.93Z"/></g></g></svg>