<svg xmlns="http://www.w3.org/2000/svg" xmlns:xlink="http://www.w3.org/1999/xlink" viewBox="0 0 1109.05 1772.25"><defs><style>.cls-1{fill:url(#未命名的渐变_249);}.cls-2{fill:url(#未命名的渐变_249-2);}.cls-3{fill:url(#未命名的渐变_249-3);}.cls-4{fill:url(#未命名的渐变_249-4);}.cls-5{opacity:0.3;}.cls-6{fill:url(#未命名的渐变_249-5);}.cls-7{fill:url(#未命名的渐变_249-6);}.cls-8{fill:url(#未命名的渐变_249-7);}.cls-9{fill:url(#未命名的渐变_249-8);}</style><linearGradient id="未命名的渐变_249" x1="591.43" y1="1022.96" x2="530.4" y2="249.19" gradientUnits="userSpaceOnUse"><stop offset="0" stop-color="#a0821f"/><stop offset="0.28" stop-color="#9e8322"/><stop offset="0.45" stop-color="#98842a"/><stop offset="0.6" stop-color="#8d8838"/><stop offset="0.72" stop-color="#7e8c4d"/><stop offset="0.84" stop-color="#6a9267"/><stop offset="0.94" stop-color="#529a87"/><stop offset="1" stop-color="#439e9b"/></linearGradient><linearGradient id="未命名的渐变_249-2" x1="605.54" y1="994.11" x2="557.08" y2="379.79" xlink:href="#未命名的渐变_249"/><linearGradient id="未命名的渐变_249-3" x1="623.93" y1="967.97" x2="584.17" y2="463.95" xlink:href="#未命名的渐变_249"/><linearGradient id="未命名的渐变_249-4" x1="691.53" y1="964.47" x2="660.83" y2="575.35" xlink:href="#未命名的渐变_249"/><linearGradient id="未命名的渐变_249-5" x1="572.73" y1="376.36" x2="530.12" y2="-163.77" gradientTransform="matrix(1, 0, 0, -1, 0, 1426.81)" xlink:href="#未命名的渐变_249"/><linearGradient id="未命名的渐变_249-6" x1="586.31" y1="353.21" x2="552.59" y2="-74.27" gradientTransform="matrix(1, 0, 0, -1, 0, 1426.81)" xlink:href="#未命名的渐变_249"/><linearGradient id="未命名的渐变_249-7" x1="607.53" y1="329.7" x2="580.02" y2="-19.04" gradientTransform="matrix(1, 0, 0, -1, 0, 1426.81)" xlink:href="#未命名的渐变_249"/><linearGradient id="未命名的渐变_249-8" x1="677.53" y1="327.02" x2="656.22" y2="56.83" gradientTransform="matrix(1, 0, 0, -1, 0, 1426.81)" xlink:href="#未命名的渐变_249"/></defs><title>Mountain8</title><g id="图层_2" data-name="图层 2"><g id="图层_3" data-name="图层 3"><path class="cls-1" d="M1109.05,1047.12l-29.08-64-93.08-192L959,573.33c-13.33.14-26.37-3.74-35.68-15.11-2-2,0-7-1-11-1-3-4-5-4-8,1-24-18-39-26-58-13-31,27-51,43-78,3-4,1-9,0-11-7-12-12-24-17-36-3-6-9-12-10-19,0-7-4-16,3-19,26-9,54-10,82-13,3-1,5-3,8-4a339.21,339.21,0,0,0,62-12c.62-.18,1.25-.32,1.88-.46L1039.24,81.44,864.72,0,659,81.44l-102.74,128H492.41l-285-64L3.43,308.32l99.22,244.33,256,87.26,47.65,145c28.47-20.37,54.79-44.58,88-52.72,0,11,8,16,11,28,4,18,12,42-4,57-1,1,1,4,0,6-5,6-13,11-8,17,8,11,19,18,29,26,3,3,2,12,1,19-1,1-3,2-4,4-5,12-11,24-20,35-1,2,1,5,0,6-11.85,9.32-24.43,17.19-37.11,24.86l30.24,92Z"/><path class="cls-2" d="M999.46,236.74l-133.8-58.19-151.34,39.7L594.64,350.78l-66.85-3.17-275.44-60L103.57,381.74,185.48,555.9,428.66,644l29.1,104.06c11.47-7,23.46-12.66,36.52-15.86,0,11,8,16,11,28,4,18,12,42-4,57-1,1,1,4,0,6-5,6-13,11-8,17,8,11,19,18,29,26,3,3,2,12,1,19-1,1-3,2-4,4a151.88,151.88,0,0,1-14.38,27.46l27.27,97.57,110.56,5.25L983,1015.94,920.18,820.42,907.93,590.24l21.88-25.68a39.76,39.76,0,0,1-6.53-6.34c-2-2,0-7-1-11-1-3-4-5-4-8,1-24-18-39-26-58-13-31,27-51,43-78,3-4,1-9,0-11-7-12-12-24-17-36-3-6-9-12-10-19,0-7-4-16,3-19,26-9,54-10,82-13,3-1,5-3,8-4l.77-.08Z"/><path class="cls-3" d="M935.28,392.22c-7-12-12-24-17-36-3-6-9-12-10-19,0-4.13-1.39-9-1.09-12.83L795.83,302.12,632.9,484.39,304.26,393.25l-80.09,44.19L249,528.57,489.29,621.2,602.52,978.73l22.09,19.33H779.26l151.9-19.33-88.38-243,16.57-160.18,54.49-57.6c-5.91-13-16.2-24-21.56-36.7-13-31,27-51,43-78C938.28,399.22,936.28,394.22,935.28,392.22Z"/><polygon class="cls-4" points="663.62 984.81 591.76 669.98 444.72 531.9 480.63 501.52 663.9 570.51 806.5 451.81 867.26 496 795.46 609.23 798.22 827.4 847.93 984.81 663.62 984.81"/><g class="cls-5"><path class="cls-6" d="M1105.62,1047.12l-29.08,44.31-93.08,132.94-27.93,150.85c-13.33-.1-26.37,2.59-35.67,10.46-2,1.39,0,4.85-1,7.62-1,2.08-4,3.46-4,5.54,1,16.62-18,27-26,40.16-13,21.47,27,35.32,43,54,3,2.77,1,6.23,0,7.62-7,8.31-12,16.62-17,24.93-3,4.15-9,8.31-10,13.15,0,4.85-4,11.08,3,13.16,26,6.23,54,6.93,82,9,3,.7,5,2.08,8,2.77a477.32,477.32,0,0,1,62,8.31c.61.13,1.24.23,1.87.32l-25.91,143.57-174.52,56.4-205.74-56.4-102.75-88.63H489l-285,44.32L0,1558.74l99.23-169.2,256-60.43,47.65-100.43c28.47,14.1,54.8,30.87,88,36.51,0-7.62,8-11.08,11-19.39,4-12.47,12-29.09-4-39.48-1-.69,1-2.77,0-4.15-5-4.16-13-7.62-8-11.77,8-7.62,19-12.47,29-18,3-2.08,2-8.31,1-13.15-1-.7-3-1.39-4-2.77-5-8.31-11-16.62-20-24.24-1-1.39,1-3.46,0-4.16-11.86-6.45-24.43-11.9-37.12-17.21L489,1047.12Z"/><path class="cls-7" d="M996,1608.31,862.23,1648.6l-151.34-27.49-119.68-91.78-66.85,2.2-275.44,41.55-148.78-65.19,81.91-120.6,243.19-61,29.09-72a165.21,165.21,0,0,0,36.53,11c0-7.62,8-11.08,11-19.39,4-12.47,12-29.09-4-39.48-1-.69,1-2.77,0-4.15-5-4.16-13-7.62-8-11.77,8-7.62,19-12.47,29-18,3-2.08,2-8.31,1-13.15-1-.7-3-1.39-4-2.77a99.75,99.75,0,0,0-14.39-19l27.28-67.57,110.55-3.64,340.31,2.48-62.86,135.39-12.25,159.4,21.88,17.78a36.86,36.86,0,0,0-6.52,4.39c-2,1.39,0,4.85-1,7.62-1,2.08-4,3.46-4,5.54,1,16.62-18,27-26,40.16-13,21.47,27,35.32,43,54,3,2.77,1,6.23,0,7.62-7,8.31-12,16.62-17,24.93-3,4.15-9,8.31-10,13.15,0,4.85-4,11.08,3,13.16,26,6.23,54,6.93,82,9,3,.7,5,2.08,8,2.77l.76.06Z"/><path class="cls-8" d="M931.86,1500.64c-7,8.31-12,16.62-17,24.93-3,4.15-9,8.31-10,13.15,0,2.86-1.4,6.2-1.1,8.89L792.41,1563,629.47,1436.81l-328.64,63.11-80.09-30.6,24.86-63.11,240.26-64.14,113.23-247.59,22.09-13.38H775.84l151.89,13.38-88.38,168.3,16.57,110.92,54.49,39.89c-5.91,9-16.2,16.6-21.55,25.41-13,21.47,27,35.32,43,54C934.86,1495.79,932.86,1499.25,931.86,1500.64Z"/><polygon class="cls-9" points="660.19 1090.27 588.33 1308.29 441.3 1403.91 477.2 1424.95 660.47 1377.17 803.07 1459.37 863.83 1428.77 792.03 1350.36 794.79 1199.28 844.5 1090.27 660.19 1090.27"/></g></g></g></svg>