<svg xmlns="http://www.w3.org/2000/svg" xmlns:xlink="http://www.w3.org/1999/xlink" viewBox="0 0 1676.14 3100.37"><defs><style>.cls-1{fill:url(#未命名的渐变_723);}.cls-2{fill:url(#未命名的渐变_723-2);}.cls-3{fill:url(#未命名的渐变_723-3);}.cls-4{fill:url(#未命名的渐变_723-4);}.cls-5{fill:url(#未命名的渐变_723-5);}.cls-6{fill:url(#未命名的渐变_428);}.cls-7{fill:url(#未命名的渐变_385);}.cls-8{fill:url(#未命名的渐变_455);}.cls-9{fill:url(#未命名的渐变_492);}.cls-10{fill:url(#未命名的渐变_544);}.cls-11{fill:url(#未命名的渐变_517);}.cls-12{fill:url(#未命名的渐变_455-2);}.cls-13{fill:url(#未命名的渐变_455-3);}.cls-14{fill:url(#未命名的渐变_455-4);}.cls-15{opacity:0.4;}.cls-16{fill:url(#未命名的渐变_863);}.cls-17{fill:url(#未命名的渐变_863-2);}.cls-18{fill:url(#未命名的渐变_863-3);}.cls-19{fill:url(#未命名的渐变_863-4);}.cls-20{fill:url(#未命名的渐变_863-5);}.cls-21{fill:url(#未命名的渐变_864);}.cls-22{fill:url(#未命名的渐变_865);}.cls-23{fill:url(#未命名的渐变_872);}.cls-24{fill:url(#未命名的渐变_867);}.cls-25{fill:url(#未命名的渐变_868);}.cls-26{fill:url(#未命名的渐变_869);}.cls-27{fill:url(#未命名的渐变_872-2);}.cls-28{fill:url(#未命名的渐变_872-3);}.cls-29{fill:url(#未命名的渐变_872-4);}</style><linearGradient id="未命名的渐变_723" x1="4128.25" y1="1983.39" x2="4128.03" y2="102.19" gradientTransform="matrix(-0.93, -0.07, -0.07, 0.96, 4505.7, 272.92)" gradientUnits="userSpaceOnUse"><stop offset="0" stop-color="#a0821f"/><stop offset="0.17" stop-color="#9d8323"/><stop offset="0.36" stop-color="#948630"/><stop offset="0.54" stop-color="#848a44"/><stop offset="0.73" stop-color="#6e9162"/><stop offset="0.91" stop-color="#529987"/><stop offset="1" stop-color="#439e9b"/></linearGradient><linearGradient id="未命名的渐变_723-2" x1="4093.86" y1="1986.28" x2="4093.66" y2="268.27" xlink:href="#未命名的渐变_723"/><linearGradient id="未命名的渐变_723-3" x1="4099.26" y1="1933.39" x2="4099.08" y2="421.57" xlink:href="#未命名的渐变_723"/><linearGradient id="未命名的渐变_723-4" x1="4174.87" y1="1938.81" x2="4174.71" y2="545.61" xlink:href="#未命名的渐变_723"/><linearGradient id="未命名的渐变_723-5" x1="4161.73" y1="1903.71" x2="4161.58" y2="670.77" xlink:href="#未命名的渐变_723"/><linearGradient id="未命名的渐变_428" x1="832.34" y1="1888.06" x2="832.2" y2="716.54" gradientUnits="userSpaceOnUse"><stop offset="0" stop-color="#a0821f"/><stop offset="0.26" stop-color="#9e8322"/><stop offset="0.43" stop-color="#97852b"/><stop offset="0.58" stop-color="#8c883a"/><stop offset="0.71" stop-color="#7c8d4f"/><stop offset="0.84" stop-color="#67936b"/><stop offset="0.96" stop-color="#4e9b8d"/><stop offset="1" stop-color="#439e9b"/></linearGradient><linearGradient id="未命名的渐变_385" x1="836.35" y1="1890.24" x2="836.23" y2="842.57" gradientUnits="userSpaceOnUse"><stop offset="0" stop-color="#a0821f"/><stop offset="0.15" stop-color="#9c8325"/><stop offset="0.34" stop-color="#908735"/><stop offset="0.56" stop-color="#7b8d50"/><stop offset="0.8" stop-color="#609575"/><stop offset="1" stop-color="#439e9b"/></linearGradient><linearGradient id="未命名的渐变_455" x1="802.1" y1="1892.82" x2="802" y2="990.72" gradientUnits="userSpaceOnUse"><stop offset="0" stop-color="#a0821f"/><stop offset="0.17" stop-color="#95852d"/><stop offset="0.48" stop-color="#7a8e52"/><stop offset="0.91" stop-color="#4d9b8d"/><stop offset="1" stop-color="#439e9b"/></linearGradient><linearGradient id="未命名的渐变_492" x1="804.33" y1="1897.84" x2="804.26" y2="1279.31" gradientUnits="userSpaceOnUse"><stop offset="0" stop-color="#a0821f"/><stop offset="0.28" stop-color="#89893e"/><stop offset="0.9" stop-color="#4d9b8e"/><stop offset="1" stop-color="#439e9b"/></linearGradient><linearGradient id="未命名的渐变_544" x1="1328.47" y1="1867.17" x2="1328.4" y2="1241.21" gradientUnits="userSpaceOnUse"><stop offset="0" stop-color="#a0821f"/><stop offset="0.16" stop-color="#97852b"/><stop offset="0.44" stop-color="#7f8c4b"/><stop offset="0.81" stop-color="#59977e"/><stop offset="1" stop-color="#439e9b"/></linearGradient><linearGradient id="未命名的渐变_517" x1="1336.21" y1="1869.02" x2="1336.15" y2="1347.37" gradientUnits="userSpaceOnUse"><stop offset="0" stop-color="#a0821f"/><stop offset="0.15" stop-color="#988429"/><stop offset="0.4" stop-color="#848a44"/><stop offset="0.72" stop-color="#639470"/><stop offset="1" stop-color="#439e9b"/></linearGradient><linearGradient id="未命名的渐变_455-2" x1="1321.81" y1="1862.6" x2="1321.76" y2="1431.97" xlink:href="#未命名的渐变_455"/><linearGradient id="未命名的渐变_455-3" x1="1314.04" y1="1871.99" x2="1314" y2="1518.48" xlink:href="#未命名的渐变_455"/><linearGradient id="未命名的渐变_455-4" x1="1315.23" y1="1852.71" x2="1315.2" y2="1625.93" xlink:href="#未命名的渐变_455"/><linearGradient id="未命名的渐变_863" x1="1437.61" y1="-597.9" x2="1438.32" y2="-597.9" gradientTransform="matrix(133.6, 1776.97, 1736.83, -130.59, 846898.63, -2630878.76)" gradientUnits="userSpaceOnUse"><stop offset="0" stop-color="#a1821f"/><stop offset="0.17" stop-color="#9e8323"/><stop offset="0.35" stop-color="#948630"/><stop offset="0.54" stop-color="#848b45"/><stop offset="0.73" stop-color="#6e9162"/><stop offset="0.91" stop-color="#529a87"/><stop offset="1" stop-color="#439e9b"/></linearGradient><linearGradient id="未命名的渐变_863-2" x1="1437.6" y1="-597.9" x2="1438.31" y2="-597.9" gradientTransform="matrix(123.38, 1641.11, 1604.05, -120.6, 782233.58, -2429604.86)" xlink:href="#未命名的渐变_863"/><linearGradient id="未命名的渐变_863-3" x1="1437.57" y1="-597.93" x2="1438.27" y2="-597.93" gradientTransform="matrix(108.57, 1444.15, 1411.54, -106.13, 688457.45, -2137720.99)" xlink:href="#未命名的渐变_863"/><linearGradient id="未命名的渐变_863-4" x1="1437.55" y1="-597.94" x2="1438.26" y2="-597.94" gradientTransform="matrix(100.05, 1330.84, 1300.79, -97.8, 634438, -1969830.07)" xlink:href="#未命名的渐变_863"/><linearGradient id="未命名的渐变_863-5" x1="1437.51" y1="-597.96" x2="1438.22" y2="-597.96" gradientTransform="matrix(88.55, 1177.76, 1151.16, -86.55, 561565.42, -1742967.72)" xlink:href="#未命名的渐变_863"/><linearGradient id="未命名的渐变_864" x1="1437.55" y1="-597.43" x2="1438.26" y2="-597.43" gradientTransform="translate(-698863.42 -1682430.38) rotate(90.01) scale(1171.51)" gradientUnits="userSpaceOnUse"><stop offset="0" stop-color="#a1821f"/><stop offset="0.26" stop-color="#9f8322"/><stop offset="0.43" stop-color="#98852b"/><stop offset="0.58" stop-color="#8d883a"/><stop offset="0.71" stop-color="#7c8d50"/><stop offset="0.84" stop-color="#67936b"/><stop offset="0.96" stop-color="#4e9b8d"/><stop offset="1" stop-color="#439e9b"/></linearGradient><linearGradient id="未命名的渐变_865" x1="1437.53" y1="-597.4" x2="1438.23" y2="-597.4" gradientTransform="translate(-624861.73 -1504373.85) rotate(90.01) scale(1047.68)" gradientUnits="userSpaceOnUse"><stop offset="0" stop-color="#a1821f"/><stop offset="0.15" stop-color="#9d8325"/><stop offset="0.34" stop-color="#908735"/><stop offset="0.56" stop-color="#7c8d50"/><stop offset="0.8" stop-color="#5f9676"/><stop offset="1" stop-color="#439e9b"/></linearGradient><linearGradient id="未命名的渐变_872" x1="1437.49" y1="-597.34" x2="1438.19" y2="-597.34" gradientTransform="matrix(-0.11, 902.11, -902.11, -0.11, -537910.5, -1295065.49)" gradientUnits="userSpaceOnUse"><stop offset="0" stop-color="#a1821f"/><stop offset="0.17" stop-color="#96852e"/><stop offset="0.5" stop-color="#788e54"/><stop offset="0.94" stop-color="#499c93"/><stop offset="1" stop-color="#439e9b"/></linearGradient><linearGradient id="未命名的渐变_867" x1="1437.36" y1="-597.18" x2="1438.06" y2="-597.18" gradientTransform="translate(-368455.66 -887321.03) rotate(90.01) scale(618.52)" gradientUnits="userSpaceOnUse"><stop offset="0" stop-color="#a1821f"/><stop offset="0.31" stop-color="#878a42"/><stop offset="0.99" stop-color="#449e9a"/><stop offset="1" stop-color="#439e9b"/></linearGradient><linearGradient id="未命名的渐变_868" x1="1437.35" y1="-597.18" x2="1438.05" y2="-597.18" gradientTransform="translate(-372375.77 -897984.45) rotate(90.01) scale(625.96)" gradientUnits="userSpaceOnUse"><stop offset="0" stop-color="#a1821f"/><stop offset="0.16" stop-color="#98852b"/><stop offset="0.44" stop-color="#7f8c4c"/><stop offset="0.83" stop-color="#579881"/><stop offset="1" stop-color="#439e9b"/></linearGradient><linearGradient id="未命名的渐变_869" x1="1437.26" y1="-597.08" x2="1437.97" y2="-597.08" gradientTransform="translate(-310034.45 -747994.59) rotate(90.01) scale(521.64)" gradientUnits="userSpaceOnUse"><stop offset="0" stop-color="#a1821f"/><stop offset="0.15" stop-color="#998429"/><stop offset="0.4" stop-color="#848b45"/><stop offset="0.73" stop-color="#639571"/><stop offset="1" stop-color="#439e9b"/></linearGradient><linearGradient id="未命名的渐变_872-2" x1="1437.15" y1="-596.94" x2="1437.86" y2="-596.94" gradientTransform="translate(-255666.26 -617128.74) rotate(90.01) scale(430.63)" xlink:href="#未命名的渐变_872"/><linearGradient id="未命名的渐变_872-3" x1="1437.02" y1="-596.78" x2="1437.73" y2="-596.78" gradientTransform="translate(-209587.56 -506241.44) rotate(90.01) scale(353.51)" xlink:href="#未命名的渐变_872"/><linearGradient id="未命名的渐变_872-4" x1="1436.57" y1="-596.26" x2="1437.28" y2="-596.26" gradientTransform="translate(-133863.81 -324012.89) rotate(90.01) scale(226.78)" xlink:href="#未命名的渐变_872"/></defs><title>Mountain1</title><g id="图层_2" data-name="图层 2"><g id="图层_3" data-name="图层 3"><polygon class="cls-1" points="960.17 1826.83 708.45 1903.93 445.84 1874.11 240.89 1890.01 0 1863.36 95.74 1376.31 129.39 675.78 212 224.05 439.85 0 752.17 137.25 922.04 419.38 799.35 642.59 724.81 879.51 761.28 1048.98 909.15 1289.79 1030.17 1515.64 1034.38 1675.83 1001.27 1765.47 960.17 1826.83"/><path class="cls-2" d="M948.39,1848.21,992,1781l24-76.78s-6.64-100.75-6-108.84-265.26-412.8-265.26-412.8L692.09,991.69,673.34,890l74.5-235.57s83.56-140,77.71-143.19S739.23,282.6,739.23,282.6,463.63,169.78,455.76,166.48,256,341.16,256,341.16L171,743.93l9.18,553.45L93.9,1689.23l147,200.78,237.36,4.19,239.9,20.72Z"/><path class="cls-3" d="M732.49,1859.1l203-82.31,19.19-93.4-36.1-140.9-275-364.76-40.32-219.8,53.94-340.07,44-99.67L646,389.4,430.1,319,269.45,540,251.66,750s23.52,470.53,20.09,489.24-123,421.6-123,421.6L312,1784.18,590.24,1862Z"/><path class="cls-4" d="M741.19,1820.19l48.89-320.88L571.15,1112l15.62-472.41L629,540.05,589,477.44l-166-35.64L305.39,621.73l11.51,474.45-79.48,365L179.66,1735l125.51,79s185.21,43.71,197.54,44.64,229.78.51,229.78.51Z"/><path class="cls-5" d="M659.81,1814.08,738,1498.71l-241.87-312.9,27.46-464.9,16.54-121.29-89.51-29.9L337.94,650.67l48.3,182.46L341.3,1167.56l-45.68,311.19s-23,173.8-6.45,185,310,165.68,310,165.68l59.68-2.15Z"/><polygon class="cls-6" points="548.36 1790.14 563.47 1200.93 600.6 1066.36 640.84 913.09 724.4 916.83 755.35 946.73 789.4 726.17 916.29 673.84 1015.33 782.25 1040.09 886.92 1027.71 1081.31 1055.56 1346.73 1068.39 1513.26 1116.3 1823.8 1006.97 1883.82 756.71 1908.78 553.06 1875.82 548.36 1790.14"/><polygon class="cls-7" points="618.3 1887.21 581.1 1876.42 569.19 1617.57 587.98 1261.58 644.35 1120.53 666.5 1015.96 724.89 1025.68 777.24 1062.16 811.47 901.66 887.98 804.38 968.51 879.77 972.54 1076.75 978.58 1171.6 1025.96 1267.67 1016.83 1390.47 1039.07 1554.57 1103.47 1795.53 1033.52 1856.65 883.21 1883.61 756.71 1908.78 618.3 1887.21"/><polygon class="cls-8" points="604.91 1885.41 610.71 1559.23 621.42 1309.87 673.19 1236.53 705.32 1125.47 773.15 1152.71 819.56 1106.61 857.04 1001.84 898.1 957.83 924.87 1029.08 937.37 1209.29 977.86 1348.48 970.58 1572.35 999.29 1862.04 756.71 1908.78 604.91 1885.41"/><polygon class="cls-9" points="654.01 1885.36 666.98 1638.51 658.12 1392.27 737.57 1283.46 792.3 1332.73 859.38 1256.77 917.01 1404.45 891.16 1548.3 911.38 1706.84 954.64 1871.98 763.33 1908.78 654.01 1885.36"/><polygon class="cls-10" points="1008.19 1852.48 1166.86 1822.06 1271.95 1831.42 1539.82 1878.21 1673.44 1840.25 1642.85 1487.48 1552.18 1351.78 1438.85 1316.69 1348.19 1384.54 1288.43 1513.22 1247.22 1524.92 1226.62 1345.57 1158.61 1218.42 1074.13 1251.17 1008.19 1328.38 997.89 1428.99 983.46 1513.22 1004.07 1634.88 1010.25 1756.55 1008.19 1852.48"/><polygon class="cls-11" points="1029.82 1783.53 1022.36 1503.56 1055.16 1378.43 1093.92 1339.33 1147.6 1328.38 1202.76 1376.87 1220.65 1569.25 1286.24 1580.2 1371.22 1514.51 1392.09 1437.87 1448.74 1417.54 1538.19 1448.82 1608.27 1534.84 1644.05 1785.09 1650.01 1836.71 1553.12 1878.21 1282.79 1834.58 1176.74 1825.86 1047.71 1850.78 1029.82 1783.53"/><polygon class="cls-12" points="1066.19 1848.95 1049.54 1664.48 1049.54 1550.34 1090.54 1432.22 1134.1 1416.3 1172.53 1445.5 1191.75 1620.68 1271.19 1663.15 1363.44 1628.64 1412.12 1575.56 1428.78 1514.51 1465.93 1509.2 1541.53 1549.02 1573.56 1619.35 1594.06 1855.59 1550.5 1870.19 1381.37 1835.68 1263.5 1822.41 1089.25 1843.64 1066.19 1848.95"/><path class="cls-13" d="M1094.45,1836.21l-18-187.15,15.65-87.43,33.68-56,36.09,41,12,113.39,73.39,79.23,107.08-36.89,74.59-54.64,26.47-76.5,39.7-13.66,45.71,36.89,10.83,102.45-3.61,148.9-8.19,32.44-224-46.1s-69.78-4.1-73.39-4.1-80.61-9.56-80.61-9.56l-44.51,9.56Z"/><polygon class="cls-14" points="1107.68 1812.98 1116.11 1670.91 1128.14 1640.86 1159.42 1687.31 1187.09 1740.58 1250.85 1784.3 1416.88 1713.26 1465 1638.13 1510.72 1617.64 1522.75 1679.11 1516.73 1776.1 1499.89 1856.7 1312.21 1826.64 1240.02 1822.55 1110.09 1837.57 1107.68 1812.98"/><g class="cls-15"><polygon class="cls-16" points="962.87 1809.34 711.15 1754.85 448.54 1775.92 282.63 1816.86 0 1863.36 64.69 2131.39 132.1 2622.79 214.7 2942.03 442.55 3100.37 754.87 3003.37 924.75 2803.98 802.05 2646.24 727.51 2478.81 763.98 2359.05 911.85 2188.86 1032.88 2029.25 1037.08 1916.05 1003.98 1852.7 962.87 1809.34"/><path class="cls-17" d="M951.1,1794.23l43.59,47.47,24,54.26s-6.64,71.2-6,76.91-265.26,291.74-265.26,291.74l-52.63,134.92-18.74,71.85,74.49,166.47s83.56,99,77.71,101.2-86.32,161.6-86.32,161.6-275.6,79.73-283.47,82.06-199.79-123.44-199.79-123.44l-85-284.64,9.18-391.13L96.6,1906.58l147-141.9,237.35-3,239.91-14.64Z"/><path class="cls-18" d="M735.19,1786.53l203,58.17,19.19,66-36.09,99.58-275,257.78L606,2423.39,660,2663.72l44,70.43-55.27,91-215.88,49.75L272.15,2718.76l-17.79-148.42s23.52-332.52,20.09-345.75-123-297.94-123-297.94l163.22-87.17,278.23-55Z"/><path class="cls-19" d="M743.89,1814l48.89,226.78L573.86,2314.54l15.62,333.85,42.19,70.32L591.73,2763l-166,25.19L308.09,2661l11.51-335.29-79.48-257.92-57.76-193.53,125.52-55.81s185.2-30.89,197.53-31.54,229.78-.36,229.78-.36Z"/><path class="cls-20" d="M662.51,1818.34l78.23,222.88L498.87,2262.35l27.46,328.54,16.54,85.72-89.51,21.13-112.72-57.21,48.3-129L344,2275.24l-45.68-219.92s-23-122.82-6.44-130.72,310-117.08,310-117.08l59.68,1.51Z"/><polygon class="cls-21" points="551.06 1835.26 566.17 2251.66 603.31 2346.76 643.54 2455.08 727.11 2452.44 758.05 2431.3 792.1 2587.17 918.99 2624.16 1018.03 2547.55 1042.79 2473.57 1030.41 2336.2 1058.27 2148.63 1071.09 2030.94 1119.01 1811.48 1009.67 1769.05 759.41 1751.42 555.76 1774.71 551.06 1835.26"/><polygon class="cls-22" points="621.01 1766.66 583.8 1774.29 571.9 1957.22 590.68 2208.8 647.06 2308.48 669.2 2382.38 727.59 2375.51 779.94 2349.73 814.17 2463.16 890.68 2531.9 971.21 2478.63 975.24 2339.42 981.28 2272.39 1028.66 2204.5 1019.54 2117.71 1041.78 2001.74 1106.17 1831.45 1036.22 1788.26 885.91 1769.2 759.41 1751.42 621.01 1766.66"/><polygon class="cls-23" points="607.61 1767.93 613.42 1998.44 624.13 2174.67 675.89 2226.5 708.02 2304.99 775.85 2285.74 822.26 2318.32 859.74 2392.36 900.8 2423.46 927.57 2373.11 940.07 2245.75 980.56 2147.38 973.28 1989.17 1001.99 1784.45 759.41 1751.42 607.61 1767.93"/><polygon class="cls-24" points="656.71 1767.97 669.68 1942.42 660.82 2116.44 740.27 2193.34 795 2158.52 862.09 2212.2 919.72 2107.83 893.87 2006.17 914.08 1894.13 957.35 1777.43 766.03 1751.42 656.71 1767.97"/><polygon class="cls-25" points="1010.89 1791.21 1169.56 1812.7 1274.65 1806.09 1542.52 1773.02 1676.14 1799.85 1645.55 2049.15 1554.89 2145.05 1441.56 2169.85 1350.89 2121.9 1291.13 2030.96 1249.92 2022.69 1229.32 2149.45 1161.32 2239.3 1076.83 2216.15 1010.89 2161.59 1000.59 2090.49 986.17 2030.96 1006.77 1944.98 1012.96 1859 1010.89 1791.21"/><polygon class="cls-26" points="1032.52 1839.93 1025.07 2037.79 1057.87 2126.22 1096.63 2153.85 1150.3 2161.59 1205.46 2127.32 1223.35 1991.37 1288.95 1983.63 1373.92 2030.05 1394.8 2084.21 1451.45 2098.58 1540.9 2076.48 1610.97 2015.68 1646.75 1838.83 1652.71 1802.35 1555.82 1773.02 1285.49 1803.85 1179.44 1810.02 1050.41 1792.4 1032.52 1839.93"/><polygon class="cls-27" points="1068.89 1793.7 1052.24 1924.07 1052.24 2004.73 1093.24 2088.2 1136.8 2099.46 1175.24 2078.82 1194.45 1955.02 1273.89 1925.01 1366.14 1949.39 1414.83 1986.91 1431.48 2030.05 1468.64 2033.8 1544.23 2005.67 1576.26 1955.96 1596.76 1789.01 1553.2 1778.69 1384.08 1803.08 1266.2 1812.45 1091.96 1797.45 1068.89 1793.7"/><path class="cls-28" d="M1097.15,1802.71l-18,132.25,15.64,61.79,33.68,39.58,36.1-29,12-80.13,73.39-56L1357,1897.31l74.59,38.62,26.47,54.06,39.7,9.66,45.72-26.07,10.82-72.4L1550.71,1796l-8.19-22.93-224,32.58s-69.78,2.9-73.39,2.9-80.6,6.76-80.6,6.76L1120,1808.5Z"/><polygon class="cls-29" points="1110.39 1819.12 1118.81 1919.52 1130.84 1940.76 1162.12 1907.93 1189.79 1870.28 1253.55 1839.39 1419.58 1889.59 1467.7 1942.69 1513.42 1957.17 1525.45 1913.73 1519.43 1845.18 1502.59 1788.22 1314.91 1809.46 1242.73 1812.36 1112.79 1801.74 1110.39 1819.12"/></g></g></g></svg>