<svg xmlns="http://www.w3.org/2000/svg" xmlns:xlink="http://www.w3.org/1999/xlink" viewBox="0 0 3720.92 4057.7"><defs><style>.cls-1{opacity:0.3;}.cls-2{fill:url(#未命名的渐变_36);}.cls-3{fill:url(#未命名的渐变_36-2);}.cls-4{fill:url(#未命名的渐变_36-3);}.cls-5{fill:url(#未命名的渐变_36-4);}.cls-6{fill:url(#未命名的渐变_36-5);}.cls-7{fill:url(#未命名的渐变_36-6);}.cls-8{fill:url(#未命名的渐变_36-7);}.cls-9{fill:url(#未命名的渐变_36-8);}.cls-10{fill:url(#未命名的渐变_36-9);}.cls-11{fill:url(#未命名的渐变_36-10);}.cls-12{fill:url(#未命名的渐变_36-11);}.cls-13{fill:url(#未命名的渐变_36-12);}.cls-14{fill:url(#未命名的渐变_36-13);}.cls-15{fill:url(#未命名的渐变_36-14);}.cls-16{fill:url(#未命名的渐变_36-15);}.cls-17{fill:url(#未命名的渐变_36-16);}</style><linearGradient id="未命名的渐变_36" x1="1974.01" y1="-2309.4" x2="1197.31" y2="-4284.59" gradientTransform="matrix(1, 0, 0, -1, 0, -171.53)" gradientUnits="userSpaceOnUse"><stop offset="0" stop-color="#a0821f"/><stop offset="0.17" stop-color="#9d8323"/><stop offset="0.35" stop-color="#938631"/><stop offset="0.54" stop-color="#828b47"/><stop offset="0.74" stop-color="#6b9265"/><stop offset="0.94" stop-color="#4e9b8d"/><stop offset="1" stop-color="#439e9b"/></linearGradient><linearGradient id="未命名的渐变_36-2" x1="1960.42" y1="-2465.73" x2="1230.71" y2="-4321.4" gradientTransform="matrix(0.99, 0.02, 0.02, -0.92, 60.17, -166.5)" xlink:href="#未命名的渐变_36"/><linearGradient id="未命名的渐变_36-3" x1="1882.88" y1="-2288.66" x2="1253.16" y2="-3890.06" xlink:href="#未命名的渐变_36"/><linearGradient id="未命名的渐变_36-4" x1="1815.89" y1="-2302.43" x2="1276.36" y2="-3674.47" xlink:href="#未命名的渐变_36"/><linearGradient id="未命名的渐变_36-5" x1="1393.73" y1="-2449.91" x2="1078.44" y2="-3251.7" xlink:href="#未命名的渐变_36"/><linearGradient id="未命名的渐变_36-6" x1="1268.51" y1="-2447.41" x2="1060.32" y2="-2976.84" xlink:href="#未命名的渐变_36"/><linearGradient id="未命名的渐变_36-7" x1="1964.94" y1="2476.63" x2="1007.2" y2="41.07" gradientTransform="matrix(1, 0, 0, 1, 0, 0)" xlink:href="#未命名的渐变_36"/><linearGradient id="未命名的渐变_36-8" x1="1862.1" y1="2734.1" x2="968.61" y2="461.9" gradientTransform="matrix(0.99, -0.02, 0.02, 0.92, 60.17, -5.03)" xlink:href="#未命名的渐变_36"/><linearGradient id="未命名的渐变_36-9" x1="1875.96" y1="2543.73" x2="1120.55" y2="622.68" gradientTransform="matrix(1, 0, 0, 1, 0, 0)" xlink:href="#未命名的渐变_36"/><linearGradient id="未命名的渐变_36-10" x1="1818.54" y1="2548.76" x2="1167.82" y2="893.95" gradientTransform="matrix(1, 0, 0, 1, 0, 0)" xlink:href="#未命名的渐变_36"/><linearGradient id="未命名的渐变_36-11" x1="1395.43" y1="2393.34" x2="1007.97" y2="1407.99" gradientTransform="matrix(1, 0, 0, 1, 0, 0)" xlink:href="#未命名的渐变_36"/><linearGradient id="未命名的渐变_36-12" x1="1272.42" y1="2413.18" x2="1015.61" y2="1760.12" gradientTransform="matrix(1, 0, 0, 1, 0, 0)" xlink:href="#未命名的渐变_36"/><linearGradient id="未命名的渐变_36-13" x1="3419.37" y1="2212.27" x2="3117.31" y2="1444.13" gradientTransform="translate(-203.4 -859.58) rotate(19.39)" xlink:href="#未命名的渐变_36"/><linearGradient id="未命名的渐变_36-14" x1="3405.75" y1="2186.42" x2="3157.55" y2="1555.22" gradientTransform="translate(-203.4 -859.58) rotate(19.39)" xlink:href="#未命名的渐变_36"/><linearGradient id="未命名的渐变_36-15" x1="3327.77" y1="2150.4" x2="3148.01" y2="1693.24" gradientTransform="translate(-203.4 -859.58) rotate(19.39)" xlink:href="#未命名的渐变_36"/><linearGradient id="未命名的渐变_36-16" x1="3279.63" y1="2119.72" x2="3154.41" y2="1801.27" gradientTransform="translate(-203.4 -859.58) rotate(19.39)" xlink:href="#未命名的渐变_36"/></defs><title>Mountain9</title><g id="图层_2" data-name="图层 2"><g id="图层_4" data-name="图层 4"><g class="cls-1"><path class="cls-2" d="M0,2708.52c12.9,6.23,189.25,130.87,202.15,140.21s21.51,395.72,21.51,395.72l-43,186.89,172,65.5L400,3274.58,309.68,3791.1l301.07,160.66L877.42,4057.7,1114,3979.8l103.22-349.19,147.87-445.36,146.69-126.4,109.6-3.19,224.52-51.13L2276,2764.6l864.89-127.11L3471,2537.14l236.56-118.4s-30.11-90.36-47.31-93.48S2855.91,2210,2843,2206.86s-1303.23-21.81-1303.23-21.81S714,2097.8,701.08,2097.8s-529,180.72-529,180.72L0,2468.59Z"/><polygon class="cls-3" points="774.93 2097.8 298.28 2275.63 125.72 2426.84 120.82 2618.67 344.25 2702.27 290.43 3250.38 351.95 3291.43 487.29 3114.85 416.2 3597.48 874.13 3780.17 1063.33 3721.94 1361.05 2978.28 1559.67 2906.63 1701.8 2982.85 1848.71 2872.13 2331.37 2590.75 3008.77 2603.68 3559.93 2403.82 3488.07 2322.26 2932.7 2241.89 1602.25 2220.2 933.45 2126.79 774.93 2097.8"/><path class="cls-4" d="M747.43,2124.35,288.71,2381.89l114.68,186.93-28.67,494.32,183.49-81.58s-39.61,518-22.67,511.65,406.84,60.09,406.84,60.09l97.48-68.73,275.23-587.12,254.72-112.63s198.26,62.31,181.06,54,349.77-328.16,349.77-328.16L2989.4,2465l315.37-174.47L2674,2257.27l-788.94,49.85L1131.6,2249Z"/><path class="cls-5" d="M814.88,2178.35,488.05,2369.43,568.59,2681,488.05,2921.9l223.62-41.07L683,3318.53l281,43,114.68-61.59,183.49-378,290.12-152,157.39-18.34,57.08-16.62,537.81-378L2970.84,2332v-77.49S2128,2282.2,2110.75,2282.2s-808.48-12.47-860.09-24.93S814.88,2178.35,814.88,2178.35Z"/><path class="cls-6" d="M855,2211.58l-252.3,149.54,97.48,253.39-97.48,182.77H877.91V3029.9L1038.46,3059l189.22-294.93,324.53-178.62,564.23-216s-196.46-70.62-230.11-70.62-486.63-8.31-526.77-8.31S855,2211.58,855,2211.58Z"/><path class="cls-7" d="M963.83,2263.15l-200.68,70.61,100.34,220.16L763.15,2691H900.76s68.81,103.85,86,103.85,131.88-20.77,131.88-20.77,63.07-257.54,80.28-245.08,487.43-128.77,487.43-128.77,45.82-66.47,43-70.62-369.84-41.54-369.84-41.54Z"/></g><path class="cls-8" d="M13.39,1862.37c12.9-8.61,189.25-180.65,202.15-193.55S237,1122.58,237,1122.58l-43-258,172-90.42L413.39,1081,323.07,368,624.14,146.24,890.81,0l236.56,107.53,103.22,482,147.87,614.76,146.68,174.47,109.6,4.41,224.53,70.58L2289.39,1785l864.9,175.46,330.07,138.51,236.56,163.45s-30.11,124.73-47.32,129-804.3,159.14-817.2,163.44S1553.17,2585,1553.17,2585s-825.8,120.43-838.71,120.43-529-249.47-529-249.47l-172-262.36Z"/><polygon class="cls-9" points="788.32 2705.38 311.67 2459.91 139.11 2251.19 134.21 1986.39 357.64 1870.99 303.82 1114.4 365.34 1057.73 500.68 1301.48 429.59 635.27 887.52 383.09 1076.71 463.47 1374.43 1490 1573.06 1588.9 1715.19 1483.69 1862.1 1636.52 2344.76 2024.92 3022.16 2007.08 3573.32 2282.96 3501.46 2395.55 2946.09 2506.49 1615.64 2536.42 946.84 2665.36 788.32 2705.38"/><path class="cls-10" d="M760.82,2668.74,302.1,2313.23l114.68-258-28.67-682.34L571.6,1485.47S532,770.41,548.92,779.21s406.85-83,406.85-83l97.48,94.86,275.23,810.45L1583.2,1757s198.26-86,181.06-74.54,349.77,453,349.77,453l888.76,63.07,315.36,240.83-630.73,45.87-788.94-68.81L1145,2496.72Z"/><path class="cls-11" d="M828.27,2594.19,501.43,2330.43l80.54-430-80.54-332.57,223.63,56.69-28.67-604.19,281-59.31L1092,1046l183.49,521.79,290.12,209.78L1723,1802.91l57.08,22.94,537.82,521.78L2984.23,2382v107s-842.89-38.15-860.09-38.15-808.49,17.2-860.09,34.4S828.27,2594.19,828.27,2594.19Z"/><path class="cls-12" d="M868.36,2548.32,616.07,2341.9l97.48-349.77-97.48-252.29H891.3v-321.1l160.55-40.14,189.22,407.11,324.53,246.56,564.23,298.16s-196.46,97.48-230.11,97.48-486.63,11.47-526.77,11.47S868.36,2548.32,868.36,2548.32Z"/><path class="cls-13" d="M977.22,2477.14l-200.69-97.48,100.35-303.89L776.53,1886.55H914.15s68.81-143.35,86-143.35S1132,1771.87,1132,1771.87s63.07,355.5,80.27,338.3,487.44,177.75,487.44,177.75,45.82,91.74,43,97.48-369.84,57.34-369.84,57.34Z"/><polygon class="cls-14" points="1366.41 1875.64 1713.27 2204.97 2776.76 2516.82 3027.24 2477.14 3184.61 1963.88 2662.28 1673.23 2114.24 1517.12 1544.78 1573.82 1350.77 1654.43 1366.41 1875.64"/><path class="cls-15" d="M1762.13,2185.69l-318.94-323.15-9-126.26,153.4-77.29s516.09,36.36,533.94,31.13,351.69,135.27,371.93,130.87,610.32,334.12,610.32,334.12,18.08,304.72-5.91,289.66-282.25,1.57-324.07.88S1762.13,2185.69,1762.13,2185.69Z"/><polygon class="cls-16" points="1822.54 2120.28 1531.45 1791.84 1761.46 1789.09 2131.4 1826.99 2669.94 2063.23 2894.03 2249.98 2838.85 2353.64 2217.66 2259.32 1822.54 2120.28"/><path class="cls-17" d="M1977.28,2100l-233.22-208.28,294.69,33.59,347.85,146.17L2617,2226.9l-20.49,58.23s-260-44.76-287.91-45.22S1977.28,2100,1977.28,2100Z"/></g></g></svg>