<svg xmlns="http://www.w3.org/2000/svg" xmlns:xlink="http://www.w3.org/1999/xlink" viewBox="0 0 2162.13 1843.34"><defs><style>.cls-1{fill:url(#未命名的渐变_593);}.cls-2{fill:url(#未命名的渐变_593-2);}.cls-3{fill:url(#未命名的渐变_593-3);}.cls-4{fill:url(#未命名的渐变_593-4);}.cls-5{fill:url(#未命名的渐变_593-5);}.cls-6{fill:url(#未命名的渐变_593-6);}.cls-7{fill:url(#未命名的渐变_593-7);}.cls-8{fill:url(#未命名的渐变_593-8);}.cls-9{fill:url(#未命名的渐变_593-9);}.cls-10{fill:url(#未命名的渐变_593-10);}.cls-11{fill:url(#未命名的渐变_593-11);}.cls-12{fill:url(#未命名的渐变_593-12);}.cls-13{fill:url(#未命名的渐变_593-13);}.cls-14{fill:url(#未命名的渐变_593-14);}.cls-15{fill:url(#未命名的渐变_593-15);}.cls-16{fill:url(#未命名的渐变_593-16);}.cls-17{fill:url(#未命名的渐变_593-17);}.cls-18{fill:url(#未命名的渐变_593-18);}.cls-19{fill:url(#未命名的渐变_593-19);}.cls-20{fill:url(#未命名的渐变_593-20);}.cls-21{fill:url(#未命名的渐变_593-21);}.cls-22{fill:url(#未命名的渐变_593-22);}.cls-23{fill:url(#未命名的渐变_593-23);}.cls-24{fill:url(#未命名的渐变_593-24);}.cls-25{fill:url(#未命名的渐变_593-25);}</style><linearGradient id="未命名的渐变_593" x1="-2551.02" y1="-2213.65" x2="-1619.49" y2="-2306.73" gradientTransform="matrix(1, -0.75, 0.83, 1.1, 4616.4, 1547.45)" gradientUnits="userSpaceOnUse"><stop offset="0" stop-color="#d49600"/><stop offset="0.1" stop-color="#ce9607"/><stop offset="0.24" stop-color="#bf971c"/><stop offset="0.42" stop-color="#a6993e"/><stop offset="0.62" stop-color="#839b6d"/><stop offset="0.84" stop-color="#569ea9"/><stop offset="1" stop-color="#31a0db"/></linearGradient><linearGradient id="未命名的渐变_593-2" x1="-2505.25" y1="-2188.1" x2="-1727.71" y2="-2265.8" gradientTransform="matrix(1.01, -0.74, 0.81, 1.11, 4547.68, 1590.6)" xlink:href="#未命名的渐变_593"/><linearGradient id="未命名的渐变_593-3" x1="-2560.01" y1="-2232.98" x2="-1893" y2="-2299.63" gradientTransform="matrix(0.99, -0.76, 0.83, 1.1, 4644.46, 1534.52)" xlink:href="#未命名的渐变_593"/><linearGradient id="未命名的渐变_593-4" x1="-2630.92" y1="-2316.71" x2="-2094.77" y2="-2370.29" gradientTransform="matrix(0.97, -0.78, 0.86, 1.07, 4789.49, 1440.74)" xlink:href="#未命名的渐变_593"/><linearGradient id="未命名的渐变_593-5" x1="-3539.68" y1="-1719.92" x2="-3023.58" y2="-1771.5" gradientTransform="translate(4022.44 -54.17) rotate(-41.83)" xlink:href="#未命名的渐变_593"/><linearGradient id="未命名的渐变_593-6" x1="-3509.12" y1="-3338.56" x2="-2691.44" y2="-3420.27" gradientTransform="matrix(0.56, -1.12, 1.23, 0.61, 6239.49, -877.31)" xlink:href="#未命名的渐变_593"/><linearGradient id="未命名的渐变_593-7" x1="-3481.1" y1="-3300.39" x2="-2798.59" y2="-3368.59" gradientTransform="matrix(0.57, -1.11, 1.22, 0.63, 6197.24, -808.03)" xlink:href="#未命名的渐变_593"/><linearGradient id="未命名的渐变_593-8" x1="-3512.58" y1="-3361.63" x2="-2927.09" y2="-3420.14" gradientTransform="matrix(0.55, -1.12, 1.23, 0.61, 6258.83, -901.41)" xlink:href="#未命名的渐变_593"/><linearGradient id="未命名的渐变_593-9" x1="-3547.4" y1="-3468.64" x2="-3076.78" y2="-3515.67" gradientTransform="matrix(0.52, -1.13, 1.25, 0.57, 6346.78, -1050.04)" xlink:href="#未命名的渐变_593"/><linearGradient id="未命名的渐变_593-10" x1="-4600.58" y1="-3363.84" x2="-4147.56" y2="-3409.11" gradientTransform="translate(4993.28 -2045.62) rotate(-68.34)" xlink:href="#未命名的渐变_593"/><linearGradient id="未命名的渐变_593-11" x1="-3093.65" y1="-2196.05" x2="-2405.37" y2="-2264.83" gradientTransform="matrix(0.95, -0.81, 0.89, 1.05, 5013.14, 1004.07)" xlink:href="#未命名的渐变_593"/><linearGradient id="未命名的渐变_593-12" x1="-3050.9" y1="-2161.64" x2="-2476.41" y2="-2219.05" gradientTransform="matrix(0.96, -0.79, 0.88, 1.06, 4947.03, 1051.12)" xlink:href="#未命名的渐变_593"/><linearGradient id="未命名的渐变_593-13" x1="-3103.62" y1="-2216.85" x2="-2610.79" y2="-2266.1" gradientTransform="matrix(0.95, -0.81, 0.9, 1.05, 5040.41, 989.53)" xlink:href="#未命名的渐变_593"/><linearGradient id="未命名的渐变_593-14" x1="-3173.76" y1="-2313.02" x2="-2777.62" y2="-2352.6" gradientTransform="matrix(0.93, -0.84, 0.92, 1.02, 5179.77, 887.53)" xlink:href="#未命名的渐变_593"/><linearGradient id="未命名的渐变_593-15" x1="-4217.2" y1="-1752.38" x2="-3835.87" y2="-1790.48" gradientTransform="translate(4327.5 -560.5) rotate(-45.15)" xlink:href="#未命名的渐变_593"/><linearGradient id="未命名的渐变_593-16" x1="-3949.6" y1="-4053.55" x2="-3131.92" y2="-4135.26" gradientTransform="matrix(-0.34, -1.2, 1.32, -0.37, 6147.44, -4513.75)" xlink:href="#未命名的渐变_593"/><linearGradient id="未命名的渐变_593-17" x1="-3931.89" y1="-4010.08" x2="-3249.37" y2="-4078.28" gradientTransform="matrix(-0.32, -1.21, 1.33, -0.36, 6162.81, -4434.08)" xlink:href="#未命名的渐变_593"/><linearGradient id="未命名的渐变_593-18" x1="-3949.27" y1="-4078.53" x2="-3363.78" y2="-4137.04" gradientTransform="matrix(-0.35, -1.2, 1.32, -0.38, 6145.52, -4544.59)" xlink:href="#未命名的渐变_593"/><linearGradient id="未命名的渐变_593-19" x1="-3961.56" y1="-4196.47" x2="-3490.94" y2="-4243.49" gradientTransform="matrix(-0.38, -1.19, 1.31, -0.42, 6110.54, -4713.72)" xlink:href="#未命名的渐变_593"/><linearGradient id="未命名的渐变_593-20" x1="-5065.16" y1="-4391.14" x2="-4612.13" y2="-4436.41" gradientTransform="translate(4439.41 -4539.16) rotate(-110.64)" xlink:href="#未命名的渐变_593"/><linearGradient id="未命名的渐变_593-21" x1="-3033.7" y1="-3127.63" x2="-2454.15" y2="-3185.54" gradientTransform="matrix(0.86, -0.9, 0.99, 0.95, 5735.24, 2066.29)" xlink:href="#未命名的渐变_593"/><linearGradient id="未命名的渐变_593-22" x1="-3005.93" y1="-3092.78" x2="-2522.18" y2="-3141.12" gradientTransform="matrix(0.88, -0.89, 0.98, 0.96, 5674.38, 2119.96)" xlink:href="#未命名的渐变_593"/><linearGradient id="未命名的渐变_593-23" x1="-3039.15" y1="-3147.76" x2="-2624.18" y2="-3189.23" gradientTransform="matrix(0.86, -0.91, 1, 0.95, 5760.85, 2048.99)" xlink:href="#未命名的渐变_593"/><linearGradient id="未命名的渐变_593-24" x1="-3079.81" y1="-3241.22" x2="-2746.25" y2="-3274.55" gradientTransform="matrix(0.83, -0.93, 1.03, 0.92, 5888.85, 1933.04)" xlink:href="#未命名的渐变_593"/><linearGradient id="未命名的渐变_593-25" x1="-4034.09" y1="-3023.39" x2="-3713" y2="-3055.48" gradientTransform="matrix(0.63, -0.78, 0.78, 0.63, 4890.61, 581.5)" xlink:href="#未命名的渐变_593"/></defs><title>Mussels</title><g id="图层_2" data-name="图层 2"><g id="图层_4" data-name="图层 4"><polygon class="cls-1" points="317.35 707.16 460.88 409.91 625.34 260.39 836.77 151.59 1044.14 169.35 1142 305.94 1141.07 511.38 1028.72 695.5 770.03 856.24 499.87 974.26 285.82 1064.25 240.33 1047.13 241 958.21 317.35 707.16"/><polygon class="cls-2" points="315.34 744.72 465.4 462.42 765.91 261.91 938.22 314.8 1020.33 545.19 896.33 755.41 688.54 878.51 452.24 989.36 259.32 1040.39 315.34 744.72"/><polygon class="cls-3" points="304.01 789.71 426.67 548.64 677.84 374.46 824.4 416.59 897.35 610.24 795.64 789.95 623.59 911.93 420.13 1003.86 252.18 1048.19 304.01 789.71"/><polygon class="cls-4" points="297.96 816.75 386.51 629.8 574.77 491.2 687.72 520.24 747.68 666.71 673.82 806.29 544.92 903.27 391.37 977.95 247.36 1045.95 297.96 816.75"/><polygon class="cls-5" points="292.23 867.41 357.25 724.74 496.18 609.98 579.84 622.84 624.6 725.12 570.31 832.21 475.2 912.3 274.24 1038.92 255.41 1038.06 292.23 867.41"/><polygon class="cls-6" points="106.41 707.14 102.73 417.41 173.37 235.55 296.84 67.27 466.7 0 597.07 68.96 676.8 230.71 660.66 419.36 520.41 646.95 354.41 845.47 221.5 1000 179.06 1004.37 144.76 934.26 106.41 707.14"/><polygon class="cls-7" points="119.54 737.43 126.85 456.9 284.39 181.68 440.46 155.74 595.2 304.56 580.13 518.27 465.11 696.37 322.9 875.99 191.34 991.64 119.54 737.43"/><polygon class="cls-8" points="128.26 777.21 130.19 539.8 259.29 304.59 390.92 280.28 524.07 403.83 514.56 584.84 427.18 748.05 303.36 899.96 188.79 1000.57 128.26 777.21"/><polygon class="cls-9" points="134.1 800.82 130.44 619.28 224.04 436.67 324.15 415.24 428.62 506.81 425.26 645.39 361.99 772.06 270.61 890.87 184.12 1000.69 134.1 800.82"/><polygon class="cls-10" points="149.44 842.86 144.64 705.32 208.82 560.76 279.58 538.09 354.8 600.9 354.1 706.29 310.76 806.46 202.48 984.64 187.35 991.34 149.44 842.86"/><polygon class="cls-11" points="155.96 955.53 249.13 730.13 364.05 612.82 515.35 523.52 669.07 527.76 747.1 624.32 755.19 775.9 680.19 916.52 496.25 1046.14 302.02 1144.75 147.97 1220.28 113.69 1209.6 110.38 1143.97 155.96 955.53"/><polygon class="cls-12" points="156.09 983.32 254.7 768.67 467.8 607.92 597.16 639.57 667.58 806 585.1 966.37 437.09 1066.06 267.53 1157.92 127.41 1203.81 156.09 983.32"/><polygon class="cls-13" points="149.65 1016.99 229.82 833.93 407.65 694.71 517.56 719.52 579.64 859.25 512.3 996.15 390.61 1093.48 244.46 1169.99 122.47 1209.87 149.65 1016.99"/><polygon class="cls-14" points="146.34 1037.19 203.67 895.51 336.61 785.23 421.17 801.82 471.66 907.29 423.14 1013.41 332.21 1090.45 222.14 1152.11 118.82 1208.42 146.34 1037.19"/><polygon class="cls-15" points="144.29 1074.81 186.15 966.79 283.71 876.2 345.97 882.11 383.36 955.64 347.9 1036.95 281.17 1100.1 138.35 1202.09 124.42 1202.26 144.29 1074.81"/><polygon class="cls-16" points="1879.9 1582.6 1682.19 1370.78 1612.04 1188.73 1590.11 981.16 1670.47 817.09 1813.31 780.36 1981.14 846.33 2096.16 996.73 2145.6 1259.45 2156.43 1518.01 2162.13 1721.75 2133.68 1753.54 2061.12 1724.77 1879.9 1582.6"/><polygon class="cls-17" points="1909.99 1596.16 1726.6 1383.75 1657.9 1074.17 1755.88 949.94 1970.49 955.88 2103.17 1124.08 2137.96 1333.22 2153.66 1561.78 2134.19 1735.86 1909.99 1596.16"/><polygon class="cls-18" points="1943.22 1619.72 1784.87 1442.82 1722.05 1181.97 1803.05 1075.4 1984.69 1077.17 2099.47 1217.45 2144.68 1396.97 2155.34 1592.66 2138.31 1744.18 1943.22 1619.72"/><polygon class="cls-19" points="1963.43 1633.25 1838.54 1501.44 1784.87 1303.38 1844.49 1220.16 1983.39 1217.58 2074.18 1322.34 2112.63 1458.6 2125 1607.98 2134.94 1747.42 1963.43 1633.25"/><polygon class="cls-20" points="2003.07 1654.02 1906.95 1555.52 1857.13 1405.4 1894.21 1341.02 1992.12 1336.85 2062.53 1415.27 2097.89 1518.53 2137.72 1723.18 2131.04 1738.33 2003.07 1654.02"/><polygon class="cls-21" points="21.68 1620.93 79.96 1424.01 165.93 1315.69 284.82 1227.66 413.93 1217.75 487.73 1291.79 507.78 1418.02 457.28 1542.35 314.59 1667.02 160.56 1766.6 38.17 1843.35 8.52 1837.4 0 1782.74 21.68 1620.93"/><polygon class="cls-22" points="24.21 1644.19 88 1455.8 252.39 1302.51 363.5 1317.69 437.04 1450.9 382.01 1592.42 266.79 1688.87 132.83 1780.65 19.5 1831.36 24.21 1644.19"/><polygon class="cls-23" points="21.77 1672.95 72.88 1512.62 209.62 1380.46 303.83 1391.62 368.06 1503.19 323.66 1623.74 230.26 1715.91 114.57 1792.78 15.9 1836.86 21.77 1672.95"/><polygon class="cls-24" points="20.77 1690.16 56.38 1566.48 158.05 1462.49 230.32 1468.98 281.84 1552.88 250.5 1646.01 181.09 1718.49 94.31 1779.76 12.71 1835.97 20.77 1690.16"/><polygon class="cls-25" points="22.34 1721.84 47.94 1627.72 121.72 1543.31 174.38 1542.8 212.13 1601.11 189.55 1672.31 139.19 1731.04 28.51 1828.95 16.86 1830.32 22.34 1721.84"/></g></g></svg>