<svg xmlns="http://www.w3.org/2000/svg" viewBox="0 0 983.56 666.46"><defs><style>.cls-1{fill:#aad8e8;}.cls-2{fill:#f2db9c;}.cls-3{fill:#d2d5d6;}.cls-4{fill:#959696;}.cls-5{fill:#afb2b2;}.cls-6{fill:#f2b4aa;stroke:#bc817d;stroke-miterlimit:10;stroke-width:3px;}.cls-7{fill:#ccf4ff;}.cls-8{fill:#84b4c1;}.cls-9{fill:#fceecd;}.cls-10{fill:#ccb272;}.cls-11,.cls-13,.cls-23,.cls-24,.cls-31{font-size:25px;}.cls-11{fill:#5e4612;}.cls-11,.cls-12,.cls-13,.cls-23,.cls-24,.cls-31{font-family:MicrosoftYaHei, Microsoft YaHei;}.cls-12{font-size:14px;}.cls-13{fill:#681c14;}.cls-14{letter-spacing:0.03em;}.cls-15{letter-spacing:-0.08em;}.cls-16{fill:#b7b0b0;}.cls-17{fill:#c6c6c6;}.cls-18{fill:#7e7e7e;}.cls-19{fill:#e5e3e3;}.cls-20{fill:none;}.cls-21{fill:#7f7d7d;}.cls-22{fill:#999898;}.cls-23{fill:#fff;}.cls-25{letter-spacing:-0.05em;}.cls-26{letter-spacing:0em;}.cls-27{letter-spacing:0.01em;}.cls-28{letter-spacing:-0.01em;}.cls-29{letter-spacing:0.02em;}.cls-30{letter-spacing:-0.08em;}.cls-31{fill:#215766;}.cls-32{letter-spacing:-0.01em;}.cls-33{letter-spacing:-0.01em;}</style></defs><title>pic_9</title><g id="Layer_2" data-name="Layer 2"><g id="图层_60" data-name="图层 60"><path class="cls-1" d="M0,244V130H503V232H421v90H205s-20-78-75-78Z"/><path class="cls-2" d="M0,261H124s54-2,54,63v17h55v10H208v24h31V341h5v47H179V580H2Z"/><circle class="cls-3" cx="305.5" cy="335.5" r="88.5"/><ellipse class="cls-4" cx="307.5" cy="337" rx="4.5" ry="79"/><rect class="cls-5" x="209" y="314" width="193" height="51" rx="12" ry="12"/><circle class="cls-4" cx="224" cy="340" r="9"/><circle class="cls-4" cx="385" cy="339" r="9"/><path class="cls-6" d="M411,427.33H244V469H491.8a166,166,0,0,1,12-41.67Z"/><path class="cls-6" d="M529.12,385.67H411v41.66h92.82A184.42,184.42,0,0,1,529.12,385.67Z"/><path class="cls-6" d="M623,317.31V286H458v99.67h71.12C552.38,356.63,584.78,332.94,623,317.31Z"/><circle class="cls-7" cx="71.5" cy="182.5" r="36.5"/><circle class="cls-7" cx="179.5" cy="182.5" r="36.5"/><circle class="cls-7" cx="287.5" cy="182.5" r="36.5"/><rect class="cls-8" x="338" y="209" width="160" height="12"/><circle class="cls-9" cx="52" cy="321" r="36"/><circle class="cls-9" cx="52" cy="412" r="36"/><circle class="cls-9" cx="54" cy="502" r="36"/><rect class="cls-10" x="116" y="359" width="13" height="123"/><text class="cls-11" transform="translate(146 377)">D<tspan x="0" y="30">R</tspan><tspan x="0" y="60">U</tspan><tspan x="0" y="90">G</tspan></text><text class="cls-12" transform="translate(33.33 327)">Drug1</text><text class="cls-12" transform="translate(33.33 418)">Drug2</text></g><g id="图层_64" data-name="图层 64"><text class="cls-13" transform="translate(460 313)">REGU<tspan class="cls-14" x="67.32" y="0">L</tspan><tspan class="cls-15" x="80.93" y="0">A</tspan><tspan x="96.58" y="0">TION</tspan></text></g><g id="图层_62" data-name="图层 62"><rect class="cls-16" x="91" y="474" width="731" height="97" rx="12" ry="12"/><circle class="cls-17" cx="139.5" cy="522.5" r="28.5"/><rect class="cls-18" x="137" y="499" width="6" height="47"/><rect class="cls-18" x="136.5" y="499.5" width="6" height="47" transform="translate(-383.5 662.5) rotate(-90)"/></g><g id="图层_61" data-name="图层 61"><path class="cls-19" d="M800.5,131A55.5,55.5,0,1,0,856,186.5,55.5,55.5,0,0,0,800.5,131Zm.88,89.86a34.95,34.95,0,1,1,35-35A34.94,34.94,0,0,1,801.38,220.86Z"/><circle class="cls-20" cx="800" cy="187" r="119"/><path class="cls-19" d="M955.5,189a30.49,30.49,0,0,1,28.06-30.39,188,188,0,0,0-5.22-23,30.51,30.51,0,0,1-26.43-54.91,189.07,189.07,0,0,0-12.55-16,30.5,30.5,0,0,1-47-38.87,190.2,190.2,0,0,0-22.49-11.24A30.5,30.5,0,0,1,810,6.5a31.25,31.25,0,0,1,.59-6Q803.86,0,797,0c-1.84,0-3.67,0-5.49.08a30.5,30.5,0,0,1-59.9,11.54A189.84,189.84,0,0,0,712.33,20a30.49,30.49,0,0,1-49,35.42A189.83,189.83,0,0,0,647.25,73.7a30.5,30.5,0,0,1-28.81,53.22,188.17,188.17,0,0,0-5.84,20.51A30.5,30.5,0,0,1,608.94,208a188.85,188.85,0,0,0,4.49,26.13,30.5,30.5,0,0,1,23.63,55.64,191.15,191.15,0,0,0,16.16,21.93,30.49,30.49,0,0,1,46.29,39.28,190.32,190.32,0,0,0,20.17,10.57,30.5,30.5,0,0,1,58.8,15.59q9.13.88,18.52.9c2.38,0,4.74-.06,7.1-.15-.06-.77-.1-1.56-.1-2.35A30.5,30.5,0,0,1,863.47,366,188.5,188.5,0,0,0,889,354.15a30.49,30.49,0,0,1,47.61-37.7,190.67,190.67,0,0,0,15.08-18.78,30.5,30.5,0,0,1,26.58-54.89,186.83,186.83,0,0,0,5.34-23.39A30.49,30.49,0,0,1,955.5,189ZM800,306A119,119,0,1,1,919,187,119,119,0,0,1,800,306Z"/><rect class="cls-19" x="735.68" y="70.08" width="21" height="87.7" transform="translate(79.93 468.71) rotate(-36.72)"/><rect class="cls-19" x="828.68" y="62.08" width="21" height="87.7" transform="translate(119.15 -337.92) rotate(24.46)"/><rect class="cls-19" x="877.68" y="141.08" width="21" height="87.7" transform="translate(1073.1 -703.25) rotate(90)"/><rect class="cls-19" x="839.68" y="215.08" width="21" height="87.7" transform="matrix(-0.79, 0.61, -0.61, -0.79, 1680.89, -56.9)"/><rect class="cls-19" x="760.68" y="224.08" width="21" height="87.7" transform="translate(1359.52 833.93) rotate(-155.27)"/><rect class="cls-19" x="697.68" y="145.08" width="21" height="87.7" transform="translate(519.25 897.1) rotate(-90)"/><circle class="cls-20" cx="821.14" cy="514.41" r="71.72" transform="translate(228.31 1280.86) rotate(-84.35)"/><path class="cls-17" d="M912,520.34a85,85,0,0,0-5.56-34.89L915,482a97.73,97.73,0,0,0-37.22-51.72L872,438.91a85.49,85.49,0,0,0-81.2-8.23l-5.14-11.49a97.88,97.88,0,0,0-46.83,39l6.72,5A85.45,85.45,0,0,0,733,543.79l-2.54,1a97.86,97.86,0,0,0,42.42,49.65l.37-.64a85.44,85.44,0,0,0,81.51,4.29l1.52,3a97.73,97.73,0,0,0,43-32.22l-3.5-2.47A85.07,85.07,0,0,0,912,520.34Zm-90.88,65.79a71.72,71.72,0,1,1,71.72-71.72A71.72,71.72,0,0,1,821.14,586.13Z"/><path class="cls-17" d="M949,511.54a25,25,0,0,1,23-24.91,154.62,154.62,0,0,0-4.27-18.84,25,25,0,0,1-21.67-45,155.63,155.63,0,0,0-10.29-13.13,25,25,0,0,1-38.49-31.86,155.27,155.27,0,0,0-18.43-9.21A25,25,0,0,1,830.23,357c-3.68-.26-7.4-.4-11.14-.4-1.51,0-3,0-4.5.07a25,25,0,0,1-49.1,9.45,156.32,156.32,0,0,0-15.8,6.86,25,25,0,0,1-40.19,29,156.4,156.4,0,0,0-13.16,15,25,25,0,0,1-23.61,43.62,152.69,152.69,0,0,0-4.79,16.81,25,25,0,0,1-3,49.62,153.9,153.9,0,0,0,3.68,21.41A25,25,0,0,1,688,594.11a155.82,155.82,0,0,0,13.25,18,25,25,0,0,1,37.94,32.2,153.53,153.53,0,0,0,16.53,8.66,25,25,0,0,1,48.62,8.19,25.69,25.69,0,0,1-.42,4.59q7.49.74,15.18.74c1.95,0,3.88-.05,5.82-.12,0-.64-.09-1.28-.09-1.93a25,25,0,0,1,48.75-7.81,154.2,154.2,0,0,0,20.88-9.69,25,25,0,0,1,39-30.9,155,155,0,0,0,12.36-15.39,25,25,0,0,1,21.79-45A154.54,154.54,0,0,0,972,536.46,25,25,0,0,1,949,511.54Zm-16.4,9.19a106.21,106.21,0,0,1-20.25,57.35l-13.1-9.24a97.73,97.73,0,0,1-43,32.22l7.92,15.64a106.67,106.67,0,0,1-101.31-5.45l10-16.84a97.86,97.86,0,0,1-42.42-49.65l-17,6.51a106.62,106.62,0,0,1,15.79-100.22l9.61,7.12a97.88,97.88,0,0,1,46.83-39l-3.39-7.58A106.66,106.66,0,0,1,883.24,422l-5.46,8.27A97.73,97.73,0,0,1,915,482l10.79-4.43A106.3,106.3,0,0,1,932.6,520.73Z"/><path class="cls-21" d="M609.83,327.82a80.79,80.79,0,1,0,92.75,66.73A80.79,80.79,0,0,0,609.83,327.82Zm16.72,99.6a20.65,20.65,0,1,1,17.06-23.71A20.66,20.66,0,0,1,626.55,427.42Z"/><polygon class="cls-21" points="564.28 362.23 538.66 307.8 587.44 344.5 564.28 362.23"/><polygon class="cls-21" points="598.59 336.98 607.62 277.51 627.69 335.15 598.59 336.98"/><polygon class="cls-21" points="643.65 336.24 679.51 287.94 670.22 348.26 643.65 336.24"/><polygon class="cls-21" points="684.32 454.89 715.32 506.44 663.08 474.87 684.32 454.89"/><polygon class="cls-21" points="590.08 478.04 546.9 519.93 565.79 461.88 590.08 478.04"/><polygon class="cls-21" points="642.5 482.02 629.88 540.83 613.34 482.07 642.5 482.02"/><polygon class="cls-21" points="553.6 445.13 493.73 450.95 544.7 417.36 553.6 445.13"/><polygon class="cls-21" points="543.83 400.28 494.52 365.81 555.09 373.38 543.83 400.28"/><polygon class="cls-21" points="680.98 364.29 737.49 343.68 696.55 388.95 680.98 364.29"/><polygon class="cls-21" points="696.16 408.17 749.71 435.58 688.67 436.36 696.16 408.17"/><circle class="cls-22" cx="821" cy="517" r="25"/><path class="cls-22" d="M823,519,694,505s-11,20-68,22H602v3h24s59,0,72,13Z"/><text class="cls-23" transform="translate(582 369)">BURNS</text><text class="cls-24" transform="translate(757.56 443.04)">STI<tspan class="cls-25" x="36.11" y="0">T</tspan><tspan class="cls-26" x="49.23" y="0">CHING</tspan></text><text class="cls-24" transform="translate(187.09 532.72)">B<tspan class="cls-27" x="15.69" y="0">E</tspan><tspan class="cls-28" x="29.57" y="0">A</tspan><tspan x="46.8" y="0">U</tspan><tspan class="cls-29" x="65.47" y="0">T</tspan><tspan x="80.18" y="0">Y TR</tspan><tspan class="cls-27" x="133.31" y="0">E</tspan><tspan class="cls-30" x="147.19" y="0">A</tspan><tspan x="162.84" y="0">TMENT</tspan></text></g><g id="图层_63" data-name="图层 63"><text class="cls-31" transform="translate(355.33 190.33)">HYD<tspan class="cls-32" x="53.47" y="0">R</tspan><tspan class="cls-26" x="69.52" y="0">OGEL</tspan></text><text class="cls-12" transform="translate(47.5 186.5)">GelMA</text><text class="cls-12" transform="translate(153.5 178.5)">Sodium<tspan x="0" y="16.8">Algina</tspan><tspan class="cls-33" x="42.62" y="16.8">t</tspan><tspan x="47.72" y="16.8">e</tspan></text><text class="cls-12" transform="translate(282.5 182.5)">...</text><text class="cls-12" transform="translate(49.5 504.5)">...</text><text class="cls-24" transform="translate(243.67 349.67)">ADHESIVE</text></g></g></svg>