<svg xmlns="http://www.w3.org/2000/svg" viewBox="0 0 1088.01 1524.31"><defs><style>.cls-1{fill:#ffcc80;}.cls-2{font-size:23px;font-family:MicrosoftYaHei, Microsoft YaHei;}.cls-3{letter-spacing:-0.01em;}.cls-4{letter-spacing:-0.01em;}.cls-5{opacity:0.8;}.cls-6,.cls-7{fill:#92d0f7;}.cls-6{stroke:#3d4aa5;}.cls-10,.cls-6,.cls-7,.cls-8{stroke-miterlimit:10;stroke-width:5px;}.cls-7{stroke:#8394a8;}.cls-8{fill:#dbf1fc;stroke:#6080a0;}.cls-9{opacity:0.44;}.cls-10,.cls-11{fill:none;}.cls-10{stroke:#848280;}.cls-12{fill:#e389e8;}.cls-13{fill:#82cc52;}.cls-14{fill:#448aff;}.cls-15{fill:#406787;}.cls-16{fill:#eaeaea;}.cls-17{fill:#e7f4fa;}.cls-17,.cls-18,.cls-19,.cls-20,.cls-21,.cls-22,.cls-23{opacity:0.5;}.cls-18{fill:#ebf6fb;}.cls-19{fill:#eff8fc;}.cls-20{fill:#f3fafd;}.cls-21{fill:#f7fbfd;}.cls-22{fill:#fbfdfe;}.cls-23{fill:#fff;}.cls-24{fill:#b1dde3;}.cls-25{fill:#a7d1da;}.cls-26{fill:#9ec6d0;}.cls-27{fill:#94bbc7;}.cls-28{fill:#8aafbe;}.cls-29{fill:#81a4b4;}.cls-30{fill:#7798ab;}</style></defs><title>pic_3</title><g id="Layer_2" data-name="Layer 2"><g id="图层_8" data-name="图层 8"><polygon class="cls-1" points="438.66 237.68 349.28 236.86 349.08 258.76 438.46 259.57 438.33 273.9 467.81 248.89 438.79 224.16 438.66 237.68"/><polygon class="cls-1" points="800.45 569.56 801.31 480.17 779.41 479.96 778.55 569.35 764.23 569.21 789.22 598.7 813.96 569.68 800.45 569.56"/><polygon class="cls-1" points="393.05 1054.73 482.44 1054.56 482.4 1032.66 393.01 1032.83 392.98 1018.51 363.78 1043.84 393.08 1068.24 393.05 1054.73"/><text class="cls-2" transform="translate(167.43 119.34)">mfp-5</text><text class="cls-2" transform="translate(117.43 1242.34)">mfp-5<tspan x="0" y="27.6">p</tspan><tspan class="cls-3" x="14.69" y="27.6">r</tspan><tspan x="23.15" y="27.6">o</tspan><tspan class="cls-4" x="37.77" y="27.6">t</tspan><tspan x="46.15" y="27.6">ein</tspan></text><text class="cls-2" transform="translate(763.43 416.34)">E.coli</text></g><g id="图层_33" data-name="图层 33"><g class="cls-5"><rect class="cls-6" x="790.93" y="99.84" width="301.09" height="133.5" rx="66.75" ry="66.75" transform="translate(8.57 375.91) rotate(-22.68)"/><rect class="cls-7" x="796.84" y="107.19" width="287.77" height="118.67" rx="59.33" ry="59.33" transform="translate(8.54 375.61) rotate(-22.68)"/><rect class="cls-8" x="802.52" y="113.52" width="276.56" height="107.05" rx="53.53" ry="53.53" transform="translate(8.34 375.68) rotate(-22.68)"/></g><g class="cls-9"><rect class="cls-6" x="536.9" y="30.72" width="192.2" height="85.22" rx="42.61" ry="42.61" transform="translate(134.28 -323.33) rotate(31.89)"/><rect class="cls-7" x="540.91" y="35.04" width="183.7" height="75.75" rx="37.88" ry="37.88" transform="translate(134.02 -323.27) rotate(31.89)"/><rect class="cls-8" x="544.24" y="38.98" width="176.54" height="68.34" rx="34.17" ry="34.17" transform="translate(134.11 -323.1) rotate(31.89)"/></g></g><g id="图层_32" data-name="图层 32"><circle class="cls-10" cx="127.93" cy="247.84" r="108"/><path class="cls-11" d="M29.43,251.34a93.06,93.06,0,0,0,115.39,90.28l-76.45-166A92.87,92.87,0,0,0,29.43,251.34Z"/><path class="cls-12" d="M122.43,344.34A93,93,0,0,1,68.37,175.66l-9.19-19.94a114.53,114.53,0,0,0,94.63,205.4l-9-19.5A93.33,93.33,0,0,1,122.43,344.34Z"/><path class="cls-13" d="M173.7,332.31q-1.9.9-3.84,1.71l5,20.6q4.19-1.61,8.31-3.57a114.51,114.51,0,0,0,65.07-110.5l-22.43-5.25A93.05,93.05,0,0,1,173.7,332.31Z"/><path class="cls-14" d="M128.43,149.34a93,93,0,0,1,87.64,61.83l20.05-9.65A114.66,114.66,0,0,0,100.3,131l4.6,21.39A93.61,93.61,0,0,1,128.43,149.34Z"/><polygon class="cls-12" points="127.43 332.34 136.43 381.34 163.43 350.34 127.43 332.34"/><rect class="cls-6" x="547.93" y="151.84" width="472.5" height="209.5" rx="84" ry="84"/><rect class="cls-7" x="557.34" y="162.92" width="451.59" height="186.22" rx="84" ry="84"/><rect class="cls-8" x="565.93" y="172.84" width="434" height="168" rx="84" ry="84"/><circle class="cls-10" cx="666.81" cy="256.47" r="58.14"/><path class="cls-11" d="M613.78,258.36A50.11,50.11,0,0,0,675.9,307l-41.16-89.34A50,50,0,0,0,613.78,258.36Z"/><path class="cls-12" d="M663.84,308.42a50.06,50.06,0,0,1-29.1-90.8l-4.94-10.74a61.66,61.66,0,0,0,50.94,110.58L675.9,307A50.42,50.42,0,0,1,663.84,308.42Z"/><path class="cls-13" d="M691.44,301.94c-.68.33-1.37.64-2.06.93L692.07,314q2.26-.85,4.48-1.91a61.67,61.67,0,0,0,35-59.49l-12.08-2.83A50.06,50.06,0,0,1,691.44,301.94Z"/><path class="cls-14" d="M667.07,203.45a50.08,50.08,0,0,1,47.18,33.28l10.8-5.19a61.75,61.75,0,0,0-73.12-38l2.48,11.52A49.92,49.92,0,0,1,667.07,203.45Z"/><polygon class="cls-12" points="666.54 301.96 671.38 328.34 685.92 311.65 666.54 301.96"/><path class="cls-15" d="M781.34,258.8c-4.25-7.89-2.88-18,4.31-23.76,7.36-5.85,16.23-4.8,23.94-.33,10.19,5.9,25,17.43,36.53,7.18,11.38-10.1,0-25.31,3.23-37.46,3.77-14.27,25.42-12.36,35.61-7.54,22.56,10.65-1.31,39.87-11.76,50.88-1.24,1.3-1.2,3.84.6,4.71,24.33,11.74,36.09-25.37,59.08-21.7,12.92,2.06,21.51,13.11,24.59,25.19,2.7,10.59,3.91,27.13-6,34.44-9.64,7.09-25.69,8.53-35.58,1.3-9.6-7-12.42-24.71,1.47-29.09,11-3.46,18,10,16.28,19.21-2.08,11.09-14,17.4-23.94,19.83-10.58,2.58-23.83,2.44-32.52-5-13-11.17,5.61-20.67,14.62-24.55,8.43-3.64,17-8.86,18.21-18.81,1.2-9.52-4.31-18.71-12.16-23.74-8.94-5.74-21.3-7.51-31.74-6.53-9,.84-19.11,6.56-18.72,16.9.18,4.66,3.16,8.07,5.89,11.55,4.43,5.65,5,11.51,1.88,18-4.81,10.14-15,21.09-24.87,26.48-12.22,6.65-24.85-.84-26.22-14.46a18.49,18.49,0,0,1,6.39-16.11c4.72-4.05,12.28-5.78,16.54-.05,3.13,4.21,2.8,10.73.15,15.07-3.41,5.58-10.39,7.7-16.61,7.56-6.81-.16-12.34-3.48-18.58-5.7a22.61,22.61,0,0,0-8.87-1.5c-3.72.2-7.92,2.4-11.39.29l1.38,3.39a143.31,143.31,0,0,1,7.07-24.34c1.41-3.6-4.39-5.15-5.78-1.59a142.06,142.06,0,0,0-7.08,24.33,3.12,3.12,0,0,0,1.38,3.39c6.32,3.84,13.33-.69,20.11,1.28s12.41,5.64,19.57,6.31c11.71,1.09,24.34-4.9,26.5-17.33,1.76-10.1-4.41-21.08-15.58-20.9s-20.16,10.81-21.17,21.4c-1,10.84,5,22.86,15.63,26.6,13,4.57,25-5.09,33.52-13.83s19.61-21.62,15.1-34.68c-2.11-6.09-10.6-11.27-8.48-18.17,2.71-8.79,14.6-8.42,21.88-7.83,7.73.62,16.21,2.51,22.08,7.93,5.16,4.77,8.45,13.15,4.92,19.79-3.24,6.09-10.62,8.66-16.59,11.19s-11.4,5.41-15.4,10.48c-8.83,11.19-.74,22.87,10.69,27.64,11.86,4.95,26.33,3.57,38-1.38,10.33-4.39,20-13.23,20.47-25.12.42-9.91-5.71-21.26-16.09-23.21-11.83-2.22-22.39,8.89-22.27,20.35.13,12.49,10.74,22.5,22.47,24.88,12,2.43,28.73-.91,36.15-11.53,7.64-10.91,6.06-28.54,1.7-40.4-4.57-12.4-14.62-22.73-28.07-24.8-14.74-2.27-24,7.68-34.44,16.28-6,5-14.64,9.9-22.47,6.13l.61,4.71a109,109,0,0,0,18.22-25.14c3.93-7.68,6.85-17.09,2.85-25.34-6.6-13.58-28.35-16.8-41.34-12.31-6.45,2.23-11.82,6.86-13.61,13.62-2.18,8.28,1.31,16.46,1.74,24.7.59,11.1-8.83,14.19-18.08,10.6s-16.08-11.54-26.23-13c-20.49-3-34.29,19.18-24.83,36.74,1.83,3.4,7,.37,5.18-3Z"/><path class="cls-14" d="M22.13,1032.44C17,1019.24,7.21,993,24.87,984.5c7.15-3.43,16.38-2,22.35,3.13,7,6,10,15.51,9.48,24.52-1.12,20.63-18.28,36.77-21.23,57.15-2.47,17.07,2.86,37.33,21.29,42.8,20.82,6.18,39.09-11.43,47.62-28.43,5-9.87,8.44-20.46,14.33-29.86a75.65,75.65,0,0,1,19.61-20.93,86.51,86.51,0,0,1,57.8-15.94,96.17,96.17,0,0,1,32.19,8.33c8.74,4,17.76,9.11,22.9,17.54,2.06,3.38,3.68,7.48,2.22,11.41-1.64,4.44-6.26,7.19-10.11,9.49-9.46,5.65-19.94,9.24-30,13.75-18.09,8.14-36.48,22.1-38.33,43.4-1.59,18.26,16.86,38.15,35.77,32.53,19.07-5.67,21.48-29.74,13.71-45.1-4.74-9.36-12.69-16.64-20.11-23.83-7.23-7-16-15.47-17.05-26.07-.64-6.11,4.53-16.78,12.24-14.83,7.32,1.85,4.92,13.31-2.58,12.44-10-1.14-9.48-16.29-8.8-23.1,1.22-12.22,3-24.31,3.25-36.63.43-18.92-3.46-41.33-21.9-51-16-8.41-36.15-4.77-49.92,6.27-16.27,13-20.79,35.44-18,55.18,1.54,10.7,5.59,20.43,10.34,30.07,5,10.17,10.14,20.17,10.37,31.77.23,12-3.29,23.84-7.2,35.11a209.58,209.58,0,0,1-14.24,32,227.11,227.11,0,0,1-18.21,28c-2.46,3.25-.49,8.35,2.69,10.26,3.82,2.29,7.83.52,10.26-2.69a230.75,230.75,0,0,0,34-63.58c4.06-11.68,7.41-23.87,7.73-36.31s-3.58-24-9-35.17c-4.89-10.14-10.08-19.88-11.91-31.13-1.56-9.57-.91-20,3-28.94,6.58-15.11,25.33-25.53,41.38-18.44,19.21,8.48,16.13,36.69,14.76,53.5-1,12.48-4.43,25.43-1.85,37.9,2,9.66,9.24,19.2,19.23,21.43a21.34,21.34,0,0,0,14.38-39.85c-9.26-4.59-20.08-1.21-27,6-7.4,7.76-9.61,18.19-7,28.48,2.74,10.85,10.24,20,18,27.66,7.48,7.41,17,14.71,20.93,24.82,2.32,6,2.68,15.38-2.86,19.86-6.36,5.15-14.32-1.15-17.51-6.88-4.44-8-.82-17.12,4.64-23.58,6.86-8.12,16.31-13.07,25.89-17.28,17.25-7.59,47.92-16.14,46.4-40.19-1.45-22.87-26.91-36-45.91-42.3-21.42-7.05-45.44-7.7-66.86-.3a97,97,0,0,0-49.15,37.4c-11.11,16.62-14.45,44.7-35.36,52.58-7.4,2.79-15.27.89-19.1-6.32-3.55-6.67-3.37-15.2-1.67-22.37,5.07-21.25,22.57-38.08,20.78-61.24-1.6-20.75-16.77-39.67-38.82-39.27C11,968.09-1.67,987.07.18,1007.61c.9,10,3.85,19.51,7.49,28.81,1.47,3.76,5,6.41,9.22,5.24,3.59-1,6.73-5.42,5.24-9.22Z"/><rect class="cls-14" x="787.16" y="973.61" width="14.85" height="4.43" transform="translate(-457.28 847.67) rotate(-45)"/><path class="cls-14" d="M786,1524.31c-19.65,0-33-12.36-33-33,0-12.36,7.58-17.12,16.48-33,19.55-34.84,12.88-107.13,16.48-107.13s-3.08,72.29,16.48,107.13c8.9,15.84,16.48,20.84,16.48,33C819,1512,805.67,1524.31,786,1524.31Z"/><rect class="cls-14" x="777.52" y="1238.05" width="14.85" height="4.43" transform="translate(978.23 2695.26) rotate(-155.24)"/><rect class="cls-14" x="760.64" y="869.92" width="14.85" height="4.43" transform="translate(325.03 -202.23) rotate(18.96)"/><rect class="cls-14" x="806.46" y="1086.13" width="14.85" height="4.43" transform="translate(-531.2 894.27) rotate(-45)"/><rect class="cls-16" x="777.75" y="1303.35" width="17.19" height="55.15"/><rect class="cls-16" x="777.75" y="716.81" width="17.19" height="55.15"/><rect class="cls-17" x="741.61" y="810.63" width="89.47" height="463.01"/><rect class="cls-18" x="744.5" y="810.63" width="77.33" height="463.01"/><rect class="cls-19" x="747.4" y="810.63" width="65.2" height="463.01"/><rect class="cls-20" x="750.29" y="810.63" width="53.06" height="463.01"/><rect class="cls-21" x="753.19" y="810.63" width="40.93" height="463.01"/><rect class="cls-22" x="756.08" y="810.63" width="28.79" height="463.01"/><rect class="cls-23" x="758.97" y="810.63" width="16.66" height="463.01"/><rect class="cls-24" x="734.26" y="766.31" width="104.17" height="50.35"/><rect class="cls-25" x="736.72" y="766.31" width="89.33" height="50.35"/><rect class="cls-26" x="739.18" y="766.31" width="74.49" height="50.35"/><rect class="cls-27" x="741.64" y="766.31" width="59.65" height="50.35"/><rect class="cls-28" x="744.11" y="766.31" width="44.81" height="50.35"/><rect class="cls-29" x="746.57" y="766.31" width="29.97" height="50.35"/><rect class="cls-30" x="749.03" y="766.31" width="15.13" height="50.35"/><rect class="cls-24" x="734.26" y="1265.94" width="104.17" height="50.35"/><rect class="cls-25" x="736.72" y="1265.94" width="89.33" height="50.35"/><rect class="cls-26" x="739.18" y="1265.94" width="74.49" height="50.35"/><rect class="cls-27" x="741.64" y="1265.94" width="59.65" height="50.35"/><rect class="cls-28" x="744.11" y="1265.94" width="44.81" height="50.35"/><rect class="cls-29" x="746.57" y="1265.94" width="29.97" height="50.35"/><rect class="cls-30" x="749.03" y="1265.94" width="15.13" height="50.35"/><rect class="cls-14" x="842.14" y="689.84" width="35.6" height="10.63" transform="translate(-244.63 643.44) rotate(-36.27)"/><rect class="cls-14" x="730.14" y="195.84" width="30.29" height="8.5"/><rect class="cls-14" x="740.14" y="211.84" width="30.29" height="8.5"/><rect class="cls-14" x="771.14" y="199.84" width="30.29" height="8.5"/><rect class="cls-14" x="772.15" y="628.3" width="35.6" height="10.63" transform="translate(1238.71 -274.18) rotate(77.57)"/><rect class="cls-14" x="787.76" y="669.95" width="35.6" height="10.63" transform="translate(263.1 -225.09) rotate(18.96)"/><rect class="cls-14" x="715.61" y="712.25" width="35.6" height="10.63" transform="translate(-188.27 266.67) rotate(-18.31)"/><rect class="cls-14" x="732.48" y="665.17" width="35.6" height="10.63" transform="translate(-254.35 726.91) rotate(-45)"/></g></g></svg>