<svg xmlns="http://www.w3.org/2000/svg" xmlns:xlink="http://www.w3.org/1999/xlink" viewBox="0 0 885.4 605.4"><defs><style>.cls-1{fill:#f2f3f4;}.cls-1,.cls-2{stroke:#adb0b2;}.cls-1,.cls-2,.cls-20,.cls-29,.cls-3{stroke-miterlimit:10;}.cls-1,.cls-2,.cls-29{stroke-width:2px;}.cls-2{fill:#cfd0d1;}.cls-20,.cls-3{fill:none;}.cls-3{stroke:#969899;stroke-width:5px;}.cls-4{fill:#969899;}.cls-5{fill:#c6c6c6;}.cls-6{fill:#d7f4f4;}.cls-7{fill:#fced7e;}.cls-8{fill:#c8bb9b;}.cls-9{fill:url(#未命名的渐变_65);}.cls-10{fill:url(#未命名的渐变_65-2);}.cls-11{fill:#717071;}.cls-12{fill:url(#未命名的渐变_65-3);}.cls-13{fill:#595757;}.cls-14{fill:#2ca6e0;}.cls-14,.cls-15,.cls-16,.cls-17{opacity:0.5;}.cls-15{fill:url(#未命名的渐变_22);}.cls-16{fill:url(#未命名的渐变_22-2);}.cls-18{fill:#e0d5ba;}.cls-19{font-size:23px;font-family:MicrosoftYaHei, Microsoft YaHei;}.cls-20{stroke:#82c971;stroke-width:10px;}.cls-21{fill:#82c971;}.cls-22{letter-spacing:-0.01em;}.cls-23{letter-spacing:0em;}.cls-24{letter-spacing:-0.01em;}.cls-25{letter-spacing:-0.01em;}.cls-26{letter-spacing:0em;}.cls-27{letter-spacing:-0.01em;}.cls-28{letter-spacing:0.04em;}.cls-29{fill:#e8ebed;stroke:#777a7a;}.cls-30{fill:#d9dbdd;}.cls-31{fill:#f2f8fc;}.cls-32{fill:#a6f7f1;}.cls-33{fill:#c2d3d0;opacity:0.57;}.cls-34{fill:#a0a0a0;}.cls-35{fill:#60b2b0;}</style><linearGradient id="未命名的渐变_65" x1="4508.73" y1="-18040.84" x2="4505.25" y2="-18019.53" gradientTransform="translate(-3042.34 -17647.11) rotate(153.97)" gradientUnits="userSpaceOnUse"><stop offset="0" stop-color="#786050"/><stop offset="0.12" stop-color="#7d6555"/><stop offset="1" stop-color="#a38a77"/></linearGradient><linearGradient id="未命名的渐变_65-2" x1="4474.54" y1="-17898.87" x2="4485.27" y2="-17961.72" xlink:href="#未命名的渐变_65"/><linearGradient id="未命名的渐变_65-3" x1="4489.47" y1="-18001.2" x2="4522.35" y2="-18001.2" xlink:href="#未命名的渐变_65"/><radialGradient id="未命名的渐变_22" cx="13576.94" cy="3967.21" r="8.39" gradientTransform="matrix(0.04, 3.68, -0.93, 0.18, 3879.56, -50165.67)" gradientUnits="userSpaceOnUse"><stop offset="0" stop-color="#fff"/><stop offset="0.01" stop-color="#fefefe"/><stop offset="0.32" stop-color="#e7e1d3"/><stop offset="0.6" stop-color="#d6ccb4"/><stop offset="0.83" stop-color="#ccc0a2"/><stop offset="1" stop-color="#c8bb9b"/></radialGradient><radialGradient id="未命名的渐变_22-2" cx="17311.82" cy="10548.01" r="8.39" gradientTransform="matrix(0.06, 2.8, -0.81, 0.21, 8303.67, -50210.2)" xlink:href="#未命名的渐变_22"/></defs><title>pic_7</title><g id="Layer_2" data-name="Layer 2"><g id="图层_16" data-name="图层 16"><rect class="cls-1" x="112.4" y="65.42" width="14" height="361" transform="translate(-56.51 36.66) rotate(-14.15)"/><ellipse class="cls-2" cx="75.09" cy="71.12" rx="7.76" ry="4.5" transform="translate(-15.89 21.93) rotate(-15.04)"/></g><g id="图层_55" data-name="图层 55"><path class="cls-3" d="M40.54,110.45s49.58,28.53,86.29-20"/><polygon class="cls-4" points="113.4 90.42 129.4 82.42 130.9 99.92 113.4 90.42"/></g><g id="图层_15" data-name="图层 15"><rect class="cls-5" x="53.8" y="274.3" width="18" height="291"/><rect class="cls-5" x="246.8" y="272.3" width="18" height="291"/><rect class="cls-5" x="150.8" y="452.3" width="18" height="210" transform="translate(-397.5 717.11) rotate(-90)"/><rect class="cls-6" x="71.8" y="408.3" width="175" height="141"/></g><g id="图层_56" data-name="图层 56"><circle class="cls-7" cx="124.4" cy="460.42" r="9"/><circle class="cls-7" cx="110.4" cy="498.42" r="9"/><circle class="cls-7" cx="153.4" cy="481.42" r="9"/><circle class="cls-7" cx="181.4" cy="515.42" r="9"/><circle class="cls-7" cx="191.4" cy="473.42" r="9"/><circle class="cls-7" cx="204.4" cy="441.42" r="9"/><circle class="cls-7" cx="217.4" cy="488.42" r="9"/></g><g id="图层_57" data-name="图层 57"><path class="cls-8" d="M850.9,577.49c-4.32-15.84-6.31-24.41-7.44-32.25a4.21,4.21,0,0,0-.17-.8,41.87,41.87,0,0,1-20.11,1.06c-6.41-1.25-13.72-2.68-20-10.81a40.84,40.84,0,0,1-6.31-12.34,4.72,4.72,0,0,0-.55,2.77c.4,9.52-.48,13.29,1.85,25.85,1.91,10.34,3.3,18.14,4.41,24.51,1.38.61,2.77,1.56,4.15,1.56C821.41,577.55,836.16,577.57,850.9,577.49Z"/><path class="cls-9" d="M796.87,522.35c1.08-1.66,4.09-2.27,12.08,1.35,8.76,4,15.88,11.32,26.79,14.79,4.22,1.35,6.81,3.28,7.55,6a41.87,41.87,0,0,1-20.11,1.06c-6.41-1.25-13.72-2.68-20-10.81A40.84,40.84,0,0,1,796.87,522.35Z"/><path class="cls-10" d="M771.38,417.79A10.26,10.26,0,0,1,776,417c3.18.22,5.69,3.12,5.6.84-.17-4.73-.93-16.22,3.82-29.34,2.07-5.72,5.1-8.94,8.37-12.44A37.07,37.07,0,0,1,806.71,367c0,.1,0,.18,0,.28-.29,7.86-2.13,8.6-1.68,16.65a79.68,79.68,0,0,1-.06,13.35A108.3,108.3,0,0,1,802.42,417c-.78,3.73.2,6.86,4.54,10.79,9,8.17,8.37,10.47,12.17,15.17,2,2.5-.61,7.68-4.21,16.54-10.25,25.31-13.08,28.77-14.41,31.21s-1.37-2.86-2.78-9.62a208.05,208.05,0,0,0-6.47-23.56c-4.12-11.43-10.19-13.34-13.55-22C775.31,429.23,773.23,423.47,771.38,417.79Z"/><path class="cls-8" d="M771.38,417.79c-4.59-14-7.85-27.67-11.48-47-1.41-7.54-8.56-34.49-19.45-84.09s-16.68-64.83-30.25-113.39c-5-17.87-13.54-47.71-22-66.08-.88-1.91-4.53-1-6.84-4.4-7-10.15.65-33.74,1.18-35.36,2.34-7.07,5.23-15.77,11.73-20.35,5.14-3.6,7.89-1.38,25.84-3.63,5.79-.72,9-.5,10-1.86,7.81-10.85,8.44-20.74,17.73-31.83C755.08,1.21,764,.5,768,.19S787.34-2,797.83,18.44c8,15.71,7.95,37.54,4.33,48.79-1.14,3.57-4.58,5.36-5.35,10.68-.66,4.47.09,10-.25,11.31-4.38,17.44-9.95,43.89-13.46,64.26-2.11,12.2-1.2,29.73,1.48,64.19,3.65,46.88,17,112.7,19.82,133.58.41,3,2.49,9,2.31,15.76a37.07,37.07,0,0,0-12.88,9.06c-3.27,3.5-6.3,6.72-8.37,12.44-4.75,13.12-4,24.61-3.82,29.34.09,2.28-2.42-.62-5.6-.84A10.26,10.26,0,0,0,771.38,417.79Z"/><polygon class="cls-11" points="752.23 115.84 713.46 133.6 712.13 126.61 752.13 114.85 752.23 115.84"/><path class="cls-12" d="M804.5,515.48c-.3-6.41-3.62-7.31-4.75-13.08-1.72-8.71,7-14.79,7.54-26.36.07-1.78.06-3.54,0-5.29a84.29,84.29,0,0,1,7.89,12.39c3.45,6.65,6.73,13,7.84,22.42a54.28,54.28,0,0,1,.29,8.7c-2.38.87-6.67,8.41-9.44,15-2.93,7-3.18,10.69-5.06,11-2.47.43-6.34-6.13-5.39-11.92S804.77,521.48,804.5,515.48Z"/><polygon class="cls-11" points="721.03 170.72 778.15 116.88 780.76 122.67 721.27 171.63 721.03 170.72"/><path class="cls-13" d="M734.74,101l-6.15,2.49,98.22,473.94,6.68,0Z"/><polygon class="cls-13" points="726.18 101.26 735.9 97.33 742.7 130.13 732.98 134.06 726.18 101.26"/><path class="cls-14" d="M781.29,418.53q-4.63-3.58-9.44-1.49c2.83,13.67-2.48-14.22,5.21,24.23,8.6,43,15.08,71.63,19.86,94.13a10.26,10.26,0,0,0,2.07-3.23c-.16-.17-.33-.34-.49-.52-.82-1.25.86-.56,1.42-1.28a1.62,1.62,0,0,1,.1-.18,1.62,1.62,0,0,0-.1.18c-.34.59-.64,1.2-.93,1.8,13.2,14.43,28.84,18.06,44.25,12-2.53-10.73-6.17-25.86-10.39-48.82-7.76-42.22-17.67-83.66-25.47-125.87a11.67,11.67,0,0,0-.68-2.56C789.43,370.67,778.16,394.55,781.29,418.53Z"/><path class="cls-14" d="M798.5,531.65c.16.18.33.35.49.52.29-.6.59-1.21.93-1.8C799.36,531.09,797.68,530.4,798.5,531.65Z"/><path class="cls-14" d="M799.92,530.37a.77.77,0,0,0,.1-.18A1.62,1.62,0,0,0,799.92,530.37Z"/><path class="cls-8" d="M825.55,523.79c-1.3-5.6-.24-8.84-1.41-9.52a.9.9,0,0,0-.83,0,54.28,54.28,0,0,0-.29-8.7c-1.11-9.44-4.39-15.77-7.84-22.42a84.29,84.29,0,0,0-7.89-12.39c-.41-10.91-2.79-20.89,2.59-25.71,4.51-4.06,10.14-7.42,11-5.55,3.44,7.75,5,16.36,8.27,32.63,8.22,41,16.88,74.21,12.51,70.2-3.35-3.09-6-2.77-8.39-5A26.73,26.73,0,0,1,825.55,523.79Z"/><path class="cls-8" d="M796.36,534.59c-5.76-21.2-22.44-104.45-24.84-117-.28-1.46,1.81,3.73,4.76,7.3,7.48,9,10.78.78,17.57,9.58,4.82,6.24,10.41,16.47,11.54,28.21.35,3.71-.11,8,1.15,14.53,1.16,5.95,2.69,6.71,3.68,11.15,1.78,7.94-.87,15.71-4.88,27.1C800.77,528.42,797.4,538.39,796.36,534.59Z"/><ellipse class="cls-15" cx="792.16" cy="473.1" rx="8.9" ry="35.32" transform="translate(-75.16 158.29) rotate(-10.9)"/><path class="cls-8" d="M822.41,438.39c-.44-9.36-14.34-66-14.35-66h0l-4.26.58c-4.6.69-19.6,16.07-18.75,36.1.12,2.75.38,7.66,2.83,11.86,2.07,3.54,4.67,4.78,9.71,7.08,7.09,3.25,7.81,1.48,13.37,4.72.56.32,3.41,2,7.33,4C820.84,438,822.43,438.85,822.41,438.39Z"/><ellipse class="cls-16" cx="806.78" cy="404.91" rx="7.74" ry="26.91" transform="translate(-76.62 219.32) rotate(-14.79)"/><g class="cls-17"><path class="cls-18" d="M850.9,577.49c-4.32-15.84-6.31-24.41-7.44-32.25a4.21,4.21,0,0,0-.17-.8,41.87,41.87,0,0,1-20.11,1.06c-6.41-1.25-13.72-2.68-20-10.81a40.84,40.84,0,0,1-6.31-12.34,4.72,4.72,0,0,0-.55,2.77c.4,9.52-.48,13.29,1.85,25.85,1.91,10.34,3.3,18.14,4.41,24.51,1.38.61,2.77,1.56,4.15,1.56C821.41,577.55,836.16,577.57,850.9,577.49Z"/><path class="cls-18" d="M771.38,417.79c-4.59-14-7.85-27.67-11.48-47-1.41-7.54-8.56-34.49-19.45-84.09s-16.68-64.83-30.25-113.39c-5-17.87-13.54-47.71-22-66.08-.88-1.91-4.53-1-6.84-4.4-7-10.15.65-33.74,1.18-35.36,2.34-7.07,5.23-15.77,11.73-20.35,5.14-3.6,7.89-1.38,25.84-3.63,5.79-.72,9-.5,10-1.86,7.81-10.85,8.44-20.74,17.73-31.83C755.08,1.21,764,.5,768,.19S787.34-2,797.83,18.44c8,15.71,7.95,37.54,4.33,48.79-1.14,3.57-4.58,5.36-5.35,10.68-.66,4.47.09,10-.25,11.31-4.38,17.44-9.95,43.89-13.46,64.26-2.11,12.2-1.2,29.73,1.48,64.19,3.65,46.88,17,112.7,19.82,133.58.41,3,2.49,9,2.31,15.76a37.07,37.07,0,0,0-12.88,9.06c-3.27,3.5-6.3,6.72-8.37,12.44-4.75,13.12-4,24.61-3.82,29.34.09,2.28-2.42-.62-5.6-.84A10.26,10.26,0,0,0,771.38,417.79Z"/></g></g><g id="图层_58" data-name="图层 58"><circle class="cls-7" cx="760.46" cy="455.41" r="8.39"/><circle class="cls-7" cx="725.96" cy="496.43" r="8.39"/><circle class="cls-7" cx="846.24" cy="495.5" r="8.39"/><circle class="cls-7" cx="770.72" cy="499.23" r="8.39"/><circle class="cls-7" cx="838.78" cy="463.8" r="8.39"/><circle class="cls-7" cx="853.7" cy="439.56" r="8.39"/><circle class="cls-7" cx="877.01" cy="466.6" r="8.39"/></g><g id="图层_59" data-name="图层 59"><text class="cls-19" transform="translate(0 490.27)">drugs</text><path class="cls-20" d="M229.4,517.42s261,184,500,4"/><polygon class="cls-21" points="697.4 517.42 736.4 514.42 724.4 548.42 697.4 517.42"/><text class="cls-19" transform="translate(401.73 561.42)">p<tspan class="cls-22" x="14.69" y="0">r</tspan><tspan class="cls-23" x="23.15" y="0">omo</tspan><tspan class="cls-24" x="73.94" y="0">t</tspan><tspan x="82.32" y="0">e </tspan><tspan class="cls-25" x="102.17" y="0">r</tspan><tspan class="cls-26" x="110.63" y="0">eco</tspan><tspan class="cls-27" x="149.84" y="0">v</tspan><tspan x="161.76" y="0">e</tspan><tspan class="cls-28" x="174.81" y="0">r</tspan><tspan x="184.59" y="0">y</tspan></text></g><g id="图层_51" data-name="图层 51"><path class="cls-29" d="M361.44,113.26,491.6,171.15s11.56,13.61-11.63,67.23-42.74,58-42.74,58L310.34,239.91s-46.54-20-46.65-52.06c0,0,2.18-4.9-6.23-13.86l-57.55-27.55,22.77-51.19L278.23,120a15.78,15.78,0,0,0,12.41-3c5.93-4.53,25.6-23.83,70.8-3.73"/><path class="cls-30" d="M206.57,134.4l8.36-15.85s61,27.13,97.48,37.48c0,0,96.76,33.25,171.31,71,0,0,1.57,5.27-17.8,37.09"/><path class="cls-30" d="M467.8,264.28c-57.43-24.89-139.54-58.8-165-77.93s-95.18-51.46-95.18-51.46"/><path class="cls-31" d="M356.5,112.15s-3.84,31.12-24.61,67.55c0,0-10.89,12.77-.18,19.49l56.09,24.94s8.71,3.88,16.89-10.1c0,0,27.47-51.49,26.6-68.62Z"/><path class="cls-32" d="M386.64,125.55s-1,27.17-22.73,59.91l8.71,3.87S393.57,156.9,395,128.82Z"/><ellipse class="cls-33" cx="467.29" cy="232.41" rx="52.15" ry="8.05" transform="translate(65.04 564.94) rotate(-66.02)"/><rect class="cls-34" x="165.45" y="107.16" width="74.5" height="19.07" transform="translate(13.7 254.49) rotate(-66.02)"/><ellipse class="cls-34" cx="210.87" cy="120.33" rx="37.25" ry="7.15" transform="translate(15.23 264.11) rotate(-66.02)"/><rect class="cls-35" x="152.66" y="106.54" width="74.5" height="8.94" transform="translate(11.31 239.42) rotate(-66.02)"/><ellipse class="cls-35" cx="194.54" cy="113.07" rx="37.25" ry="5.36" transform="translate(12.17 244.87) rotate(-66.02)"/><ellipse class="cls-32" cx="185.82" cy="109.19" rx="37.25" ry="5.96" transform="translate(10.54 234.61) rotate(-66.02)"/></g></g></svg>