<svg xmlns="http://www.w3.org/2000/svg" xmlns:xlink="http://www.w3.org/1999/xlink" viewBox="0 0 919.92 845.04"><defs><style>.cls-1{fill:#ffcc80;}.cls-2,.cls-5{font-size:23px;font-family:MicrosoftYaHei, Microsoft YaHei;}.cls-3{letter-spacing:-0.01em;}.cls-4{letter-spacing:0em;}.cls-5{letter-spacing:0em;}.cls-6{fill:#dff4f3;}.cls-19,.cls-20,.cls-7{fill:none;stroke-miterlimit:10;}.cls-7{stroke:#939696;stroke-width:5px;}.cls-8{fill:#cde8e6;}.cls-9{fill:#9fc8d1;}.cls-10{fill:#e6f9fc;}.cls-11{fill:#bad6d3;}.cls-12{fill:#d4e8e5;}.cls-13{fill:#dcedef;}.cls-14{fill:url(#未命名的渐变_17);}.cls-15{fill:#e5e4e3;}.cls-16{fill:#cccbca;}.cls-17{fill:#efebe8;}.cls-18{fill:#efd643;}.cls-19{stroke:#efd643;stroke-width:3px;}.cls-20{stroke:#efebe8;stroke-width:2px;}.cls-21{fill:#f7a77f;}.cls-22{fill:#728e68;}</style><linearGradient id="未命名的渐变_17" x1="7804.3" y1="-5266.59" x2="8125.86" y2="-5266.59" gradientTransform="translate(-8462.2 -2754.41) rotate(51.03)" gradientUnits="userSpaceOnUse"><stop offset="0" stop-color="#9061a5"/><stop offset="0.2" stop-color="#a985ba" stop-opacity="0.77"/><stop offset="0.58" stop-color="#d7c6df" stop-opacity="0.36"/><stop offset="0.86" stop-color="#f4eff6" stop-opacity="0.1"/><stop offset="1" stop-color="#fff" stop-opacity="0"/></linearGradient></defs><title>pic_4</title><g id="Layer_2" data-name="Layer 2"><g id="图层_8" data-name="图层 8"><polygon class="cls-1" points="489.23 604.2 399.85 603.39 399.65 625.29 489.04 626.1 488.9 640.42 518.38 615.42 489.36 590.69 489.23 604.2"/><polygon class="cls-1" points="474.58 214.47 385.2 213.66 385 235.55 474.38 236.36 474.25 250.69 503.73 225.68 474.71 200.96 474.58 214.47"/></g><g id="图层_11" data-name="图层 11"><text class="cls-2" transform="translate(94.99 449.59)">GelMA</text><text class="cls-2" transform="translate(98.99 811.57)">Sodium<tspan x="0" y="27.6">Alginate</tspan></text><text class="cls-2" transform="translate(392 185.87)">UV light</text><text class="cls-2" transform="translate(425.62 584.19)">Ca</text><text class="cls-5" transform="translate(453.72 576.53) scale(0.58)">2+</text></g><g id="图层_10" data-name="图层 10"><path class="cls-6" d="M110.57,132.39l-58,145.83s-36.82,75.69,33.6,101.71S175,319.22,175,319.22l75.39-189.71"/><path class="cls-7" d="M130.18,81.37,52.71,276.91S15.18,354.07,87,380.6s90.59-61.89,90.59-61.89l95.2-240.28"/><path class="cls-8" d="M625,313.87s6-155,127-202,162,199,162,199S797,374.87,625,313.87Z"/><ellipse class="cls-9" cx="771.5" cy="295.37" rx="121.5" ry="27.5"/><ellipse class="cls-10" cx="739" cy="154.37" rx="28.5" ry="13" transform="translate(145.64 621.14) rotate(-49.99)"/><path class="cls-8" d="M0,729.87s6-155,127-202,162,199,162,199S172,790.87,0,729.87Z"/><ellipse class="cls-10" cx="114" cy="570.37" rx="28.5" ry="13" transform="translate(-396.15 290.98) rotate(-49.99)"/><rect class="cls-11" x="639.92" y="557.84" width="280" height="162"/><ellipse class="cls-12" cx="779.92" cy="557.34" rx="140" ry="29.5"/><ellipse class="cls-13" cx="665.42" cy="650.84" rx="12.5" ry="57"/></g><g id="图层_38" data-name="图层 38"><polygon class="cls-14" points="664.43 265.76 539.13 1.85 541.53 0 798.13 205.92 664.43 265.76"/></g><g id="图层_35" data-name="图层 35"><path class="cls-15" d="M85.44,311.93a103.16,103.16,0,0,1,26.61-80.36h-4.24a49.54,49.54,0,0,0,8.19,8c1.56,1.22,4.59,1.17,5-1.32l2.29-13.62-3.69,2.09,10.88,3a3,3,0,0,0,3.8-2.89,36.84,36.84,0,0,0-1.88-13.62l-2.89,3.8a27.52,27.52,0,0,1,9.86,3.23,3.1,3.1,0,0,0,4.1-1.08c4.5-6-2.94-12.68,2.24-18.39,4.88-5.4,14.18-8.4,20.7-11.11a187,187,0,0,1,49.54-13c3.78-.45,3.83-6.46,0-6a194.86,194.86,0,0,0-53.05,14c-7.16,3-15.9,6.14-21.44,11.85a13.16,13.16,0,0,0-3.94,7.8c-.33,3.54,3,8.88.77,11.81l4.11-1.07a35.75,35.75,0,0,0-12.89-4c-1.91-.23-3.46,2.11-2.89,3.8a32.24,32.24,0,0,1,1.66,12l3.8-2.89-10.89-3a3,3,0,0,0-3.69,2.09l-2.28,13.62,5-1.32a50.74,50.74,0,0,1-8.19-8,3,3,0,0,0-4.24,0,109,109,0,0,0-28.37,84.6c.39,3.8,6.39,3.84,6,0Z"/><path class="cls-15" d="M157.43,158.88c.35,16.32.72,32.67,2.79,48.88.95,7.47,2.38,14.8,4,22.14S167.45,247,160,251.85a3,3,0,0,0,1.51,5.59l11.82,1-2.12-5.12-8.8,8.4c-1.65,1.58-4,3.34-3.81,6,.49,5.37,10.88,5.49,14.56,6.3l-1.33-5-8.52,9.91a3,3,0,0,0,1.32,5,6.4,6.4,0,0,1,3.89,3.45c1.78,3.43,7,.4,5.18-3a12.3,12.3,0,0,0-7.47-6.22l1.32,5,8.53-9.91c1.37-1.6,1-4.5-1.33-5-2.18-.47-9.49-.95-11-2.63l.77,2.92c.27-1.69,3.7-4,4.86-5.1l6.09-5.82c2-1.93.33-4.91-2.12-5.12l-11.82-1L163,257c14.18-9.13,6.85-27.47,4.55-40.6-3.34-19-3.7-38.33-4.12-57.55-.08-3.85-6.08-3.87-6,0Z"/><path class="cls-16" d="M168.3,290.83l1.6,14.05c.44,3.79,6.44,3.84,6,0l-1.6-14.05c-.43-3.79-6.43-3.83-6,0Z"/><path class="cls-15" d="M86.93,357.68a55.3,55.3,0,0,1,20.44-25.44c3.17-2.16.18-7.36-3-5.18a62.27,62.27,0,0,0-23.19,29c-1.42,3.59,4.38,5.15,5.78,1.59Z"/><path class="cls-15" d="M110.93,326.05a9.7,9.7,0,0,1-.7-5.42l-4.52,2.59L116,329.63a3,3,0,0,0,4.11-1.08c1.27-2.69,1-4.4.24-7.29-.92-3.3-.39-1.09.75.77s2.54,3.37,3.77,5a3,3,0,0,0,5.59-1.51L132,313.77l.5-3.92-.94-1.94a16.25,16.25,0,0,1,2.28,2c2.46,2.24,5.11,4.16,8.4,2.27s.33-7.11-3-5.18c.79.17.74,0-.14-.42-.45-.4-.88-.81-1.31-1.23a24.13,24.13,0,0,0-2.54-2.2,5.38,5.38,0,0,0-5.49-.63c-2.75,1.44-2.88,4.63-3.23,7.34l-2,15.68,5.59-1.52c-2.66-3.54-6.91-12.31-12.63-10.55A5.27,5.27,0,0,0,114,317.4c-.61,2.48,1.86,6.18.93,8.13l4.11-1.08L108.74,318c-2.14-1.32-4.24.47-4.51,2.59a12.88,12.88,0,0,0,.91,7c1.45,3.52,7.25,2,5.79-1.6Z"/><path class="cls-15" d="M149.1,308q16.64-13.05,34.45-24.45c3.24-2.08.23-7.28-3-5.18q-18.44,11.84-35.66,25.39c-3,2.38,1.24,6.6,4.24,4.24Z"/><path class="cls-17" d="M712.77,171.07l31.81,22.25c3.47,2.43,7.33,6.24,11.93,5.44,3.75-.65,6.21-5.85,9.73-5.9l-3-3,1.3,15.87a3,3,0,0,0,4.51,2.59l13.3-6.82-4.51-2.59.37,10.46c.07,1.82,1.88,3.56,3.8,2.89l11.75-4.09-3.8-2.9c.22,6.81-5,12.81-.94,19.44,3.74,6,12.21,10,17.66,14.3a226.49,226.49,0,0,1,36.65,36.52c2.41,3,6.63-1.26,4.24-4.24A227.44,227.44,0,0,0,815,238c-5.45-4.5-11.18-8.56-16.89-12.73-4.16-3-5.45-5.64-3.93-10.72.93-3.12,1.92-6,1.82-9.3-.06-1.82-1.89-3.55-3.8-2.89l-11.75,4.09,3.8,2.9-.37-10.46a3,3,0,0,0-4.52-2.59L766,203.14l4.52,2.59-1.3-15.87a3.06,3.06,0,0,0-3-3c-3.29,0-5.32,1.68-7.71,3.76s-4.12,2.24-6.95.3c-2.4-1.65-4.77-3.34-7.16-5l-28.62-20c-3.17-2.21-6.17,3-3,5.19Z"/><path class="cls-17" d="M658.41,283.23l30.07-14.56c3.34-1.62,8-3,10.27-6.18,2.08-3,.38-7.74,2.53-10.28H697c2.5,3.15,8.15,13.34,13.43,11.17,2.2-.9,3.25-3.23,3.74-5.42s-.19-9.18,2.89-7.9c1.41.59,2.29,3.65,3.74,4.68a5.29,5.29,0,0,0,5.28.64c2.27-.95,3.2-3,4.06-5.2,1.49-3.76,2.68-7.66,4-11.47h-5.79c1.53,3.7,3.52,8,7.89,8.84a6.94,6.94,0,0,0,8.32-5h-5.79a17.53,17.53,0,0,0,5,8.42c2.8,2.66,7-1.58,4.24-4.24a11.8,11.8,0,0,1-3.48-5.77,3,3,0,0,0-5.79,0c-.88,3.36-4.34-3.19-4.63-3.89-1.12-2.71-4.75-3-5.79,0l-2.87,8.2c-.08.25-1,4-1.76,3.91-.35,0-1.21-1.84-1.41-2.12-1.92-2.63-4.67-4.6-8.07-3.43-3.25,1.12-5,4.62-5.48,7.8a16.85,16.85,0,0,0-.32,4.29l1.1,2c-.62-.68-1.24-1.36-1.84-2.05-2.24-2.53-4.38-5.13-6.48-7.78a3,3,0,0,0-4.24,0c-1.93,2.28-2.31,4.48-2.57,7.4-.22,2.61-.71,3.77-3,5.22a77.51,77.51,0,0,1-7.73,3.74l-28.35,13.73c-3.47,1.69-.44,6.86,3,5.18Z"/><path class="cls-17" d="M750.84,250.89q17.28-6.69,34.9-12.41,8.58-2.78,17.25-5.29c5.84-1.7,13.1-4.77,19.09-2.24,3.51,1.49,6.58-3.68,3-5.18-11.15-4.72-24.76,1.83-35.54,5.2q-20.4,6.38-40.32,14.14c-3.57,1.38-2,7.18,1.59,5.78Z"/><path class="cls-17" d="M759.48,301.34q13.77-13.71,27.53-27.42c6-6,11.87-14,5.52-22l-3.63,4.71,16,9.45c1.77,1.05,4.8-.26,4.51-2.59l-1.51-12.29-3.8,2.89L815.65,259c1.76.73,3.92-1.12,3.8-2.9a49.13,49.13,0,0,0-4.37-17.41l-3.39,4.41,12.13,3.49a3.07,3.07,0,0,0,3.39-1.38,322,322,0,0,1,30-41.13c2.5-2.91-1.72-7.18-4.24-4.24A332.15,332.15,0,0,0,822,242.13l3.39-1.38-12.12-3.49c-2.73-.78-4.41,2.15-3.39,4.41a40.44,40.44,0,0,1,3.55,14.38l3.8-2.89-11.59-4.85a3,3,0,0,0-3.8,2.89l1.51,12.29,4.51-2.59-16-9.45c-3.12-1.85-5.64,2.18-3.63,4.71,5.34,6.72-10,18-14,21.95l-19,19c-2.74,2.73,1.5,7,4.24,4.25Z"/></g><g id="图层_34" data-name="图层 34"><path class="cls-18" d="M206.7,165.79c-24.37,10.39-37.43,34.77-47.1,58-5.9,14.19-11.18,28.66-19,41.95a154.27,154.27,0,0,1-24.86,31.78,156.2,156.2,0,0,1-37.13,26.9c-3.42,1.79-.39,7,3,5.18a161.77,161.77,0,0,0,57.72-50.82c16.76-24.05,22.9-53.09,38.08-77.89,7.84-12.82,18.28-24,32.28-29.94,3.55-1.51.49-6.68-3-5.18Z"/><path class="cls-18" d="M98.18,262.87c-.52,16.93,7.7,32,17.82,45.05,5.13,6.59,11.75,12.8,14.58,20.85,3.54,10.09-.48,20.83-4,30.35-1.33,3.63,4.47,5.2,5.78,1.6,3.22-8.83,6.45-18.15,5.27-27.69-1-7.94-5.31-14.42-10.21-20.51-11.73-14.57-23.9-29.89-23.29-49.65.11-3.86-5.89-3.86-6,0Z"/><path class="cls-18" d="M118.86,175.73a77.86,77.86,0,0,0,28.84,41.58c13.44,9.89,34.85,18.64,48.83,5,2.77-2.7-1.48-6.94-4.25-4.24-12.65,12.32-33.34,1-44.42-8.22a71.68,71.68,0,0,1-23.21-35.74c-1-3.71-6.83-2.14-5.79,1.59Z"/><path class="cls-18" d="M89.8,293.76a50.7,50.7,0,0,1,15.2-2.62c3.86-.07,3.87-6.07,0-6A56.42,56.42,0,0,0,88.2,288c-3.65,1.21-2.08,7,1.6,5.79Z"/><path class="cls-18" d="M138,328.9l13.5-9.49c3.13-2.21.14-7.41-3-5.18L135,323.72c-3.14,2.21-.14,7.41,3,5.18Z"/><path class="cls-18" d="M126.28,260.44q4.14,8.67,7.69,17.59c1.4,3.54,7.21,2,5.78-1.6q-3.83-9.65-8.29-19c-1.66-3.49-6.84-.45-5.18,3Z"/><path class="cls-18" d="M138.58,199.38a143.06,143.06,0,0,1,8.52-13.49c2.24-3.15-3-6.15-5.18-3a143.06,143.06,0,0,0-8.52,13.49c-1.88,3.38,3.3,6.41,5.18,3Z"/><path class="cls-18" d="M182,165.37a109.1,109.1,0,0,0,3.16,17.29c1,3.72,6.79,2.14,5.78-1.6A99.49,99.49,0,0,1,188,165.37c-.39-3.8-6.39-3.84-6,0Z"/><circle class="cls-19" cx="80" cy="292.87" r="7.5"/><circle class="cls-19" cx="72" cy="329.87" r="7.5"/><circle class="cls-19" cx="157" cy="310.87" r="7.5"/><circle class="cls-19" cx="124" cy="250.87" r="7.5"/><circle class="cls-19" cx="150" cy="177.87" r="7.5"/><circle class="cls-19" cx="688" cy="251.87" r="7.5"/><circle class="cls-19" cx="736" cy="213.87" r="7.5"/><circle class="cls-19" cx="756" cy="254.87" r="7.5"/><circle class="cls-19" cx="839" cy="189.87" r="7.5"/><circle class="cls-19" cx="865" cy="237.87" r="7.5"/><circle class="cls-19" cx="793" cy="220.87" r="7.5"/><path class="cls-18" d="M703.92,181.78c-13.53,16.81-7.76,38.71,2.42,55.6,5.59,9.26,14.47,18.58,15.55,29.79,1.12,11.59-8,20.56-16.09,27.49-2.93,2.52,1.33,6.75,4.24,4.24,7.26-6.24,14.68-13.67,17.11-23.26s-1.3-18.91-6.35-27c-11-17.76-29.08-42.15-12.64-62.58,2.4-3-1.82-7.26-4.24-4.25Z"/><path class="cls-18" d="M764,182.85c-12.11,15.93-13.22,38.79-3.39,56.14,5.29,9.34,14.53,14.67,20.8,23.1,8.62,11.61,1,24.47-8.2,33-2.85,2.63,1.4,6.86,4.24,4.24,7.86-7.25,15-17.43,13.77-28.67-1.2-10.72-9.85-17.35-17.1-24.29-16.54-15.84-18.88-42.11-4.94-60.45,2.34-3.07-2.87-6.06-5.18-3Z"/><path class="cls-18" d="M819.05,180.22c-8.67,18.6-5.67,39.6,4.49,57,5.1,8.72,13.35,15.49,18,24.38a20.34,20.34,0,0,1-6.57,26c-3.17,2.17-.17,7.37,3,5.19a26.85,26.85,0,0,0,11.81-20.59c.6-9.55-4.76-16.94-10.68-23.85-15.3-17.86-25.55-42.17-14.87-65.08,1.62-3.48-3.55-6.53-5.18-3Z"/><path class="cls-18" d="M703.49,227.16q12.91-4.24,25.36-9.7c3.53-1.54.48-6.71-3-5.18-7.83,3.41-15.81,6.42-23.93,9.1-3.65,1.2-2.09,7,1.6,5.78Z"/><path class="cls-18" d="M696.7,256.82a223.55,223.55,0,0,1,23.75,3.35c3.78.74,5.39-5,1.6-5.79a243.4,243.4,0,0,0-25.35-3.56c-3.85-.34-3.82,5.66,0,6Z"/><path class="cls-18" d="M743.16,218.55l10.71,3.88c3.63,1.32,5.2-4.47,1.59-5.78l-10.71-3.89c-3.63-1.31-5.2,4.48-1.59,5.79Z"/><path class="cls-18" d="M732.18,268.78a107.52,107.52,0,0,1,16-8.27c3.52-1.44,2-7.25-1.6-5.78a115.51,115.51,0,0,0-17.42,8.87c-3.27,2-.26,7.24,3,5.18Z"/><path class="cls-18" d="M768.15,235.39l17.35-9.3c3.4-1.82.37-7-3-5.18l-17.35,9.3c-3.41,1.83-.38,7,3,5.18Z"/><path class="cls-18" d="M821.49,206.76l12.09-9.21a3.11,3.11,0,0,0,1.08-4.11c-.73-1.27-2.82-2.05-4.11-1.07l-12.09,9.21a3.12,3.12,0,0,0-1.07,4.11c.72,1.27,2.82,2.05,4.1,1.07Z"/><path class="cls-18" d="M848.73,256.26,860.8,245c2.83-2.64-1.42-6.87-4.24-4.24L844.49,252c-2.83,2.64,1.42,6.87,4.24,4.24Z"/><path class="cls-18" d="M780.31,256.18a47.45,47.45,0,0,1-9-2.41c-2.61-1-4.74-2.33-7.58-1.77-3.79.75-2.18,6.53,1.59,5.79.45-.09,2.41,1,2.86,1.17,1,.41,2.05.8,3.09,1.16a46.47,46.47,0,0,0,7.44,1.84c3.78.62,5.4-5.17,1.6-5.78Z"/><path class="cls-18" d="M801.34,224.26q9.33,1.52,18.53,3.67c3.75.89,5.36-4.9,1.59-5.78q-9.19-2.16-18.52-3.67c-3.78-.61-5.41,5.17-1.6,5.78Z"/><circle class="cls-20" cx="63" cy="667.87" r="7.5"/><circle class="cls-20" cx="111" cy="629.87" r="7.5"/><circle class="cls-20" cx="131" cy="670.87" r="7.5"/><circle class="cls-20" cx="214" cy="605.87" r="7.5"/><circle class="cls-20" cx="240" cy="653.87" r="7.5"/><circle class="cls-20" cx="168" cy="636.87" r="7.5"/><path class="cls-17" d="M78.92,597.78c-13.53,16.81-7.76,38.71,2.42,55.6,5.59,9.26,14.47,18.58,15.55,29.79,1.12,11.59-8,20.56-16.09,27.49-2.93,2.52,1.33,6.75,4.24,4.24,7.26-6.24,14.68-13.67,17.11-23.26s-1.3-18.91-6.35-27c-11-17.76-29.08-42.15-12.64-62.58,2.4-3-1.82-7.26-4.24-4.25Z"/><path class="cls-17" d="M139,598.85c-12.11,15.93-13.22,38.79-3.39,56.14,5.29,9.34,14.53,14.67,20.8,23.1,8.62,11.61,1,24.47-8.2,33-2.85,2.63,1.4,6.86,4.24,4.24,7.86-7.25,15-17.43,13.77-28.67-1.2-10.72-9.85-17.35-17.1-24.29-16.54-15.84-18.88-42.11-4.94-60.45,2.34-3.07-2.87-6.06-5.18-3Z"/><path class="cls-17" d="M194.05,596.22c-8.67,18.6-5.67,39.6,4.49,57,5.1,8.72,13.35,15.49,18,24.38a20.34,20.34,0,0,1-6.57,26c-3.17,2.17-.17,7.37,3,5.19a26.85,26.85,0,0,0,11.81-20.59c.6-9.55-4.76-16.94-10.68-23.85-15.3-17.86-25.55-42.17-14.87-65.08,1.62-3.48-3.55-6.53-5.18-3Z"/><path class="cls-17" d="M78.49,643.16q12.92-4.24,25.36-9.7c3.53-1.54.48-6.71-3-5.18C93,631.69,85,634.7,76.89,637.38c-3.65,1.2-2.09,7,1.6,5.78Z"/><path class="cls-17" d="M71.7,672.82a223.55,223.55,0,0,1,23.75,3.35c3.78.74,5.39-5,1.6-5.79a243.4,243.4,0,0,0-25.35-3.56c-3.85-.34-3.82,5.66,0,6Z"/><path class="cls-17" d="M118.16,634.55l10.71,3.88c3.63,1.32,5.2-4.47,1.59-5.78l-10.71-3.89c-3.63-1.31-5.2,4.48-1.59,5.79Z"/><path class="cls-17" d="M107.18,684.78a107.52,107.52,0,0,1,16-8.27c3.52-1.44,2-7.25-1.6-5.78a115.51,115.51,0,0,0-17.42,8.87c-3.27,2-.26,7.24,3,5.18Z"/><path class="cls-17" d="M143.15,651.39l17.35-9.3c3.4-1.82.37-7-3-5.18l-17.35,9.3c-3.41,1.83-.38,7,3,5.18Z"/><path class="cls-17" d="M196.49,622.76l12.09-9.21a3.11,3.11,0,0,0,1.08-4.11c-.73-1.27-2.82-2.05-4.11-1.07l-12.09,9.21a3.12,3.12,0,0,0-1.07,4.11c.72,1.27,2.82,2,4.1,1.07Z"/><path class="cls-17" d="M223.73,672.26,235.8,661c2.83-2.64-1.42-6.87-4.24-4.24L219.49,668c-2.83,2.64,1.42,6.87,4.24,4.24Z"/><path class="cls-17" d="M155.31,672.18a47.45,47.45,0,0,1-9-2.41c-2.61-1-4.74-2.33-7.58-1.77-3.79.75-2.18,6.53,1.59,5.79.45-.09,2.41,1,2.86,1.17,1,.41,2,.8,3.09,1.16a46.47,46.47,0,0,0,7.44,1.84c3.78.62,5.4-5.17,1.6-5.78Z"/><path class="cls-17" d="M176.34,640.26q9.33,1.51,18.53,3.67c3.75.89,5.36-4.9,1.59-5.78q-9.19-2.16-18.52-3.67c-3.78-.61-5.41,5.17-1.6,5.78Z"/><circle class="cls-20" cx="700.42" cy="672.34" r="7.5"/><circle class="cls-20" cx="748.42" cy="634.34" r="7.5"/><circle class="cls-20" cx="768.42" cy="675.34" r="7.5"/><circle class="cls-20" cx="851.42" cy="610.34" r="7.5"/><circle class="cls-20" cx="877.42" cy="658.34" r="7.5"/><circle class="cls-20" cx="805.42" cy="641.34" r="7.5"/><path class="cls-17" d="M716.33,602.25c-13.52,16.81-7.75,38.71,2.43,55.6,5.58,9.26,14.46,18.58,15.55,29.79,1.12,11.59-8,20.56-16.09,27.49-2.93,2.52,1.33,6.75,4.24,4.24,7.26-6.24,14.68-13.67,17.11-23.26s-1.3-18.91-6.35-27c-11-17.76-29.08-42.15-12.64-62.58,2.39-3-1.82-7.26-4.25-4.25Z"/><path class="cls-17" d="M776.38,603.32c-12.12,15.93-13.22,38.79-3.39,56.14,5.29,9.33,14.53,14.67,20.79,23.1,8.63,11.61,1,24.47-8.2,33-2.84,2.62,1.41,6.86,4.25,4.24,7.86-7.25,15-17.43,13.76-28.68-1.19-10.71-9.85-17.34-17.09-24.28C770,651,767.62,624.69,781.56,606.35c2.33-3.07-2.88-6.06-5.18-3Z"/><path class="cls-17" d="M831.47,600.69c-8.67,18.6-5.67,39.6,4.48,57,5.1,8.72,13.36,15.49,18,24.38a20.35,20.35,0,0,1-6.57,26c-3.17,2.17-.18,7.37,3,5.18a26.85,26.85,0,0,0,11.81-20.58c.6-9.55-4.76-16.94-10.68-23.85-15.3-17.86-25.55-42.17-14.87-65.08,1.62-3.48-3.55-6.53-5.18-3Z"/><path class="cls-17" d="M715.9,647.63q12.92-4.26,25.37-9.7c3.53-1.54.48-6.71-3-5.18-7.84,3.41-15.82,6.42-23.93,9.1-3.65,1.2-2.09,7,1.59,5.78Z"/><path class="cls-17" d="M709.12,677.29a223.55,223.55,0,0,1,23.75,3.35c3.77.74,5.39-5,1.6-5.79a243.4,243.4,0,0,0-25.35-3.56c-3.85-.34-3.83,5.66,0,6Z"/><path class="cls-17" d="M755.58,639l10.7,3.88c3.64,1.32,5.21-4.48,1.6-5.78l-10.71-3.89c-3.64-1.31-5.2,4.48-1.59,5.79Z"/><path class="cls-17" d="M744.59,689.25a108,108,0,0,1,16-8.27c3.53-1.44,2-7.25-1.59-5.78a116.09,116.09,0,0,0-17.43,8.87c-3.26,2-.25,7.24,3,5.18Z"/><path class="cls-17" d="M780.56,655.86l17.35-9.3c3.41-1.82.38-7-3-5.18l-17.36,9.3c-3.4,1.83-.37,7,3,5.18Z"/><path class="cls-17" d="M833.91,627.23,846,618a3.1,3.1,0,0,0,1.07-4.11c-.72-1.28-2.81-2.06-4.1-1.08l-12.09,9.22a3.11,3.11,0,0,0-1.08,4.11c.73,1.27,2.82,2.05,4.11,1.07Z"/><path class="cls-17" d="M861.15,676.73l12.07-11.26c2.82-2.64-1.43-6.88-4.25-4.24L856.9,672.49c-2.82,2.64,1.43,6.87,4.25,4.24Z"/><path class="cls-17" d="M792.72,676.65a47.55,47.55,0,0,1-9-2.41c-2.61-1-4.74-2.33-7.58-1.77-3.79.75-2.19,6.53,1.59,5.79.44-.09,2.41,1,2.86,1.17,1,.41,2,.8,3.09,1.15a45.21,45.21,0,0,0,7.44,1.85c3.78.61,5.4-5.17,1.59-5.78Z"/><path class="cls-17" d="M813.76,644.73q9.33,1.51,18.52,3.67c3.76.89,5.36-4.9,1.6-5.78q-9.2-2.18-18.53-3.67c-3.77-.61-5.4,5.17-1.59,5.78Z"/></g><g id="图层_36" data-name="图层 36"><path class="cls-21" d="M91.77,586.07l31.81,22.25c3.47,2.43,7.33,6.24,11.93,5.44,3.75-.65,6.21-5.85,9.73-5.9l-3-3,1.3,15.87a3,3,0,0,0,4.51,2.59l13.3-6.82-4.51-2.59.37,10.46c.07,1.82,1.88,3.56,3.8,2.89l11.75-4.09-3.8-2.9c.22,6.81-5,12.81-.94,19.44,3.74,6,12.21,10,17.66,14.3a226.49,226.49,0,0,1,36.65,36.52c2.41,3,6.63-1.26,4.24-4.24A227.44,227.44,0,0,0,194,653c-5.45-4.5-11.18-8.56-16.89-12.73-4.16-3-5.45-5.64-3.93-10.72.93-3.12,1.92-6,1.82-9.3-.06-1.82-1.89-3.55-3.8-2.89l-11.75,4.09,3.8,2.9-.37-10.46a3,3,0,0,0-4.52-2.59L145,618.14l4.52,2.59-1.3-15.87a3.06,3.06,0,0,0-3-3c-3.29,0-5.32,1.68-7.71,3.76s-4.12,2.24-6.95.3c-2.4-1.65-4.77-3.34-7.16-5l-28.62-20c-3.17-2.21-6.17,3-3,5.19Z"/><path class="cls-21" d="M37.41,698.23l30.07-14.56c3.34-1.62,8-3,10.27-6.18,2.08-3,.38-7.74,2.53-10.28H76c2.5,3.15,8.15,13.34,13.43,11.17,2.2-.9,3.25-3.23,3.74-5.42s-.19-9.18,2.89-7.9c1.41.59,2.29,3.65,3.74,4.68a5.29,5.29,0,0,0,5.28.64c2.27-1,3.2-3,4.06-5.2,1.49-3.76,2.68-7.66,4-11.47h-5.79c1.53,3.7,3.52,8,7.89,8.84a6.94,6.94,0,0,0,8.32-5h-5.79a17.53,17.53,0,0,0,5,8.42c2.8,2.66,7-1.58,4.24-4.24a11.8,11.8,0,0,1-3.48-5.77,3,3,0,0,0-5.79,0c-.88,3.36-4.34-3.19-4.63-3.89-1.12-2.71-4.75-3-5.79,0l-2.87,8.2c-.08.25-1,4-1.76,3.91-.35,0-1.21-1.84-1.41-2.12-1.92-2.63-4.67-4.6-8.07-3.43-3.25,1.12-5,4.62-5.48,7.8a16.85,16.85,0,0,0-.32,4.29l1.1,2c-.62-.68-1.24-1.36-1.84-2-2.24-2.53-4.38-5.13-6.48-7.78A3,3,0,0,0,76,663c-1.93,2.28-2.31,4.48-2.57,7.4-.22,2.61-.71,3.77-3,5.22a77.51,77.51,0,0,1-7.73,3.74L34.38,693.05c-3.47,1.69-.44,6.86,3,5.18Z"/><path class="cls-21" d="M129.84,665.89q17.28-6.69,34.9-12.41,8.58-2.78,17.25-5.29c5.84-1.7,13.1-4.77,19.09-2.24,3.51,1.49,6.58-3.68,3-5.18-11.15-4.72-24.76,1.83-35.54,5.2q-20.4,6.38-40.32,14.14c-3.57,1.38-2,7.18,1.59,5.78Z"/><path class="cls-21" d="M138.48,716.34q13.77-13.71,27.53-27.42c6-6,11.87-14,5.52-22l-3.63,4.71,16,9.45c1.77,1,4.8-.26,4.51-2.59l-1.51-12.29-3.8,2.89L194.65,674c1.76.73,3.92-1.12,3.8-2.9a49.13,49.13,0,0,0-4.37-17.41l-3.39,4.41,12.13,3.49a3.07,3.07,0,0,0,3.39-1.38,322,322,0,0,1,30-41.13c2.5-2.91-1.72-7.18-4.24-4.24A332.15,332.15,0,0,0,201,657.13l3.39-1.38-12.12-3.49c-2.73-.78-4.41,2.15-3.39,4.41a40.44,40.44,0,0,1,3.55,14.38l3.8-2.89-11.59-4.85a3,3,0,0,0-3.8,2.89l1.51,12.29,4.51-2.59-16-9.45c-3.12-1.85-5.64,2.18-3.63,4.71,5.34,6.72-10,18-14,22l-19,19c-2.74,2.73,1.5,7,4.24,4.25Z"/><path class="cls-21" d="M660.15,646.39c11-12,39.71-21.88,31.1-43.42l-4.41,3.39,12.08,8.17c2.06,1.39,4.32-.51,4.52-2.59l1.87-19.18-3.8,2.89,13,4.15a3,3,0,0,0,3.69-2.09l2.85-16-4.41,1.79,12.65,7.07a3,3,0,0,0,4.51-2.59l.68-15.68L730,574.92l6.78,4.24a3.1,3.1,0,0,0,3.64-.46,289,289,0,0,1,26.62-18.81c3.26-2,.26-7.23-3-5.18a302.48,302.48,0,0,0-27.84,19.74l3.64-.47L733,569.74a3,3,0,0,0-4.52,2.59L727.84,588l4.52-2.6-12.65-7.06c-1.56-.87-4.06-.18-4.41,1.79l-2.84,16,3.69-2.09-13-4.15c-2-.64-3.62,1-3.8,2.89l-1.87,19.18,4.51-2.59-12.08-8.18c-2-1.38-5.38,1-4.4,3.39,7.17,18-20.22,27.41-29.56,37.59-2.61,2.84,1.62,7.09,4.24,4.24Z"/><path class="cls-21" d="M670.9,659.88a248.7,248.7,0,0,1,19.51-17.19C694.78,639.36,704,632.05,709,638c1.85,2.2,4.88.19,5.12-2.12.25-2.51.44-5.65,2.09-7.68,1.33-1.65,4.16-2.88,5.32-.32s4.87,1.62,5.48-.71a64.39,64.39,0,0,0,2.12-16.92l-3.8,2.89a68.57,68.57,0,0,0,16,.63,3.12,3.12,0,0,0,2.89-2.2,38.22,38.22,0,0,0,1.58-9.5l-3,3,10.58-.06a3,3,0,0,0,2.89-3.8c-3.13-9.46,9.71-16.38,16.17-20.57,7.84-5.08,15.92-9.75,24.2-14.08,3.42-1.79.39-7-3-5.18a258.69,258.69,0,0,0-31.58,19c-7.1,5.12-14.68,12.91-11.55,22.39l2.9-3.8L742.8,599a3.06,3.06,0,0,0-3,3,31.61,31.61,0,0,1-1.37,7.9l2.9-2.2a61.39,61.39,0,0,1-14.4-.41c-1.88-.28-3.81.76-3.8,2.89a58.22,58.22,0,0,1-1.9,15.32l5.48-.72c-2-4.35-7.35-5.44-11.48-3.54-5.58,2.58-6.56,9.13-7.11,14.57l5.12-2.13c-5.3-6.31-14.37-3.81-20.47,0-9.62,6-17.93,14.25-26.11,22-2.82,2.65,1.43,6.89,4.24,4.24Z"/><path class="cls-21" d="M758.35,577.46a443.52,443.52,0,0,1,42.49,34.38c8.94,8.21,21.86,19.55,33.72,9.19l-5.12-2.12.4,16.39a3,3,0,0,0,3.8,2.9l13-4.46-3.8-2.89-1.61,12.51c-.29,2.21,2.78,3.81,4.51,2.59a23,23,0,0,1,10.65-4.15l-3.79-2.89c0,6.21-2.22,11.08,1,17,2.6,4.81,7,8.32,11.1,11.81,11.11,9.48,20.32,20.81,29.43,32.16,2.42,3,6.64-1.26,4.24-4.24-8-9.92-16-19.89-25.34-28.55-3.76-3.48-8.08-6.51-11.48-10.37-2-2.21-3.72-4.76-3.93-7.79-.23-3.32,1-6.64,1-10,0-2.16-1.92-3.15-3.8-2.89a26.76,26.76,0,0,0-12.09,4.75l4.52,2.59,1.61-12.51c.25-1.89-2.12-3.47-3.79-2.89l-13,4.45,3.8,2.89-.4-16.39a3,3,0,0,0-5.12-2.12c-6.31,5.5-14.51.4-19.66-4.07s-10.17-9.36-15.4-13.88c-10.86-9.39-22.19-18.23-33.88-26.56-3.15-2.24-6.15,3-3,5.18Z"/><path class="cls-21" d="M770.34,615.74l19.6,19.63c4.5,4.5,16.49,14,9,20.76-2.42,2.19.22,5.47,2.92,5a47.77,47.77,0,0,1,16.61.07l-2.1-3.69a59.78,59.78,0,0,1-4.15,13.25c-1.15,2.56,1.32,5.79,4.11,4.11a28.45,28.45,0,0,1,18.56-4l-2.89-3.8L829.46,677c-.7,2.7,3,5.37,5,2.92,6.37-7.88,16.53,8.47,20.2,12.66a251.21,251.21,0,0,0,19.21,19.54c2.85,2.6,7.1-1.63,4.24-4.24A288.64,288.64,0,0,1,852,680.05c-5.14-6.13-15.14-12.58-21.75-4.4l5,2.92,2.58-9.88c.53-2.06-1-3.58-2.9-3.8a33.69,33.69,0,0,0-21.59,4.81l4.1,4.1a67.07,67.07,0,0,0,4.76-14.69c.29-1.47-.41-3.39-2.1-3.69a56.76,56.76,0,0,0-19.8-.06l2.92,5c6.93-6.27,3.67-15.63-1.65-21.71-8.34-9.56-18-18.19-27-27.17-2.73-2.73-7,1.51-4.24,4.25Z"/></g><g id="图层_37" data-name="图层 37"><circle class="cls-22" cx="705.42" cy="620.34" r="7.5"/><circle class="cls-22" cx="482.42" cy="577.34" r="7.5"/><circle class="cls-22" cx="818.42" cy="641.34" r="7.5"/><circle class="cls-22" cx="831.42" cy="653.34" r="7.5"/><circle class="cls-22" cx="717.42" cy="608.34" r="7.5"/><circle class="cls-22" cx="731.42" cy="598.34" r="7.5"/></g></g></svg>