<svg xmlns="http://www.w3.org/2000/svg" viewBox="0 0 2231.03 1170.56"><defs><style>.cls-1{fill:#727a79;}.cls-2{fill:#fffac0;}.cls-3{fill:#073f37;}.cls-4,.cls-6,.cls-8{fill:#117265;}.cls-12,.cls-16,.cls-5{fill:#f5b232;}.cls-12,.cls-16,.cls-6,.cls-8{font-size:86.88px;font-family:MicrosoftYaHei, Microsoft YaHei;}.cls-12,.cls-6{letter-spacing:0.04em;}.cls-7{letter-spacing:0.03em;}.cls-15,.cls-16,.cls-8{letter-spacing:0.04em;}.cls-10,.cls-11,.cls-17,.cls-18,.cls-19,.cls-9{font-size:40.54px;}.cls-9{letter-spacing:0.02em;}.cls-10{letter-spacing:0.04em;}.cls-11{letter-spacing:0.03em;}.cls-13{letter-spacing:0.03em;}.cls-14{letter-spacing:0.03em;}.cls-17{letter-spacing:0.02em;}.cls-18{letter-spacing:0.03em;}.cls-19{letter-spacing:0.04em;}</style></defs><title>Pie</title><g id="Layer_2" data-name="Layer 2"><g id="图层_12" data-name="图层 12"><path class="cls-1" d="M885.78,832.82A434.16,434.16,0,0,0,905.83,702c0-240-194.58-434.62-434.61-434.62S36.6,462,36.6,702s194.58,434.62,434.62,434.62a433,433,0,0,0,294.5-115L487.23,711.16Z"/><path class="cls-2" d="M849.19,812.24a434.59,434.59,0,0,0,20-130.82c0-240-194.59-434.62-434.62-434.62S0,441.39,0,681.42,194.59,1116,434.62,1116a433.06,433.06,0,0,0,294.5-115L450.63,690.57Z"/><path class="cls-3" d="M1036.76,938.05,638.2,816.38l278.49,310.45A434.9,434.9,0,0,0,1036.76,938.05Z"/><path class="cls-4" d="M1011.13,918.07,612.58,796.4l278.49,310.45A434.79,434.79,0,0,0,1011.13,918.07Z"/><path class="cls-3" d="M622.94,862l276.81,308.58a435.28,435.28,0,0,0,109.72-159.71Z"/><path class="cls-5" d="M608.46,824.34l276.81,308.57A435.28,435.28,0,0,0,995,973.2Z"/><rect class="cls-4" x="1111.18" y="99.5" width="17.38" height="844.97" transform="translate(242.45 -347.9) rotate(19.76)"/><rect class="cls-4" x="1256.85" y="122.28" width="839.83" height="17.38"/><rect class="cls-5" x="1288.71" y="603.01" width="839.83" height="17.38"/><text class="cls-6" transform="translate(1297.39 74.49)">femoral fractu<tspan class="cls-7" x="635.51" y="0">r</tspan><tspan x="670.93" y="0">es</tspan></text><text class="cls-8" transform="translate(1293.36 248.48)">10.21% <tspan class="cls-9" x="352.03" y="0">o</tspan><tspan class="cls-10" x="378.64" y="0">f traumatic fractu</tspan><tspan class="cls-11" x="742.85" y="0">r</tspan><tspan class="cls-10" x="759.38" y="0">es</tspan></text><text class="cls-12" transform="translate(1245.27 542.19)">comminu<tspan class="cls-13" x="416.13" y="0">t</tspan><tspan x="451.25" y="0">ed fractu</tspan><tspan class="cls-14" x="853.89" y="0">r</tspan><tspan class="cls-15" x="889.3" y="0">es</tspan></text><text class="cls-16" transform="translate(1414.2 728.5)">95% <tspan class="cls-17" x="218.8" y="0">o</tspan><tspan class="cls-10" x="245.4" y="0">f femoral fractu</tspan><tspan class="cls-18" x="571.27" y="0">r</tspan><tspan class="cls-19" x="587.8" y="0">es</tspan></text></g></g></svg>