<svg xmlns="http://www.w3.org/2000/svg" viewBox="0 0 247.61 235.14"><defs><style>.cls-1{fill:#ffde55;}.cls-2{fill:#448aff;}</style></defs><title>r_pic</title><g id="Layer_2" data-name="Layer 2"><g id="图层_5" data-name="图层 5"><rect class="cls-1" width="247.61" height="235.14" rx="38" ry="38"/></g><g id="图层_24" data-name="图层 24"><path class="cls-2" d="M125.6,63.77a54.31,54.31,0,1,0,54.3,54.3A54.3,54.3,0,0,0,125.6,63.77Zm0,80.65A26.35,26.35,0,1,1,152,118.07,26.35,26.35,0,0,1,125.6,144.42Z"/><rect class="cls-2" x="85.95" y="48.67" width="25.06" height="25.06" rx="6" ry="6" transform="translate(-16.14 43.72) rotate(-23.19)"/><rect class="cls-2" x="139.42" y="48.67" width="25.06" height="25.06" rx="6" ry="6" transform="translate(34.91 -53.41) rotate(22.46)"/><rect class="cls-2" x="173.21" y="88.53" width="25.06" height="25.06" rx="6" ry="6" transform="translate(230.91 -105.51) rotate(73.79)"/><path class="cls-2" d="M161.25,152.84l8.13-12.14a6.31,6.31,0,0,1,8.71-1.75L190.22,147a6.27,6.27,0,0,1,1.72,8.69l-8.13,12.14a6.3,6.3,0,0,1-8.7,1.75L163,161.53A6.28,6.28,0,0,1,161.25,152.84Z"/><path class="cls-2" d="M118,166.8l14.6-.35a6.27,6.27,0,0,1,6.41,6.12l.3,14.56a6.3,6.3,0,0,1-6.15,6.41l-14.6.35a6.27,6.27,0,0,1-6.41-6.12l-.3-14.56A6.31,6.31,0,0,1,118,166.8Z"/><path class="cls-2" d="M82,143.18l8.76,11.63a6.27,6.27,0,0,1-1.27,8.77l-11.69,8.76a6.31,6.31,0,0,1-8.8-1.23L60.2,159.47a6.26,6.26,0,0,1,1.27-8.76l11.69-8.77A6.32,6.32,0,0,1,82,143.18Z"/><path class="cls-2" d="M77.78,97.36l-3.57,14.12A6.27,6.27,0,0,1,66.59,116l-14.16-3.61a6.3,6.3,0,0,1-4.55-7.62l3.56-14.12a6.29,6.29,0,0,1,7.63-4.52l14.16,3.61A6.31,6.31,0,0,1,77.78,97.36Z"/></g></g></svg>