<svg xmlns="http://www.w3.org/2000/svg" xmlns:xlink="http://www.w3.org/1999/xlink" viewBox="0 0 3074.75 2576.33"><defs><style>.cls-1,.cls-13{fill:none;stroke-miterlimit:10;stroke-width:10px;}.cls-1{stroke:#f8f8f8;}.cls-2{fill:#8a7a73;}.cls-3{fill:#7da477;}.cls-4{fill:#4b4335;}.cls-5{fill:url(#未命名的渐变_71);}.cls-6{fill:url(#未命名的渐变_71-2);}.cls-7{fill:url(#未命名的渐变_71-3);}.cls-8{fill:url(#未命名的渐变_71-4);}.cls-9{fill:url(#未命名的渐变_71-5);}.cls-10{fill:#7a6c66;}.cls-11{fill:#6b5f59;}.cls-12{fill:url(#未命名的渐变_71-6);}.cls-13{stroke:#b3dee4;}.cls-14{opacity:0.3;}.cls-15{fill:url(#未命名的渐变_71-7);}.cls-16{fill:url(#未命名的渐变_71-8);}.cls-17{fill:url(#未命名的渐变_71-9);}.cls-18{fill:url(#未命名的渐变_71-10);}.cls-19{fill:url(#未命名的渐变_71-11);}.cls-20{fill:#828282;}.cls-21{fill:#b9baba;}.cls-22{opacity:0.5;}.cls-23,.cls-24{font-size:295.79px;font-family:ArialMT, Arial;}.cls-23{fill:#00a39b;}.cls-24{fill:#f8f8f8;}</style><linearGradient id="未命名的渐变_71" x1="2886.25" y1="2152.36" x2="2855.71" y2="1190.96" gradientTransform="translate(-1967.27)" gradientUnits="userSpaceOnUse"><stop offset="0" stop-color="#a18220"/><stop offset="0.36" stop-color="#828b49"/><stop offset="1" stop-color="#449e9b"/></linearGradient><linearGradient id="未命名的渐变_71-2" x1="2851.3" y1="2151.3" x2="2826.01" y2="1355.34" xlink:href="#未命名的渐变_71"/><linearGradient id="未命名的渐变_71-3" x1="2628.75" y1="2121.32" x2="2607.92" y2="1465.62" xlink:href="#未命名的渐变_71"/><linearGradient id="未命名的渐变_71-4" x1="2545.34" y1="2124.33" x2="2528.52" y2="1594.94" xlink:href="#未命名的渐变_71"/><linearGradient id="未命名的渐变_71-5" x1="2545.37" y1="2088.15" x2="2532.16" y2="1672.31" xlink:href="#未命名的渐变_71"/><linearGradient id="未命名的渐变_71-6" x1="307.14" y1="575.3" x2="270.9" y2="-208.18" gradientTransform="matrix(0.99, -0.14, 0.14, 0.99, 254.22, 332.31)" xlink:href="#未命名的渐变_71"/><linearGradient id="未命名的渐变_71-7" x1="2885.67" y1="21937.53" x2="2869.44" y2="21426.85" gradientTransform="matrix(1, 0, 0, -1, -1967.27, 24000.59)" xlink:href="#未命名的渐变_71"/><linearGradient id="未命名的渐变_71-8" x1="2850.43" y1="21928.42" x2="2837.44" y2="21519.58" gradientTransform="matrix(1, 0, 0, -1, -1967.27, 24000.59)" xlink:href="#未命名的渐变_71"/><linearGradient id="未命名的渐变_71-9" x1="2627.88" y1="21912.84" x2="2617.14" y2="21574.74" gradientTransform="matrix(1, 0, 0, -1, -1967.27, 24000.59)" xlink:href="#未命名的渐变_71"/><linearGradient id="未命名的渐变_71-10" x1="2544.87" y1="21915.66" x2="2536.12" y2="21640.14" gradientTransform="matrix(1, 0, 0, -1, -1967.27, 24000.59)" xlink:href="#未命名的渐变_71"/><linearGradient id="未命名的渐变_71-11" x1="2544.88" y1="21896.26" x2="2538.02" y2="21680.54" gradientTransform="matrix(1, 0, 0, -1, -1967.27, 24000.59)" xlink:href="#未命名的渐变_71"/></defs><title>Regulation</title><g id="Layer_2" data-name="Layer 2"><g id="图层_4" data-name="图层 4"><line class="cls-1" x1="1863.49" y1="1493.19" x2="1464.79" y2="1493.19"/><rect class="cls-2" x="389.5" y="883.99" width="72.68" height="327.4"/><rect class="cls-2" x="773.24" y="883.99" width="72.68" height="327.4"/><path class="cls-3" d="M173.78,752.87s-57.68,22-47.92,31.73S291.12,929.83,291.12,929.83H931.75l149.79-124.08-53.24-36.13-96.55,79.1H291.12Z"/><path class="cls-2" d="M1157.92,1208.9v38.25l-25.92,4a112.46,112.46,0,0,1-16.25,39l15.36,21.19-27.24,27-21.15-15.4a113.82,113.82,0,0,1-39.23,16.16l-4.23,25.76h-38.51l-4-25.74A113.82,113.82,0,0,1,957.52,1323l-21.34,15.25-27.24-27,15.51-21a112.26,112.26,0,0,1-16.27-39l-25.94-4.2v-38.25l25.92-4a112.25,112.25,0,0,1,16.24-39l-15.35-21.19,27.23-27.05,21.16,15.4a113.85,113.85,0,0,1,39.22-16.16l4.23-25.76h38.52l4,25.74a113.82,113.82,0,0,1,39.24,16.13l21.34-15.25,27.23,27-15.51,21a112.47,112.47,0,0,1,16.28,39Z"/><ellipse class="cls-4" cx="1020.08" cy="1227.96" rx="74.14" ry="73.64"/><path class="cls-2" d="M1559.1,1544.89v83.44l-56.54,8.65a245.19,245.19,0,0,1-35.43,85l33.49,46.23-59.4,59-46.15-33.6a248.7,248.7,0,0,1-85.57,35.26l-9.23,56.19h-84l-8.71-56.15a248.92,248.92,0,0,1-85.6-35.19L1075.4,1827,1016,1768l33.83-45.84a245.09,245.09,0,0,1-35.5-85L957.74,1628v-83.44l56.54-8.65a245.24,245.24,0,0,1,35.43-85l-33.49-46.23,59.4-59,46.16,33.6a248.65,248.65,0,0,1,85.56-35.26l9.23-56.19h84l8.71,56.14a248.78,248.78,0,0,1,85.59,35.2l46.55-33.27,59.41,59L1467,1450.74a245.09,245.09,0,0,1,35.5,85Z"/><ellipse class="cls-4" cx="1258.42" cy="1586.45" rx="161.73" ry="160.63"/><path class="cls-5" d="M0,2077.64l101.74-448.38V1443l76.3-101,38.15,69.47L289.31,1184s629.49-18.94,639-15.79,162.14,230.51,162.14,230.51L1224,1708.2l216.19,189.45,321.1,82.1,73.13,135.78H1341.64L674,2162.89l-635.85-22.1Z"/><polygon class="cls-6" points="73.12 2131.32 57.23 2087.11 155.78 1597.68 155.78 1499.79 206.65 1458.74 236.91 1477.69 308.39 1367.17 902.91 1332.44 1023.72 1506.11 1103.2 1768.19 1395.69 1963.96 1650.03 2049.22 1707.26 2102.9 1313.03 2106.06 689.9 2159.74 73.12 2131.32"/><polygon class="cls-7" points="123.99 2094.83 108.09 2053.78 236.91 1583.29 276.6 1583.29 333.82 1463.3 852.04 1441.2 947.42 1576.98 1011 1820.11 1186.32 2006.41 1211.29 2075.88 950.6 2094.83 659.69 2123.25 123.99 2094.83"/><polygon class="cls-8" points="181.22 2101.14 181.22 2066.41 295.67 1684.34 340.18 1665.39 378.33 1586.45 832.96 1586.45 882.24 1698.37 941.06 1870.64 972.85 2082.2 659.69 2123.25 352.9 2101.14 181.22 2101.14"/><polygon class="cls-9" points="236.91 2063.25 337 1782.22 429.2 1665.39 782.1 1698.37 845.68 1839.06 917.21 2047.46 604.06 2088.51 337 2088.51 236.91 2063.25"/><polygon class="cls-2" points="1327.63 1506.25 1237.95 1567.92 1275.2 1601.31 1327.63 1506.25"/><ellipse class="cls-2" cx="1248.47" cy="1593.54" rx="28.53" ry="28.34"/><polygon class="cls-2" points="989.39 1191.02 1009.91 1229.43 1025.06 1216.26 989.39 1191.02"/><ellipse class="cls-2" cx="1020.68" cy="1226.48" rx="11.45" ry="11.37"/><rect class="cls-10" x="407.68" y="929.83" width="46.36" height="249.37"/><rect class="cls-10" x="793.91" y="929.83" width="44.37" height="239.34"/><rect class="cls-11" x="425.84" y="929.83" width="16.71" height="249.37"/><rect class="cls-11" x="809.58" y="929.83" width="16.71" height="239.69"/><polygon class="cls-12" points="625.73 861.92 468.59 861.92 355.49 726.68 323.15 395.92 388.12 89.1 527.77 0 766.36 228.08 848.7 617.55 760.96 856.45 625.73 861.92"/><path class="cls-13" d="M497,230.12c1.43,5.65,7.43,24.7,13.86,29,18.77,12.56,54-24.1,79.59-11.84,8.78,4.19,15.78,9.13,14.78,16.86-1.53,11.73-11.64,13.69-23.79,23.12C565,300,568,330.84,603.59,431"/><path class="cls-13" d="M527.27,259.38a49.92,49.92,0,0,1,7.73,21.3c1.59,14.55-13.54,36.53-16.15,46.44-8,30.26,1.22,66,23.94,85.61"/><path class="cls-13" d="M521.13,324.57,626.2,318.5"/><path class="cls-13" d="M585.78,583.85c-6-.27-16.19-5.1-22,4.44-4.59,7.57,1.28,12.7,3.1,18.2,5.28,16,7.45,22.62,12.28,57.68"/><path class="cls-13" d="M525.79,589.69c1.87-43.47,11.05-71.26,20.64-77.83,1.67-1.15,1.63,1,3,1.88C571,528.25,587.24,559,592,568.18"/><path class="cls-13" d="M535.7,576.05l43.49-9.66"/><path class="cls-13" d="M548.74,612.78c12.21-4,25.35-3,37.56-7"/><path class="cls-13" d="M544,670.64c21.66-6.1,44.44-6.24,66.1-12.34"/><path class="cls-13" d="M583,620c0,2,.15,13.71,9.15,20.94a23.45,23.45,0,0,0,8.05,4.17"/><path class="cls-13" d="M553.89,624.93c6.3,8.63,7.58,18.63,3.21,25.14a15.6,15.6,0,0,1-6.26,5.29"/><path class="cls-13" d="M623.16,483.2l6.08,43.43"/><path class="cls-13" d="M632.22,619c-4.7-.33-13.09-1.67-17.83-8.11-3.09-4.2-3.34-8.8-3.53-11.41-2.15-29.92-13.21-36.66-7.26-51.87,4-10.32,12.44-15.62,15.56-17.34,8.6-4.75,21.84-7.09,32-.46,6.13,4,9.47,10.1,10.72,12.4a40.8,40.8,0,0,1,4.34,12.61c8.09,43.26,8.42,46.13,6.45,50.66-5.57,12.78-16,8-25.18,22-9.34,14.3-9,35.47-.48,51.61a54.17,54.17,0,0,0,25.13,23.63"/><path class="cls-13" d="M611.9,561.05l38.88-6.69"/><path class="cls-13" d="M621.21,595.45l34.38-6.73"/><g class="cls-14"><path class="cls-15" d="M0,2110.12,101.74,2339.9v95.47l76.3,51.78,38.15-35.6,73.12,116.51s629.49,9.71,639,8.09S1090.48,2458,1090.48,2458L1224,2299.45l216.19-97.09,321.1-42.07,73.13-69.58H1341.64L674,2066.43,38.15,2077.76Z"/><polygon class="cls-16" points="73.12 2082.61 57.23 2105.27 155.78 2356.08 155.78 2406.24 206.65 2427.28 236.91 2417.57 308.39 2474.2 902.91 2492 1023.72 2403.01 1103.2 2268.7 1395.69 2168.38 1650.03 2124.69 1707.26 2097.18 1313.03 2095.56 689.9 2068.05 73.12 2082.61"/><polygon class="cls-17" points="123.99 2101.31 108.09 2122.35 236.91 2363.45 276.6 2363.45 333.82 2424.94 852.04 2436.27 947.42 2366.69 1011 2242.09 1186.32 2146.62 1211.29 2111.02 950.6 2101.31 659.69 2086.75 123.99 2101.31"/><polygon class="cls-18" points="181.22 2098.08 181.22 2115.88 295.67 2311.67 340.18 2321.38 378.33 2361.84 832.96 2361.84 882.24 2304.48 941.06 2216.2 972.85 2107.79 659.69 2086.75 352.9 2098.08 181.22 2098.08"/><polygon class="cls-19" points="236.91 2117.49 337 2261.51 429.2 2321.38 782.1 2304.48 845.68 2232.38 917.21 2125.59 604.06 2104.55 337 2104.55 236.91 2117.49"/></g><line class="cls-1" x1="1092.24" y1="1586.71" x2="1862.06" y2="1586.71"/><line class="cls-1" x1="1983.19" y1="1679.62" x2="1094.45" y2="1679.62"/><path class="cls-1" d="M1094.65,1586.67c-25.76,0-46.84,20.93-46.84,46.51a46.22,46.22,0,0,0,13.76,32.86c9.15,9.09,19.54,13.67,33.08,13.67"/><path class="cls-1" d="M1115.28,1679.43c-25.76,0-46.84-20.93-46.84-46.52a46.21,46.21,0,0,1,13.76-32.85c9.16-9.1,19.54-13.67,33.08-13.67"/><path class="cls-1" d="M1137.93,1679.69c-25.76,0-46.84-20.93-46.84-46.52a46.21,46.21,0,0,1,13.76-32.85c9.15-9.1,19.54-13.67,33.08-13.67"/><path class="cls-1" d="M1862.73,1586.37c25.76,0,46.84-20.94,46.84-46.52A46.18,46.18,0,0,0,1895.8,1507c-9.15-9.09-19.53-13.66-33.07-13.66"/><polygon class="cls-20" points="1826.16 2292.75 1809.43 2298.77 1747.75 2302.3 1667.26 2292.54 1679.17 2310.4 1724.34 2322.24 1799.61 2322.86 1828.04 2309.78 1840.38 2286.52 1826.16 2292.75"/><path class="cls-21" d="M1781.41,2302.72l24.68-42.57-22.17-80.58-9.61,29.49L1768,2261s7.74,43.19,8.37,43.19S1781.41,2302.72,1781.41,2302.72Z"/><g class="cls-22"><polygon class="cls-20" points="1823.51 2350.4 1806.78 2344.38 1745.1 2340.85 1664.61 2350.61 1676.53 2332.75 1721.69 2320.91 1796.96 2320.29 1825.39 2333.37 1837.73 2356.63 1823.51 2350.4"/><path class="cls-21" d="M1778.77,2340.43l24.67,42.57-22.16,80.57-9.62-29.48-6.27-51.92s7.73-43.19,8.36-43.19A51.7,51.7,0,0,1,1778.77,2340.43Z"/></g><text class="cls-23" transform="translate(495.25 2037.75)">Regulation System</text><text class="cls-24" transform="translate(471.28 2021.67)">Regulation System</text></g></g></svg>