<svg xmlns="http://www.w3.org/2000/svg" viewBox="0 0 1607.04 3435.87"><defs><style>.cls-1{fill:#dbdad7;}.cls-2{fill:#c2c0bd;}.cls-3{fill:#a9a6a3;}.cls-4{fill:#8f8e8b;}.cls-5{fill:#cfe2f3;}.cls-6{fill:#f4abab;}.cls-7{fill:#d77b7b;}.cls-8{fill:#c4c2c2;}.cls-9{fill:#8a8989;}.cls-10{fill:#ffcc80;}.cls-11{fill:#fff;}.cls-12{fill:#fbeaea;}.cls-13{fill:#f9d6d5;}.cls-14{fill:#f6c1c0;}.cls-15,.cls-16,.cls-17,.cls-18{fill:none;stroke:#fff;stroke-width:10px;}.cls-15,.cls-16,.cls-17,.cls-18,.cls-19{stroke-miterlimit:10;}.cls-16{stroke-dasharray:11.97 11.97;}.cls-17{stroke-dasharray:11.97 11.97;}.cls-18{stroke-dasharray:11.91 11.91;}.cls-19{fill:#f3b756;stroke:#faddac;stroke-width:2px;}.cls-20{font-size:91.85px;fill:#010100;font-family:MicrosoftYaHei, Microsoft YaHei;}</style></defs><title>Stress</title><g id="Layer_2" data-name="Layer 2"><g id="图层_4" data-name="图层 4"><rect class="cls-1" x="701.33" y="54.81" width="875.19" height="1945.04"/><rect class="cls-2" x="791.73" y="54.22" width="693.93" height="1941.87"/><rect class="cls-3" x="882.14" y="53.63" width="512.67" height="1938.7"/><rect class="cls-4" x="972.54" y="53.03" width="331.42" height="1935.53"/><rect class="cls-5" x="693.89" y="825.49" width="875.19" height="503.9" rx="7" ry="7"/><circle class="cls-6" cx="892.8" cy="964.73" r="75.14"/><circle class="cls-6" cx="1114.09" cy="1134.9" r="39.78"/><circle class="cls-6" cx="1282.88" cy="972.46" r="47.52"/><circle class="cls-6" cx="847.49" cy="1213.36" r="47.52"/><circle class="cls-6" cx="1437.59" cy="1197.89" r="62.99"/><circle class="cls-7" cx="913.62" cy="1002.95" r="26.62"/><circle class="cls-7" cx="859.93" cy="1232.42" r="12.43"/><circle class="cls-7" cx="1122.1" cy="1148.72" r="13.81"/><circle class="cls-7" cx="1276.11" cy="994.98" r="18.65"/><circle class="cls-7" cx="1422.94" cy="1192.92" r="27.07"/><rect class="cls-8" x="1057.88" width="121.55" height="481.8"/><polygon class="cls-8" points="1118.66 559.15 991.58 430.96 1234.69 430.96 1118.66 559.15"/><rect class="cls-8" x="1053.03" y="1545.85" width="121.55" height="446.57"/><polygon class="cls-8" points="1113.81 1474.15 986.73 1592.96 1229.84 1592.96 1113.81 1474.15"/><path class="cls-9" d="M1039.34,595c6.53,42.94-25.33,106.09-45,142.15-20.8,38.12-48.06,69.8-84.57,93.57l10,7.66,3.92-11.07c2.93-8.25-10.18-11.8-13.08-3.61l-3.93,11.08c-2,5.53,5.15,10.8,10,7.66,42.91-27.94,73.93-66.31,96.52-112.12,19.86-40.3,46.25-93.21,39.29-138.93-1.3-8.6-14.38-5-13.08,3.61Z"/><path class="cls-9" d="M908.91,799a81.17,81.17,0,0,1-6.7,34.88c-3.5,7.92,8.19,14.83,11.71,6.85A96.94,96.94,0,0,0,922.48,799c-.2-8.72-13.77-8.75-13.57,0Z"/><path class="cls-9" d="M906.87,832.84l-.32.43a6.52,6.52,0,0,0,0,6.85c4.05,5.31,9.87,4.63,16.1,4.7a200.76,200.76,0,0,0,24-1.22c8.59-.92,8.69-14.5,0-13.57-5.46.59-10.93,1-16.42,1.16-2.53.07-5.07.09-7.6.06-1.27,0-2.53,0-3.8-.08q-4.83-1.09-.59,2.1v6.85l.33-.44c5.2-7-6.58-13.79-11.72-6.84Z"/><path class="cls-9" d="M258.54,832.53c130,106.16,299,111.64,459,96.81,8.62-.8,8.7-14.38,0-13.57-155.83,14.45-322.38,10.88-449.41-92.84-6.71-5.47-16.37,4.07-9.6,9.6Z"/><path class="cls-9" d="M257.75,835.23a308.77,308.77,0,0,1,13.73,35.11c2.67,8.27,15.78,4.73,13.08-3.61a339.45,339.45,0,0,0-15.09-38.35c-3.68-7.91-15.38-1-11.72,6.85Z"/><path class="cls-9" d="M268,832.73a302.1,302.1,0,0,1,32.57-5.79c8.57-1,8.67-14.6,0-13.57a335.71,335.71,0,0,0-36.18,6.28c-8.5,2-4.9,15.06,3.61,13.08Z"/><path class="cls-9" d="M745.45,1094c-98.19-21.2-206.68,60.17-276.91,119.76-6.67,5.66,3,15.22,9.6,9.6C544,1167.47,650,1087.27,741.85,1107.1c8.51,1.84,12.15-11.24,3.6-13.08Z"/><path class="cls-9" d="M474.69,1178.63a164.67,164.67,0,0,1-8.17,41.09c-2.76,8.3,10.34,11.86,13.08,3.6a179.15,179.15,0,0,0,8.66-44.69c.58-8.72-13-8.68-13.57,0Z"/><path class="cls-9" d="M476.73,1228.12l44.79-2.82c8.67-.54,8.74-14.11,0-13.56l-44.79,2.81c-8.67.54-8.73,14.12,0,13.57Z"/><path class="cls-9" d="M290.1,441.29C406.17,236.11,692.4,152.07,913,191.92c8.54,1.55,12.2-11.53,3.6-13.08-226.75-41-518.92,44.69-638.22,255.6-4.31,7.61,7.41,14.46,11.71,6.85Z"/><ellipse class="cls-10" cx="244.07" cy="696.07" rx="244.07" ry="102.88"/><ellipse class="cls-10" cx="260.72" cy="1247.05" rx="185.65" ry="89.52"/><path class="cls-11" d="M114.94,686.13V646h11.45q9.11,0,15.16,5.31t6,14.24q0,9.33-6,15T126,686.13Zm5.18-35.51v30.92h5.82c5.1,0,9.08-1.38,11.93-4.17s4.28-6.67,4.28-11.67-1.46-8.78-4.39-11.29-6.8-3.79-11.58-3.79Z"/><path class="cls-11" d="M178,673.1H158c.09,3.06.92,5.42,2.52,7.08a8.73,8.73,0,0,0,6.65,2.5A14.13,14.13,0,0,0,176,679.6v4.53c-2.52,1.79-5.86,2.67-10,2.67s-7.37-1.31-9.7-3.93-3.48-6.27-3.48-10.94a15.69,15.69,0,0,1,3.83-10.85,12.23,12.23,0,0,1,9.49-4.27,11.09,11.09,0,0,1,8.78,3.61Q178,664,178,670.54ZM173,669a9.07,9.07,0,0,0-1.84-6,6.33,6.33,0,0,0-5.1-2.12,7.08,7.08,0,0,0-5.24,2.25A10.35,10.35,0,0,0,158,669Z"/><path class="cls-11" d="M209.65,683.72q0,15.9-15.43,15.9a20.24,20.24,0,0,1-9.27-2v-4.89a19,19,0,0,0,9.19,2.67q10.44,0,10.44-11v-3h-.11a11.51,11.51,0,0,1-18.36,1.55q-3.24-3.86-3.24-10.23c0-4.89,1.2-8.75,3.58-11.61a11.77,11.77,0,0,1,9.53-4.29,9.25,9.25,0,0,1,8.49,4.56h.11v-3.88h5.07Zm-5.07-14.63a7.92,7.92,0,0,0-2.23-5.7A7.33,7.33,0,0,0,196.8,661a7.62,7.62,0,0,0-6.44,3c-1.54,2-2.31,4.82-2.31,8.35a11.58,11.58,0,0,0,2.23,7.39,7.15,7.15,0,0,0,5.91,2.81,7.69,7.69,0,0,0,6.06-2.69,9.88,9.88,0,0,0,2.33-6.84Z"/><path class="cls-11" d="M234.07,662.51a5.93,5.93,0,0,0-3.49-.9,5.71,5.71,0,0,0-4.87,2.75,12.47,12.47,0,0,0-1.92,7.26v14.51h-5.08V657.49h5.08v5.82h.1q2.19-6.31,7.52-6.32a7.36,7.36,0,0,1,2.66.39Z"/><path class="cls-11" d="M239.64,659.48a18.26,18.26,0,0,1,9.87-2.67q10.37,0,10.36,10.88v18.44h-5V681.7h-.14a9.55,9.55,0,0,1-8.77,5.1,9.45,9.45,0,0,1-6.63-2.25,7.81,7.81,0,0,1-2.46-6.09q0-8,9.51-9.35l8.49-1.19q0-7-5.81-7a14.54,14.54,0,0,0-9.4,3.46Zm8.5,13.19q-3.52.47-4.86,1.75a4.83,4.83,0,0,0-1.33,3.63,4.25,4.25,0,0,0,1.45,3.34,5.55,5.55,0,0,0,3.83,1.29,7.09,7.09,0,0,0,5.47-2.33,8.3,8.3,0,0,0,2.15-5.85v-2.74Z"/><path class="cls-11" d="M293.14,686.13h-5.07v-4.76H288a10.47,10.47,0,0,1-9.74,5.43,10.65,10.65,0,0,1-8.65-3.87q-3.21-3.87-3.21-10.45,0-7.1,3.63-11.38a11.8,11.8,0,0,1,9.48-4.29c3.89,0,6.73,1.52,8.49,4.56h.1V643.73h5.07Zm-5-17a7.9,7.9,0,0,0-2.27-5.76,7.49,7.49,0,0,0-5.58-2.33,7.6,7.6,0,0,0-6.37,3q-2.34,3-2.34,8.22a11.69,11.69,0,0,0,2.25,7.57,7.25,7.25,0,0,0,6,2.78,7.55,7.55,0,0,0,6-2.73,10.13,10.13,0,0,0,2.33-6.8Z"/><path class="cls-11" d="M301.6,647.38a3.14,3.14,0,0,1,3.18-3.18,3.23,3.23,0,0,1,2.32.9,3,3,0,0,1,.95,2.28,3,3,0,0,1-.95,2.25,3.27,3.27,0,0,1-2.32.89,3.15,3.15,0,0,1-2.28-.89A3.07,3.07,0,0,1,301.6,647.38Zm.59,38.75V657.49h5.08v28.64Z"/><path class="cls-11" d="M340.55,686.13H335.5V669.84c0-5.88-2.15-8.84-6.45-8.84a6.9,6.9,0,0,0-5.49,2.5,9.27,9.27,0,0,0-2.15,6.29v16.34h-5.08V657.49h5.08v4.73h.1a10.36,10.36,0,0,1,9.41-5.41q4.71,0,7.17,3t2.46,8.79Z"/><path class="cls-11" d="M373.87,683.72q0,15.9-15.43,15.9a20.3,20.3,0,0,1-9.27-2v-4.89a19,19,0,0,0,9.19,2.67q10.44,0,10.44-11v-3h-.1a11.51,11.51,0,0,1-18.36,1.55c-2.17-2.57-3.24-6-3.24-10.23,0-4.89,1.19-8.75,3.57-11.61a11.78,11.78,0,0,1,9.54-4.29,9.27,9.27,0,0,1,8.49,4.56h.1v-3.88h5.07Zm-5.07-14.63a7.91,7.91,0,0,0-2.22-5.7A7.36,7.36,0,0,0,361,661a7.64,7.64,0,0,0-6.45,3c-1.54,2-2.31,4.82-2.31,8.35a11.52,11.52,0,0,0,2.24,7.39,7.12,7.12,0,0,0,5.9,2.81,7.68,7.68,0,0,0,6.06-2.69,9.88,9.88,0,0,0,2.33-6.84Z"/><path class="cls-11" d="M172.93,749.78H151.36V709.66H172v4.62H156.55v12.84h14.34v4.59H156.55V745.2h16.38Z"/><path class="cls-11" d="M204.09,749.78H199V733.49q0-8.82-6.45-8.83a6.93,6.93,0,0,0-5.49,2.49,9.26,9.26,0,0,0-2.14,6.29v16.34h-5.08V721.14H185v4.74h.09a10.36,10.36,0,0,1,9.41-5.42,8.75,8.75,0,0,1,7.18,3c1.63,2,2.45,4.94,2.45,8.79Z"/><path class="cls-11" d="M232.72,749.78H208.94v-1.69l16.66-22.75H210.5v-4.2h22.32v1.65l-16.55,22.8h16.45Z"/><path class="cls-11" d="M262,721.14l-13,33q-3.63,9.15-10.23,9.16a11,11,0,0,1-3.24-.41V758.4a8,8,0,0,0,2.86.58q3.43,0,5.15-4.05l2.2-5.2-11.24-28.59h5.62l7.49,21.52.62,2.36h.13a22.27,22.27,0,0,1,.62-2.31l7.82-21.57Z"/><path class="cls-11" d="M308,749.78h-5.07V733.33c0-3.1-.49-5.33-1.46-6.66s-2.55-2-4.76-2a5.89,5.89,0,0,0-4.79,2.61,9.93,9.93,0,0,0-2,6.19v16.32H284.8v-17q0-8.16-6.29-8.16a5.82,5.82,0,0,0-4.81,2.49,10.11,10.11,0,0,0-1.9,6.34v16.29h-5.08V721.14h5.08v4.53h.1a9.79,9.79,0,0,1,8.94-5.21,8.5,8.5,0,0,1,5.07,1.58,8.12,8.12,0,0,1,3.06,4.28q3.18-5.87,9.53-5.86,9.47,0,9.45,11.66Z"/><path class="cls-11" d="M339.75,736.75h-20a10.32,10.32,0,0,0,2.52,7.09,8.73,8.73,0,0,0,6.65,2.5,14.14,14.14,0,0,0,8.83-3.09v4.53c-2.52,1.79-5.86,2.67-10,2.67s-7.38-1.3-9.7-3.93-3.48-6.27-3.48-10.94a15.64,15.64,0,0,1,3.82-10.84,12.22,12.22,0,0,1,9.49-4.28,11.09,11.09,0,0,1,8.78,3.61q3.15,3.63,3.15,10.12Zm-5.07-4.06a9.08,9.08,0,0,0-1.83-6,6.38,6.38,0,0,0-5.11-2.12,7.11,7.11,0,0,0-5.24,2.25,10.45,10.45,0,0,0-2.79,5.88Z"/><path class="cls-11" d="M183.92,1260.89v-40.12h11.44q9.12,0,15.17,5.31t6.05,14.24q0,9.33-6.05,15T195,1260.89Zm5.18-35.51v30.92h5.82c5.1,0,9.08-1.38,11.93-4.17s4.28-6.67,4.28-11.68-1.46-8.77-4.4-11.29-6.79-3.78-11.57-3.78Z"/><path class="cls-11" d="M239,1237.26a5.89,5.89,0,0,0-3.49-.9,5.71,5.71,0,0,0-4.86,2.76,12.47,12.47,0,0,0-1.92,7.26v14.51h-5.08v-28.64h5.08v5.82h.1q2.18-6.33,7.52-6.32a7.08,7.08,0,0,1,2.65.39Z"/><path class="cls-11" d="M267.58,1260.89h-5.11v-4.51h-.11a9.42,9.42,0,0,1-8.82,5.18q-10.18,0-10.18-12.17v-17.14h5v16.38c0,5.83,2.23,8.73,6.69,8.73a6.62,6.62,0,0,0,5.35-2.44,9.29,9.29,0,0,0,2.05-6.18v-16.49h5.11Z"/><path class="cls-11" d="M301.47,1258.48q0,15.9-15.43,15.9a20.3,20.3,0,0,1-9.27-2v-4.89a19,19,0,0,0,9.19,2.66q10.44,0,10.44-11v-3h-.1a11.51,11.51,0,0,1-18.36,1.55q-3.24-3.85-3.24-10.23,0-7.34,3.58-11.61a11.75,11.75,0,0,1,9.53-4.29,9.26,9.26,0,0,1,8.49,4.56h.1v-3.88h5.07Zm-5.07-14.63a7.91,7.91,0,0,0-2.22-5.7,7.35,7.35,0,0,0-5.55-2.39,7.64,7.64,0,0,0-6.45,3c-1.54,2-2.31,4.82-2.31,8.35a11.53,11.53,0,0,0,2.24,7.38,7.11,7.11,0,0,0,5.9,2.82,7.67,7.67,0,0,0,6.06-2.69,9.88,9.88,0,0,0,2.33-6.84Z"/><path class="cls-11" d="M308.93,1254.7a13.86,13.86,0,0,0,8.26,2.77q5.94,0,5.94-3.89a3.39,3.39,0,0,0-1.3-2.73,20.94,20.94,0,0,0-5.26-2.55c-3.18-1.27-5.24-2.55-6.19-3.79A7.32,7.32,0,0,1,309,1240a7.15,7.15,0,0,1,3.22-6.1,13.44,13.44,0,0,1,7.94-2.29,17.87,17.87,0,0,1,6.79,1.27v4.89a13.16,13.16,0,0,0-7.28-2.06,6.76,6.76,0,0,0-4,1.06,3.23,3.23,0,0,0-1.53,2.79,3.37,3.37,0,0,0,1.1,2.67,19.46,19.46,0,0,0,4.88,2.46c3.19,1.19,5.36,2.42,6.48,3.7a7,7,0,0,1,1.68,4.75,7.16,7.16,0,0,1-3.23,6.2,14.17,14.17,0,0,1-8.34,2.26,17,17,0,0,1-7.78-1.68Z"/><path class="cls-4" d="M1100.37,102.2a17.73,17.73,0,0,0-3.29,6.15,22.78,22.78,0,0,0-1.3,7.32q0,10.55,7.51,10.55a6.68,6.68,0,0,0,3.79-1.13,11.11,11.11,0,0,0,3-3.11,82.61,82.61,0,0,0,4-7.42q3.75-7.53,7-9.93a12,12,0,0,1,7.36-2.4,11.63,11.63,0,0,1,9.91,5q3.66,5,3.66,12.66,0,7.47-1.82,11h-7.05a19.68,19.68,0,0,0,3.13-11.46,13.38,13.38,0,0,0-1.92-7.5,6.12,6.12,0,0,0-5.36-2.89,6.54,6.54,0,0,0-5,2q-1.9,2-5.21,8.71-3.52,7.38-7.06,10.33a12,12,0,0,1-7.94,3q-6.6,0-10.13-4.8t-3.52-13.3a34.7,34.7,0,0,1,.82-7,16.56,16.56,0,0,1,2.06-5.77Z"/><path class="cls-4" d="M1135.34,173.09V158.62H1091v-6.51h44.38v-14.4h5.76v35.38Z"/><path class="cls-4" d="M1091,217.42v-7.64l13.92-8.32a19.38,19.38,0,0,0,5.68-4.57,8.2,8.2,0,0,0,1.5-4.94v-4.67H1091v-6.47h50.14v15.28c0,4.88-1.18,8.69-3.53,11.46s-5.64,4.14-9.87,4.14q-10.42,0-13.54-11.14H1114a10.13,10.13,0,0,1-2.49,3.58A36.24,36.24,0,0,1,1106,208Zm44.48-30.14h-17.71v7.64a10.1,10.1,0,0,0,2.59,7.2,8.84,8.84,0,0,0,6.79,2.77,7.69,7.69,0,0,0,6.13-2.53c1.46-1.68,2.2-4.12,2.2-7.34Z"/><path class="cls-4" d="M1091,251.05v-27h50.14v25.83h-5.76V230.56h-16.06v17.93h-5.73V230.56h-16.86v20.49Z"/><path class="cls-4" d="M1100.37,258.2a17.91,17.91,0,0,0-3.29,6.15,22.84,22.84,0,0,0-1.3,7.33q0,10.54,7.51,10.54a6.68,6.68,0,0,0,3.79-1.13,11,11,0,0,0,3-3.11,82,82,0,0,0,4-7.41q3.75-7.54,7-9.94a12,12,0,0,1,7.36-2.39,11.63,11.63,0,0,1,9.91,5q3.66,5,3.66,12.66,0,7.47-1.82,11h-7.05a19.7,19.7,0,0,0,3.13-11.46,13.38,13.38,0,0,0-1.92-7.5,6.1,6.1,0,0,0-5.36-2.9,6.51,6.51,0,0,0-5,2q-1.9,2-5.21,8.71-3.52,7.38-7.06,10.33a12,12,0,0,1-7.94,2.95q-6.6,0-10.13-4.8t-3.52-13.3a34.62,34.62,0,0,1,.82-6.95,16.62,16.62,0,0,1,2.06-5.78Z"/><path class="cls-4" d="M1100.37,296.47a17.91,17.91,0,0,0-3.29,6.15,22.84,22.84,0,0,0-1.3,7.33q0,10.55,7.51,10.55a6.61,6.61,0,0,0,3.79-1.14,11,11,0,0,0,3-3.11,82,82,0,0,0,4-7.41q3.75-7.53,7-9.94a12,12,0,0,1,7.36-2.39,11.63,11.63,0,0,1,9.91,5q3.66,5,3.66,12.66,0,7.47-1.82,11h-7.05a19.7,19.7,0,0,0,3.13-11.46,13.38,13.38,0,0,0-1.92-7.5,6.13,6.13,0,0,0-5.36-2.9,6.51,6.51,0,0,0-5,2q-1.9,2-5.21,8.71-3.52,7.38-7.06,10.33a12,12,0,0,1-7.94,2.95q-6.6,0-10.13-4.8t-3.52-13.3a34.62,34.62,0,0,1,.82-6.95,16.62,16.62,0,0,1,2.06-5.78Z"/><path class="cls-9" d="M503.64,190.05H444.86V175h58.78Z"/><path class="cls-9" d="M565,838.21H531v33.85h-11.8V838.21H485.31v-12h33.86V792.38H531v33.86h34Z"/><path class="cls-12" d="M1568.05,3120.72c-116.24-111.13-273.8-179.39-447.3-179.39-174.6,0-333,69.14-449.47,181.5A481.32,481.32,0,0,0,971.48,3407a191.08,191.08,0,0,1,327.16-11.46A481.52,481.52,0,0,0,1568.05,3120.72Z"/><path class="cls-13" d="M970.87,3410.88c37.28-34.06,95.54-57.79,160.63-57.79,65.84,0,125.32,18.94,166.53,46.33,77.35-41.15,136-114.47,159.62-202.72a490.88,490.88,0,0,0-665.71,2.1C817.7,3294.08,884.09,3372,970.87,3410.88Z"/><path class="cls-14" d="M970.27,3414.74a710.52,710.52,0,0,1,154.21-17.29c64.63,0,124.64,3.31,173,5.83,31-32.39,50-79.05,49.82-130.6a336.09,336.09,0,0,0-434.65,2.09C912.3,3330.92,934.54,3381.55,970.27,3414.74Z"/><path class="cls-6" d="M1138.52,3308.73a191,191,0,0,0-167,98.28,481.85,481.85,0,0,0,327.16-11.46A190.9,190.9,0,0,0,1138.52,3308.73Z"/><line class="cls-15" x1="1407.16" y1="1294.44" x2="1406.11" y2="1300.34"/><line class="cls-16" x1="1404.03" y1="1312.13" x2="1200.83" y2="2461.24"/><line class="cls-15" x1="1199.79" y1="2467.14" x2="1198.75" y2="2473.04"/><circle class="cls-17" cx="1121.87" cy="2950.7" r="480.17" transform="translate(-1757.87 1657.52) rotate(-45)"/><circle class="cls-18" cx="1434.5" cy="1197.67" r="94.76"/><polygon class="cls-19" points="1120.27 2903.92 1030.37 2892.42 1047.08 2797.94 1117.5 2769.07 1120.27 2903.92"/><polygon class="cls-19" points="1120.29 2913.37 983.66 2898.16 950.58 2967.98 1061.11 3011.87 1128.2 3010.49 1120.29 2913.37"/><polygon class="cls-19" points="1068.73 3025.55 1128.48 3024.32 1129.78 3087.54 1068.73 3025.55"/><polygon class="cls-19" points="1146.49 2901.89 1231.34 2886.81 1211.7 2793.08 1143.72 2767.05 1146.49 2901.89"/><polygon class="cls-19" points="1146.85 2911.34 1275.88 2890.67 1310.07 2959.11 1206.94 3007.39 1143.23 3008.7 1146.85 2911.34"/><polygon class="cls-19" points="1200.26 3021.36 1143.51 3022.53 1144.81 3085.75 1200.26 3021.36"/><text class="cls-20" transform="translate(997.78 2662.81)">Piezo1</text></g></g></svg>