<svg xmlns="http://www.w3.org/2000/svg" viewBox="0 0 1267.48 196.8"><defs><style>.cls-1{fill:#614d3f;}</style></defs><title>Title</title><g id="图层_2" data-name="图层 2"><g id="图层_6" data-name="图层 6"><path class="cls-1" d="M10.8,4.5H48.9l79.2,159,79.5-159h43.2V8.7c-27.9,2.7-30.6,5.7-29.4,35.7l2.1,106.5c.9,30.9,2.1,34.8,30.3,37.2v4.2H180.3v-4.2c26.4-2.1,27.3-6,27-37.2l-1.2-126h-1.2L123.6,189h-2.7L47.1,35.1h-.6l-3.9,81c-.9,14.1-1.2,24.3-1.2,32.4,0,28.8,3,36.9,30.9,39.6v4.2H0v-4.2c18.6-1.5,24.9-6.6,27.3-18.6,2.1-9,4.5-27,6.6-57.9l4.2-54.9c.3-8.1.6-14.7.6-20.1,0-21.3-5.1-25.2-27.9-27.9Z"/><path class="cls-1" d="M352.79,188.1c26.11-1.2,28.5-6.3,28.5-30V38.7c0-23.4-2.39-28.5-28.5-30V4.5H425.4V8.7c-25.8,1.5-28.5,6.6-28.5,30V158.1c0,23.7,2.7,28.8,28.5,30v4.2H352.79Z"/><path class="cls-1" d="M517.69,188.1c27-1.2,29.1-6.3,29.1-30V38.7c-.6-23.4-1.8-28.5-27-29.7V4.5h72.6c41.7,0,57.9,15.3,57.9,41.4s-25.2,38.4-38.7,41.7v.6c26.4,3.9,51.9,19.5,51.9,48.3,0,20.7-10.5,35.4-28.8,45.3-15.3,7.8-34.2,10.5-57,10.5h-60Zm66.9-101.7c33.3,0,47.4-14.1,47.4-37.8,0-13.2-4.8-38.1-48.9-38.1-9.6,0-14.4.3-16.5.6s-3.6.9-3.6,6.6V86.4ZM563,92.7v66.9c0,19.8,3.9,25.8,27.6,25.8,29.4,0,52.5-11.4,52.5-44.4s-24-48.3-58.8-48.3Z"/><path class="cls-1" d="M946.28,95.7c0,59.7-47.7,101.1-104.7,101.1-54.9,0-99.3-40.5-99.3-96,0-50.4,39-100.8,105.9-100.8C898.28,0,946.28,37.5,946.28,95.7Zm-183-3.6c0,58.5,36.9,97.5,85.5,97.5,40.5,0,77.11-27.9,77.11-81.3,0-68.1-38.11-101.1-86.41-101.1C799.58,7.5,763.28,34.2,763.28,92.1Z"/><path class="cls-1" d="M1024.48,4.5h38.1l79.2,159,79.5-159h43.2V8.7c-27.9,2.7-30.6,5.7-29.4,35.7l2.1,106.5c.9,30.9,2.1,34.8,30.3,37.2v4.2H1194v-4.2c26.4-2.1,27.3-6,27-37.2l-1.2-126h-1.2L1137.28,189h-2.7l-73.8-153.9h-.6l-3.9,81c-.9,14.1-1.2,24.3-1.2,32.4,0,28.8,3,36.9,30.9,39.6v4.2h-72.3v-4.2c18.6-1.5,24.9-6.6,27.3-18.6,2.1-9,4.5-27,6.6-57.9l4.2-54.9c.3-8.1.6-14.7.6-20.1,0-21.3-5.1-25.2-27.9-27.9Z"/></g></g></svg>