
  <svg xmlns="http://www.w3.org/2000/svg" viewBox="0 0 5414.13 16383">
  <defs>
  <style>.cls-1{opacity:0.2;}.cls-2{fill:none;stroke:#454545;stroke-miterlimit:10;stroke-width:10px;}
  </style>
  </defs>
  <title>BG
  </title>
  <g id="图层_9" data-name="图层 9">
  <g class="cls-1">
  <polygon class="cls-2" points="4331.56 3413.44 4297.24 3425.88 4170.68 3433.18 4005.5 3413.01 4029.95 3449.91 4122.62 3474.36 4277.07 3475.65 4335.42 3448.62 4360.73 3400.57 4331.56 3413.44"/>
  <path class="cls-2" d="M4239.75,3434l50.62-88-45.47-166.46-19.74,60.92-12.87,107.26s15.87,89.24,17.16,89.24S4239.75,3434,4239.75,3434Z"/>
  </g>
  <g class="cls-1">
  <polygon class="cls-2" points="4326.13 3532.55 4291.81 3520.1 4165.24 3512.81 4000.07 3532.97 4024.52 3496.08 4117.19 3471.62 4271.64 3470.34 4329.99 3497.36 4355.3 3545.42 4326.13 3532.55"/>
  <path class="cls-2" d="M4234.32,3512l50.62,88-45.48,166.47-19.73-60.92-12.87-107.26S4222.73,3509,4224,3509,4234.32,3512,4234.32,3512Z"/>
  </g>
  <g class="cls-1">
  <polygon class="cls-2" points="629.4 10353.26 663.72 10365.7 790.28 10373 955.46 10352.83 931 10389.73 838.33 10414.18 683.88 10415.47 625.53 10388.44 600.22 10340.39 629.4 10353.26"/>
  <path class="cls-2" d="M721.21,10373.85l-50.63-88,45.48-166.46,19.74,60.92,12.87,107.26s-15.88,89.24-17.16,89.24S721.21,10373.85,721.21,10373.85Z"/>
  </g>
  <g class="cls-1">
  <polygon class="cls-2" points="634.83 10472.36 669.15 10459.92 795.72 10452.63 960.89 10472.79 936.44 10435.9 843.77 10411.44 689.32 10410.16 630.97 10437.18 605.65 10485.24 634.83 10472.36"/>
  <path class="cls-2" d="M726.64,10451.77,676,10539.72l45.47,166.47,19.74-60.93L754.1,10538s-15.87-89.24-17.16-89.24S726.64,10451.77,726.64,10451.77Z"/>
  </g>
  <g class="cls-1">
  <polygon class="cls-2" points="4760.51 15626.87 4726.19 15639.31 4599.62 15646.61 4434.45 15626.44 4458.9 15663.34 4551.57 15687.79 4706.02 15689.08 4764.37 15662.05 4789.69 15614 4760.51 15626.87"/>
  <path class="cls-2" d="M4668.7,15647.46l50.62-87.95-45.47-166.46-19.74,60.92-12.87,107.26s15.87,89.24,17.16,89.24S4668.7,15647.46,4668.7,15647.46Z"/>
  </g>
  <g class="cls-1">
  <polygon class="cls-2" points="4755.08 15745.98 4720.76 15733.53 4594.19 15726.24 4429.01 15746.41 4453.47 15709.51 4546.14 15685.05 4700.59 15683.77 4758.94 15710.8 4784.25 15758.85 4755.08 15745.98"/>
  <path class="cls-2" d="M4663.27,15725.38l50.62,88-45.48,166.47-19.73-60.93-12.87-107.25s15.87-89.24,17.16-89.24S4663.27,15725.38,4663.27,15725.38Z"/>
  </g>
  </g>
  <g id="图层_12" data-name="图层 12">
  <g class="cls-1">
  <line class="cls-2" x1="2656.55" y1="1223.02" x2="4613.1" y2="1223.02"/>
  <line class="cls-2" x1="4920.95" y1="1460.78" x2="2662.16" y2="1460.78"/>
  <path class="cls-2" d="M2662.67,1222.91c-65.48,0-119.05,53.56-119.05,119a118.64,118.64,0,0,0,35,84.07c23.27,23.28,49.65,35,84.08,35"/>
  <path class="cls-2" d="M2715.1,1460.29c-65.47,0-119-53.56-119-119a118.6,118.6,0,0,1,35-84.07c23.26-23.28,49.65-35,84.07-35"/>
  <path class="cls-2" d="M2772.66,1461c-65.47,0-119-53.56-119-119a118.65,118.65,0,0,1,35-84.08c23.26-23.27,49.65-35,84.07-35"/>
  <path class="cls-2" d="M4917.68,1699.12c65.48,0,119.06-53.56,119.06-119a118.65,118.65,0,0,0-35-84.07c-23.26-23.28-49.65-35-84.08-35"/>
  <path class="cls-2" d="M3953.89,1937.43c-65.48,0-119-53.57-119-119a118.64,118.64,0,0,1,35-84.08c23.27-23.27,49.66-35,84.08-35"/>
  <line class="cls-2" x1="3948.93" y1="1937.58" x2="6284.87" y2="1937.58"/>
  <path class="cls-2" d="M4862.07,1700.57c65.48,0,119.06-53.57,119.06-119a118.65,118.65,0,0,0-35-84.07c-23.26-23.28-49.65-35-84.08-35"/>
  <line class="cls-2" x1="3952.76" y1="1699.5" x2="4922.14" y2="1698.85"/>
  </g>
  <g class="cls-1">
  <line class="cls-2" x1="3331.8" y1="5137.04" x2="1375.26" y2="5137.04"/>
  <line class="cls-2" x1="1067.4" y1="5374.8" x2="3326.19" y2="5374.8"/>
  <path class="cls-2" d="M3325.68,5136.93c65.48,0,119.06,53.57,119.06,119a118.65,118.65,0,0,1-35,84.07c-23.26,23.28-49.65,35-84.08,35"/>
  <path class="cls-2" d="M3273.25,5374.31c65.48,0,119.05-53.56,119.05-119a118.61,118.61,0,0,0-35-84.08c-23.26-23.27-49.65-35-84.07-35"/>
  <path class="cls-2" d="M3215.69,5375c65.47,0,119-53.57,119-119a118.65,118.65,0,0,0-35-84.07c-23.26-23.28-49.65-35-84.07-35"/>
  <path class="cls-2" d="M1070.67,5613.14c-65.48,0-119.05-53.56-119.05-119a118.64,118.64,0,0,1,35-84.08c23.27-23.27,49.65-35,84.08-35"/>
  <path class="cls-2" d="M2034.46,5851.45c65.48,0,119.06-53.57,119.06-119a118.65,118.65,0,0,0-35-84.07c-23.26-23.28-49.65-35-84.08-35"/>
  <line class="cls-2" x1="2039.42" y1="5851.6" x2="-296.52" y2="5851.6"/>
  <path class="cls-2" d="M1126.28,5614.59c-65.48,0-119-53.56-119-119a118.64,118.64,0,0,1,35-84.07c23.27-23.28,49.65-35,84.08-35"/>
  <line class="cls-2" x1="2035.59" y1="5613.53" x2="1066.21" y2="5612.88"/>
  </g>
  <g class="cls-1">
  <line class="cls-2" x1="5351.79" y1="6725.42" x2="4039.07" y2="6725.42"/>
  <line class="cls-2" x1="2812.44" y1="7033.33" x2="5347.08" y2="7033.33"/>
  <line class="cls-2" x1="5745.9" y1="7339.24" x2="2819.71" y2="7339.24"/>
  <path class="cls-2" d="M2820.36,7033.19c-84.81,0-154.22,68.92-154.22,153.16a152.11,152.11,0,0,0,45.31,108.17c30.14,29.95,64.32,45,108.91,45"/>
  <path class="cls-2" d="M2888.29,7338.62c-84.82,0-154.23-68.92-154.23-153.17a152.07,152.07,0,0,1,45.32-108.17c30.13-29.95,64.32-45,108.91-45"/>
  <path class="cls-2" d="M2962.86,7339.47c-84.82,0-154.22-68.92-154.22-153.16A152.15,152.15,0,0,1,2854,7078.13c30.13-29.95,64.32-45,108.91-45"/>
  <path class="cls-2" d="M5346.94,7032.41c84.82,0,154.23-68.92,154.23-153.16a152.12,152.12,0,0,0-45.32-108.17c-30.13-29.95-64.32-45-108.91-45"/>
  </g>
  <g class="cls-1">
  <line class="cls-2" x1="3331.8" y1="8488.45" x2="1375.26" y2="8488.45"/>
  <line class="cls-2" x1="1067.4" y1="8726.21" x2="3326.19" y2="8726.21"/>
  <path class="cls-2" d="M3325.68,8488.34c65.48,0,119.06,53.57,119.06,119a118.65,118.65,0,0,1-35,84.07c-23.26,23.28-49.65,35-84.08,35"/>
  <path class="cls-2" d="M3273.25,8725.72c65.48,0,119.05-53.56,119.05-119a118.61,118.61,0,0,0-35-84.08c-23.26-23.27-49.65-35-84.07-35"/>
  <path class="cls-2" d="M3215.69,8726.39c65.47,0,119-53.57,119-119a118.65,118.65,0,0,0-35-84.07c-23.26-23.28-49.65-35-84.07-35"/>
  <path class="cls-2" d="M1070.67,8964.55c-65.48,0-119.05-53.56-119.05-119a118.64,118.64,0,0,1,35-84.08c23.27-23.27,49.65-35,84.08-35"/>
  <path class="cls-2" d="M2034.46,9202.86c65.48,0,119.06-53.57,119.06-119a118.65,118.65,0,0,0-35-84.07c-23.26-23.28-49.65-35-84.08-35"/>
  <line class="cls-2" x1="2039.42" y1="9203.01" x2="-296.52" y2="9203.01"/>
  <path class="cls-2" d="M1126.28,8966c-65.48,0-119-53.56-119-119a118.64,118.64,0,0,1,35-84.07c23.27-23.28,49.65-35,84.08-35"/>
  <line class="cls-2" x1="2035.59" y1="8964.94" x2="1066.21" y2="8964.29"/>
  </g>
  <g class="cls-1">
  <line class="cls-2" x1="5351.79" y1="10076.83" x2="4039.07" y2="10076.83"/>
  <line class="cls-2" x1="2812.44" y1="10384.74" x2="5347.08" y2="10384.74"/>
  <line class="cls-2" x1="5745.9" y1="10690.65" x2="2819.71" y2="10690.65"/>
  <path class="cls-2" d="M2820.36,10384.6c-84.81,0-154.22,68.92-154.22,153.16a152.11,152.11,0,0,0,45.31,108.17c30.14,29.95,64.32,45,108.91,45"/>
  <path class="cls-2" d="M2888.29,10690c-84.82,0-154.23-68.92-154.23-153.17a152.07,152.07,0,0,1,45.32-108.17c30.13-30,64.32-45,108.91-45"/>
  <path class="cls-2" d="M2962.86,10690.88c-84.82,0-154.22-68.92-154.22-153.16a152.15,152.15,0,0,1,45.31-108.18c30.13-30,64.32-45,108.91-45"/>
  <path class="cls-2" d="M5346.94,10383.82c84.82,0,154.23-68.92,154.23-153.16a152.12,152.12,0,0,0-45.32-108.17c-30.13-29.95-64.32-45-108.91-45"/>
  </g>
  <g class="cls-1">
  <line class="cls-2" x1="3340.88" y1="11906.47" x2="1384.33" y2="11906.47"/>
  <line class="cls-2" x1="1076.47" y1="12144.22" x2="3335.27" y2="12144.22"/>
  <path class="cls-2" d="M3334.76,11906.35c65.48,0,119,53.57,119,119a118.63,118.63,0,0,1-35,84.08c-23.26,23.27-49.65,35-84.07,35"/>
  <path class="cls-2" d="M3282.33,12143.74c65.47,0,119.05-53.57,119.05-119a118.65,118.65,0,0,0-35-84.08c-23.26-23.27-49.65-35-84.07-35"/>
  <path class="cls-2" d="M3224.76,12144.4c65.48,0,119-53.57,119-119a118.64,118.64,0,0,0-35-84.07c-23.27-23.28-49.65-35-84.08-35"/>
  <path class="cls-2" d="M1079.74,12382.57c-65.47,0-119-53.57-119-119a118.65,118.65,0,0,1,35-84.08c23.26-23.27,49.65-35,84.07-35"/>
  <path class="cls-2" d="M2043.54,12620.87c65.47,0,119.05-53.56,119.05-119a118.6,118.6,0,0,0-35-84.07c-23.26-23.28-49.65-35-84.07-35"/>
  <line class="cls-2" x1="2048.5" y1="12621.02" x2="-287.44" y2="12621.02"/>
  <path class="cls-2" d="M1135.35,12384c-65.47,0-119-53.56-119-119a118.65,118.65,0,0,1,35-84.07c23.26-23.27,49.65-35,84.07-35"/>
  <line class="cls-2" x1="2044.66" y1="12382.95" x2="1075.29" y2="12382.3"/>
  </g>
  <g class="cls-1">
  <line class="cls-2" x1="5360.87" y1="13494.85" x2="4048.15" y2="13494.85"/><line class="cls-2" x1="2821.51" y1="13802.75" x2="5356.16" y2="13802.75"/>
  <line class="cls-2" x1="5754.98" y1="14108.66" x2="2828.78" y2="14108.66"/>
  <path class="cls-2" d="M2829.44,13802.61c-84.82,0-154.23,68.92-154.23,153.16a152.12,152.12,0,0,0,45.32,108.17c30.13,29.95,64.32,45,108.91,45"/>
  <path class="cls-2" d="M2897.37,14108c-84.82,0-154.23-68.92-154.23-153.16a152.15,152.15,0,0,1,45.31-108.18c30.14-30,64.32-45,108.92-45"/>
  <path class="cls-2" d="M2971.94,14108.89c-84.82,0-154.23-68.92-154.23-153.16a152.15,152.15,0,0,1,45.31-108.18c30.14-29.94,64.33-45,108.92-45"/>
  <path class="cls-2" d="M5356,13801.83c84.81,0,154.22-68.92,154.22-153.16a152.11,152.11,0,0,0-45.31-108.17c-30.14-30-64.32-45-108.91-45"/>
  </g>
  </g>
  </svg>