<svg id="图层_12" data-name="图层 12" xmlns="http://www.w3.org/2000/svg" viewBox="0 0 5390.77 15911.44"><defs><style>.cls-1{opacity:0.1;}.cls-2{fill:none;stroke:#404040;stroke-miterlimit:10;stroke-width:10px;}</style></defs><title>BG</title><g class="cls-1"><line class="cls-2" x1="4207.92" y1="5.26" x2="4828.8" y2="5.26"/><line class="cls-2" x1="4926.49" y1="80.71" x2="4209.7" y2="80.71"/><path class="cls-2" d="M4219.06,186.91a37.72,37.72,0,0,0-26.68,64.45c7.38,7.39,15.75,11.1,26.68,11.1" transform="translate(-9.19 -181.68)"/><path class="cls-2" d="M4235.7,262.24A37.73,37.73,0,0,1,4209,197.78c7.38-7.38,15.75-11.1,26.68-11.1" transform="translate(-9.19 -181.68)"/><path class="cls-2" d="M4254,262.45A37.73,37.73,0,0,1,4227.28,198c7.39-7.38,15.76-11.09,26.68-11.09" transform="translate(-9.19 -181.68)"/><path class="cls-2" d="M4934.65,338a37.73,37.73,0,0,0,26.67-64.46c-7.38-7.38-15.75-11.1-26.67-11.1" transform="translate(-9.19 -181.68)"/><path class="cls-2" d="M4628.8,413.65a37.73,37.73,0,0,1-26.68-64.46c7.38-7.38,15.76-11.1,26.68-11.1" transform="translate(-9.19 -181.68)"/><line class="cls-2" x1="4618.04" y1="232.01" x2="5359.3" y2="232.01"/><path class="cls-2" d="M4917,338.49A37.73,37.73,0,0,0,4943.68,274c-7.38-7.38-15.76-11.1-26.68-11.1" transform="translate(-9.19 -181.68)"/><line class="cls-2" x1="4619.25" y1="156.46" x2="4926.87" y2="156.26"/></g><g class="cls-1"><line class="cls-2" x1="925.49" y1="1526.72" x2="440.17" y2="1526.72"/><line class="cls-2" x1="363.8" y1="1585.7" x2="924.1" y2="1585.7"/><path class="cls-2" d="M933.17,1708.38A29.49,29.49,0,0,1,954,1758.76a27.8,27.8,0,0,1-20.85,8.68" transform="translate(-9.19 -181.68)"/><path class="cls-2" d="M920.16,1767.26A29.49,29.49,0,0,0,941,1716.88a27.82,27.82,0,0,0-20.86-8.68" transform="translate(-9.19 -181.68)"/><path class="cls-2" d="M905.88,1767.43A29.5,29.5,0,0,0,926.74,1717a27.81,27.81,0,0,0-20.86-8.67" transform="translate(-9.19 -181.68)"/><path class="cls-2" d="M373.81,1826.5A29.49,29.49,0,0,1,353,1776.12a27.81,27.81,0,0,1,20.86-8.67" transform="translate(-9.19 -181.68)"/><path class="cls-2" d="M612.88,1885.62a29.49,29.49,0,0,0,20.85-50.39,27.79,27.79,0,0,0-20.85-8.67" transform="translate(-9.19 -181.68)"/><line class="cls-2" x1="604.91" y1="1703.97" x2="25.48" y2="1703.97"/><path class="cls-2" d="M387.6,1826.86a29.49,29.49,0,0,1-20.86-50.38,27.83,27.83,0,0,1,20.86-8.68" transform="translate(-9.19 -181.68)"/><line class="cls-2" x1="603.96" y1="1644.91" x2="363.51" y2="1644.75"/></g><g class="cls-1"><line class="cls-2" x1="4735.41" y1="2129.99" x2="4395.16" y2="2129.99"/><line class="cls-2" x1="4077.23" y1="2209.79" x2="4734.19" y2="2209.79"/><line class="cls-2" x1="4837.56" y1="2289.08" x2="4079.12" y2="2289.08"/><path class="cls-2" d="M4088.48,2391.44a40,40,0,0,0-40,39.7,39.47,39.47,0,0,0,11.74,28c7.81,7.76,16.67,11.66,28.23,11.66" transform="translate(-9.19 -181.68)"/><path class="cls-2" d="M4106.09,2470.6a40,40,0,0,1-40-39.69,39.42,39.42,0,0,1,11.75-28c7.81-7.76,16.67-11.67,28.23-11.67" transform="translate(-9.19 -181.68)"/><path class="cls-2" d="M4125.42,2470.83a40,40,0,0,1-40-39.7,39.42,39.42,0,0,1,11.75-28c7.81-7.76,16.67-11.66,28.23-11.66" transform="translate(-9.19 -181.68)"/><path class="cls-2" d="M4743.34,2391.24a40,40,0,0,0,40-39.7,39.44,39.44,0,0,0-11.75-28c-7.81-7.76-16.67-11.66-28.23-11.66" transform="translate(-9.19 -181.68)"/></g><g class="cls-1"><line class="cls-2" x1="54.33" y1="3322.02" x2="514.92" y2="3322.02"/><line class="cls-2" x1="587.39" y1="3398.58" x2="55.65" y2="3398.58"/><path class="cls-2" d="M65,3503.67c-15.41,0-28,17.25-28,38.33,0,10.54,3.15,20.13,8.23,27.07,5.48,7.5,11.69,11.27,19.79,11.27" transform="translate(-9.19 -181.68)"/><path class="cls-2" d="M77.31,3580.11c-15.42,0-28-17.25-28-38.33,0-10.55,3.15-20.13,8.23-27.08,5.48-7.49,11.69-11.26,19.8-11.26" transform="translate(-9.19 -181.68)"/><path class="cls-2" d="M90.86,3580.32c-15.42,0-28-17.25-28-38.33,0-10.54,3.16-20.13,8.24-27.07,5.47-7.5,11.68-11.27,19.79-11.27" transform="translate(-9.19 -181.68)"/><path class="cls-2" d="M595.82,3657c15.41,0,28-17.25,28-38.34,0-10.54-3.15-20.12-8.23-27.07-5.48-7.49-11.69-11.26-19.79-11.26" transform="translate(-9.19 -181.68)"/><path class="cls-2" d="M368.93,3733.76c-15.41,0-28-17.25-28-38.34,0-10.54,3.16-20.12,8.24-27.07,5.47-7.5,11.69-11.26,19.79-11.26" transform="translate(-9.19 -181.68)"/><line class="cls-2" x1="358.57" y1="3552.12" x2="908.47" y2="3552.12"/><path class="cls-2" d="M582.73,3657.48c15.41,0,28-17.25,28-38.33,0-10.54-3.15-20.13-8.23-27.07-5.48-7.5-11.69-11.27-19.79-11.27" transform="translate(-9.19 -181.68)"/><line class="cls-2" x1="359.47" y1="3475.46" x2="587.67" y2="3475.25"/></g><g class="cls-1"><line class="cls-2" x1="4625.48" y1="4061.1" x2="4965.72" y2="4061.1"/><line class="cls-2" x1="5283.65" y1="4140.91" x2="4626.7" y2="4140.91"/><line class="cls-2" x1="4523.33" y1="4220.19" x2="5281.77" y2="4220.19"/><path class="cls-2" d="M5290.79,4322.55a40,40,0,0,1,40,39.7,39.44,39.44,0,0,1-11.75,28c-7.81,7.76-16.67,11.66-28.23,11.66" transform="translate(-9.19 -181.68)"/><path class="cls-2" d="M5273.19,4401.72a40,40,0,0,0,40-39.7,39.44,39.44,0,0,0-11.75-28c-7.81-7.76-16.67-11.66-28.22-11.66" transform="translate(-9.19 -181.68)"/><path class="cls-2" d="M5253.86,4401.94a40,40,0,0,0,40-39.7,39.47,39.47,0,0,0-11.74-28c-7.81-7.76-16.67-11.66-28.23-11.66" transform="translate(-9.19 -181.68)"/><path class="cls-2" d="M4635.93,4322.35a40,40,0,0,1-40-39.7,39.45,39.45,0,0,1,11.74-28c7.81-7.77,16.67-11.67,28.23-11.67" transform="translate(-9.19 -181.68)"/></g><g class="cls-1"><polygon class="cls-2" points="4660.61 5468.29 4637.79 5476.56 4553.62 5481.41 4443.76 5468 4460.03 5492.54 4521.66 5508.8 4624.38 5509.66 4663.18 5491.68 4680.02 5459.73 4660.61 5468.29"/><path class="cls-2" d="M4608.75,5663.67l33.67-58.5-30.25-110.7L4599.05,5535l-8.56,71.34s10.55,59.34,11.41,59.34A71,71,0,0,0,4608.75,5663.67Z" transform="translate(-9.19 -181.68)"/></g><g class="cls-1"><polygon class="cls-2" points="4657 5547.5 4634.18 5539.22 4550 5534.37 4440.15 5547.78 4456.41 5523.24 4518.05 5506.98 4620.77 5506.13 4659.57 5524.1 4676.4 5556.06 4657 5547.5"/><path class="cls-2" d="M4605.13,5715.49,4638.8,5774l-30.24,110.71-13.13-40.52-8.56-71.33s10.56-59.35,11.42-59.35A70.49,70.49,0,0,1,4605.13,5715.49Z" transform="translate(-9.19 -181.68)"/></g><g class="cls-1"><polygon class="cls-2" points="695.7 8676.72 713.76 8683.27 780.37 8687.1 867.31 8676.49 854.44 8695.91 805.66 8708.78 724.37 8709.46 693.66 8695.23 680.34 8669.94 695.7 8676.72"/><path class="cls-2" d="M753.21,8869.24,726.57,8823l23.93-87.61,10.39,32.06,6.77,56.45s-8.35,47-9,47A55.44,55.44,0,0,1,753.21,8869.24Z" transform="translate(-9.19 -181.68)"/></g><g class="cls-1"><polygon class="cls-2" points="698.55 8739.4 716.62 8732.86 783.23 8729.02 870.17 8739.63 857.3 8720.21 808.52 8707.34 727.23 8706.66 696.52 8720.89 683.2 8746.18 698.55 8739.4"/><path class="cls-2" d="M756.07,8910.25l-26.65,46.29,23.94,87.61,10.39-32.06,6.77-56.45s-8.35-47-9-47A55.44,55.44,0,0,0,756.07,8910.25Z" transform="translate(-9.19 -181.68)"/></g><g class="cls-1"><line class="cls-2" x1="4185.18" y1="4669" x2="4806.05" y2="4669"/><line class="cls-2" x1="4903.75" y1="4744.45" x2="4186.96" y2="4744.45"/><path class="cls-2" d="M4196.31,4850.65a37.73,37.73,0,0,0-26.68,64.46c7.39,7.38,15.76,11.1,26.68,11.1" transform="translate(-9.19 -181.68)"/><path class="cls-2" d="M4213,4926a37.72,37.72,0,0,1-26.68-64.45c7.38-7.39,15.76-11.1,26.68-11.1" transform="translate(-9.19 -181.68)"/><path class="cls-2" d="M4231.22,4926.19a37.72,37.72,0,0,1-26.68-64.45c7.38-7.39,15.76-11.1,26.68-11.1" transform="translate(-9.19 -181.68)"/><path class="cls-2" d="M4911.9,5001.77a37.72,37.72,0,0,0,26.68-64.45c-7.38-7.39-15.76-11.1-26.68-11.1" transform="translate(-9.19 -181.68)"/><path class="cls-2" d="M4606.06,5077.39a37.72,37.72,0,0,1-26.68-64.45c7.38-7.39,15.75-11.1,26.68-11.1" transform="translate(-9.19 -181.68)"/><line class="cls-2" x1="4595.29" y1="4895.76" x2="5336.56" y2="4895.76"/><path class="cls-2" d="M4894.25,5002.23a37.72,37.72,0,0,0,26.68-64.45c-7.38-7.39-15.75-11.1-26.68-11.1" transform="translate(-9.19 -181.68)"/><line class="cls-2" x1="4596.51" y1="4820.21" x2="4904.12" y2="4820"/></g><g class="cls-1"><line class="cls-2" x1="902.75" y1="6190.47" x2="417.42" y2="6190.47"/><line class="cls-2" x1="341.06" y1="6249.44" x2="901.36" y2="6249.44"/><path class="cls-2" d="M910.42,6372.12a29.5,29.5,0,0,1,20.86,50.39,27.81,27.81,0,0,1-20.86,8.67" transform="translate(-9.19 -181.68)"/><path class="cls-2" d="M897.42,6431a29.49,29.49,0,0,0,20.85-50.39,27.79,27.79,0,0,0-20.85-8.67" transform="translate(-9.19 -181.68)"/><path class="cls-2" d="M883.14,6431.17A29.49,29.49,0,0,0,904,6380.79a27.8,27.8,0,0,0-20.85-8.68" transform="translate(-9.19 -181.68)"/><path class="cls-2" d="M351.06,6490.25a29.49,29.49,0,0,1-20.85-50.38,27.76,27.76,0,0,1,20.85-8.68" transform="translate(-9.19 -181.68)"/><path class="cls-2" d="M590.13,6549.36A29.49,29.49,0,0,0,611,6499a27.82,27.82,0,0,0-20.86-8.68" transform="translate(-9.19 -181.68)"/><line class="cls-2" x1="582.17" y1="6367.71" x2="2.73" y2="6367.71"/><path class="cls-2" d="M364.85,6490.61A29.49,29.49,0,0,1,344,6440.23a27.78,27.78,0,0,1,20.85-8.68" transform="translate(-9.19 -181.68)"/><line class="cls-2" x1="581.22" y1="6308.66" x2="340.76" y2="6308.5"/></g><g class="cls-1"><line class="cls-2" x1="4712.66" y1="6793.73" x2="4372.42" y2="6793.73"/><line class="cls-2" x1="4054.49" y1="6873.54" x2="4711.44" y2="6873.54"/><line class="cls-2" x1="4814.81" y1="6952.83" x2="4056.37" y2="6952.83"/><path class="cls-2" d="M4065.74,7055.19a40,40,0,0,0-40,39.69,39.42,39.42,0,0,0,11.75,28c7.81,7.76,16.67,11.66,28.23,11.66" transform="translate(-9.19 -181.68)"/><path class="cls-2" d="M4083.34,7134.35a40,40,0,0,1-40-39.7,39.47,39.47,0,0,1,11.74-28c7.81-7.76,16.68-11.66,28.23-11.66" transform="translate(-9.19 -181.68)"/><path class="cls-2" d="M4102.67,7134.57a40,40,0,0,1-40-39.7,39.43,39.43,0,0,1,11.74-28c7.81-7.77,16.67-11.67,28.23-11.67" transform="translate(-9.19 -181.68)"/><path class="cls-2" d="M4720.6,7055a40,40,0,0,0,40-39.69,39.45,39.45,0,0,0-11.74-28c-7.81-7.76-16.67-11.67-28.23-11.67" transform="translate(-9.19 -181.68)"/></g><g class="cls-1"><line class="cls-2" x1="31.59" y1="7985.76" x2="492.18" y2="7985.76"/><line class="cls-2" x1="564.65" y1="8062.33" x2="32.91" y2="8062.33"/><path class="cls-2" d="M42.22,8167.41c-15.41,0-28,17.25-28,38.34,0,10.54,3.16,20.12,8.24,27.07,5.47,7.49,11.69,11.26,19.79,11.26" transform="translate(-9.19 -181.68)"/><path class="cls-2" d="M54.56,8243.85c-15.41,0-28-17.24-28-38.33,0-10.54,3.15-20.13,8.23-27.07,5.48-7.5,11.69-11.27,19.79-11.27" transform="translate(-9.19 -181.68)"/><path class="cls-2" d="M68.11,8244.07c-15.41,0-28-17.25-28-38.33,0-10.55,3.15-20.13,8.23-27.08,5.48-7.49,11.69-11.26,19.79-11.26" transform="translate(-9.19 -181.68)"/><path class="cls-2" d="M573.07,8320.76c15.42,0,28-17.25,28-38.33,0-10.54-3.15-20.13-8.24-27.07-5.47-7.5-11.68-11.27-19.79-11.27" transform="translate(-9.19 -181.68)"/><path class="cls-2" d="M346.19,8397.5c-15.42,0-28-17.25-28-38.33,0-10.55,3.15-20.13,8.23-27.08,5.48-7.49,11.69-11.26,19.8-11.26" transform="translate(-9.19 -181.68)"/><line class="cls-2" x1="335.82" y1="8215.86" x2="885.73" y2="8215.86"/><path class="cls-2" d="M560,8321.23c15.41,0,28-17.25,28-38.33,0-10.55-3.16-20.13-8.24-27.08-5.47-7.49-11.69-11.26-19.79-11.26" transform="translate(-9.19 -181.68)"/><line class="cls-2" x1="336.73" y1="8139.2" x2="564.93" y2="8138.99"/></g><g class="cls-1"><line class="cls-2" x1="4602.74" y1="8724.84" x2="4942.98" y2="8724.84"/><line class="cls-2" x1="5260.91" y1="8804.65" x2="4603.96" y2="8804.65"/><line class="cls-2" x1="4500.59" y1="8883.94" x2="5259.02" y2="8883.94"/><path class="cls-2" d="M5268.05,8986.3a40,40,0,0,1,40,39.7,39.43,39.43,0,0,1-11.74,28c-7.82,7.77-16.68,11.67-28.23,11.67" transform="translate(-9.19 -181.68)"/><path class="cls-2" d="M5250.44,9065.46a40,40,0,0,0,40-39.7,39.39,39.39,0,0,0-11.74-28c-7.81-7.77-16.67-11.67-28.23-11.67" transform="translate(-9.19 -181.68)"/><path class="cls-2" d="M5231.11,9065.68a40,40,0,0,0,40-39.69,39.42,39.42,0,0,0-11.75-28c-7.81-7.76-16.67-11.67-28.23-11.67" transform="translate(-9.19 -181.68)"/><path class="cls-2" d="M4613.19,8986.1a40,40,0,0,1-40-39.7,39.44,39.44,0,0,1,11.75-28c7.81-7.76,16.67-11.66,28.23-11.66" transform="translate(-9.19 -181.68)"/></g><g class="cls-1"><polygon class="cls-2" points="758.78 12302.67 776.84 12309.22 843.46 12313.06 930.39 12302.45 917.52 12321.86 868.75 12334.74 787.46 12335.41 756.75 12321.19 743.42 12295.9 758.78 12302.67"/><path class="cls-2" d="M816.29,12495.2l-26.64-46.29,23.93-87.62,10.39,32.07,6.78,56.45s-8.36,47-9,47A56.28,56.28,0,0,1,816.29,12495.2Z" transform="translate(-9.19 -181.68)"/></g><g class="cls-1"><polygon class="cls-2" points="761.64 12365.36 779.7 12358.81 846.32 12354.97 933.25 12365.58 920.38 12346.17 871.61 12333.29 790.32 12332.62 759.61 12346.84 746.28 12372.13 761.64 12365.36"/><path class="cls-2" d="M819.15,12536.21l-26.64,46.29,23.93,87.61,10.39-32.07,6.77-56.45s-8.35-47-9-47A56,56,0,0,0,819.15,12536.21Z" transform="translate(-9.19 -181.68)"/></g><g class="cls-1"><line class="cls-2" x1="965.83" y1="9816.42" x2="480.51" y2="9816.42"/><line class="cls-2" x1="404.14" y1="9875.4" x2="964.44" y2="9875.4"/><path class="cls-2" d="M973.51,9998.08a29.49,29.49,0,0,1,20.85,50.38,27.81,27.81,0,0,1-20.85,8.68" transform="translate(-9.19 -181.68)"/><path class="cls-2" d="M960.5,10057a29.49,29.49,0,0,0,20.85-50.38,27.8,27.8,0,0,0-20.85-8.68" transform="translate(-9.19 -181.68)"/><path class="cls-2" d="M946.22,10057.13a29.5,29.5,0,0,0,20.86-50.39,27.81,27.81,0,0,0-20.86-8.67" transform="translate(-9.19 -181.68)"/><path class="cls-2" d="M414.14,10116.2a29.49,29.49,0,0,1-20.85-50.38,27.81,27.81,0,0,1,20.85-8.68" transform="translate(-9.19 -181.68)"/><path class="cls-2" d="M653.22,10175.32a29.49,29.49,0,0,0,20.85-50.39,27.8,27.8,0,0,0-20.85-8.67" transform="translate(-9.19 -181.68)"/><line class="cls-2" x1="645.25" y1="9993.67" x2="65.82" y2="9993.67"/><path class="cls-2" d="M427.94,10116.56a29.49,29.49,0,0,1-20.86-50.38,27.82,27.82,0,0,1,20.86-8.68" transform="translate(-9.19 -181.68)"/><line class="cls-2" x1="644.3" y1="9934.61" x2="403.85" y2="9934.45"/></g><g class="cls-1"><line class="cls-2" x1="4775.75" y1="10419.69" x2="4435.5" y2="10419.69"/><line class="cls-2" x1="4117.57" y1="10499.49" x2="4774.52" y2="10499.49"/><line class="cls-2" x1="4877.89" y1="10578.78" x2="4119.46" y2="10578.78"/><path class="cls-2" d="M4128.82,10681.14a40,40,0,0,0-40,39.7,39.39,39.39,0,0,0,11.74,28c7.81,7.77,16.67,11.67,28.23,11.67" transform="translate(-9.19 -181.68)"/><path class="cls-2" d="M4146.43,10760.3a40,40,0,0,1-40-39.69,39.42,39.42,0,0,1,11.75-28c7.81-7.76,16.67-11.67,28.23-11.67" transform="translate(-9.19 -181.68)"/><path class="cls-2" d="M4165.75,10760.52a40,40,0,0,1-40-39.69,39.42,39.42,0,0,1,11.75-28c7.81-7.76,16.67-11.67,28.22-11.67" transform="translate(-9.19 -181.68)"/><path class="cls-2" d="M4783.68,10680.94a40,40,0,0,0,40-39.7,39.43,39.43,0,0,0-11.74-28c-7.81-7.76-16.67-11.66-28.23-11.66" transform="translate(-9.19 -181.68)"/></g><g class="cls-1"><line class="cls-2" x1="94.67" y1="11611.72" x2="555.26" y2="11611.72"/><line class="cls-2" x1="627.73" y1="11688.28" x2="95.99" y2="11688.28"/><path class="cls-2" d="M105.3,11793.37c-15.41,0-28,17.25-28,38.33,0,10.54,3.15,20.13,8.23,27.07,5.48,7.5,11.69,11.27,19.79,11.27" transform="translate(-9.19 -181.68)"/><path class="cls-2" d="M117.65,11869.81c-15.42,0-28-17.25-28-38.33,0-10.55,3.15-20.13,8.23-27.08,5.48-7.49,11.69-11.26,19.8-11.26" transform="translate(-9.19 -181.68)"/><path class="cls-2" d="M131.2,11870c-15.42,0-28-17.25-28-38.33,0-10.54,3.15-20.13,8.23-27.07,5.48-7.5,11.69-11.27,19.8-11.27" transform="translate(-9.19 -181.68)"/><path class="cls-2" d="M636.16,11946.72c15.41,0,28-17.25,28-38.34,0-10.54-3.15-20.12-8.23-27.07-5.48-7.49-11.69-11.26-19.79-11.26" transform="translate(-9.19 -181.68)"/><path class="cls-2" d="M409.27,12023.46c-15.41,0-28-17.25-28-38.34,0-10.54,3.16-20.12,8.24-27.07,5.47-7.5,11.68-11.26,19.79-11.26" transform="translate(-9.19 -181.68)"/><line class="cls-2" x1="398.91" y1="11841.82" x2="948.81" y2="11841.82"/><path class="cls-2" d="M623.06,11947.18c15.42,0,28-17.25,28-38.33,0-10.54-3.15-20.13-8.23-27.07-5.48-7.5-11.69-11.27-19.8-11.27" transform="translate(-9.19 -181.68)"/><line class="cls-2" x1="399.81" y1="11765.15" x2="628.01" y2="11764.94"/></g><g class="cls-1"><line class="cls-2" x1="4665.82" y1="12350.8" x2="5006.06" y2="12350.8"/><line class="cls-2" x1="5323.99" y1="12430.61" x2="4667.04" y2="12430.61"/><line class="cls-2" x1="4563.67" y1="12509.89" x2="5322.11" y2="12509.89"/><path class="cls-2" d="M5331.13,12612.25a40,40,0,0,1,40,39.7,39.43,39.43,0,0,1-11.74,28c-7.81,7.76-16.67,11.66-28.23,11.66" transform="translate(-9.19 -181.68)"/><path class="cls-2" d="M5313.52,12691.42a40,40,0,0,0,40-39.7,39.42,39.42,0,0,0-11.75-28c-7.81-7.76-16.67-11.66-28.23-11.66" transform="translate(-9.19 -181.68)"/><path class="cls-2" d="M5294.2,12691.64a40,40,0,0,0,40-39.7,39.47,39.47,0,0,0-11.74-28c-7.82-7.76-16.68-11.66-28.23-11.66" transform="translate(-9.19 -181.68)"/><path class="cls-2" d="M4676.27,12612.05a40,40,0,0,1-40-39.7,39.39,39.39,0,0,1,11.74-28c7.81-7.77,16.67-11.67,28.23-11.67" transform="translate(-9.19 -181.68)"/></g><g class="cls-1"><polygon class="cls-2" points="782.63 15699.14 800.7 15705.69 867.31 15709.53 954.25 15698.91 941.38 15718.33 892.6 15731.2 811.31 15731.88 780.6 15717.66 767.28 15692.37 782.63 15699.14"/><path class="cls-2" d="M840.15,15891.66l-26.65-46.29,23.94-87.61,10.39,32.07,6.77,56.45s-8.35,47-9,47A55.44,55.44,0,0,1,840.15,15891.66Z" transform="translate(-9.19 -181.68)"/></g><g class="cls-1"><polygon class="cls-2" points="785.49 15761.83 803.56 15755.28 870.17 15751.44 957.11 15762.05 944.24 15742.63 895.46 15729.76 814.17 15729.08 783.46 15743.31 770.14 15768.6 785.49 15761.83"/><path class="cls-2" d="M843,15932.67,816.36,15979l23.94,87.62,10.39-32.07,6.77-56.45s-8.35-47-9-47A55.44,55.44,0,0,0,843,15932.67Z" transform="translate(-9.19 -181.68)"/></g><g class="cls-1"><line class="cls-2" x1="989.69" y1="13212.89" x2="504.36" y2="13212.89"/><line class="cls-2" x1="428" y1="13271.87" x2="988.3" y2="13271.87"/><path class="cls-2" d="M997.36,13394.55a29.49,29.49,0,0,1,20.86,50.38,27.82,27.82,0,0,1-20.86,8.68" transform="translate(-9.19 -181.68)"/><path class="cls-2" d="M984.36,13453.43a29.49,29.49,0,0,0,20.85-50.38,27.78,27.78,0,0,0-20.85-8.68" transform="translate(-9.19 -181.68)"/><path class="cls-2" d="M970.08,13453.59a29.49,29.49,0,0,0,20.85-50.38,27.79,27.79,0,0,0-20.85-8.67" transform="translate(-9.19 -181.68)"/><path class="cls-2" d="M438,13512.67a29.49,29.49,0,0,1-20.86-50.38,27.83,27.83,0,0,1,20.86-8.68" transform="translate(-9.19 -181.68)"/><path class="cls-2" d="M677.07,13571.78a29.49,29.49,0,0,0,20.86-50.38,27.81,27.81,0,0,0-20.86-8.67" transform="translate(-9.19 -181.68)"/><line class="cls-2" x1="669.11" y1="13390.14" x2="89.67" y2="13390.14"/><path class="cls-2" d="M451.79,13513a29.49,29.49,0,0,1-20.85-50.38,27.78,27.78,0,0,1,20.85-8.68" transform="translate(-9.19 -181.68)"/><line class="cls-2" x1="668.16" y1="13331.08" x2="427.7" y2="13330.92"/></g><g class="cls-1"><line class="cls-2" x1="4799.6" y1="13816.15" x2="4459.36" y2="13816.15"/><line class="cls-2" x1="4141.43" y1="13895.96" x2="4798.38" y2="13895.96"/><line class="cls-2" x1="4901.75" y1="13975.25" x2="4143.31" y2="13975.25"/><path class="cls-2" d="M4152.68,14077.61a40,40,0,0,0-40,39.7,39.41,39.41,0,0,0,11.75,28c7.81,7.77,16.67,11.67,28.23,11.67" transform="translate(-9.19 -181.68)"/><path class="cls-2" d="M4170.28,14156.77a40,40,0,0,1-40-39.7,39.43,39.43,0,0,1,11.74-28c7.81-7.77,16.67-11.67,28.23-11.67" transform="translate(-9.19 -181.68)"/><path class="cls-2" d="M4189.61,14157a40,40,0,0,1-40-39.69,39.41,39.41,0,0,1,11.74-28c7.81-7.76,16.67-11.67,28.23-11.67" transform="translate(-9.19 -181.68)"/><path class="cls-2" d="M4807.54,14077.41a40,40,0,0,0,40-39.7,39.47,39.47,0,0,0-11.74-28c-7.82-7.76-16.68-11.66-28.23-11.66" transform="translate(-9.19 -181.68)"/></g><g class="cls-1"><line class="cls-2" x1="118.52" y1="15008.19" x2="579.12" y2="15008.19"/><line class="cls-2" x1="651.59" y1="15084.75" x2="119.85" y2="15084.75"/><path class="cls-2" d="M129.16,15189.84c-15.42,0-28,17.24-28,38.33,0,10.54,3.16,20.12,8.24,27.07,5.47,7.5,11.68,11.26,19.79,11.26" transform="translate(-9.19 -181.68)"/><path class="cls-2" d="M141.5,15266.28c-15.41,0-28-17.25-28-38.34,0-10.54,3.15-20.12,8.23-27.07,5.48-7.49,11.69-11.26,19.79-11.26" transform="translate(-9.19 -181.68)"/><path class="cls-2" d="M155.05,15266.49c-15.41,0-28-17.25-28-38.33,0-10.55,3.15-20.13,8.23-27.08,5.48-7.49,11.69-11.26,19.79-11.26" transform="translate(-9.19 -181.68)"/><path class="cls-2" d="M660,15343.18c15.41,0,28-17.24,28-38.33,0-10.54-3.16-20.13-8.24-27.07-5.47-7.5-11.68-11.26-19.79-11.26" transform="translate(-9.19 -181.68)"/><path class="cls-2" d="M433.12,15419.92c-15.41,0-28-17.25-28-38.33,0-10.54,3.15-20.13,8.23-27.07,5.48-7.5,11.69-11.27,19.79-11.27" transform="translate(-9.19 -181.68)"/><line class="cls-2" x1="422.76" y1="15238.29" x2="972.67" y2="15238.29"/><path class="cls-2" d="M646.92,15343.65c15.41,0,28-17.25,28-38.33,0-10.55-3.16-20.13-8.24-27.08-5.47-7.49-11.69-11.26-19.79-11.26" transform="translate(-9.19 -181.68)"/><line class="cls-2" x1="423.67" y1="15161.62" x2="651.87" y2="15161.41"/></g><g class="cls-1"><line class="cls-2" x1="4689.68" y1="15747.27" x2="5029.92" y2="15747.27"/><line class="cls-2" x1="5347.85" y1="15827.07" x2="4690.9" y2="15827.07"/><line class="cls-2" x1="4587.53" y1="15906.36" x2="5345.96" y2="15906.36"/><path class="cls-2" d="M5355,16008.72a40,40,0,0,1,40,39.7,39.44,39.44,0,0,1-11.75,28c-7.81,7.76-16.67,11.66-28.22,11.66" transform="translate(-9.19 -181.68)"/><path class="cls-2" d="M5337.38,16087.88a40,40,0,0,0,40-39.69,39.41,39.41,0,0,0-11.74-28c-7.81-7.76-16.67-11.67-28.23-11.67" transform="translate(-9.19 -181.68)"/><path class="cls-2" d="M5318.05,16088.11a40,40,0,0,0,40-39.7,39.42,39.42,0,0,0-11.75-28c-7.81-7.76-16.67-11.66-28.23-11.66" transform="translate(-9.19 -181.68)"/><path class="cls-2" d="M4700.13,16008.52a40,40,0,0,1-40-39.7,39.44,39.44,0,0,1,11.75-28c7.81-7.76,16.67-11.66,28.23-11.66" transform="translate(-9.19 -181.68)"/></g><g class="cls-1"><polygon class="cls-2" points="4587.23 768.66 4564.4 776.93 4480.23 781.79 4370.38 768.38 4386.64 792.91 4448.27 809.18 4550.99 810.03 4589.8 792.06 4606.63 760.1 4587.23 768.66"/><path class="cls-2" d="M4535.36,964,4569,905.55l-30.25-110.71-13.12,40.52-8.56,71.33S4527.66,966,4528.51,966A69.94,69.94,0,0,0,4535.36,964Z" transform="translate(-9.19 -181.68)"/></g><g class="cls-1"><polygon class="cls-2" points="4583.61 847.87 4560.79 839.6 4476.61 834.75 4366.76 848.16 4383.03 823.62 4444.66 807.36 4547.38 806.5 4586.18 824.48 4603.02 856.43 4583.61 847.87"/><path class="cls-2" d="M4531.75,1015.86l33.67,58.49-30.25,110.71-13.12-40.51-8.56-71.34s10.55-59.35,11.41-59.35A70.77,70.77,0,0,1,4531.75,1015.86Z" transform="translate(-9.19 -181.68)"/></g><g class="cls-1"><polygon class="cls-2" points="622.31 3977.09 640.37 3983.64 706.99 3987.48 793.92 3976.87 781.05 3996.28 732.28 4009.16 650.99 4009.83 620.28 3995.61 606.95 3970.32 622.31 3977.09"/><path class="cls-2" d="M679.82,4169.62l-26.64-46.29,23.93-87.62,10.39,32.07,6.78,56.45s-8.36,47-9,47A56.28,56.28,0,0,1,679.82,4169.62Z" transform="translate(-9.19 -181.68)"/></g><g class="cls-1"><polygon class="cls-2" points="625.17 4039.78 643.23 4033.23 709.85 4029.39 796.78 4040.01 783.91 4020.59 735.13 4007.71 653.85 4007.04 623.14 4021.26 609.81 4046.55 625.17 4039.78"/><path class="cls-2" d="M682.68,4210.62,656,4256.92,680,4344.53l10.39-32.07,6.77-56.45s-8.35-47-9-47A55.44,55.44,0,0,0,682.68,4210.62Z" transform="translate(-9.19 -181.68)"/></g></svg>