<svg id="图层_1" data-name="图层 1" xmlns="http://www.w3.org/2000/svg" xmlns:xlink="http://www.w3.org/1999/xlink" viewBox="0 0 1504.94 1010.15"><defs><style>.cls-1,.cls-7,.cls-8{fill:none;stroke-miterlimit:10;stroke-width:10px;}.cls-1{stroke:#527585;}.cls-2{fill:url(#未命名的渐变_593);}.cls-3{fill:url(#未命名的渐变_593-2);}.cls-4{fill:url(#未命名的渐变_593-3);}.cls-5{fill:url(#未命名的渐变_593-4);}.cls-6{fill:url(#未命名的渐变_593-5);}.cls-7{stroke:#87b9af;}.cls-8{stroke:#231815;}</style><linearGradient id="未命名的渐变_593" x1="-5541.31" y1="-5216.9" x2="-4973.96" y2="-5273.59" gradientTransform="matrix(0.1, -1.24, 1.37, 0.11, 8808.44, -5584.54)" gradientUnits="userSpaceOnUse"><stop offset="0" stop-color="#d39600"/><stop offset="0.1" stop-color="#cd9607"/><stop offset="0.24" stop-color="#be971c"/><stop offset="0.42" stop-color="#a5993e"/><stop offset="0.62" stop-color="#829b6d"/><stop offset="0.84" stop-color="#559da9"/><stop offset="1" stop-color="#319fda"/></linearGradient><linearGradient id="未命名的渐变_593-2" x1="-5519.41" y1="-5155.93" x2="-5045.84" y2="-5203.25" gradientTransform="matrix(0.12, -1.24, 1.37, 0.13, 8797.5, -5473.8)" xlink:href="#未命名的渐变_593"/><linearGradient id="未命名的渐变_593-3" x1="-5544.64" y1="-5246.46" x2="-5138.39" y2="-5287.06" gradientTransform="matrix(0.1, -1.24, 1.37, 0.11, 8816.42, -5625.32)" xlink:href="#未命名的渐变_593"/><linearGradient id="未命名的渐变_593-4" x1="-5571.38" y1="-5395.61" x2="-5244.83" y2="-5428.24" gradientTransform="matrix(0.06, -1.25, 1.37, 0.07, 8835.68, -5862.11)" xlink:href="#未命名的渐变_593"/><linearGradient id="未命名的渐变_593-5" x1="-7026.72" y1="-5494.74" x2="-6712.39" y2="-5526.15" gradientTransform="translate(6558.03 -6322.95) rotate(-90.1)" xlink:href="#未命名的渐变_593"/></defs><title>mid-mount</title><line class="cls-1" x1="700.73" y1="198.91" x2="923.89" y2="198.91"/><line class="cls-1" x1="960.58" y1="388.12" x2="1353.97" y2="388.12"/><line class="cls-1" x1="553.36" y1="468.45" x2="1176.78" y2="468.45"/><line class="cls-1" x1="1452.66" y1="562.88" x2="555.59" y2="562.88"/><line class="cls-1" x1="775.22" y1="627.06" x2="1021.88" y2="627.06"/><polygon class="cls-2" points="963.26 548.37 886.35 362.62 885.07 227.25 921.34 87.05 1013.49 0 1115.24 10.89 1208.24 94.61 1246.37 220.33 1214.55 403.07 1158.66 573.71 1112.78 707.48 1086.56 721.21 1046.41 684.86 963.26 548.37"/><polygon class="cls-3" points="979.51 564.51 912.05 381.86 942.75 163.98 1036.65 107.11 1174.66 163.2 1219.93 304.78 1191.63 449.14 1146.21 601.47 1091.19 709.85 979.51 564.51"/><polygon class="cls-4" points="995.37 587.9 935.53 434.42 958.2 249.64 1036.77 200.11 1154.36 245.47 1194.81 364.55 1180.49 492.2 1139.78 621.95 1091.84 716.26 995.37 587.9"/><polygon class="cls-5" points="1005.21 601.62 956.14 485.57 969.47 343.82 1028.47 304.25 1119.35 336.38 1152.84 426.55 1144.66 524.45 1116.35 624.52 1088.86 717.54 1005.21 601.62"/><polygon class="cls-6" points="1025.91 624.76 987.43 537.36 991.59 427.69 1031.36 394.88 1095.99 416.01 1122.65 484.1 1120.5 559.8 1096.57 702.47 1088.54 710.68 1025.91 624.76"/><path class="cls-1" d="M1105.64,1058.09h49.92a47.28,47.28,0,0,0,0-94.56h-49.92a47.28,47.28,0,1,1,0,94.56Z" transform="translate(-0.06 -242)"/><path class="cls-1" d="M1115.28,1058.07H961.74a47.28,47.28,0,0,0,0,94.56h153.54" transform="translate(-0.06 -242)"/><path class="cls-7" d="M906.37,775.21" transform="translate(-0.06 -242)"/><line class="cls-1" x1="1109.6" y1="721.54" x2="775.37" y2="721.54"/><path class="cls-1" d="M1111.06,1247.15a47.21,47.21,0,0,0,33.39-80.66c-9.24-9.25-19.72-13.89-33.39-13.89" transform="translate(-0.06 -242)"/><path class="cls-1" d="M776.49,869.06a47.21,47.21,0,0,0-33.39,80.66c9.24,9.25,19.72,13.89,33.39,13.89" transform="translate(-0.06 -242)"/><line class="cls-1" y1="1005.09" x2="1113.67" y2="1005.09"/><path class="cls-8" d="M620.38,793.77" transform="translate(-0.06 -242)"/><path class="cls-8" d="M620.38,699.22" transform="translate(-0.06 -242)"/><path class="cls-8" d="M620.38,793.77" transform="translate(-0.06 -242)"/><path class="cls-1" d="M620.38,874.66" transform="translate(-0.06 -242)"/><path class="cls-8" d="M620.38,860.94" transform="translate(-0.06 -242)"/><path class="cls-8" d="M620.38,699.22" transform="translate(-0.06 -242)"/><path class="cls-1" d="M1130.71,1058.07a47.22,47.22,0,0,0,33.39-80.67c-9.24-9.24-19.72-13.89-33.39-13.89" transform="translate(-0.06 -242)"/><path class="cls-1" d="M984.91,1057.88a47.22,47.22,0,0,0-33.39,80.67c9.24,9.24,19.72,13.89,33.39,13.89" transform="translate(-0.06 -242)"/><path class="cls-1" d="M802.4,868.93A47.21,47.21,0,0,0,769,949.59c9.23,9.25,19.71,13.89,33.39,13.89" transform="translate(-0.06 -242)"/><line class="cls-1" x1="848.3" y1="657.27" x2="1453.31" y2="657.27"/><path class="cls-1" d="M1452.72,899.43a47.21,47.21,0,0,0,33.39-80.66c-9.24-9.24-19.72-13.89-33.39-13.89" transform="translate(-0.06 -242)"/><path class="cls-1" d="M555.85,710.41a47.21,47.21,0,0,0-33.39,80.66c9.24,9.25,19.72,13.9,33.39,13.9" transform="translate(-0.06 -242)"/><path class="cls-1" d="M576.67,804.69A47.22,47.22,0,0,1,543.28,724c9.24-9.24,19.72-13.89,33.39-13.89" transform="translate(-0.06 -242)"/><path class="cls-1" d="M599.53,805a47.22,47.22,0,0,1-33.39-80.67c9.24-9.24,19.72-13.89,33.39-13.89" transform="translate(-0.06 -242)"/><path class="cls-1" d="M1353.77,630.11a47.22,47.22,0,0,0,33.39-80.67c-9.24-9.24-19.72-13.89-33.39-13.89" transform="translate(-0.06 -242)"/><path class="cls-1" d="M702.24,535.45a47.22,47.22,0,0,1-33.39-80.67c9.24-9.24,19.72-13.89,33.39-13.89" transform="translate(-0.06 -242)"/><path class="cls-1" d="M1332.18,630.23a47.22,47.22,0,0,0,33.39-80.67c-9.24-9.24-19.72-13.89-33.39-13.89" transform="translate(-0.06 -242)"/><line class="cls-1" x1="1353.71" y1="293.55" x2="701.55" y2="293.55"/></svg>